G04 #@! TF.GenerationSoftware,KiCad,Pcbnew,(5.1.12)-1*
G04 #@! TF.CreationDate,2022-03-18T17:00:28+09:00*
G04 #@! TF.ProjectId,NHK2022_Solenoid_Valve,4e484b32-3032-4325-9f53-6f6c656e6f69,rev?*
G04 #@! TF.SameCoordinates,PX42c1d80PY7bfa480*
G04 #@! TF.FileFunction,Soldermask,Bot*
G04 #@! TF.FilePolarity,Negative*
%FSLAX46Y46*%
G04 Gerber Fmt 4.6, Leading zero omitted, Abs format (unit mm)*
G04 Created by KiCad (PCBNEW (5.1.12)-1) date 2022-03-18 17:00:28*
%MOMM*%
%LPD*%
G01*
G04 APERTURE LIST*
%ADD10C,3.200000*%
%ADD11C,1.600000*%
%ADD12R,1.600000X1.600000*%
%ADD13O,1.700000X2.000000*%
%ADD14O,1.700000X1.700000*%
%ADD15R,1.700000X1.700000*%
%ADD16O,0.900000X2.000000*%
%ADD17O,0.900000X1.700000*%
%ADD18C,0.600000*%
%ADD19C,1.700000*%
%ADD20C,0.800000*%
G04 APERTURE END LIST*
D10*
X4000000Y70000000D03*
X94000000Y70000000D03*
X94000000Y4000000D03*
X4000000Y4000000D03*
D11*
X24500000Y70000000D03*
D12*
X27000000Y70000000D03*
X25000000Y7000000D03*
D11*
X22500000Y7000000D03*
D12*
X39500000Y18500000D03*
D11*
X36000000Y18500000D03*
G36*
G01*
X57650000Y7750000D02*
X57650000Y9250000D01*
G75*
G02*
X57900000Y9500000I250000J0D01*
G01*
X59100000Y9500000D01*
G75*
G02*
X59350000Y9250000I0J-250000D01*
G01*
X59350000Y7750000D01*
G75*
G02*
X59100000Y7500000I-250000J0D01*
G01*
X57900000Y7500000D01*
G75*
G02*
X57650000Y7750000I0J250000D01*
G01*
G37*
D13*
X61000000Y8500000D03*
G36*
G01*
X44850000Y66250000D02*
X44850000Y64750000D01*
G75*
G02*
X44600000Y64500000I-250000J0D01*
G01*
X43400000Y64500000D01*
G75*
G02*
X43150000Y64750000I0J250000D01*
G01*
X43150000Y66250000D01*
G75*
G02*
X43400000Y66500000I250000J0D01*
G01*
X44600000Y66500000D01*
G75*
G02*
X44850000Y66250000I0J-250000D01*
G01*
G37*
X41500000Y65500000D03*
G36*
G01*
X56350000Y66250000D02*
X56350000Y64750000D01*
G75*
G02*
X56100000Y64500000I-250000J0D01*
G01*
X54900000Y64500000D01*
G75*
G02*
X54650000Y64750000I0J250000D01*
G01*
X54650000Y66250000D01*
G75*
G02*
X54900000Y66500000I250000J0D01*
G01*
X56100000Y66500000D01*
G75*
G02*
X56350000Y66250000I0J-250000D01*
G01*
G37*
X53000000Y65500000D03*
X65000000Y65500000D03*
G36*
G01*
X68350000Y66250000D02*
X68350000Y64750000D01*
G75*
G02*
X68100000Y64500000I-250000J0D01*
G01*
X66900000Y64500000D01*
G75*
G02*
X66650000Y64750000I0J250000D01*
G01*
X66650000Y66250000D01*
G75*
G02*
X66900000Y66500000I250000J0D01*
G01*
X68100000Y66500000D01*
G75*
G02*
X68350000Y66250000I0J-250000D01*
G01*
G37*
X77000000Y65500000D03*
G36*
G01*
X80350000Y66250000D02*
X80350000Y64750000D01*
G75*
G02*
X80100000Y64500000I-250000J0D01*
G01*
X78900000Y64500000D01*
G75*
G02*
X78650000Y64750000I0J250000D01*
G01*
X78650000Y66250000D01*
G75*
G02*
X78900000Y66500000I250000J0D01*
G01*
X80100000Y66500000D01*
G75*
G02*
X80350000Y66250000I0J-250000D01*
G01*
G37*
G36*
G01*
X81150000Y7750000D02*
X81150000Y9250000D01*
G75*
G02*
X81400000Y9500000I250000J0D01*
G01*
X82600000Y9500000D01*
G75*
G02*
X82850000Y9250000I0J-250000D01*
G01*
X82850000Y7750000D01*
G75*
G02*
X82600000Y7500000I-250000J0D01*
G01*
X81400000Y7500000D01*
G75*
G02*
X81150000Y7750000I0J250000D01*
G01*
G37*
X84500000Y8500000D03*
X72500000Y8500000D03*
G36*
G01*
X69150000Y7750000D02*
X69150000Y9250000D01*
G75*
G02*
X69400000Y9500000I250000J0D01*
G01*
X70600000Y9500000D01*
G75*
G02*
X70850000Y9250000I0J-250000D01*
G01*
X70850000Y7750000D01*
G75*
G02*
X70600000Y7500000I-250000J0D01*
G01*
X69400000Y7500000D01*
G75*
G02*
X69150000Y7750000I0J250000D01*
G01*
G37*
X38500000Y8500000D03*
G36*
G01*
X35150000Y7750000D02*
X35150000Y9250000D01*
G75*
G02*
X35400000Y9500000I250000J0D01*
G01*
X36600000Y9500000D01*
G75*
G02*
X36850000Y9250000I0J-250000D01*
G01*
X36850000Y7750000D01*
G75*
G02*
X36600000Y7500000I-250000J0D01*
G01*
X35400000Y7500000D01*
G75*
G02*
X35150000Y7750000I0J250000D01*
G01*
G37*
G36*
G01*
X46400000Y7750000D02*
X46400000Y9250000D01*
G75*
G02*
X46650000Y9500000I250000J0D01*
G01*
X47850000Y9500000D01*
G75*
G02*
X48100000Y9250000I0J-250000D01*
G01*
X48100000Y7750000D01*
G75*
G02*
X47850000Y7500000I-250000J0D01*
G01*
X46650000Y7500000D01*
G75*
G02*
X46400000Y7750000I0J250000D01*
G01*
G37*
X49750000Y8500000D03*
D14*
X9000000Y46300000D03*
X9000000Y48840000D03*
X9000000Y51380000D03*
X9000000Y53920000D03*
X9000000Y56460000D03*
D15*
X9000000Y59000000D03*
D16*
X19120000Y67070000D03*
X10480000Y67070000D03*
D17*
X19120000Y71240000D03*
X10480000Y71240000D03*
D18*
X11910000Y67550000D03*
X17690000Y67550000D03*
D19*
X21250000Y13500000D03*
X23750000Y13500000D03*
X26250000Y13500000D03*
D15*
X9000000Y38500000D03*
D14*
X9000000Y35960000D03*
X9000000Y33420000D03*
X9000000Y30880000D03*
X9000000Y28340000D03*
X9000000Y25800000D03*
D18*
X6620000Y1460000D03*
X11700000Y1460000D03*
X16780000Y1460000D03*
X21860000Y1460000D03*
X26940000Y1460000D03*
X1540000Y12780000D03*
X1540000Y22940000D03*
X1540000Y17860000D03*
X1540000Y7700000D03*
X26800000Y42500000D03*
X26800000Y41400000D03*
X26800000Y40400000D03*
X26800000Y39400000D03*
X26800000Y38400000D03*
X26800000Y37400000D03*
D20*
X41190500Y27062400D03*
D18*
X29500000Y73000000D03*
X29500000Y67920000D03*
X29500000Y62840000D03*
X29500000Y57760000D03*
X29500000Y52680000D03*
X29500000Y47600000D03*
X29500000Y42520000D03*
X29500000Y37440000D03*
X29500000Y32360000D03*
X29500000Y27280000D03*
X29500000Y22200000D03*
X29500000Y17120000D03*
X29500000Y12040000D03*
X29500000Y6960000D03*
X29500000Y1880000D03*
X25900000Y42500000D03*
X25900000Y40400000D03*
X25900000Y37400000D03*
X25900000Y41400000D03*
X25900000Y39400000D03*
X25900000Y38400000D03*
X24100000Y42500000D03*
X24100000Y37400000D03*
X24100000Y40400000D03*
X24100000Y39400000D03*
X24100000Y41400000D03*
X24100000Y38400000D03*
X25000000Y42500000D03*
X25000000Y40400000D03*
X25000000Y37400000D03*
X25000000Y41400000D03*
X25000000Y39400000D03*
X25000000Y38400000D03*
X23200000Y40400000D03*
X23200000Y37400000D03*
X22300000Y38400000D03*
X22300000Y39400000D03*
X22300000Y42500000D03*
X22300000Y41400000D03*
X23200000Y42500000D03*
X22300000Y37400000D03*
X23200000Y41400000D03*
X23200000Y39400000D03*
X22300000Y40400000D03*
X23200000Y38400000D03*
X21400000Y42500000D03*
X21400000Y39400000D03*
X21400000Y37400000D03*
X21400000Y38400000D03*
X21400000Y41400000D03*
X21400000Y40400000D03*
X6080000Y58920000D03*
X6080000Y56380000D03*
X6080000Y53840000D03*
X6080000Y51300000D03*
X6080000Y48760000D03*
X6080000Y46220000D03*
X4080000Y56380000D03*
X4080000Y51300000D03*
X4080000Y46220000D03*
X4080000Y53840000D03*
X4080000Y58920000D03*
X4080000Y48760000D03*
X2080000Y48760000D03*
X2080000Y51300000D03*
X2080000Y53840000D03*
X2080000Y58920000D03*
X2080000Y56380000D03*
X2080000Y46220000D03*
X6080000Y38380000D03*
X6080000Y33300000D03*
X6080000Y28220000D03*
X6080000Y35840000D03*
X6080000Y30760000D03*
X2080000Y35840000D03*
X4080000Y30760000D03*
X4080000Y33300000D03*
X4080000Y35840000D03*
X4080000Y38380000D03*
X2080000Y30760000D03*
X4080000Y28220000D03*
X2080000Y33300000D03*
X2080000Y28220000D03*
X2080000Y38380000D03*
X2080000Y25720000D03*
X6080000Y25720000D03*
X4080000Y25720000D03*
X23000000Y45500000D03*
X24500000Y45500000D03*
X26000000Y45500000D03*
X23000000Y44000000D03*
X24500000Y44000000D03*
X26000000Y44000000D03*
X22000000Y36000000D03*
X23500000Y36000000D03*
X25000000Y36000000D03*
X22500000Y34500000D03*
X11500000Y8500000D03*
X11500000Y11500000D03*
X11500000Y15000000D03*
X15000000Y5500000D03*
X15000000Y7000000D03*
X10500000Y73000000D03*
X19000000Y73000000D03*
X21500000Y71000000D03*
X21500000Y69000000D03*
X21500000Y67000000D03*
X21500000Y65000000D03*
X21500000Y62500000D03*
X21500000Y60000000D03*
X19500000Y62500000D03*
X19500000Y65000000D03*
X23750000Y65000000D03*
X23750000Y67000000D03*
X23750000Y62500000D03*
X23750000Y60000000D03*
X26000000Y67000000D03*
X26000000Y65000000D03*
X26000000Y62500000D03*
X26000000Y60000000D03*
X26500000Y30250000D03*
X28250000Y30250000D03*
X28265000Y28515000D03*
X14500000Y25500000D03*
X12000000Y23500000D03*
X8500000Y15000000D03*
X18000000Y44500000D03*
X15600000Y47800000D03*
X13000000Y50400000D03*
X18000000Y33000000D03*
X13000000Y46000000D03*
X13000000Y41000000D03*
X13000000Y36000000D03*
X13000000Y33000000D03*
X18000000Y36000000D03*
X8000000Y71000000D03*
X8000000Y67000000D03*
X13000000Y71000000D03*
X16000000Y71000000D03*
X12000000Y55000000D03*
X14000000Y57000000D03*
X12000000Y57000000D03*
X12000000Y59000000D03*
X14000000Y59000000D03*
X16000000Y57000000D03*
X8500000Y11500000D03*
X17500000Y21500000D03*
X16000000Y20000000D03*
X17500000Y18000000D03*
X24500000Y19500000D03*
X26000000Y11500000D03*
X26000000Y9500000D03*
X24000000Y11500000D03*
X19000000Y12000000D03*
X19000000Y10000000D03*
X21000000Y10000000D03*
X8500000Y18500000D03*
X11500000Y18500000D03*
X20000000Y7000000D03*
X20000000Y5500000D03*
X57500000Y42750000D03*
X58770000Y42750000D03*
X57500000Y41480000D03*
X58770000Y41480000D03*
X57500000Y40210000D03*
X58770000Y40210000D03*
X57500000Y38940000D03*
X58770000Y38940000D03*
X57500000Y37670000D03*
X58770000Y37670000D03*
X57500000Y36400000D03*
X58770000Y36400000D03*
X57500000Y35130000D03*
X58770000Y35130000D03*
X53000000Y44100000D03*
X54270000Y44100000D03*
X53000000Y42830000D03*
X54270000Y42830000D03*
X53000000Y41560000D03*
X54270000Y41560000D03*
X53000000Y40290000D03*
X54270000Y40290000D03*
X53000000Y39020000D03*
X54270000Y39020000D03*
X53000000Y37750000D03*
X54270000Y37750000D03*
X53000000Y36480000D03*
X54270000Y36480000D03*
X53000000Y35210000D03*
X54270000Y35210000D03*
X53000000Y45370000D03*
X54270000Y45370000D03*
X51730000Y45370000D03*
X50460000Y45370000D03*
X49400000Y45000000D03*
D20*
X60600000Y32000000D03*
X60600000Y31000000D03*
X60600000Y30000000D03*
X60600000Y29000000D03*
X60600000Y28000000D03*
X59400000Y32000000D03*
X59400000Y31000000D03*
X59400000Y30000000D03*
X59400000Y29000000D03*
X59400000Y28000000D03*
X58200000Y30000000D03*
X58200000Y29000000D03*
X58200000Y28000000D03*
X57000000Y28000000D03*
X57000000Y29000000D03*
X55800000Y28000000D03*
D18*
X60400000Y45200000D03*
X61200000Y45200000D03*
X62800000Y37600000D03*
X62800000Y40000000D03*
D20*
X24446300Y23691800D03*
X16343300Y28843400D03*
D18*
X16400000Y61400000D03*
X14800000Y63000000D03*
X15568213Y63431787D03*
X17000000Y62000000D03*
X38000000Y29500000D03*
X38000000Y44000000D03*
X37000000Y29500000D03*
X37000000Y42500000D03*
X36000000Y29500000D03*
X36000000Y41500000D03*
X35000000Y40500000D03*
X35000000Y29500000D03*
X34000000Y29500000D03*
X34000000Y38500000D03*
X32000000Y31500000D03*
X32000000Y37500000D03*
X33000000Y36000000D03*
X33000000Y34500000D03*
M02*
