M48
; DRILL file {KiCad (5.1.12)-1} date 03/18/22 17:00:44
; FORMAT={3:3/ absolute / metric / suppress leading zeros}
; #@! TF.CreationDate,2022-03-18T17:00:44+09:00
; #@! TF.GenerationSoftware,Kicad,Pcbnew,(5.1.12)-1
FMAT,2
METRIC,TZ
T1C0.300
T2C0.400
T3C0.600
T4C0.800
T5C1.000
T6C0.600
T7C3.200
%
G90
G05
T1
X1540Y22940
X1540Y17860
X1540Y12780
X1540Y7700
X2080Y58920
X2080Y56380
X2080Y53840
X2080Y51300
X2080Y48760
X2080Y46220
X2080Y38380
X2080Y35840
X2080Y33300
X2080Y30760
X2080Y28220
X2080Y25720
X4080Y58920
X4080Y56380
X4080Y53840
X4080Y51300
X4080Y48760
X4080Y46220
X4080Y38380
X4080Y35840
X4080Y33300
X4080Y30760
X4080Y28220
X4080Y25720
X6080Y58920
X6080Y56380
X6080Y53840
X6080Y51300
X6080Y48760
X6080Y46220
X6080Y38380
X6080Y35840
X6080Y33300
X6080Y30760
X6080Y28220
X6080Y25720
X6620Y1460
X8000Y71000
X8000Y67000
X8500Y18500
X8500Y15000
X8500Y11500
X10500Y73000
X11500Y18500
X11500Y15000
X11500Y11500
X11500Y8500
X11700Y1460
X12000Y59000
X12000Y57000
X12000Y55000
X12000Y23500
X13000Y71000
X13000Y50400
X13000Y46000
X13000Y41000
X13000Y36000
X13000Y33000
X14000Y59000
X14000Y57000
X14500Y25500
X14800Y63000
X15000Y7000
X15000Y5500
X15568Y63432
X15600Y47800
X16000Y71000
X16000Y57000
X16000Y20000
X16400Y61400
X16780Y1460
X17000Y62000
X17500Y21500
X17500Y18000
X18000Y44500
X18000Y36000
X18000Y33000
X19000Y73000
X19000Y12000
X19000Y10000
X19500Y65000
X19500Y62500
X20000Y7000
X20000Y5500
X21000Y10000
X21400Y42500
X21400Y41400
X21400Y40400
X21400Y39400
X21400Y38400
X21400Y37400
X21500Y71000
X21500Y69000
X21500Y67000
X21500Y65000
X21500Y62500
X21500Y60000
X21860Y1460
X22000Y36000
X22300Y42500
X22300Y41400
X22300Y40400
X22300Y39400
X22300Y38400
X22300Y37400
X22500Y34500
X23000Y45500
X23000Y44000
X23200Y42500
X23200Y41400
X23200Y40400
X23200Y39400
X23200Y38400
X23200Y37400
X23500Y36000
X23750Y67000
X23750Y65000
X23750Y62500
X23750Y60000
X24000Y11500
X24100Y42500
X24100Y41400
X24100Y40400
X24100Y39400
X24100Y38400
X24100Y37400
X24500Y45500
X24500Y44000
X24500Y19500
X25000Y42500
X25000Y41400
X25000Y40400
X25000Y39400
X25000Y38400
X25000Y37400
X25000Y36000
X25900Y42500
X25900Y41400
X25900Y40400
X25900Y39400
X25900Y38400
X25900Y37400
X26000Y67000
X26000Y65000
X26000Y62500
X26000Y60000
X26000Y45500
X26000Y44000
X26000Y11500
X26000Y9500
X26500Y30250
X26800Y42500
X26800Y41400
X26800Y40400
X26800Y39400
X26800Y38400
X26800Y37400
X26940Y1460
X28250Y30250
X28265Y28515
X29500Y73000
X29500Y67920
X29500Y62840
X29500Y57760
X29500Y52680
X29500Y47600
X29500Y42520
X29500Y37440
X29500Y32360
X29500Y27280
X29500Y22200
X29500Y17120
X29500Y12040
X29500Y6960
X29500Y1880
X32000Y37500
X32000Y31500
X33000Y36000
X33000Y34500
X34000Y38500
X34000Y29500
X35000Y40500
X35000Y29500
X36000Y41500
X36000Y29500
X37000Y42500
X37000Y29500
X38000Y44000
X38000Y29500
X49400Y45000
X50460Y45370
X51730Y45370
X53000Y45370
X53000Y44100
X53000Y42830
X53000Y41560
X53000Y40290
X53000Y39020
X53000Y37750
X53000Y36480
X53000Y35210
X54270Y45370
X54270Y44100
X54270Y42830
X54270Y41560
X54270Y40290
X54270Y39020
X54270Y37750
X54270Y36480
X54270Y35210
X57500Y42750
X57500Y41480
X57500Y40210
X57500Y38940
X57500Y37670
X57500Y36400
X57500Y35130
X58770Y42750
X58770Y41480
X58770Y40210
X58770Y38940
X58770Y37670
X58770Y36400
X58770Y35130
X60400Y45200
X61200Y45200
X62800Y40000
X62800Y37600
T2
X16343Y28843
X24446Y23692
X41190Y27062
X55800Y28000
X57000Y29000
X57000Y28000
X58200Y30000
X58200Y29000
X58200Y28000
X59400Y32000
X59400Y31000
X59400Y30000
X59400Y29000
X59400Y28000
X60600Y32000
X60600Y31000
X60600Y30000
X60600Y29000
X60600Y28000
T4
X22500Y7000
X24500Y70000
X25000Y7000
X27000Y70000
X36000Y18500
X39500Y18500
T5
X9000Y59000
X9000Y56460
X9000Y53920
X9000Y51380
X9000Y48840
X9000Y46300
X9000Y38500
X9000Y35960
X9000Y33420
X9000Y30880
X9000Y28340
X9000Y25800
X21250Y13500
X23750Y13500
X26250Y13500
X36000Y8500
X38500Y8500
X41500Y65500
X44000Y65500
X47250Y8500
X49750Y8500
X53000Y65500
X55500Y65500
X58500Y8500
X61000Y8500
X65000Y65500
X67500Y65500
X70000Y8500
X72500Y8500
X77000Y65500
X79500Y65500
X82000Y8500
X84500Y8500
T6
X11910Y67550
X17690Y67550
T7
X4000Y70000
X4000Y4000
X94000Y70000
X94000Y4000
T3
G00X10480Y71640
M15
G01X10480Y70840
M16
G05
G00X10480Y67620
M15
G01X10480Y66520
M16
G05
G00X19120Y71640
M15
G01X19120Y70840
M16
G05
G00X19120Y67620
M15
G01X19120Y66520
M16
G05
T0
M30
