M48
; DRILL file {KiCad (5.1.12)-1} date 03/18/22 17:06:51
; FORMAT={-:-/ absolute / metric / decimal}
; #@! TF.CreationDate,2022-03-18T17:06:51+09:00
; #@! TF.GenerationSoftware,Kicad,Pcbnew,(5.1.12)-1
; #@! TF.FileFunction,Plated,1,2,PTH
FMAT,2
METRIC
T1C0.300
T2C0.400
T3C0.600
T4C0.800
T5C1.000
%
G90
G05
T1
X71.54Y-107.06
X71.54Y-112.14
X71.54Y-117.22
X71.54Y-122.3
X72.08Y-71.08
X72.08Y-73.62
X72.08Y-76.16
X72.08Y-78.7
X72.08Y-81.24
X72.08Y-83.78
X72.08Y-91.62
X72.08Y-94.16
X72.08Y-96.7
X72.08Y-99.24
X72.08Y-101.78
X72.08Y-104.28
X74.08Y-71.08
X74.08Y-73.62
X74.08Y-76.16
X74.08Y-78.7
X74.08Y-81.24
X74.08Y-83.78
X74.08Y-91.62
X74.08Y-94.16
X74.08Y-96.7
X74.08Y-99.24
X74.08Y-101.78
X74.08Y-104.28
X76.08Y-71.08
X76.08Y-73.62
X76.08Y-76.16
X76.08Y-78.7
X76.08Y-81.24
X76.08Y-83.78
X76.08Y-91.62
X76.08Y-94.16
X76.08Y-96.7
X76.08Y-99.24
X76.08Y-101.78
X76.08Y-104.28
X76.62Y-128.54
X78.0Y-59.0
X78.0Y-63.0
X78.5Y-111.5
X78.5Y-115.0
X78.5Y-118.5
X80.5Y-57.0
X81.5Y-111.5
X81.5Y-115.0
X81.5Y-118.5
X81.5Y-121.5
X81.7Y-128.54
X82.0Y-71.0
X82.0Y-73.0
X82.0Y-75.0
X82.0Y-106.5
X83.0Y-59.0
X83.0Y-79.6
X83.0Y-84.0
X83.0Y-89.0
X83.0Y-94.0
X83.0Y-97.0
X84.0Y-71.0
X84.0Y-73.0
X84.5Y-104.5
X84.8Y-67.0
X85.0Y-123.0
X85.0Y-124.5
X85.568Y-66.568
X85.6Y-82.2
X86.0Y-59.0
X86.0Y-73.0
X86.0Y-110.0
X86.4Y-68.6
X86.78Y-128.54
X87.0Y-68.0
X87.5Y-108.5
X87.5Y-112.0
X88.0Y-85.5
X88.0Y-94.0
X88.0Y-97.0
X89.0Y-57.0
X89.0Y-118.0
X89.0Y-120.0
X89.5Y-65.0
X89.5Y-67.5
X90.0Y-123.0
X90.0Y-124.5
X91.0Y-120.0
X91.4Y-87.5
X91.4Y-88.6
X91.4Y-89.6
X91.4Y-90.6
X91.4Y-91.6
X91.4Y-92.6
X91.5Y-59.0
X91.5Y-61.0
X91.5Y-63.0
X91.5Y-65.0
X91.5Y-67.5
X91.5Y-70.0
X91.86Y-128.54
X92.0Y-94.0
X92.3Y-87.5
X92.3Y-88.6
X92.3Y-89.6
X92.3Y-90.6
X92.3Y-91.6
X92.3Y-92.6
X92.5Y-95.5
X93.0Y-84.5
X93.0Y-86.0
X93.2Y-87.5
X93.2Y-88.6
X93.2Y-89.6
X93.2Y-90.6
X93.2Y-91.6
X93.2Y-92.6
X93.5Y-94.0
X93.75Y-63.0
X93.75Y-65.0
X93.75Y-67.5
X93.75Y-70.0
X94.0Y-118.5
X94.1Y-87.5
X94.1Y-88.6
X94.1Y-89.6
X94.1Y-90.6
X94.1Y-91.6
X94.1Y-92.6
X94.5Y-84.5
X94.5Y-86.0
X94.5Y-110.5
X95.0Y-87.5
X95.0Y-88.6
X95.0Y-89.6
X95.0Y-90.6
X95.0Y-91.6
X95.0Y-92.6
X95.0Y-94.0
X95.9Y-87.5
X95.9Y-88.6
X95.9Y-89.6
X95.9Y-90.6
X95.9Y-91.6
X95.9Y-92.6
X96.0Y-63.0
X96.0Y-65.0
X96.0Y-67.5
X96.0Y-70.0
X96.0Y-84.5
X96.0Y-86.0
X96.0Y-118.5
X96.0Y-120.5
X96.5Y-99.75
X96.8Y-87.5
X96.8Y-88.6
X96.8Y-89.6
X96.8Y-90.6
X96.8Y-91.6
X96.8Y-92.6
X96.94Y-128.54
X98.25Y-99.75
X98.265Y-101.485
X99.5Y-57.0
X99.5Y-62.08
X99.5Y-67.16
X99.5Y-72.24
X99.5Y-77.32
X99.5Y-82.4
X99.5Y-87.48
X99.5Y-92.56
X99.5Y-97.64
X99.5Y-102.72
X99.5Y-107.8
X99.5Y-112.88
X99.5Y-117.96
X99.5Y-123.04
X99.5Y-128.12
X102.0Y-92.5
X102.0Y-98.5
X103.0Y-94.0
X103.0Y-95.5
X104.0Y-91.5
X104.0Y-100.5
X105.0Y-89.5
X105.0Y-100.5
X106.0Y-88.5
X106.0Y-100.5
X107.0Y-87.5
X107.0Y-100.5
X108.0Y-86.0
X108.0Y-100.5
X119.4Y-85.0
X120.46Y-84.63
X121.73Y-84.63
X123.0Y-84.63
X123.0Y-85.9
X123.0Y-87.17
X123.0Y-88.44
X123.0Y-89.71
X123.0Y-90.98
X123.0Y-92.25
X123.0Y-93.52
X123.0Y-94.79
X124.27Y-84.63
X124.27Y-85.9
X124.27Y-87.17
X124.27Y-88.44
X124.27Y-89.71
X124.27Y-90.98
X124.27Y-92.25
X124.27Y-93.52
X124.27Y-94.79
X127.5Y-87.25
X127.5Y-88.52
X127.5Y-89.79
X127.5Y-91.06
X127.5Y-92.33
X127.5Y-93.6
X127.5Y-94.87
X128.77Y-87.25
X128.77Y-88.52
X128.77Y-89.79
X128.77Y-91.06
X128.77Y-92.33
X128.77Y-93.6
X128.77Y-94.87
X130.4Y-84.8
X131.2Y-84.8
X132.8Y-90.0
X132.8Y-92.4
T2
X86.343Y-101.157
X94.446Y-106.308
X111.191Y-102.938
X125.8Y-102.0
X127.0Y-101.0
X127.0Y-102.0
X128.2Y-100.0
X128.2Y-101.0
X128.2Y-102.0
X129.4Y-98.0
X129.4Y-99.0
X129.4Y-100.0
X129.4Y-101.0
X129.4Y-102.0
X130.6Y-98.0
X130.6Y-99.0
X130.6Y-100.0
X130.6Y-101.0
X130.6Y-102.0
T4
X92.5Y-123.0
X94.5Y-60.0
X95.0Y-123.0
X97.0Y-60.0
X106.0Y-111.5
X109.5Y-111.5
T5
X79.0Y-71.0
X79.0Y-73.54
X79.0Y-76.08
X79.0Y-78.62
X79.0Y-81.16
X79.0Y-83.7
X79.0Y-91.5
X79.0Y-94.04
X79.0Y-96.58
X79.0Y-99.12
X79.0Y-101.66
X79.0Y-104.2
X91.25Y-116.5
X93.75Y-116.5
X96.25Y-116.5
X106.0Y-121.5
X108.5Y-121.5
X111.5Y-64.5
X114.0Y-64.5
X117.25Y-121.5
X119.75Y-121.5
X123.0Y-64.5
X125.5Y-64.5
X128.5Y-121.5
X131.0Y-121.5
X135.0Y-64.5
X137.5Y-64.5
X140.0Y-121.5
X142.5Y-121.5
X147.0Y-64.5
X149.5Y-64.5
X152.0Y-121.5
X154.5Y-121.5
T3
G00X80.48Y-58.36
M15
G01X80.48Y-59.16
M16
G05
G00X80.48Y-62.38
M15
G01X80.48Y-63.48
M16
G05
G00X89.12Y-58.36
M15
G01X89.12Y-59.16
M16
G05
G00X89.12Y-62.38
M15
G01X89.12Y-63.48
M16
G05
T0
M30
