%TF.GenerationSoftware,KiCad,Pcbnew,(5.1.12)-1*%
%TF.CreationDate,2022-03-18T17:06:51+09:00*%
%TF.ProjectId,NHK2022_Solenoid_Valve,4e484b32-3032-4325-9f53-6f6c656e6f69,rev?*%
%TF.SameCoordinates,PX42c1d80PY7bfa480*%
%TF.FileFunction,Soldermask,Bot*%
%TF.FilePolarity,Negative*%
%FSLAX46Y46*%
G04 Gerber Fmt 4.6, Leading zero omitted, Abs format (unit mm)*
G04 Created by KiCad (PCBNEW (5.1.12)-1) date 2022-03-18 17:06:51*
%MOMM*%
%LPD*%
G01*
G04 APERTURE LIST*
%TA.AperFunction,Profile*%
%ADD10C,0.050000*%
%TD*%
%ADD11C,3.200000*%
%ADD12C,1.600000*%
%ADD13R,1.600000X1.600000*%
%ADD14O,1.700000X2.000000*%
%ADD15O,1.700000X1.700000*%
%ADD16R,1.700000X1.700000*%
%ADD17O,0.900000X2.000000*%
%ADD18O,0.900000X1.700000*%
%ADD19C,0.600000*%
%ADD20C,1.700000*%
G04 APERTURE END LIST*
D10*
X140000000Y-56000000D02*
X164000000Y-56000000D01*
X164000000Y-130000000D02*
X140000000Y-130000000D01*
X168000000Y-60000000D02*
X168000000Y-126000000D01*
X164000000Y-56000000D02*
G75*
G02*
X168000000Y-60000000I0J-4000000D01*
G01*
X168000000Y-126000000D02*
G75*
G02*
X164000000Y-130000000I-4000000J0D01*
G01*
X74000000Y-56000000D02*
X140000000Y-56000000D01*
X70000000Y-60000000D02*
G75*
G02*
X74000000Y-56000000I4000000J0D01*
G01*
X70000000Y-60000000D02*
X70000000Y-126000000D01*
X74000000Y-130000000D02*
X140000000Y-130000000D01*
X74000000Y-130000000D02*
G75*
G02*
X70000000Y-126000000I0J4000000D01*
G01*
D11*
%TO.C,REF1*%
X74000000Y-60000000D03*
%TD*%
%TO.C,REF2*%
X164000000Y-60000000D03*
%TD*%
%TO.C,REF3*%
X164000000Y-126000000D03*
%TD*%
%TO.C,REF4*%
X74000000Y-126000000D03*
%TD*%
D12*
%TO.C,C3*%
X94500000Y-60000000D03*
D13*
X97000000Y-60000000D03*
%TD*%
%TO.C,C10*%
X95000000Y-123000000D03*
D12*
X92500000Y-123000000D03*
%TD*%
D13*
%TO.C,C1*%
X109500000Y-111500000D03*
D12*
X106000000Y-111500000D03*
%TD*%
%TO.C,J1*%
G36*
G01*
X127650000Y-122250000D02*
X127650000Y-120750000D01*
G75*
G02*
X127900000Y-120500000I250000J0D01*
G01*
X129100000Y-120500000D01*
G75*
G02*
X129350000Y-120750000I0J-250000D01*
G01*
X129350000Y-122250000D01*
G75*
G02*
X129100000Y-122500000I-250000J0D01*
G01*
X127900000Y-122500000D01*
G75*
G02*
X127650000Y-122250000I0J250000D01*
G01*
G37*
D14*
X131000000Y-121500000D03*
%TD*%
%TO.C,J2*%
G36*
G01*
X114850000Y-63750000D02*
X114850000Y-65250000D01*
G75*
G02*
X114600000Y-65500000I-250000J0D01*
G01*
X113400000Y-65500000D01*
G75*
G02*
X113150000Y-65250000I0J250000D01*
G01*
X113150000Y-63750000D01*
G75*
G02*
X113400000Y-63500000I250000J0D01*
G01*
X114600000Y-63500000D01*
G75*
G02*
X114850000Y-63750000I0J-250000D01*
G01*
G37*
X111500000Y-64500000D03*
%TD*%
%TO.C,J3*%
G36*
G01*
X126350000Y-63750000D02*
X126350000Y-65250000D01*
G75*
G02*
X126100000Y-65500000I-250000J0D01*
G01*
X124900000Y-65500000D01*
G75*
G02*
X124650000Y-65250000I0J250000D01*
G01*
X124650000Y-63750000D01*
G75*
G02*
X124900000Y-63500000I250000J0D01*
G01*
X126100000Y-63500000D01*
G75*
G02*
X126350000Y-63750000I0J-250000D01*
G01*
G37*
X123000000Y-64500000D03*
%TD*%
%TO.C,J4*%
X135000000Y-64500000D03*
G36*
G01*
X138350000Y-63750000D02*
X138350000Y-65250000D01*
G75*
G02*
X138100000Y-65500000I-250000J0D01*
G01*
X136900000Y-65500000D01*
G75*
G02*
X136650000Y-65250000I0J250000D01*
G01*
X136650000Y-63750000D01*
G75*
G02*
X136900000Y-63500000I250000J0D01*
G01*
X138100000Y-63500000D01*
G75*
G02*
X138350000Y-63750000I0J-250000D01*
G01*
G37*
%TD*%
%TO.C,J5*%
X147000000Y-64500000D03*
G36*
G01*
X150350000Y-63750000D02*
X150350000Y-65250000D01*
G75*
G02*
X150100000Y-65500000I-250000J0D01*
G01*
X148900000Y-65500000D01*
G75*
G02*
X148650000Y-65250000I0J250000D01*
G01*
X148650000Y-63750000D01*
G75*
G02*
X148900000Y-63500000I250000J0D01*
G01*
X150100000Y-63500000D01*
G75*
G02*
X150350000Y-63750000I0J-250000D01*
G01*
G37*
%TD*%
%TO.C,J6*%
G36*
G01*
X151150000Y-122250000D02*
X151150000Y-120750000D01*
G75*
G02*
X151400000Y-120500000I250000J0D01*
G01*
X152600000Y-120500000D01*
G75*
G02*
X152850000Y-120750000I0J-250000D01*
G01*
X152850000Y-122250000D01*
G75*
G02*
X152600000Y-122500000I-250000J0D01*
G01*
X151400000Y-122500000D01*
G75*
G02*
X151150000Y-122250000I0J250000D01*
G01*
G37*
X154500000Y-121500000D03*
%TD*%
%TO.C,J7*%
X142500000Y-121500000D03*
G36*
G01*
X139150000Y-122250000D02*
X139150000Y-120750000D01*
G75*
G02*
X139400000Y-120500000I250000J0D01*
G01*
X140600000Y-120500000D01*
G75*
G02*
X140850000Y-120750000I0J-250000D01*
G01*
X140850000Y-122250000D01*
G75*
G02*
X140600000Y-122500000I-250000J0D01*
G01*
X139400000Y-122500000D01*
G75*
G02*
X139150000Y-122250000I0J250000D01*
G01*
G37*
%TD*%
%TO.C,J8*%
X108500000Y-121500000D03*
G36*
G01*
X105150000Y-122250000D02*
X105150000Y-120750000D01*
G75*
G02*
X105400000Y-120500000I250000J0D01*
G01*
X106600000Y-120500000D01*
G75*
G02*
X106850000Y-120750000I0J-250000D01*
G01*
X106850000Y-122250000D01*
G75*
G02*
X106600000Y-122500000I-250000J0D01*
G01*
X105400000Y-122500000D01*
G75*
G02*
X105150000Y-122250000I0J250000D01*
G01*
G37*
%TD*%
%TO.C,J9*%
G36*
G01*
X116400000Y-122250000D02*
X116400000Y-120750000D01*
G75*
G02*
X116650000Y-120500000I250000J0D01*
G01*
X117850000Y-120500000D01*
G75*
G02*
X118100000Y-120750000I0J-250000D01*
G01*
X118100000Y-122250000D01*
G75*
G02*
X117850000Y-122500000I-250000J0D01*
G01*
X116650000Y-122500000D01*
G75*
G02*
X116400000Y-122250000I0J250000D01*
G01*
G37*
X119750000Y-121500000D03*
%TD*%
D15*
%TO.C,UART*%
X79000000Y-83700000D03*
X79000000Y-81160000D03*
X79000000Y-78620000D03*
X79000000Y-76080000D03*
X79000000Y-73540000D03*
D16*
X79000000Y-71000000D03*
%TD*%
D17*
%TO.C,J12*%
X89120000Y-62930000D03*
X80480000Y-62930000D03*
D18*
X89120000Y-58760000D03*
X80480000Y-58760000D03*
D19*
X81910000Y-62450000D03*
X87690000Y-62450000D03*
%TD*%
D20*
%TO.C,Y1*%
X91250000Y-116500000D03*
X93750000Y-116500000D03*
X96250000Y-116500000D03*
%TD*%
D16*
%TO.C,ST-Link*%
X79000000Y-91500000D03*
D15*
X79000000Y-94040000D03*
X79000000Y-96580000D03*
X79000000Y-99120000D03*
X79000000Y-101660000D03*
X79000000Y-104200000D03*
%TD*%
M02*
