M48
; DRILL file {KiCad (5.1.12)-1} date 03/18/22 17:06:51
; FORMAT={-:-/ absolute / metric / decimal}
; #@! TF.CreationDate,2022-03-18T17:06:51+09:00
; #@! TF.GenerationSoftware,Kicad,Pcbnew,(5.1.12)-1
FMAT,2
METRIC
T1C0.300
T2C0.400
T3C0.600
T4C0.800
T5C1.000
T6C0.600
T7C3.200
%
G90
G05
T1
X1.54Y22.94
X1.54Y17.86
X1.54Y12.78
X1.54Y7.7
X2.08Y58.92
X2.08Y56.38
X2.08Y53.84
X2.08Y51.3
X2.08Y48.76
X2.08Y46.22
X2.08Y38.38
X2.08Y35.84
X2.08Y33.3
X2.08Y30.76
X2.08Y28.22
X2.08Y25.72
X4.08Y58.92
X4.08Y56.38
X4.08Y53.84
X4.08Y51.3
X4.08Y48.76
X4.08Y46.22
X4.08Y38.38
X4.08Y35.84
X4.08Y33.3
X4.08Y30.76
X4.08Y28.22
X4.08Y25.72
X6.08Y58.92
X6.08Y56.38
X6.08Y53.84
X6.08Y51.3
X6.08Y48.76
X6.08Y46.22
X6.08Y38.38
X6.08Y35.84
X6.08Y33.3
X6.08Y30.76
X6.08Y28.22
X6.08Y25.72
X6.62Y1.46
X8.0Y71.0
X8.0Y67.0
X8.5Y18.5
X8.5Y15.0
X8.5Y11.5
X10.5Y73.0
X11.5Y18.5
X11.5Y15.0
X11.5Y11.5
X11.5Y8.5
X11.7Y1.46
X12.0Y59.0
X12.0Y57.0
X12.0Y55.0
X12.0Y23.5
X13.0Y71.0
X13.0Y50.4
X13.0Y46.0
X13.0Y41.0
X13.0Y36.0
X13.0Y33.0
X14.0Y59.0
X14.0Y57.0
X14.5Y25.5
X14.8Y63.0
X15.0Y7.0
X15.0Y5.5
X15.568Y63.432
X15.6Y47.8
X16.0Y71.0
X16.0Y57.0
X16.0Y20.0
X16.4Y61.4
X16.78Y1.46
X17.0Y62.0
X17.5Y21.5
X17.5Y18.0
X18.0Y44.5
X18.0Y36.0
X18.0Y33.0
X19.0Y73.0
X19.0Y12.0
X19.0Y10.0
X19.5Y65.0
X19.5Y62.5
X20.0Y7.0
X20.0Y5.5
X21.0Y10.0
X21.4Y42.5
X21.4Y41.4
X21.4Y40.4
X21.4Y39.4
X21.4Y38.4
X21.4Y37.4
X21.5Y71.0
X21.5Y69.0
X21.5Y67.0
X21.5Y65.0
X21.5Y62.5
X21.5Y60.0
X21.86Y1.46
X22.0Y36.0
X22.3Y42.5
X22.3Y41.4
X22.3Y40.4
X22.3Y39.4
X22.3Y38.4
X22.3Y37.4
X22.5Y34.5
X23.0Y45.5
X23.0Y44.0
X23.2Y42.5
X23.2Y41.4
X23.2Y40.4
X23.2Y39.4
X23.2Y38.4
X23.2Y37.4
X23.5Y36.0
X23.75Y67.0
X23.75Y65.0
X23.75Y62.5
X23.75Y60.0
X24.0Y11.5
X24.1Y42.5
X24.1Y41.4
X24.1Y40.4
X24.1Y39.4
X24.1Y38.4
X24.1Y37.4
X24.5Y45.5
X24.5Y44.0
X24.5Y19.5
X25.0Y42.5
X25.0Y41.4
X25.0Y40.4
X25.0Y39.4
X25.0Y38.4
X25.0Y37.4
X25.0Y36.0
X25.9Y42.5
X25.9Y41.4
X25.9Y40.4
X25.9Y39.4
X25.9Y38.4
X25.9Y37.4
X26.0Y67.0
X26.0Y65.0
X26.0Y62.5
X26.0Y60.0
X26.0Y45.5
X26.0Y44.0
X26.0Y11.5
X26.0Y9.5
X26.5Y30.25
X26.8Y42.5
X26.8Y41.4
X26.8Y40.4
X26.8Y39.4
X26.8Y38.4
X26.8Y37.4
X26.94Y1.46
X28.25Y30.25
X28.265Y28.515
X29.5Y73.0
X29.5Y67.92
X29.5Y62.84
X29.5Y57.76
X29.5Y52.68
X29.5Y47.6
X29.5Y42.52
X29.5Y37.44
X29.5Y32.36
X29.5Y27.28
X29.5Y22.2
X29.5Y17.12
X29.5Y12.04
X29.5Y6.96
X29.5Y1.88
X32.0Y37.5
X32.0Y31.5
X33.0Y36.0
X33.0Y34.5
X34.0Y38.5
X34.0Y29.5
X35.0Y40.5
X35.0Y29.5
X36.0Y41.5
X36.0Y29.5
X37.0Y42.5
X37.0Y29.5
X38.0Y44.0
X38.0Y29.5
X49.4Y45.0
X50.46Y45.37
X51.73Y45.37
X53.0Y45.37
X53.0Y44.1
X53.0Y42.83
X53.0Y41.56
X53.0Y40.29
X53.0Y39.02
X53.0Y37.75
X53.0Y36.48
X53.0Y35.21
X54.27Y45.37
X54.27Y44.1
X54.27Y42.83
X54.27Y41.56
X54.27Y40.29
X54.27Y39.02
X54.27Y37.75
X54.27Y36.48
X54.27Y35.21
X57.5Y42.75
X57.5Y41.48
X57.5Y40.21
X57.5Y38.94
X57.5Y37.67
X57.5Y36.4
X57.5Y35.13
X58.77Y42.75
X58.77Y41.48
X58.77Y40.21
X58.77Y38.94
X58.77Y37.67
X58.77Y36.4
X58.77Y35.13
X60.4Y45.2
X61.2Y45.2
X62.8Y40.0
X62.8Y37.6
T2
X16.343Y28.843
X24.446Y23.692
X41.191Y27.062
X55.8Y28.0
X57.0Y29.0
X57.0Y28.0
X58.2Y30.0
X58.2Y29.0
X58.2Y28.0
X59.4Y32.0
X59.4Y31.0
X59.4Y30.0
X59.4Y29.0
X59.4Y28.0
X60.6Y32.0
X60.6Y31.0
X60.6Y30.0
X60.6Y29.0
X60.6Y28.0
T4
X22.5Y7.0
X24.5Y70.0
X25.0Y7.0
X27.0Y70.0
X36.0Y18.5
X39.5Y18.5
T5
X9.0Y59.0
X9.0Y56.46
X9.0Y53.92
X9.0Y51.38
X9.0Y48.84
X9.0Y46.3
X9.0Y38.5
X9.0Y35.96
X9.0Y33.42
X9.0Y30.88
X9.0Y28.34
X9.0Y25.8
X21.25Y13.5
X23.75Y13.5
X26.25Y13.5
X36.0Y8.5
X38.5Y8.5
X41.5Y65.5
X44.0Y65.5
X47.25Y8.5
X49.75Y8.5
X53.0Y65.5
X55.5Y65.5
X58.5Y8.5
X61.0Y8.5
X65.0Y65.5
X67.5Y65.5
X70.0Y8.5
X72.5Y8.5
X77.0Y65.5
X79.5Y65.5
X82.0Y8.5
X84.5Y8.5
T6
X11.91Y67.55
X17.69Y67.55
T7
X4.0Y70.0
X4.0Y4.0
X94.0Y70.0
X94.0Y4.0
T3
G00X10.48Y71.64
M15
G01X10.48Y70.84
M16
G05
G00X10.48Y67.62
M15
G01X10.48Y66.52
M16
G05
G00X19.12Y71.64
M15
G01X19.12Y70.84
M16
G05
G00X19.12Y67.62
M15
G01X19.12Y66.52
M16
G05
T0
M30
