%TF.GenerationSoftware,KiCad,Pcbnew,(5.1.12)-1*%
%TF.CreationDate,2022-03-18T17:06:51+09:00*%
%TF.ProjectId,NHK2022_Solenoid_Valve,4e484b32-3032-4325-9f53-6f6c656e6f69,rev?*%
%TF.SameCoordinates,PX42c1d80PY7bfa480*%
%TF.FileFunction,Copper,L2,Bot*%
%TF.FilePolarity,Positive*%
%FSLAX46Y46*%
G04 Gerber Fmt 4.6, Leading zero omitted, Abs format (unit mm)*
G04 Created by KiCad (PCBNEW (5.1.12)-1) date 2022-03-18 17:06:51*
%MOMM*%
%LPD*%
G01*
G04 APERTURE LIST*
%TA.AperFunction,Profile*%
%ADD10C,0.050000*%
%TD*%
%TA.AperFunction,ComponentPad*%
%ADD11C,1.600000*%
%TD*%
%TA.AperFunction,ComponentPad*%
%ADD12R,1.600000X1.600000*%
%TD*%
%TA.AperFunction,ComponentPad*%
%ADD13O,1.700000X2.000000*%
%TD*%
%TA.AperFunction,ComponentPad*%
%ADD14O,1.700000X1.700000*%
%TD*%
%TA.AperFunction,ComponentPad*%
%ADD15R,1.700000X1.700000*%
%TD*%
%TA.AperFunction,ComponentPad*%
%ADD16O,0.900000X2.000000*%
%TD*%
%TA.AperFunction,ComponentPad*%
%ADD17O,0.900000X1.700000*%
%TD*%
%TA.AperFunction,ComponentPad*%
%ADD18C,1.700000*%
%TD*%
%TA.AperFunction,ViaPad*%
%ADD19C,0.600000*%
%TD*%
%TA.AperFunction,ViaPad*%
%ADD20C,0.800000*%
%TD*%
%TA.AperFunction,Conductor*%
%ADD21C,0.500000*%
%TD*%
%TA.AperFunction,Conductor*%
%ADD22C,0.250000*%
%TD*%
%TA.AperFunction,Conductor*%
%ADD23C,0.254000*%
%TD*%
%TA.AperFunction,Conductor*%
%ADD24C,0.100000*%
%TD*%
%ADD25C,0.300000*%
%ADD26C,0.350000*%
%ADD27O,0.600000X1.700000*%
%ADD28O,0.600000X1.400000*%
G04 APERTURE END LIST*
D10*
X70000000Y74000000D02*
X94000000Y74000000D01*
X94000000Y0D02*
X70000000Y0D01*
X98000000Y70000000D02*
X98000000Y4000000D01*
X94000000Y74000000D02*
G75*
G02*
X98000000Y70000000I0J-4000000D01*
G01*
X98000000Y4000000D02*
G75*
G02*
X94000000Y0I-4000000J0D01*
G01*
X4000000Y74000000D02*
X70000000Y74000000D01*
X0Y70000000D02*
G75*
G02*
X4000000Y74000000I4000000J0D01*
G01*
X0Y70000000D02*
X0Y4000000D01*
X4000000Y0D02*
X70000000Y0D01*
X4000000Y0D02*
G75*
G02*
X0Y4000000I0J4000000D01*
G01*
D11*
%TO.P,C3,2*%
%TO.N,GND*%
X24500000Y70000000D03*
D12*
%TO.P,C3,1*%
%TO.N,+5V*%
X27000000Y70000000D03*
%TD*%
%TO.P,C10,1*%
%TO.N,+3V3*%
X25000000Y7000000D03*
D11*
%TO.P,C10,2*%
%TO.N,GND*%
X22500000Y7000000D03*
%TD*%
D12*
%TO.P,C1,1*%
%TO.N,VCC*%
X39500000Y18500000D03*
D11*
%TO.P,C1,2*%
%TO.N,GND*%
X36000000Y18500000D03*
%TD*%
%TO.P,J1,1*%
%TO.N,/O1*%
%TA.AperFunction,ComponentPad*%
G36*
G01*
X57650000Y7750000D02*
X57650000Y9250000D01*
G75*
G02*
X57900000Y9500000I250000J0D01*
G01*
X59100000Y9500000D01*
G75*
G02*
X59350000Y9250000I0J-250000D01*
G01*
X59350000Y7750000D01*
G75*
G02*
X59100000Y7500000I-250000J0D01*
G01*
X57900000Y7500000D01*
G75*
G02*
X57650000Y7750000I0J250000D01*
G01*
G37*
%TD.AperFunction*%
D13*
%TO.P,J1,2*%
%TO.N,VCC*%
X61000000Y8500000D03*
%TD*%
%TO.P,J2,1*%
%TO.N,/O2*%
%TA.AperFunction,ComponentPad*%
G36*
G01*
X44850000Y66250000D02*
X44850000Y64750000D01*
G75*
G02*
X44600000Y64500000I-250000J0D01*
G01*
X43400000Y64500000D01*
G75*
G02*
X43150000Y64750000I0J250000D01*
G01*
X43150000Y66250000D01*
G75*
G02*
X43400000Y66500000I250000J0D01*
G01*
X44600000Y66500000D01*
G75*
G02*
X44850000Y66250000I0J-250000D01*
G01*
G37*
%TD.AperFunction*%
%TO.P,J2,2*%
%TO.N,VCC*%
X41500000Y65500000D03*
%TD*%
%TO.P,J3,1*%
%TO.N,/O3*%
%TA.AperFunction,ComponentPad*%
G36*
G01*
X56350000Y66250000D02*
X56350000Y64750000D01*
G75*
G02*
X56100000Y64500000I-250000J0D01*
G01*
X54900000Y64500000D01*
G75*
G02*
X54650000Y64750000I0J250000D01*
G01*
X54650000Y66250000D01*
G75*
G02*
X54900000Y66500000I250000J0D01*
G01*
X56100000Y66500000D01*
G75*
G02*
X56350000Y66250000I0J-250000D01*
G01*
G37*
%TD.AperFunction*%
%TO.P,J3,2*%
%TO.N,VCC*%
X53000000Y65500000D03*
%TD*%
%TO.P,J4,2*%
%TO.N,VCC*%
X65000000Y65500000D03*
%TO.P,J4,1*%
%TO.N,/O4*%
%TA.AperFunction,ComponentPad*%
G36*
G01*
X68350000Y66250000D02*
X68350000Y64750000D01*
G75*
G02*
X68100000Y64500000I-250000J0D01*
G01*
X66900000Y64500000D01*
G75*
G02*
X66650000Y64750000I0J250000D01*
G01*
X66650000Y66250000D01*
G75*
G02*
X66900000Y66500000I250000J0D01*
G01*
X68100000Y66500000D01*
G75*
G02*
X68350000Y66250000I0J-250000D01*
G01*
G37*
%TD.AperFunction*%
%TD*%
%TO.P,J5,2*%
%TO.N,VCC*%
X77000000Y65500000D03*
%TO.P,J5,1*%
%TO.N,/O5*%
%TA.AperFunction,ComponentPad*%
G36*
G01*
X80350000Y66250000D02*
X80350000Y64750000D01*
G75*
G02*
X80100000Y64500000I-250000J0D01*
G01*
X78900000Y64500000D01*
G75*
G02*
X78650000Y64750000I0J250000D01*
G01*
X78650000Y66250000D01*
G75*
G02*
X78900000Y66500000I250000J0D01*
G01*
X80100000Y66500000D01*
G75*
G02*
X80350000Y66250000I0J-250000D01*
G01*
G37*
%TD.AperFunction*%
%TD*%
%TO.P,J6,1*%
%TO.N,/O6*%
%TA.AperFunction,ComponentPad*%
G36*
G01*
X81150000Y7750000D02*
X81150000Y9250000D01*
G75*
G02*
X81400000Y9500000I250000J0D01*
G01*
X82600000Y9500000D01*
G75*
G02*
X82850000Y9250000I0J-250000D01*
G01*
X82850000Y7750000D01*
G75*
G02*
X82600000Y7500000I-250000J0D01*
G01*
X81400000Y7500000D01*
G75*
G02*
X81150000Y7750000I0J250000D01*
G01*
G37*
%TD.AperFunction*%
%TO.P,J6,2*%
%TO.N,VCC*%
X84500000Y8500000D03*
%TD*%
%TO.P,J7,2*%
%TO.N,VCC*%
X72500000Y8500000D03*
%TO.P,J7,1*%
%TO.N,/O7*%
%TA.AperFunction,ComponentPad*%
G36*
G01*
X69150000Y7750000D02*
X69150000Y9250000D01*
G75*
G02*
X69400000Y9500000I250000J0D01*
G01*
X70600000Y9500000D01*
G75*
G02*
X70850000Y9250000I0J-250000D01*
G01*
X70850000Y7750000D01*
G75*
G02*
X70600000Y7500000I-250000J0D01*
G01*
X69400000Y7500000D01*
G75*
G02*
X69150000Y7750000I0J250000D01*
G01*
G37*
%TD.AperFunction*%
%TD*%
%TO.P,J8,2*%
%TO.N,GND*%
X38500000Y8500000D03*
%TO.P,J8,1*%
%TO.N,VCC*%
%TA.AperFunction,ComponentPad*%
G36*
G01*
X35150000Y7750000D02*
X35150000Y9250000D01*
G75*
G02*
X35400000Y9500000I250000J0D01*
G01*
X36600000Y9500000D01*
G75*
G02*
X36850000Y9250000I0J-250000D01*
G01*
X36850000Y7750000D01*
G75*
G02*
X36600000Y7500000I-250000J0D01*
G01*
X35400000Y7500000D01*
G75*
G02*
X35150000Y7750000I0J250000D01*
G01*
G37*
%TD.AperFunction*%
%TD*%
%TO.P,J9,1*%
%TO.N,/O8*%
%TA.AperFunction,ComponentPad*%
G36*
G01*
X46400000Y7750000D02*
X46400000Y9250000D01*
G75*
G02*
X46650000Y9500000I250000J0D01*
G01*
X47850000Y9500000D01*
G75*
G02*
X48100000Y9250000I0J-250000D01*
G01*
X48100000Y7750000D01*
G75*
G02*
X47850000Y7500000I-250000J0D01*
G01*
X46650000Y7500000D01*
G75*
G02*
X46400000Y7750000I0J250000D01*
G01*
G37*
%TD.AperFunction*%
%TO.P,J9,2*%
%TO.N,VCC*%
X49750000Y8500000D03*
%TD*%
D14*
%TO.P,UART,6*%
%TO.N,GND*%
X9000000Y46300000D03*
%TO.P,UART,5*%
X9000000Y48840000D03*
%TO.P,UART,4*%
%TO.N,Net-(D18-Pad2)*%
X9000000Y51380000D03*
%TO.P,UART,3*%
%TO.N,/Sheet62278BAE/UART_RX*%
X9000000Y53920000D03*
%TO.P,UART,2*%
%TO.N,/Sheet62278BAE/UART_TX*%
X9000000Y56460000D03*
D15*
%TO.P,UART,1*%
%TO.N,Net-(J10-Pad1)*%
X9000000Y59000000D03*
%TD*%
D16*
%TO.P,J12,S1*%
%TO.N,GND*%
X19120000Y67070000D03*
X10480000Y67070000D03*
D17*
X19120000Y71240000D03*
X10480000Y71240000D03*
%TD*%
D18*
%TO.P,Y1,1*%
%TO.N,Net-(U2-Pad2)*%
X21250000Y13500000D03*
%TO.P,Y1,2*%
%TO.N,GND*%
X23750000Y13500000D03*
%TO.P,Y1,3*%
%TO.N,Net-(U2-Pad3)*%
X26250000Y13500000D03*
%TD*%
D15*
%TO.P,ST-Link,1*%
%TO.N,+3V3*%
X9000000Y38500000D03*
D14*
%TO.P,ST-Link,2*%
%TO.N,/Sheet62278BAE/SWCLK*%
X9000000Y35960000D03*
%TO.P,ST-Link,3*%
%TO.N,GND*%
X9000000Y33420000D03*
%TO.P,ST-Link,4*%
%TO.N,/Sheet62278BAE/SWDIO*%
X9000000Y30880000D03*
%TO.P,ST-Link,5*%
%TO.N,/Sheet62278BAE/NRST*%
X9000000Y28340000D03*
%TO.P,ST-Link,6*%
%TO.N,/Sheet62278BAE/SWO*%
X9000000Y25800000D03*
%TD*%
D19*
%TO.N,GND*%
X6620000Y1460000D03*
X11700000Y1460000D03*
X16780000Y1460000D03*
X21860000Y1460000D03*
X26940000Y1460000D03*
X1540000Y12780000D03*
X1540000Y22940000D03*
X1540000Y17860000D03*
X1540000Y7700000D03*
X26800000Y42500000D03*
X26800000Y41400000D03*
X26800000Y40400000D03*
X26800000Y39400000D03*
X26800000Y38400000D03*
X26800000Y37400000D03*
D20*
X41190500Y27062400D03*
D19*
X29500000Y73000000D03*
X29500000Y67920000D03*
X29500000Y62840000D03*
X29500000Y57760000D03*
X29500000Y52680000D03*
X29500000Y47600000D03*
X29500000Y42520000D03*
X29500000Y37440000D03*
X29500000Y32360000D03*
X29500000Y27280000D03*
X29500000Y22200000D03*
X29500000Y17120000D03*
X29500000Y12040000D03*
X29500000Y6960000D03*
X29500000Y1880000D03*
X25900000Y42500000D03*
X25900000Y40400000D03*
X25900000Y37400000D03*
X25900000Y41400000D03*
X25900000Y39400000D03*
X25900000Y38400000D03*
X24100000Y42500000D03*
X24100000Y37400000D03*
X24100000Y40400000D03*
X24100000Y39400000D03*
X24100000Y41400000D03*
X24100000Y38400000D03*
X25000000Y42500000D03*
X25000000Y40400000D03*
X25000000Y37400000D03*
X25000000Y41400000D03*
X25000000Y39400000D03*
X25000000Y38400000D03*
X23200000Y40400000D03*
X23200000Y37400000D03*
X22300000Y38400000D03*
X22300000Y39400000D03*
X22300000Y42500000D03*
X22300000Y41400000D03*
X23200000Y42500000D03*
X22300000Y37400000D03*
X23200000Y41400000D03*
X23200000Y39400000D03*
X22300000Y40400000D03*
X23200000Y38400000D03*
X21400000Y42500000D03*
X21400000Y39400000D03*
X21400000Y37400000D03*
X21400000Y38400000D03*
X21400000Y41400000D03*
X21400000Y40400000D03*
X6080000Y58920000D03*
X6080000Y56380000D03*
X6080000Y53840000D03*
X6080000Y51300000D03*
X6080000Y48760000D03*
X6080000Y46220000D03*
X4080000Y56380000D03*
X4080000Y51300000D03*
X4080000Y46220000D03*
X4080000Y53840000D03*
X4080000Y58920000D03*
X4080000Y48760000D03*
X2080000Y48760000D03*
X2080000Y51300000D03*
X2080000Y53840000D03*
X2080000Y58920000D03*
X2080000Y56380000D03*
X2080000Y46220000D03*
X6080000Y38380000D03*
X6080000Y33300000D03*
X6080000Y28220000D03*
X6080000Y35840000D03*
X6080000Y30760000D03*
X2080000Y35840000D03*
X4080000Y30760000D03*
X4080000Y33300000D03*
X4080000Y35840000D03*
X4080000Y38380000D03*
X2080000Y30760000D03*
X4080000Y28220000D03*
X2080000Y33300000D03*
X2080000Y28220000D03*
X2080000Y38380000D03*
X2080000Y25720000D03*
X6080000Y25720000D03*
X4080000Y25720000D03*
X23000000Y45500000D03*
X24500000Y45500000D03*
X26000000Y45500000D03*
X23000000Y44000000D03*
X24500000Y44000000D03*
X26000000Y44000000D03*
X22000000Y36000000D03*
X23500000Y36000000D03*
X25000000Y36000000D03*
X22500000Y34500000D03*
X11500000Y8500000D03*
X11500000Y11500000D03*
X11500000Y15000000D03*
X15000000Y5500000D03*
X15000000Y7000000D03*
X10500000Y73000000D03*
X19000000Y73000000D03*
X21500000Y71000000D03*
X21500000Y69000000D03*
X21500000Y67000000D03*
X21500000Y65000000D03*
X21500000Y62500000D03*
X21500000Y60000000D03*
X19500000Y62500000D03*
X19500000Y65000000D03*
X23750000Y65000000D03*
X23750000Y67000000D03*
X23750000Y62500000D03*
X23750000Y60000000D03*
X26000000Y67000000D03*
X26000000Y65000000D03*
X26000000Y62500000D03*
X26000000Y60000000D03*
X26500000Y30250000D03*
X28250000Y30250000D03*
X28265000Y28515000D03*
X14500000Y25500000D03*
X12000000Y23500000D03*
X8500000Y15000000D03*
X18000000Y44500000D03*
X15600000Y47800000D03*
X13000000Y50400000D03*
X18000000Y33000000D03*
X13000000Y46000000D03*
X13000000Y41000000D03*
X13000000Y36000000D03*
X13000000Y33000000D03*
X18000000Y36000000D03*
X8000000Y71000000D03*
X8000000Y67000000D03*
X13000000Y71000000D03*
X16000000Y71000000D03*
X12000000Y55000000D03*
X14000000Y57000000D03*
X12000000Y57000000D03*
X12000000Y59000000D03*
X14000000Y59000000D03*
X16000000Y57000000D03*
X8500000Y11500000D03*
X17500000Y21500000D03*
X16000000Y20000000D03*
X17500000Y18000000D03*
X24500000Y19500000D03*
X26000000Y11500000D03*
X26000000Y9500000D03*
X24000000Y11500000D03*
X19000000Y12000000D03*
X19000000Y10000000D03*
X21000000Y10000000D03*
X8500000Y18500000D03*
X11500000Y18500000D03*
X20000000Y7000000D03*
X20000000Y5500000D03*
X57500000Y42750000D03*
X58770000Y42750000D03*
X57500000Y41480000D03*
X58770000Y41480000D03*
X57500000Y40210000D03*
X58770000Y40210000D03*
X57500000Y38940000D03*
X58770000Y38940000D03*
X57500000Y37670000D03*
X58770000Y37670000D03*
X57500000Y36400000D03*
X58770000Y36400000D03*
X57500000Y35130000D03*
X58770000Y35130000D03*
X53000000Y44100000D03*
X54270000Y44100000D03*
X53000000Y42830000D03*
X54270000Y42830000D03*
X53000000Y41560000D03*
X54270000Y41560000D03*
X53000000Y40290000D03*
X54270000Y40290000D03*
X53000000Y39020000D03*
X54270000Y39020000D03*
X53000000Y37750000D03*
X54270000Y37750000D03*
X53000000Y36480000D03*
X54270000Y36480000D03*
X53000000Y35210000D03*
X54270000Y35210000D03*
X53000000Y45370000D03*
X54270000Y45370000D03*
X51730000Y45370000D03*
X50460000Y45370000D03*
X49400000Y45000000D03*
D20*
X60600000Y32000000D03*
X60600000Y31000000D03*
X60600000Y30000000D03*
X60600000Y29000000D03*
X60600000Y28000000D03*
X59400000Y32000000D03*
X59400000Y31000000D03*
X59400000Y30000000D03*
X59400000Y29000000D03*
X59400000Y28000000D03*
X58200000Y30000000D03*
X58200000Y29000000D03*
X58200000Y28000000D03*
X57000000Y28000000D03*
X57000000Y29000000D03*
X55800000Y28000000D03*
D19*
%TO.N,VCC*%
X60400000Y45200000D03*
X61200000Y45200000D03*
X62800000Y37600000D03*
X62800000Y40000000D03*
D20*
%TO.N,/Sheet62278BAE/UART_TX*%
X24446300Y23691800D03*
%TO.N,/Sheet62278BAE/UART_RX*%
X16343300Y28843400D03*
D19*
%TO.N,/Sheet62278BAE/CANH*%
X16400000Y61400000D03*
X14800000Y63000000D03*
%TO.N,/Sheet62278BAE/CANL*%
X15568213Y63431787D03*
X17000000Y62000000D03*
%TO.N,/I1*%
X38000000Y29500000D03*
X38000000Y44000000D03*
%TO.N,/I2*%
X37000000Y29500000D03*
X37000000Y42500000D03*
%TO.N,/I3*%
X36000000Y29500000D03*
X36000000Y41500000D03*
%TO.N,/I4*%
X35000000Y40500000D03*
X35000000Y29500000D03*
%TO.N,/I5*%
X34000000Y29500000D03*
X34000000Y38500000D03*
%TO.N,/I6*%
X32000000Y31500000D03*
X32000000Y37500000D03*
%TO.N,/I7*%
X33000000Y36000000D03*
X33000000Y34500000D03*
%TD*%
D21*
%TO.N,+3V3*%
X25000000Y7110002D02*
X25000000Y7000000D01*
X19949999Y12160003D02*
X25000000Y7110002D01*
X19949999Y17160003D02*
X19949999Y12160003D01*
X15250001Y21860001D02*
X19949999Y17160003D01*
X15250001Y32249999D02*
X15250001Y21860001D01*
X9000000Y38500000D02*
X15250001Y32249999D01*
D22*
%TO.N,/Sheet62278BAE/UART_TX*%
X24446300Y23691800D02*
X19808200Y23691800D01*
X9000000Y55659002D02*
X9000000Y56460000D01*
X19808200Y44850802D02*
X9000000Y55659002D01*
X19808200Y23691800D02*
X19808200Y44850802D01*
%TO.N,/Sheet62278BAE/UART_RX*%
X9000000Y53920000D02*
X9000000Y52744700D01*
X16343300Y28843400D02*
X16343300Y45768700D01*
X16343300Y45768700D02*
X9367300Y52744700D01*
X9367300Y52744700D02*
X9000000Y52744700D01*
%TO.N,/Sheet62278BAE/CANH*%
X16400000Y61400000D02*
X14800000Y63000000D01*
%TO.N,/Sheet62278BAE/CANL*%
X15568213Y63431787D02*
X17000000Y62000000D01*
%TO.N,/I1*%
X38000000Y29500000D02*
X38000000Y44000000D01*
%TO.N,/I2*%
X37000000Y29500000D02*
X37000000Y42500000D01*
%TO.N,/I3*%
X36000000Y29500000D02*
X36000000Y41500000D01*
%TO.N,/I4*%
X35000000Y40500000D02*
X35000000Y29500000D01*
%TO.N,/I5*%
X34000000Y29500000D02*
X34000000Y38500000D01*
%TO.N,/I6*%
X32000000Y31500000D02*
X32000000Y37500000D01*
%TO.N,/I7*%
X33000000Y34500000D02*
X33000000Y36000000D01*
%TD*%
D23*
%TO.N,GND*%
X94648126Y73273286D02*
X95271572Y73085057D01*
X95846579Y72779319D01*
X96351247Y72367721D01*
X96766362Y71865933D01*
X97076105Y71293076D01*
X97268682Y70670961D01*
X97340000Y69992416D01*
X97340001Y4032289D01*
X97273286Y3351874D01*
X97085057Y2728430D01*
X96779323Y2153427D01*
X96367721Y1648752D01*
X95865933Y1233638D01*
X95293077Y923896D01*
X94670961Y731318D01*
X93992417Y660000D01*
X4032279Y660000D01*
X3351874Y726714D01*
X2728430Y914943D01*
X2153427Y1220677D01*
X1648752Y1632279D01*
X1233638Y2134067D01*
X923896Y2706923D01*
X731318Y3329039D01*
X660000Y4007583D01*
X660000Y4220128D01*
X1765000Y4220128D01*
X1765000Y3779872D01*
X1850890Y3348075D01*
X2019369Y2941331D01*
X2263962Y2575271D01*
X2575271Y2263962D01*
X2941331Y2019369D01*
X3348075Y1850890D01*
X3779872Y1765000D01*
X4220128Y1765000D01*
X4651925Y1850890D01*
X5058669Y2019369D01*
X5424729Y2263962D01*
X5736038Y2575271D01*
X5980631Y2941331D01*
X6149110Y3348075D01*
X6235000Y3779872D01*
X6235000Y4220128D01*
X91765000Y4220128D01*
X91765000Y3779872D01*
X91850890Y3348075D01*
X92019369Y2941331D01*
X92263962Y2575271D01*
X92575271Y2263962D01*
X92941331Y2019369D01*
X93348075Y1850890D01*
X93779872Y1765000D01*
X94220128Y1765000D01*
X94651925Y1850890D01*
X95058669Y2019369D01*
X95424729Y2263962D01*
X95736038Y2575271D01*
X95980631Y2941331D01*
X96149110Y3348075D01*
X96235000Y3779872D01*
X96235000Y4220128D01*
X96149110Y4651925D01*
X95980631Y5058669D01*
X95736038Y5424729D01*
X95424729Y5736038D01*
X95058669Y5980631D01*
X94651925Y6149110D01*
X94220128Y6235000D01*
X93779872Y6235000D01*
X93348075Y6149110D01*
X92941331Y5980631D01*
X92575271Y5736038D01*
X92263962Y5424729D01*
X92019369Y5058669D01*
X91850890Y4651925D01*
X91765000Y4220128D01*
X6235000Y4220128D01*
X6149110Y4651925D01*
X5980631Y5058669D01*
X5736038Y5424729D01*
X5424729Y5736038D01*
X5058669Y5980631D01*
X4994290Y6007298D01*
X21686903Y6007298D01*
X21758486Y5763329D01*
X22013996Y5642429D01*
X22288184Y5573700D01*
X22570512Y5559783D01*
X22850130Y5601213D01*
X23116292Y5696397D01*
X23241514Y5763329D01*
X23313097Y6007298D01*
X22500000Y6820395D01*
X21686903Y6007298D01*
X4994290Y6007298D01*
X4651925Y6149110D01*
X4220128Y6235000D01*
X3779872Y6235000D01*
X3348075Y6149110D01*
X2941331Y5980631D01*
X2575271Y5736038D01*
X2263962Y5424729D01*
X2019369Y5058669D01*
X1850890Y4651925D01*
X1765000Y4220128D01*
X660000Y4220128D01*
X660000Y6929488D01*
X21059783Y6929488D01*
X21101213Y6649870D01*
X21196397Y6383708D01*
X21263329Y6258486D01*
X21507298Y6186903D01*
X22320395Y7000000D01*
X21507298Y7813097D01*
X21263329Y7741514D01*
X21142429Y7486004D01*
X21073700Y7211816D01*
X21059783Y6929488D01*
X660000Y6929488D01*
X660000Y31026260D01*
X7515000Y31026260D01*
X7515000Y30733740D01*
X7572068Y30446842D01*
X7684010Y30176589D01*
X7846525Y29933368D01*
X8053368Y29726525D01*
X8227760Y29610000D01*
X8053368Y29493475D01*
X7846525Y29286632D01*
X7684010Y29043411D01*
X7572068Y28773158D01*
X7515000Y28486260D01*
X7515000Y28193740D01*
X7572068Y27906842D01*
X7684010Y27636589D01*
X7846525Y27393368D01*
X8053368Y27186525D01*
X8227760Y27070000D01*
X8053368Y26953475D01*
X7846525Y26746632D01*
X7684010Y26503411D01*
X7572068Y26233158D01*
X7515000Y25946260D01*
X7515000Y25653740D01*
X7572068Y25366842D01*
X7684010Y25096589D01*
X7846525Y24853368D01*
X8053368Y24646525D01*
X8296589Y24484010D01*
X8566842Y24372068D01*
X8853740Y24315000D01*
X9146260Y24315000D01*
X9433158Y24372068D01*
X9703411Y24484010D01*
X9946632Y24646525D01*
X10153475Y24853368D01*
X10315990Y25096589D01*
X10427932Y25366842D01*
X10485000Y25653740D01*
X10485000Y25946260D01*
X10427932Y26233158D01*
X10315990Y26503411D01*
X10153475Y26746632D01*
X9946632Y26953475D01*
X9772240Y27070000D01*
X9946632Y27186525D01*
X10153475Y27393368D01*
X10315990Y27636589D01*
X10427932Y27906842D01*
X10485000Y28193740D01*
X10485000Y28486260D01*
X10427932Y28773158D01*
X10315990Y29043411D01*
X10153475Y29286632D01*
X9946632Y29493475D01*
X9772240Y29610000D01*
X9946632Y29726525D01*
X10153475Y29933368D01*
X10315990Y30176589D01*
X10427932Y30446842D01*
X10485000Y30733740D01*
X10485000Y31026260D01*
X10427932Y31313158D01*
X10315990Y31583411D01*
X10153475Y31826632D01*
X9946632Y32033475D01*
X9764466Y32155195D01*
X9881355Y32224822D01*
X10097588Y32419731D01*
X10271641Y32653080D01*
X10396825Y32915901D01*
X10441476Y33063110D01*
X10320155Y33293000D01*
X9127000Y33293000D01*
X9127000Y33273000D01*
X8873000Y33273000D01*
X8873000Y33293000D01*
X7679845Y33293000D01*
X7558524Y33063110D01*
X7603175Y32915901D01*
X7728359Y32653080D01*
X7902412Y32419731D01*
X8118645Y32224822D01*
X8235534Y32155195D01*
X8053368Y32033475D01*
X7846525Y31826632D01*
X7684010Y31583411D01*
X7572068Y31313158D01*
X7515000Y31026260D01*
X660000Y31026260D01*
X660000Y45943110D01*
X7558524Y45943110D01*
X7603175Y45795901D01*
X7728359Y45533080D01*
X7902412Y45299731D01*
X8118645Y45104822D01*
X8368748Y44955843D01*
X8643109Y44858519D01*
X8873000Y44979186D01*
X8873000Y46173000D01*
X9127000Y46173000D01*
X9127000Y44979186D01*
X9356891Y44858519D01*
X9631252Y44955843D01*
X9881355Y45104822D01*
X10097588Y45299731D01*
X10271641Y45533080D01*
X10396825Y45795901D01*
X10441476Y45943110D01*
X10320155Y46173000D01*
X9127000Y46173000D01*
X8873000Y46173000D01*
X7679845Y46173000D01*
X7558524Y45943110D01*
X660000Y45943110D01*
X660000Y48483110D01*
X7558524Y48483110D01*
X7603175Y48335901D01*
X7728359Y48073080D01*
X7902412Y47839731D01*
X8118645Y47644822D01*
X8244255Y47570000D01*
X8118645Y47495178D01*
X7902412Y47300269D01*
X7728359Y47066920D01*
X7603175Y46804099D01*
X7558524Y46656890D01*
X7679845Y46427000D01*
X8873000Y46427000D01*
X8873000Y48713000D01*
X9127000Y48713000D01*
X9127000Y46427000D01*
X10320155Y46427000D01*
X10441476Y46656890D01*
X10396825Y46804099D01*
X10271641Y47066920D01*
X10097588Y47300269D01*
X9881355Y47495178D01*
X9755745Y47570000D01*
X9881355Y47644822D01*
X10097588Y47839731D01*
X10271641Y48073080D01*
X10396825Y48335901D01*
X10441476Y48483110D01*
X10320155Y48713000D01*
X9127000Y48713000D01*
X8873000Y48713000D01*
X7679845Y48713000D01*
X7558524Y48483110D01*
X660000Y48483110D01*
X660000Y59850000D01*
X7511928Y59850000D01*
X7511928Y58150000D01*
X7524188Y58025518D01*
X7560498Y57905820D01*
X7619463Y57795506D01*
X7698815Y57698815D01*
X7795506Y57619463D01*
X7905820Y57560498D01*
X7978380Y57538487D01*
X7846525Y57406632D01*
X7684010Y57163411D01*
X7572068Y56893158D01*
X7515000Y56606260D01*
X7515000Y56313740D01*
X7572068Y56026842D01*
X7684010Y55756589D01*
X7846525Y55513368D01*
X8053368Y55306525D01*
X8227760Y55190000D01*
X8053368Y55073475D01*
X7846525Y54866632D01*
X7684010Y54623411D01*
X7572068Y54353158D01*
X7515000Y54066260D01*
X7515000Y53773740D01*
X7572068Y53486842D01*
X7684010Y53216589D01*
X7846525Y52973368D01*
X8053368Y52766525D01*
X8227760Y52650000D01*
X8053368Y52533475D01*
X7846525Y52326632D01*
X7684010Y52083411D01*
X7572068Y51813158D01*
X7515000Y51526260D01*
X7515000Y51233740D01*
X7572068Y50946842D01*
X7684010Y50676589D01*
X7846525Y50433368D01*
X8053368Y50226525D01*
X8235534Y50104805D01*
X8118645Y50035178D01*
X7902412Y49840269D01*
X7728359Y49606920D01*
X7603175Y49344099D01*
X7558524Y49196890D01*
X7679845Y48967000D01*
X8873000Y48967000D01*
X8873000Y48987000D01*
X9127000Y48987000D01*
X9127000Y48967000D01*
X10320155Y48967000D01*
X10441476Y49196890D01*
X10396825Y49344099D01*
X10271641Y49606920D01*
X10097588Y49840269D01*
X9881355Y50035178D01*
X9764466Y50104805D01*
X9946632Y50226525D01*
X10153475Y50433368D01*
X10315990Y50676589D01*
X10329059Y50708140D01*
X15583301Y45453897D01*
X15583300Y33168279D01*
X10488072Y38263506D01*
X10488072Y39350000D01*
X10475812Y39474482D01*
X10439502Y39594180D01*
X10380537Y39704494D01*
X10301185Y39801185D01*
X10204494Y39880537D01*
X10094180Y39939502D01*
X9974482Y39975812D01*
X9850000Y39988072D01*
X8150000Y39988072D01*
X8025518Y39975812D01*
X7905820Y39939502D01*
X7795506Y39880537D01*
X7698815Y39801185D01*
X7619463Y39704494D01*
X7560498Y39594180D01*
X7524188Y39474482D01*
X7511928Y39350000D01*
X7511928Y37650000D01*
X7524188Y37525518D01*
X7560498Y37405820D01*
X7619463Y37295506D01*
X7698815Y37198815D01*
X7795506Y37119463D01*
X7905820Y37060498D01*
X7978380Y37038487D01*
X7846525Y36906632D01*
X7684010Y36663411D01*
X7572068Y36393158D01*
X7515000Y36106260D01*
X7515000Y35813740D01*
X7572068Y35526842D01*
X7684010Y35256589D01*
X7846525Y35013368D01*
X8053368Y34806525D01*
X8235534Y34684805D01*
X8118645Y34615178D01*
X7902412Y34420269D01*
X7728359Y34186920D01*
X7603175Y33924099D01*
X7558524Y33776890D01*
X7679845Y33547000D01*
X8873000Y33547000D01*
X8873000Y33567000D01*
X9127000Y33567000D01*
X9127000Y33547000D01*
X10320155Y33547000D01*
X10441476Y33776890D01*
X10396825Y33924099D01*
X10271641Y34186920D01*
X10097588Y34420269D01*
X9881355Y34615178D01*
X9764466Y34684805D01*
X9946632Y34806525D01*
X10153475Y35013368D01*
X10315990Y35256589D01*
X10427932Y35526842D01*
X10476652Y35771770D01*
X14365001Y31883420D01*
X14365002Y21903480D01*
X14360720Y21860001D01*
X14377806Y21686511D01*
X14428413Y21519688D01*
X14510591Y21365942D01*
X14593469Y21264955D01*
X14593472Y21264952D01*
X14621185Y21231184D01*
X14654953Y21203471D01*
X19064999Y16793424D01*
X19065000Y12203482D01*
X19060718Y12160003D01*
X19077804Y11986513D01*
X19128411Y11819690D01*
X19210589Y11665944D01*
X19293467Y11564957D01*
X19293470Y11564954D01*
X19321183Y11531186D01*
X19354951Y11503473D01*
X22419662Y8438761D01*
X22149870Y8398787D01*
X21883708Y8303603D01*
X21758486Y8236671D01*
X21686903Y7992702D01*
X22500000Y7179605D01*
X22514143Y7193747D01*
X22693748Y7014142D01*
X22679605Y7000000D01*
X23492702Y6186903D01*
X23561928Y6207215D01*
X23561928Y6200000D01*
X23574188Y6075518D01*
X23610498Y5955820D01*
X23669463Y5845506D01*
X23748815Y5748815D01*
X23845506Y5669463D01*
X23955820Y5610498D01*
X24075518Y5574188D01*
X24200000Y5561928D01*
X25800000Y5561928D01*
X25924482Y5574188D01*
X26044180Y5610498D01*
X26154494Y5669463D01*
X26251185Y5748815D01*
X26330537Y5845506D01*
X26389502Y5955820D01*
X26425812Y6075518D01*
X26438072Y6200000D01*
X26438072Y7800000D01*
X26425812Y7924482D01*
X26389502Y8044180D01*
X26330537Y8154494D01*
X26251185Y8251185D01*
X26154494Y8330537D01*
X26044180Y8389502D01*
X25924482Y8425812D01*
X25800000Y8438072D01*
X24923509Y8438072D01*
X24111581Y9250000D01*
X34511928Y9250000D01*
X34511928Y7750000D01*
X34528992Y7576746D01*
X34579528Y7410150D01*
X34661595Y7256614D01*
X34772038Y7122038D01*
X34906614Y7011595D01*
X35060150Y6929528D01*
X35226746Y6878992D01*
X35400000Y6861928D01*
X36600000Y6861928D01*
X36773254Y6878992D01*
X36939850Y6929528D01*
X37093386Y7011595D01*
X37227962Y7122038D01*
X37338405Y7256614D01*
X37392914Y7358593D01*
X37393198Y7358205D01*
X37607954Y7161336D01*
X37856991Y7010146D01*
X38130739Y6910446D01*
X38143110Y6908524D01*
X38373000Y7029845D01*
X38373000Y8373000D01*
X38627000Y8373000D01*
X38627000Y7029845D01*
X38856890Y6908524D01*
X38869261Y6910446D01*
X39143009Y7010146D01*
X39392046Y7161336D01*
X39606802Y7358205D01*
X39779025Y7593188D01*
X39902096Y7857255D01*
X39971285Y8140258D01*
X39827232Y8373000D01*
X38627000Y8373000D01*
X38373000Y8373000D01*
X38353000Y8373000D01*
X38353000Y8627000D01*
X38373000Y8627000D01*
X38373000Y9970155D01*
X38627000Y9970155D01*
X38627000Y8627000D01*
X39827232Y8627000D01*
X39971285Y8859742D01*
X39902096Y9142745D01*
X39852109Y9250000D01*
X45761928Y9250000D01*
X45761928Y7750000D01*
X45778992Y7576746D01*
X45829528Y7410150D01*
X45911595Y7256614D01*
X46022038Y7122038D01*
X46156614Y7011595D01*
X46310150Y6929528D01*
X46476746Y6878992D01*
X46650000Y6861928D01*
X47850000Y6861928D01*
X48023254Y6878992D01*
X48189850Y6929528D01*
X48343386Y7011595D01*
X48477962Y7122038D01*
X48588405Y7256614D01*
X48642777Y7358337D01*
X48694866Y7294866D01*
X48920987Y7109294D01*
X49178967Y6971401D01*
X49458890Y6886487D01*
X49750000Y6857815D01*
X50041111Y6886487D01*
X50321034Y6971401D01*
X50579014Y7109294D01*
X50805134Y7294866D01*
X50990706Y7520986D01*
X51128599Y7778967D01*
X51213513Y8058890D01*
X51235000Y8277051D01*
X51235000Y8722950D01*
X51213513Y8941111D01*
X51128599Y9221034D01*
X51113117Y9250000D01*
X57011928Y9250000D01*
X57011928Y7750000D01*
X57028992Y7576746D01*
X57079528Y7410150D01*
X57161595Y7256614D01*
X57272038Y7122038D01*
X57406614Y7011595D01*
X57560150Y6929528D01*
X57726746Y6878992D01*
X57900000Y6861928D01*
X59100000Y6861928D01*
X59273254Y6878992D01*
X59439850Y6929528D01*
X59593386Y7011595D01*
X59727962Y7122038D01*
X59838405Y7256614D01*
X59892777Y7358337D01*
X59944866Y7294866D01*
X60170987Y7109294D01*
X60428967Y6971401D01*
X60708890Y6886487D01*
X61000000Y6857815D01*
X61291111Y6886487D01*
X61571034Y6971401D01*
X61829014Y7109294D01*
X62055134Y7294866D01*
X62240706Y7520986D01*
X62378599Y7778967D01*
X62463513Y8058890D01*
X62485000Y8277051D01*
X62485000Y8722950D01*
X62463513Y8941111D01*
X62378599Y9221034D01*
X62363117Y9250000D01*
X68511928Y9250000D01*
X68511928Y7750000D01*
X68528992Y7576746D01*
X68579528Y7410150D01*
X68661595Y7256614D01*
X68772038Y7122038D01*
X68906614Y7011595D01*
X69060150Y6929528D01*
X69226746Y6878992D01*
X69400000Y6861928D01*
X70600000Y6861928D01*
X70773254Y6878992D01*
X70939850Y6929528D01*
X71093386Y7011595D01*
X71227962Y7122038D01*
X71338405Y7256614D01*
X71392777Y7358337D01*
X71444866Y7294866D01*
X71670987Y7109294D01*
X71928967Y6971401D01*
X72208890Y6886487D01*
X72500000Y6857815D01*
X72791111Y6886487D01*
X73071034Y6971401D01*
X73329014Y7109294D01*
X73555134Y7294866D01*
X73740706Y7520986D01*
X73878599Y7778967D01*
X73963513Y8058890D01*
X73985000Y8277051D01*
X73985000Y8722950D01*
X73963513Y8941111D01*
X73878599Y9221034D01*
X73863117Y9250000D01*
X80511928Y9250000D01*
X80511928Y7750000D01*
X80528992Y7576746D01*
X80579528Y7410150D01*
X80661595Y7256614D01*
X80772038Y7122038D01*
X80906614Y7011595D01*
X81060150Y6929528D01*
X81226746Y6878992D01*
X81400000Y6861928D01*
X82600000Y6861928D01*
X82773254Y6878992D01*
X82939850Y6929528D01*
X83093386Y7011595D01*
X83227962Y7122038D01*
X83338405Y7256614D01*
X83392777Y7358337D01*
X83444866Y7294866D01*
X83670987Y7109294D01*
X83928967Y6971401D01*
X84208890Y6886487D01*
X84500000Y6857815D01*
X84791111Y6886487D01*
X85071034Y6971401D01*
X85329014Y7109294D01*
X85555134Y7294866D01*
X85740706Y7520986D01*
X85878599Y7778967D01*
X85963513Y8058890D01*
X85985000Y8277051D01*
X85985000Y8722950D01*
X85963513Y8941111D01*
X85878599Y9221034D01*
X85740706Y9479014D01*
X85555134Y9705134D01*
X85329013Y9890706D01*
X85071033Y10028599D01*
X84791110Y10113513D01*
X84500000Y10142185D01*
X84208889Y10113513D01*
X83928966Y10028599D01*
X83670986Y9890706D01*
X83444866Y9705134D01*
X83392777Y9641663D01*
X83338405Y9743386D01*
X83227962Y9877962D01*
X83093386Y9988405D01*
X82939850Y10070472D01*
X82773254Y10121008D01*
X82600000Y10138072D01*
X81400000Y10138072D01*
X81226746Y10121008D01*
X81060150Y10070472D01*
X80906614Y9988405D01*
X80772038Y9877962D01*
X80661595Y9743386D01*
X80579528Y9589850D01*
X80528992Y9423254D01*
X80511928Y9250000D01*
X73863117Y9250000D01*
X73740706Y9479014D01*
X73555134Y9705134D01*
X73329013Y9890706D01*
X73071033Y10028599D01*
X72791110Y10113513D01*
X72500000Y10142185D01*
X72208889Y10113513D01*
X71928966Y10028599D01*
X71670986Y9890706D01*
X71444866Y9705134D01*
X71392777Y9641663D01*
X71338405Y9743386D01*
X71227962Y9877962D01*
X71093386Y9988405D01*
X70939850Y10070472D01*
X70773254Y10121008D01*
X70600000Y10138072D01*
X69400000Y10138072D01*
X69226746Y10121008D01*
X69060150Y10070472D01*
X68906614Y9988405D01*
X68772038Y9877962D01*
X68661595Y9743386D01*
X68579528Y9589850D01*
X68528992Y9423254D01*
X68511928Y9250000D01*
X62363117Y9250000D01*
X62240706Y9479014D01*
X62055134Y9705134D01*
X61829013Y9890706D01*
X61571033Y10028599D01*
X61291110Y10113513D01*
X61000000Y10142185D01*
X60708889Y10113513D01*
X60428966Y10028599D01*
X60170986Y9890706D01*
X59944866Y9705134D01*
X59892777Y9641663D01*
X59838405Y9743386D01*
X59727962Y9877962D01*
X59593386Y9988405D01*
X59439850Y10070472D01*
X59273254Y10121008D01*
X59100000Y10138072D01*
X57900000Y10138072D01*
X57726746Y10121008D01*
X57560150Y10070472D01*
X57406614Y9988405D01*
X57272038Y9877962D01*
X57161595Y9743386D01*
X57079528Y9589850D01*
X57028992Y9423254D01*
X57011928Y9250000D01*
X51113117Y9250000D01*
X50990706Y9479014D01*
X50805134Y9705134D01*
X50579013Y9890706D01*
X50321033Y10028599D01*
X50041110Y10113513D01*
X49750000Y10142185D01*
X49458889Y10113513D01*
X49178966Y10028599D01*
X48920986Y9890706D01*
X48694866Y9705134D01*
X48642777Y9641663D01*
X48588405Y9743386D01*
X48477962Y9877962D01*
X48343386Y9988405D01*
X48189850Y10070472D01*
X48023254Y10121008D01*
X47850000Y10138072D01*
X46650000Y10138072D01*
X46476746Y10121008D01*
X46310150Y10070472D01*
X46156614Y9988405D01*
X46022038Y9877962D01*
X45911595Y9743386D01*
X45829528Y9589850D01*
X45778992Y9423254D01*
X45761928Y9250000D01*
X39852109Y9250000D01*
X39779025Y9406812D01*
X39606802Y9641795D01*
X39392046Y9838664D01*
X39143009Y9989854D01*
X38869261Y10089554D01*
X38856890Y10091476D01*
X38627000Y9970155D01*
X38373000Y9970155D01*
X38143110Y10091476D01*
X38130739Y10089554D01*
X37856991Y9989854D01*
X37607954Y9838664D01*
X37393198Y9641795D01*
X37392914Y9641407D01*
X37338405Y9743386D01*
X37227962Y9877962D01*
X37093386Y9988405D01*
X36939850Y10070472D01*
X36773254Y10121008D01*
X36600000Y10138072D01*
X35400000Y10138072D01*
X35226746Y10121008D01*
X35060150Y10070472D01*
X34906614Y9988405D01*
X34772038Y9877962D01*
X34661595Y9743386D01*
X34579528Y9589850D01*
X34528992Y9423254D01*
X34511928Y9250000D01*
X24111581Y9250000D01*
X21346580Y12015000D01*
X21396260Y12015000D01*
X21683158Y12072068D01*
X21953411Y12184010D01*
X22196632Y12346525D01*
X22321710Y12471603D01*
X22901208Y12471603D01*
X22978843Y12222528D01*
X23242883Y12096629D01*
X23526411Y12024661D01*
X23818531Y12009389D01*
X24108019Y12051401D01*
X24383747Y12149081D01*
X24521157Y12222528D01*
X24598792Y12471603D01*
X23750000Y13320395D01*
X22901208Y12471603D01*
X22321710Y12471603D01*
X22403475Y12553368D01*
X22512416Y12716410D01*
X22721603Y12651208D01*
X23570395Y13500000D01*
X23929605Y13500000D01*
X24778397Y12651208D01*
X24987584Y12716410D01*
X25096525Y12553368D01*
X25303368Y12346525D01*
X25546589Y12184010D01*
X25816842Y12072068D01*
X26103740Y12015000D01*
X26396260Y12015000D01*
X26683158Y12072068D01*
X26953411Y12184010D01*
X27196632Y12346525D01*
X27403475Y12553368D01*
X27565990Y12796589D01*
X27677932Y13066842D01*
X27735000Y13353740D01*
X27735000Y13646260D01*
X27677932Y13933158D01*
X27565990Y14203411D01*
X27403475Y14446632D01*
X27196632Y14653475D01*
X26953411Y14815990D01*
X26683158Y14927932D01*
X26396260Y14985000D01*
X26103740Y14985000D01*
X25816842Y14927932D01*
X25546589Y14815990D01*
X25303368Y14653475D01*
X25096525Y14446632D01*
X24987584Y14283590D01*
X24778397Y14348792D01*
X23929605Y13500000D01*
X23570395Y13500000D01*
X22721603Y14348792D01*
X22512416Y14283590D01*
X22403475Y14446632D01*
X22321710Y14528397D01*
X22901208Y14528397D01*
X23750000Y13679605D01*
X24598792Y14528397D01*
X24521157Y14777472D01*
X24257117Y14903371D01*
X23973589Y14975339D01*
X23681469Y14990611D01*
X23391981Y14948599D01*
X23116253Y14850919D01*
X22978843Y14777472D01*
X22901208Y14528397D01*
X22321710Y14528397D01*
X22196632Y14653475D01*
X21953411Y14815990D01*
X21683158Y14927932D01*
X21396260Y14985000D01*
X21103740Y14985000D01*
X20834999Y14931544D01*
X20834999Y17116534D01*
X20839280Y17160003D01*
X20834999Y17203472D01*
X20834999Y17203480D01*
X20822194Y17333493D01*
X20771588Y17500316D01*
X20767857Y17507298D01*
X35186903Y17507298D01*
X35258486Y17263329D01*
X35513996Y17142429D01*
X35788184Y17073700D01*
X36070512Y17059783D01*
X36350130Y17101213D01*
X36616292Y17196397D01*
X36741514Y17263329D01*
X36813097Y17507298D01*
X36000000Y18320395D01*
X35186903Y17507298D01*
X20767857Y17507298D01*
X20689410Y17654062D01*
X20662458Y17686903D01*
X20606531Y17755050D01*
X20606529Y17755052D01*
X20578816Y17788820D01*
X20545049Y17816531D01*
X19932092Y18429488D01*
X34559783Y18429488D01*
X34601213Y18149870D01*
X34696397Y17883708D01*
X34763329Y17758486D01*
X35007298Y17686903D01*
X35820395Y18500000D01*
X36179605Y18500000D01*
X36992702Y17686903D01*
X37236671Y17758486D01*
X37357571Y18013996D01*
X37426300Y18288184D01*
X37440217Y18570512D01*
X37398787Y18850130D01*
X37303603Y19116292D01*
X37236671Y19241514D01*
X37037340Y19300000D01*
X38061928Y19300000D01*
X38061928Y17700000D01*
X38074188Y17575518D01*
X38110498Y17455820D01*
X38169463Y17345506D01*
X38248815Y17248815D01*
X38345506Y17169463D01*
X38455820Y17110498D01*
X38575518Y17074188D01*
X38700000Y17061928D01*
X40300000Y17061928D01*
X40424482Y17074188D01*
X40544180Y17110498D01*
X40654494Y17169463D01*
X40751185Y17248815D01*
X40830537Y17345506D01*
X40889502Y17455820D01*
X40925812Y17575518D01*
X40938072Y17700000D01*
X40938072Y19300000D01*
X40925812Y19424482D01*
X40889502Y19544180D01*
X40830537Y19654494D01*
X40751185Y19751185D01*
X40654494Y19830537D01*
X40544180Y19889502D01*
X40424482Y19925812D01*
X40300000Y19938072D01*
X38700000Y19938072D01*
X38575518Y19925812D01*
X38455820Y19889502D01*
X38345506Y19830537D01*
X38248815Y19751185D01*
X38169463Y19654494D01*
X38110498Y19544180D01*
X38074188Y19424482D01*
X38061928Y19300000D01*
X37037340Y19300000D01*
X36992702Y19313097D01*
X36179605Y18500000D01*
X35820395Y18500000D01*
X35007298Y19313097D01*
X34763329Y19241514D01*
X34642429Y18986004D01*
X34573700Y18711816D01*
X34559783Y18429488D01*
X19932092Y18429488D01*
X18868878Y19492702D01*
X35186903Y19492702D01*
X36000000Y18679605D01*
X36813097Y19492702D01*
X36741514Y19736671D01*
X36486004Y19857571D01*
X36211816Y19926300D01*
X35929488Y19940217D01*
X35649870Y19898787D01*
X35383708Y19803603D01*
X35258486Y19736671D01*
X35186903Y19492702D01*
X18868878Y19492702D01*
X16135001Y22226579D01*
X16135001Y27829556D01*
X16241361Y27808400D01*
X16445239Y27808400D01*
X16645198Y27848174D01*
X16833556Y27926195D01*
X17003074Y28039463D01*
X17147237Y28183626D01*
X17260505Y28353144D01*
X17338526Y28541502D01*
X17378300Y28741461D01*
X17378300Y28945339D01*
X17338526Y29145298D01*
X17260505Y29333656D01*
X17147237Y29503174D01*
X17103300Y29547111D01*
X17103300Y45731377D01*
X17106976Y45768700D01*
X17103300Y45806023D01*
X17103300Y45806033D01*
X17092303Y45917686D01*
X17048846Y46060947D01*
X16978274Y46192976D01*
X16883301Y46308701D01*
X16854303Y46332499D01*
X10177491Y53009310D01*
X10315990Y53216589D01*
X10331110Y53253091D01*
X19048201Y44535999D01*
X19048200Y23729133D01*
X19044523Y23691800D01*
X19059197Y23542814D01*
X19102654Y23399553D01*
X19173226Y23267524D01*
X19268199Y23151799D01*
X19383924Y23056826D01*
X19515953Y22986254D01*
X19659214Y22942797D01*
X19808200Y22928123D01*
X19845533Y22931800D01*
X23742589Y22931800D01*
X23786526Y22887863D01*
X23956044Y22774595D01*
X24144402Y22696574D01*
X24344361Y22656800D01*
X24548239Y22656800D01*
X24748198Y22696574D01*
X24936556Y22774595D01*
X25106074Y22887863D01*
X25250237Y23032026D01*
X25363505Y23201544D01*
X25441526Y23389902D01*
X25481300Y23589861D01*
X25481300Y23793739D01*
X25441526Y23993698D01*
X25363505Y24182056D01*
X25250237Y24351574D01*
X25106074Y24495737D01*
X24936556Y24609005D01*
X24748198Y24687026D01*
X24548239Y24726800D01*
X24344361Y24726800D01*
X24144402Y24687026D01*
X23956044Y24609005D01*
X23786526Y24495737D01*
X23742589Y24451800D01*
X20568200Y24451800D01*
X20568200Y37592089D01*
X31065000Y37592089D01*
X31065000Y37407911D01*
X31100932Y37227271D01*
X31171414Y37057111D01*
X31240001Y36954463D01*
X31240000Y32045536D01*
X31171414Y31942889D01*
X31100932Y31772729D01*
X31065000Y31592089D01*
X31065000Y31407911D01*
X31100932Y31227271D01*
X31171414Y31057111D01*
X31273738Y30903972D01*
X31403972Y30773738D01*
X31557111Y30671414D01*
X31727271Y30600932D01*
X31907911Y30565000D01*
X32092089Y30565000D01*
X32272729Y30600932D01*
X32442889Y30671414D01*
X32596028Y30773738D01*
X32726262Y30903972D01*
X32828586Y31057111D01*
X32899068Y31227271D01*
X32935000Y31407911D01*
X32935000Y31592089D01*
X32899068Y31772729D01*
X32828586Y31942889D01*
X32760000Y32045535D01*
X32760000Y33594422D01*
X32907911Y33565000D01*
X33092089Y33565000D01*
X33240000Y33594422D01*
X33240000Y30045536D01*
X33171414Y29942889D01*
X33100932Y29772729D01*
X33065000Y29592089D01*
X33065000Y29407911D01*
X33100932Y29227271D01*
X33171414Y29057111D01*
X33273738Y28903972D01*
X33403972Y28773738D01*
X33557111Y28671414D01*
X33727271Y28600932D01*
X33907911Y28565000D01*
X34092089Y28565000D01*
X34272729Y28600932D01*
X34442889Y28671414D01*
X34500000Y28709574D01*
X34557111Y28671414D01*
X34727271Y28600932D01*
X34907911Y28565000D01*
X35092089Y28565000D01*
X35272729Y28600932D01*
X35442889Y28671414D01*
X35500000Y28709574D01*
X35557111Y28671414D01*
X35727271Y28600932D01*
X35907911Y28565000D01*
X36092089Y28565000D01*
X36272729Y28600932D01*
X36442889Y28671414D01*
X36500000Y28709574D01*
X36557111Y28671414D01*
X36727271Y28600932D01*
X36907911Y28565000D01*
X37092089Y28565000D01*
X37272729Y28600932D01*
X37442889Y28671414D01*
X37500000Y28709574D01*
X37557111Y28671414D01*
X37727271Y28600932D01*
X37907911Y28565000D01*
X38092089Y28565000D01*
X38272729Y28600932D01*
X38442889Y28671414D01*
X38596028Y28773738D01*
X38726262Y28903972D01*
X38828586Y29057111D01*
X38899068Y29227271D01*
X38935000Y29407911D01*
X38935000Y29592089D01*
X38899068Y29772729D01*
X38828586Y29942889D01*
X38760000Y30045535D01*
X38760000Y37692089D01*
X61865000Y37692089D01*
X61865000Y37507911D01*
X61900932Y37327271D01*
X61971414Y37157111D01*
X62073738Y37003972D01*
X62203972Y36873738D01*
X62357111Y36771414D01*
X62527271Y36700932D01*
X62707911Y36665000D01*
X62892089Y36665000D01*
X63072729Y36700932D01*
X63242889Y36771414D01*
X63396028Y36873738D01*
X63526262Y37003972D01*
X63628586Y37157111D01*
X63699068Y37327271D01*
X63735000Y37507911D01*
X63735000Y37692089D01*
X63699068Y37872729D01*
X63628586Y38042889D01*
X63526262Y38196028D01*
X63396028Y38326262D01*
X63242889Y38428586D01*
X63072729Y38499068D01*
X62892089Y38535000D01*
X62707911Y38535000D01*
X62527271Y38499068D01*
X62357111Y38428586D01*
X62203972Y38326262D01*
X62073738Y38196028D01*
X61971414Y38042889D01*
X61900932Y37872729D01*
X61865000Y37692089D01*
X38760000Y37692089D01*
X38760000Y40092089D01*
X61865000Y40092089D01*
X61865000Y39907911D01*
X61900932Y39727271D01*
X61971414Y39557111D01*
X62073738Y39403972D01*
X62203972Y39273738D01*
X62357111Y39171414D01*
X62527271Y39100932D01*
X62707911Y39065000D01*
X62892089Y39065000D01*
X63072729Y39100932D01*
X63242889Y39171414D01*
X63396028Y39273738D01*
X63526262Y39403972D01*
X63628586Y39557111D01*
X63699068Y39727271D01*
X63735000Y39907911D01*
X63735000Y40092089D01*
X63699068Y40272729D01*
X63628586Y40442889D01*
X63526262Y40596028D01*
X63396028Y40726262D01*
X63242889Y40828586D01*
X63072729Y40899068D01*
X62892089Y40935000D01*
X62707911Y40935000D01*
X62527271Y40899068D01*
X62357111Y40828586D01*
X62203972Y40726262D01*
X62073738Y40596028D01*
X61971414Y40442889D01*
X61900932Y40272729D01*
X61865000Y40092089D01*
X38760000Y40092089D01*
X38760000Y43454465D01*
X38828586Y43557111D01*
X38899068Y43727271D01*
X38935000Y43907911D01*
X38935000Y44092089D01*
X38899068Y44272729D01*
X38828586Y44442889D01*
X38726262Y44596028D01*
X38596028Y44726262D01*
X38442889Y44828586D01*
X38272729Y44899068D01*
X38092089Y44935000D01*
X37907911Y44935000D01*
X37727271Y44899068D01*
X37557111Y44828586D01*
X37403972Y44726262D01*
X37273738Y44596028D01*
X37171414Y44442889D01*
X37100932Y44272729D01*
X37065000Y44092089D01*
X37065000Y43907911D01*
X37100932Y43727271D01*
X37171414Y43557111D01*
X37240001Y43454463D01*
X37240001Y43405578D01*
X37092089Y43435000D01*
X36907911Y43435000D01*
X36727271Y43399068D01*
X36557111Y43328586D01*
X36403972Y43226262D01*
X36273738Y43096028D01*
X36171414Y42942889D01*
X36100932Y42772729D01*
X36065000Y42592089D01*
X36065000Y42435000D01*
X35907911Y42435000D01*
X35727271Y42399068D01*
X35557111Y42328586D01*
X35403972Y42226262D01*
X35273738Y42096028D01*
X35171414Y41942889D01*
X35100932Y41772729D01*
X35065000Y41592089D01*
X35065000Y41435000D01*
X34907911Y41435000D01*
X34727271Y41399068D01*
X34557111Y41328586D01*
X34403972Y41226262D01*
X34273738Y41096028D01*
X34171414Y40942889D01*
X34100932Y40772729D01*
X34065000Y40592089D01*
X34065000Y40407911D01*
X34100932Y40227271D01*
X34171414Y40057111D01*
X34240000Y39954465D01*
X34240000Y39405578D01*
X34092089Y39435000D01*
X33907911Y39435000D01*
X33727271Y39399068D01*
X33557111Y39328586D01*
X33403972Y39226262D01*
X33273738Y39096028D01*
X33171414Y38942889D01*
X33100932Y38772729D01*
X33065000Y38592089D01*
X33065000Y38407911D01*
X33100932Y38227271D01*
X33171414Y38057111D01*
X33240001Y37954463D01*
X33240001Y36905578D01*
X33092089Y36935000D01*
X32907911Y36935000D01*
X32760000Y36905578D01*
X32760000Y36954465D01*
X32828586Y37057111D01*
X32899068Y37227271D01*
X32935000Y37407911D01*
X32935000Y37592089D01*
X32899068Y37772729D01*
X32828586Y37942889D01*
X32726262Y38096028D01*
X32596028Y38226262D01*
X32442889Y38328586D01*
X32272729Y38399068D01*
X32092089Y38435000D01*
X31907911Y38435000D01*
X31727271Y38399068D01*
X31557111Y38328586D01*
X31403972Y38226262D01*
X31273738Y38096028D01*
X31171414Y37942889D01*
X31100932Y37772729D01*
X31065000Y37592089D01*
X20568200Y37592089D01*
X20568200Y44813480D01*
X20571876Y44850803D01*
X20568200Y44888126D01*
X20568200Y44888135D01*
X20557203Y44999788D01*
X20513746Y45143049D01*
X20480685Y45204901D01*
X20443174Y45275079D01*
X20429215Y45292089D01*
X59465000Y45292089D01*
X59465000Y45107911D01*
X59500932Y44927271D01*
X59571414Y44757111D01*
X59673738Y44603972D01*
X59803972Y44473738D01*
X59957111Y44371414D01*
X60127271Y44300932D01*
X60307911Y44265000D01*
X60492089Y44265000D01*
X60672729Y44300932D01*
X60800000Y44353649D01*
X60927271Y44300932D01*
X61107911Y44265000D01*
X61292089Y44265000D01*
X61472729Y44300932D01*
X61642889Y44371414D01*
X61796028Y44473738D01*
X61926262Y44603972D01*
X62028586Y44757111D01*
X62099068Y44927271D01*
X62135000Y45107911D01*
X62135000Y45292089D01*
X62099068Y45472729D01*
X62028586Y45642889D01*
X61926262Y45796028D01*
X61796028Y45926262D01*
X61642889Y46028586D01*
X61472729Y46099068D01*
X61292089Y46135000D01*
X61107911Y46135000D01*
X60927271Y46099068D01*
X60800000Y46046351D01*
X60672729Y46099068D01*
X60492089Y46135000D01*
X60307911Y46135000D01*
X60127271Y46099068D01*
X59957111Y46028586D01*
X59803972Y45926262D01*
X59673738Y45796028D01*
X59571414Y45642889D01*
X59500932Y45472729D01*
X59465000Y45292089D01*
X20429215Y45292089D01*
X20371999Y45361805D01*
X20348201Y45390803D01*
X20319203Y45414601D01*
X10180295Y55553508D01*
X10315990Y55756589D01*
X10427932Y56026842D01*
X10485000Y56313740D01*
X10485000Y56606260D01*
X10427932Y56893158D01*
X10315990Y57163411D01*
X10153475Y57406632D01*
X10021620Y57538487D01*
X10094180Y57560498D01*
X10204494Y57619463D01*
X10301185Y57698815D01*
X10380537Y57795506D01*
X10439502Y57905820D01*
X10475812Y58025518D01*
X10488072Y58150000D01*
X10488072Y59850000D01*
X10475812Y59974482D01*
X10439502Y60094180D01*
X10380537Y60204494D01*
X10301185Y60301185D01*
X10204494Y60380537D01*
X10094180Y60439502D01*
X9974482Y60475812D01*
X9850000Y60488072D01*
X8150000Y60488072D01*
X8025518Y60475812D01*
X7905820Y60439502D01*
X7795506Y60380537D01*
X7698815Y60301185D01*
X7619463Y60204494D01*
X7560498Y60094180D01*
X7524188Y59974482D01*
X7511928Y59850000D01*
X660000Y59850000D01*
X660000Y63092089D01*
X13865000Y63092089D01*
X13865000Y62907911D01*
X13900932Y62727271D01*
X13971414Y62557111D01*
X14073738Y62403972D01*
X14203972Y62273738D01*
X14357111Y62171414D01*
X14527271Y62100932D01*
X14648351Y62076847D01*
X15476847Y61248351D01*
X15500932Y61127271D01*
X15571414Y60957111D01*
X15673738Y60803972D01*
X15803972Y60673738D01*
X15957111Y60571414D01*
X16127271Y60500932D01*
X16307911Y60465000D01*
X16492089Y60465000D01*
X16672729Y60500932D01*
X16842889Y60571414D01*
X16996028Y60673738D01*
X17126262Y60803972D01*
X17228586Y60957111D01*
X17291354Y61108646D01*
X17442889Y61171414D01*
X17596028Y61273738D01*
X17726262Y61403972D01*
X17828586Y61557111D01*
X17899068Y61727271D01*
X17935000Y61907911D01*
X17935000Y62092089D01*
X17899068Y62272729D01*
X17828586Y62442889D01*
X17726262Y62596028D01*
X17596028Y62726262D01*
X17442889Y62828586D01*
X17272729Y62899068D01*
X17151649Y62923153D01*
X16491366Y63583436D01*
X16467281Y63704516D01*
X16396799Y63874676D01*
X16294475Y64027815D01*
X16164241Y64158049D01*
X16011102Y64260373D01*
X15840942Y64330855D01*
X15660302Y64366787D01*
X15476124Y64366787D01*
X15295484Y64330855D01*
X15125324Y64260373D01*
X14972185Y64158049D01*
X14841951Y64027815D01*
X14779934Y63935000D01*
X14707911Y63935000D01*
X14527271Y63899068D01*
X14357111Y63828586D01*
X14203972Y63726262D01*
X14073738Y63596028D01*
X13971414Y63442889D01*
X13900932Y63272729D01*
X13865000Y63092089D01*
X660000Y63092089D01*
X660000Y66943000D01*
X9395000Y66943000D01*
X9395000Y66393000D01*
X9440624Y66183767D01*
X9526191Y65987455D01*
X9648413Y65811609D01*
X9802592Y65662986D01*
X9982803Y65547298D01*
X10185999Y65475592D01*
X10353000Y65602498D01*
X10353000Y66943000D01*
X9395000Y66943000D01*
X660000Y66943000D01*
X660000Y67747000D01*
X9395000Y67747000D01*
X9395000Y67197000D01*
X10353000Y67197000D01*
X10353000Y68537502D01*
X10607000Y68537502D01*
X10607000Y67197000D01*
X10627000Y67197000D01*
X10627000Y66943000D01*
X10607000Y66943000D01*
X10607000Y65602498D01*
X10774001Y65475592D01*
X10977197Y65547298D01*
X11157408Y65662986D01*
X11311587Y65811609D01*
X11433809Y65987455D01*
X11519376Y66183767D01*
X11565000Y66393000D01*
X11565000Y66680867D01*
X11637271Y66650932D01*
X11817911Y66615000D01*
X12002089Y66615000D01*
X12182729Y66650932D01*
X12352889Y66721414D01*
X12506028Y66823738D01*
X12636262Y66953972D01*
X12738586Y67107111D01*
X12809068Y67277271D01*
X12845000Y67457911D01*
X12845000Y67642089D01*
X16755000Y67642089D01*
X16755000Y67457911D01*
X16790932Y67277271D01*
X16861414Y67107111D01*
X16963738Y66953972D01*
X17093972Y66823738D01*
X17247111Y66721414D01*
X17417271Y66650932D01*
X17597911Y66615000D01*
X17782089Y66615000D01*
X17962729Y66650932D01*
X18035000Y66680867D01*
X18035000Y66393000D01*
X18080624Y66183767D01*
X18166191Y65987455D01*
X18288413Y65811609D01*
X18442592Y65662986D01*
X18622803Y65547298D01*
X18825999Y65475592D01*
X18993000Y65602498D01*
X18993000Y66943000D01*
X19247000Y66943000D01*
X19247000Y65602498D01*
X19414001Y65475592D01*
X19617197Y65547298D01*
X19797408Y65662986D01*
X19859613Y65722950D01*
X40015000Y65722950D01*
X40015000Y65277051D01*
X40036487Y65058890D01*
X40121401Y64778967D01*
X40259294Y64520987D01*
X40444866Y64294866D01*
X40670986Y64109294D01*
X40928966Y63971401D01*
X41208889Y63886487D01*
X41500000Y63857815D01*
X41791110Y63886487D01*
X42071033Y63971401D01*
X42329013Y64109294D01*
X42555134Y64294866D01*
X42607223Y64358337D01*
X42661595Y64256614D01*
X42772038Y64122038D01*
X42906614Y64011595D01*
X43060150Y63929528D01*
X43226746Y63878992D01*
X43400000Y63861928D01*
X44600000Y63861928D01*
X44773254Y63878992D01*
X44939850Y63929528D01*
X45093386Y64011595D01*
X45227962Y64122038D01*
X45338405Y64256614D01*
X45420472Y64410150D01*
X45471008Y64576746D01*
X45488072Y64750000D01*
X45488072Y65722950D01*
X51515000Y65722950D01*
X51515000Y65277051D01*
X51536487Y65058890D01*
X51621401Y64778967D01*
X51759294Y64520987D01*
X51944866Y64294866D01*
X52170986Y64109294D01*
X52428966Y63971401D01*
X52708889Y63886487D01*
X53000000Y63857815D01*
X53291110Y63886487D01*
X53571033Y63971401D01*
X53829013Y64109294D01*
X54055134Y64294866D01*
X54107223Y64358337D01*
X54161595Y64256614D01*
X54272038Y64122038D01*
X54406614Y64011595D01*
X54560150Y63929528D01*
X54726746Y63878992D01*
X54900000Y63861928D01*
X56100000Y63861928D01*
X56273254Y63878992D01*
X56439850Y63929528D01*
X56593386Y64011595D01*
X56727962Y64122038D01*
X56838405Y64256614D01*
X56920472Y64410150D01*
X56971008Y64576746D01*
X56988072Y64750000D01*
X56988072Y65722950D01*
X63515000Y65722950D01*
X63515000Y65277051D01*
X63536487Y65058890D01*
X63621401Y64778967D01*
X63759294Y64520987D01*
X63944866Y64294866D01*
X64170986Y64109294D01*
X64428966Y63971401D01*
X64708889Y63886487D01*
X65000000Y63857815D01*
X65291110Y63886487D01*
X65571033Y63971401D01*
X65829013Y64109294D01*
X66055134Y64294866D01*
X66107223Y64358337D01*
X66161595Y64256614D01*
X66272038Y64122038D01*
X66406614Y64011595D01*
X66560150Y63929528D01*
X66726746Y63878992D01*
X66900000Y63861928D01*
X68100000Y63861928D01*
X68273254Y63878992D01*
X68439850Y63929528D01*
X68593386Y64011595D01*
X68727962Y64122038D01*
X68838405Y64256614D01*
X68920472Y64410150D01*
X68971008Y64576746D01*
X68988072Y64750000D01*
X68988072Y65722950D01*
X75515000Y65722950D01*
X75515000Y65277051D01*
X75536487Y65058890D01*
X75621401Y64778967D01*
X75759294Y64520987D01*
X75944866Y64294866D01*
X76170986Y64109294D01*
X76428966Y63971401D01*
X76708889Y63886487D01*
X77000000Y63857815D01*
X77291110Y63886487D01*
X77571033Y63971401D01*
X77829013Y64109294D01*
X78055134Y64294866D01*
X78107223Y64358337D01*
X78161595Y64256614D01*
X78272038Y64122038D01*
X78406614Y64011595D01*
X78560150Y63929528D01*
X78726746Y63878992D01*
X78900000Y63861928D01*
X80100000Y63861928D01*
X80273254Y63878992D01*
X80439850Y63929528D01*
X80593386Y64011595D01*
X80727962Y64122038D01*
X80838405Y64256614D01*
X80920472Y64410150D01*
X80971008Y64576746D01*
X80988072Y64750000D01*
X80988072Y66250000D01*
X80971008Y66423254D01*
X80920472Y66589850D01*
X80838405Y66743386D01*
X80727962Y66877962D01*
X80593386Y66988405D01*
X80439850Y67070472D01*
X80273254Y67121008D01*
X80100000Y67138072D01*
X78900000Y67138072D01*
X78726746Y67121008D01*
X78560150Y67070472D01*
X78406614Y66988405D01*
X78272038Y66877962D01*
X78161595Y66743386D01*
X78107223Y66641663D01*
X78055134Y66705134D01*
X77829014Y66890706D01*
X77571034Y67028599D01*
X77291111Y67113513D01*
X77000000Y67142185D01*
X76708890Y67113513D01*
X76428967Y67028599D01*
X76170987Y66890706D01*
X75944866Y66705134D01*
X75759294Y66479014D01*
X75621401Y66221034D01*
X75536487Y65941111D01*
X75515000Y65722950D01*
X68988072Y65722950D01*
X68988072Y66250000D01*
X68971008Y66423254D01*
X68920472Y66589850D01*
X68838405Y66743386D01*
X68727962Y66877962D01*
X68593386Y66988405D01*
X68439850Y67070472D01*
X68273254Y67121008D01*
X68100000Y67138072D01*
X66900000Y67138072D01*
X66726746Y67121008D01*
X66560150Y67070472D01*
X66406614Y66988405D01*
X66272038Y66877962D01*
X66161595Y66743386D01*
X66107223Y66641663D01*
X66055134Y66705134D01*
X65829014Y66890706D01*
X65571034Y67028599D01*
X65291111Y67113513D01*
X65000000Y67142185D01*
X64708890Y67113513D01*
X64428967Y67028599D01*
X64170987Y66890706D01*
X63944866Y66705134D01*
X63759294Y66479014D01*
X63621401Y66221034D01*
X63536487Y65941111D01*
X63515000Y65722950D01*
X56988072Y65722950D01*
X56988072Y66250000D01*
X56971008Y66423254D01*
X56920472Y66589850D01*
X56838405Y66743386D01*
X56727962Y66877962D01*
X56593386Y66988405D01*
X56439850Y67070472D01*
X56273254Y67121008D01*
X56100000Y67138072D01*
X54900000Y67138072D01*
X54726746Y67121008D01*
X54560150Y67070472D01*
X54406614Y66988405D01*
X54272038Y66877962D01*
X54161595Y66743386D01*
X54107223Y66641663D01*
X54055134Y66705134D01*
X53829014Y66890706D01*
X53571034Y67028599D01*
X53291111Y67113513D01*
X53000000Y67142185D01*
X52708890Y67113513D01*
X52428967Y67028599D01*
X52170987Y66890706D01*
X51944866Y66705134D01*
X51759294Y66479014D01*
X51621401Y66221034D01*
X51536487Y65941111D01*
X51515000Y65722950D01*
X45488072Y65722950D01*
X45488072Y66250000D01*
X45471008Y66423254D01*
X45420472Y66589850D01*
X45338405Y66743386D01*
X45227962Y66877962D01*
X45093386Y66988405D01*
X44939850Y67070472D01*
X44773254Y67121008D01*
X44600000Y67138072D01*
X43400000Y67138072D01*
X43226746Y67121008D01*
X43060150Y67070472D01*
X42906614Y66988405D01*
X42772038Y66877962D01*
X42661595Y66743386D01*
X42607223Y66641663D01*
X42555134Y66705134D01*
X42329014Y66890706D01*
X42071034Y67028599D01*
X41791111Y67113513D01*
X41500000Y67142185D01*
X41208890Y67113513D01*
X40928967Y67028599D01*
X40670987Y66890706D01*
X40444866Y66705134D01*
X40259294Y66479014D01*
X40121401Y66221034D01*
X40036487Y65941111D01*
X40015000Y65722950D01*
X19859613Y65722950D01*
X19951587Y65811609D01*
X20073809Y65987455D01*
X20159376Y66183767D01*
X20205000Y66393000D01*
X20205000Y66943000D01*
X19247000Y66943000D01*
X18993000Y66943000D01*
X18973000Y66943000D01*
X18973000Y67197000D01*
X18993000Y67197000D01*
X18993000Y68537502D01*
X19247000Y68537502D01*
X19247000Y67197000D01*
X20205000Y67197000D01*
X20205000Y67747000D01*
X20159376Y67956233D01*
X20073809Y68152545D01*
X19951587Y68328391D01*
X19797408Y68477014D01*
X19617197Y68592702D01*
X19414001Y68664408D01*
X19247000Y68537502D01*
X18993000Y68537502D01*
X18825999Y68664408D01*
X18622803Y68592702D01*
X18442592Y68477014D01*
X18288413Y68328391D01*
X18262915Y68291706D01*
X18132889Y68378586D01*
X17962729Y68449068D01*
X17782089Y68485000D01*
X17597911Y68485000D01*
X17417271Y68449068D01*
X17247111Y68378586D01*
X17093972Y68276262D01*
X16963738Y68146028D01*
X16861414Y67992889D01*
X16790932Y67822729D01*
X16755000Y67642089D01*
X12845000Y67642089D01*
X12809068Y67822729D01*
X12738586Y67992889D01*
X12636262Y68146028D01*
X12506028Y68276262D01*
X12352889Y68378586D01*
X12182729Y68449068D01*
X12002089Y68485000D01*
X11817911Y68485000D01*
X11637271Y68449068D01*
X11467111Y68378586D01*
X11337085Y68291706D01*
X11311587Y68328391D01*
X11157408Y68477014D01*
X10977197Y68592702D01*
X10774001Y68664408D01*
X10607000Y68537502D01*
X10353000Y68537502D01*
X10185999Y68664408D01*
X9982803Y68592702D01*
X9802592Y68477014D01*
X9648413Y68328391D01*
X9526191Y68152545D01*
X9440624Y67956233D01*
X9395000Y67747000D01*
X660000Y67747000D01*
X660000Y69967722D01*
X684748Y70220128D01*
X1765000Y70220128D01*
X1765000Y69779872D01*
X1850890Y69348075D01*
X2019369Y68941331D01*
X2263962Y68575271D01*
X2575271Y68263962D01*
X2941331Y68019369D01*
X3348075Y67850890D01*
X3779872Y67765000D01*
X4220128Y67765000D01*
X4651925Y67850890D01*
X5058669Y68019369D01*
X5424729Y68263962D01*
X5736038Y68575271D01*
X5980631Y68941331D01*
X6007955Y69007298D01*
X23686903Y69007298D01*
X23758486Y68763329D01*
X24013996Y68642429D01*
X24288184Y68573700D01*
X24570512Y68559783D01*
X24850130Y68601213D01*
X25116292Y68696397D01*
X25241514Y68763329D01*
X25313097Y69007298D01*
X24500000Y69820395D01*
X23686903Y69007298D01*
X6007955Y69007298D01*
X6149110Y69348075D01*
X6235000Y69779872D01*
X6235000Y70220128D01*
X6149110Y70651925D01*
X5980631Y71058669D01*
X5944329Y71113000D01*
X9395000Y71113000D01*
X9395000Y70713000D01*
X9440624Y70503767D01*
X9526191Y70307455D01*
X9648413Y70131609D01*
X9802592Y69982986D01*
X9982803Y69867298D01*
X10185999Y69795592D01*
X10353000Y69922498D01*
X10353000Y71113000D01*
X10607000Y71113000D01*
X10607000Y69922498D01*
X10774001Y69795592D01*
X10977197Y69867298D01*
X11157408Y69982986D01*
X11311587Y70131609D01*
X11433809Y70307455D01*
X11519376Y70503767D01*
X11565000Y70713000D01*
X11565000Y71113000D01*
X18035000Y71113000D01*
X18035000Y70713000D01*
X18080624Y70503767D01*
X18166191Y70307455D01*
X18288413Y70131609D01*
X18442592Y69982986D01*
X18622803Y69867298D01*
X18825999Y69795592D01*
X18993000Y69922498D01*
X18993000Y71113000D01*
X19247000Y71113000D01*
X19247000Y69922498D01*
X19414001Y69795592D01*
X19617197Y69867298D01*
X19714072Y69929488D01*
X23059783Y69929488D01*
X23101213Y69649870D01*
X23196397Y69383708D01*
X23263329Y69258486D01*
X23507298Y69186903D01*
X24320395Y70000000D01*
X24679605Y70000000D01*
X25492702Y69186903D01*
X25561928Y69207215D01*
X25561928Y69200000D01*
X25574188Y69075518D01*
X25610498Y68955820D01*
X25669463Y68845506D01*
X25748815Y68748815D01*
X25845506Y68669463D01*
X25955820Y68610498D01*
X26075518Y68574188D01*
X26200000Y68561928D01*
X27800000Y68561928D01*
X27924482Y68574188D01*
X28044180Y68610498D01*
X28154494Y68669463D01*
X28251185Y68748815D01*
X28330537Y68845506D01*
X28389502Y68955820D01*
X28425812Y69075518D01*
X28438072Y69200000D01*
X28438072Y70220128D01*
X91765000Y70220128D01*
X91765000Y69779872D01*
X91850890Y69348075D01*
X92019369Y68941331D01*
X92263962Y68575271D01*
X92575271Y68263962D01*
X92941331Y68019369D01*
X93348075Y67850890D01*
X93779872Y67765000D01*
X94220128Y67765000D01*
X94651925Y67850890D01*
X95058669Y68019369D01*
X95424729Y68263962D01*
X95736038Y68575271D01*
X95980631Y68941331D01*
X96149110Y69348075D01*
X96235000Y69779872D01*
X96235000Y70220128D01*
X96149110Y70651925D01*
X95980631Y71058669D01*
X95736038Y71424729D01*
X95424729Y71736038D01*
X95058669Y71980631D01*
X94651925Y72149110D01*
X94220128Y72235000D01*
X93779872Y72235000D01*
X93348075Y72149110D01*
X92941331Y71980631D01*
X92575271Y71736038D01*
X92263962Y71424729D01*
X92019369Y71058669D01*
X91850890Y70651925D01*
X91765000Y70220128D01*
X28438072Y70220128D01*
X28438072Y70800000D01*
X28425812Y70924482D01*
X28389502Y71044180D01*
X28330537Y71154494D01*
X28251185Y71251185D01*
X28154494Y71330537D01*
X28044180Y71389502D01*
X27924482Y71425812D01*
X27800000Y71438072D01*
X26200000Y71438072D01*
X26075518Y71425812D01*
X25955820Y71389502D01*
X25845506Y71330537D01*
X25748815Y71251185D01*
X25669463Y71154494D01*
X25610498Y71044180D01*
X25574188Y70924482D01*
X25561928Y70800000D01*
X25561928Y70792785D01*
X25492702Y70813097D01*
X24679605Y70000000D01*
X24320395Y70000000D01*
X23507298Y70813097D01*
X23263329Y70741514D01*
X23142429Y70486004D01*
X23073700Y70211816D01*
X23059783Y69929488D01*
X19714072Y69929488D01*
X19797408Y69982986D01*
X19951587Y70131609D01*
X20073809Y70307455D01*
X20159376Y70503767D01*
X20205000Y70713000D01*
X20205000Y70992702D01*
X23686903Y70992702D01*
X24500000Y70179605D01*
X25313097Y70992702D01*
X25241514Y71236671D01*
X24986004Y71357571D01*
X24711816Y71426300D01*
X24429488Y71440217D01*
X24149870Y71398787D01*
X23883708Y71303603D01*
X23758486Y71236671D01*
X23686903Y70992702D01*
X20205000Y70992702D01*
X20205000Y71113000D01*
X19247000Y71113000D01*
X18993000Y71113000D01*
X18035000Y71113000D01*
X11565000Y71113000D01*
X10607000Y71113000D01*
X10353000Y71113000D01*
X9395000Y71113000D01*
X5944329Y71113000D01*
X5736038Y71424729D01*
X5424729Y71736038D01*
X5378392Y71767000D01*
X9395000Y71767000D01*
X9395000Y71367000D01*
X10353000Y71367000D01*
X10353000Y72557502D01*
X10607000Y72557502D01*
X10607000Y71367000D01*
X11565000Y71367000D01*
X11565000Y71767000D01*
X18035000Y71767000D01*
X18035000Y71367000D01*
X18993000Y71367000D01*
X18993000Y72557502D01*
X19247000Y72557502D01*
X19247000Y71367000D01*
X20205000Y71367000D01*
X20205000Y71767000D01*
X20159376Y71976233D01*
X20073809Y72172545D01*
X19951587Y72348391D01*
X19797408Y72497014D01*
X19617197Y72612702D01*
X19414001Y72684408D01*
X19247000Y72557502D01*
X18993000Y72557502D01*
X18825999Y72684408D01*
X18622803Y72612702D01*
X18442592Y72497014D01*
X18288413Y72348391D01*
X18166191Y72172545D01*
X18080624Y71976233D01*
X18035000Y71767000D01*
X11565000Y71767000D01*
X11519376Y71976233D01*
X11433809Y72172545D01*
X11311587Y72348391D01*
X11157408Y72497014D01*
X10977197Y72612702D01*
X10774001Y72684408D01*
X10607000Y72557502D01*
X10353000Y72557502D01*
X10185999Y72684408D01*
X9982803Y72612702D01*
X9802592Y72497014D01*
X9648413Y72348391D01*
X9526191Y72172545D01*
X9440624Y71976233D01*
X9395000Y71767000D01*
X5378392Y71767000D01*
X5058669Y71980631D01*
X4651925Y72149110D01*
X4220128Y72235000D01*
X3779872Y72235000D01*
X3348075Y72149110D01*
X2941331Y71980631D01*
X2575271Y71736038D01*
X2263962Y71424729D01*
X2019369Y71058669D01*
X1850890Y70651925D01*
X1765000Y70220128D01*
X684748Y70220128D01*
X726714Y70648126D01*
X914943Y71271572D01*
X1220681Y71846579D01*
X1632279Y72351247D01*
X2134067Y72766362D01*
X2706924Y73076105D01*
X3329039Y73268682D01*
X4007584Y73340000D01*
X93967722Y73340000D01*
X94648126Y73273286D01*
%TA.AperFunction,Conductor*%
D24*
G36*
X94648126Y73273286D02*
G01*
X95271572Y73085057D01*
X95846579Y72779319D01*
X96351247Y72367721D01*
X96766362Y71865933D01*
X97076105Y71293076D01*
X97268682Y70670961D01*
X97340000Y69992416D01*
X97340001Y4032289D01*
X97273286Y3351874D01*
X97085057Y2728430D01*
X96779323Y2153427D01*
X96367721Y1648752D01*
X95865933Y1233638D01*
X95293077Y923896D01*
X94670961Y731318D01*
X93992417Y660000D01*
X4032279Y660000D01*
X3351874Y726714D01*
X2728430Y914943D01*
X2153427Y1220677D01*
X1648752Y1632279D01*
X1233638Y2134067D01*
X923896Y2706923D01*
X731318Y3329039D01*
X660000Y4007583D01*
X660000Y4220128D01*
X1765000Y4220128D01*
X1765000Y3779872D01*
X1850890Y3348075D01*
X2019369Y2941331D01*
X2263962Y2575271D01*
X2575271Y2263962D01*
X2941331Y2019369D01*
X3348075Y1850890D01*
X3779872Y1765000D01*
X4220128Y1765000D01*
X4651925Y1850890D01*
X5058669Y2019369D01*
X5424729Y2263962D01*
X5736038Y2575271D01*
X5980631Y2941331D01*
X6149110Y3348075D01*
X6235000Y3779872D01*
X6235000Y4220128D01*
X91765000Y4220128D01*
X91765000Y3779872D01*
X91850890Y3348075D01*
X92019369Y2941331D01*
X92263962Y2575271D01*
X92575271Y2263962D01*
X92941331Y2019369D01*
X93348075Y1850890D01*
X93779872Y1765000D01*
X94220128Y1765000D01*
X94651925Y1850890D01*
X95058669Y2019369D01*
X95424729Y2263962D01*
X95736038Y2575271D01*
X95980631Y2941331D01*
X96149110Y3348075D01*
X96235000Y3779872D01*
X96235000Y4220128D01*
X96149110Y4651925D01*
X95980631Y5058669D01*
X95736038Y5424729D01*
X95424729Y5736038D01*
X95058669Y5980631D01*
X94651925Y6149110D01*
X94220128Y6235000D01*
X93779872Y6235000D01*
X93348075Y6149110D01*
X92941331Y5980631D01*
X92575271Y5736038D01*
X92263962Y5424729D01*
X92019369Y5058669D01*
X91850890Y4651925D01*
X91765000Y4220128D01*
X6235000Y4220128D01*
X6149110Y4651925D01*
X5980631Y5058669D01*
X5736038Y5424729D01*
X5424729Y5736038D01*
X5058669Y5980631D01*
X4994290Y6007298D01*
X21686903Y6007298D01*
X21758486Y5763329D01*
X22013996Y5642429D01*
X22288184Y5573700D01*
X22570512Y5559783D01*
X22850130Y5601213D01*
X23116292Y5696397D01*
X23241514Y5763329D01*
X23313097Y6007298D01*
X22500000Y6820395D01*
X21686903Y6007298D01*
X4994290Y6007298D01*
X4651925Y6149110D01*
X4220128Y6235000D01*
X3779872Y6235000D01*
X3348075Y6149110D01*
X2941331Y5980631D01*
X2575271Y5736038D01*
X2263962Y5424729D01*
X2019369Y5058669D01*
X1850890Y4651925D01*
X1765000Y4220128D01*
X660000Y4220128D01*
X660000Y6929488D01*
X21059783Y6929488D01*
X21101213Y6649870D01*
X21196397Y6383708D01*
X21263329Y6258486D01*
X21507298Y6186903D01*
X22320395Y7000000D01*
X21507298Y7813097D01*
X21263329Y7741514D01*
X21142429Y7486004D01*
X21073700Y7211816D01*
X21059783Y6929488D01*
X660000Y6929488D01*
X660000Y31026260D01*
X7515000Y31026260D01*
X7515000Y30733740D01*
X7572068Y30446842D01*
X7684010Y30176589D01*
X7846525Y29933368D01*
X8053368Y29726525D01*
X8227760Y29610000D01*
X8053368Y29493475D01*
X7846525Y29286632D01*
X7684010Y29043411D01*
X7572068Y28773158D01*
X7515000Y28486260D01*
X7515000Y28193740D01*
X7572068Y27906842D01*
X7684010Y27636589D01*
X7846525Y27393368D01*
X8053368Y27186525D01*
X8227760Y27070000D01*
X8053368Y26953475D01*
X7846525Y26746632D01*
X7684010Y26503411D01*
X7572068Y26233158D01*
X7515000Y25946260D01*
X7515000Y25653740D01*
X7572068Y25366842D01*
X7684010Y25096589D01*
X7846525Y24853368D01*
X8053368Y24646525D01*
X8296589Y24484010D01*
X8566842Y24372068D01*
X8853740Y24315000D01*
X9146260Y24315000D01*
X9433158Y24372068D01*
X9703411Y24484010D01*
X9946632Y24646525D01*
X10153475Y24853368D01*
X10315990Y25096589D01*
X10427932Y25366842D01*
X10485000Y25653740D01*
X10485000Y25946260D01*
X10427932Y26233158D01*
X10315990Y26503411D01*
X10153475Y26746632D01*
X9946632Y26953475D01*
X9772240Y27070000D01*
X9946632Y27186525D01*
X10153475Y27393368D01*
X10315990Y27636589D01*
X10427932Y27906842D01*
X10485000Y28193740D01*
X10485000Y28486260D01*
X10427932Y28773158D01*
X10315990Y29043411D01*
X10153475Y29286632D01*
X9946632Y29493475D01*
X9772240Y29610000D01*
X9946632Y29726525D01*
X10153475Y29933368D01*
X10315990Y30176589D01*
X10427932Y30446842D01*
X10485000Y30733740D01*
X10485000Y31026260D01*
X10427932Y31313158D01*
X10315990Y31583411D01*
X10153475Y31826632D01*
X9946632Y32033475D01*
X9764466Y32155195D01*
X9881355Y32224822D01*
X10097588Y32419731D01*
X10271641Y32653080D01*
X10396825Y32915901D01*
X10441476Y33063110D01*
X10320155Y33293000D01*
X9127000Y33293000D01*
X9127000Y33273000D01*
X8873000Y33273000D01*
X8873000Y33293000D01*
X7679845Y33293000D01*
X7558524Y33063110D01*
X7603175Y32915901D01*
X7728359Y32653080D01*
X7902412Y32419731D01*
X8118645Y32224822D01*
X8235534Y32155195D01*
X8053368Y32033475D01*
X7846525Y31826632D01*
X7684010Y31583411D01*
X7572068Y31313158D01*
X7515000Y31026260D01*
X660000Y31026260D01*
X660000Y45943110D01*
X7558524Y45943110D01*
X7603175Y45795901D01*
X7728359Y45533080D01*
X7902412Y45299731D01*
X8118645Y45104822D01*
X8368748Y44955843D01*
X8643109Y44858519D01*
X8873000Y44979186D01*
X8873000Y46173000D01*
X9127000Y46173000D01*
X9127000Y44979186D01*
X9356891Y44858519D01*
X9631252Y44955843D01*
X9881355Y45104822D01*
X10097588Y45299731D01*
X10271641Y45533080D01*
X10396825Y45795901D01*
X10441476Y45943110D01*
X10320155Y46173000D01*
X9127000Y46173000D01*
X8873000Y46173000D01*
X7679845Y46173000D01*
X7558524Y45943110D01*
X660000Y45943110D01*
X660000Y48483110D01*
X7558524Y48483110D01*
X7603175Y48335901D01*
X7728359Y48073080D01*
X7902412Y47839731D01*
X8118645Y47644822D01*
X8244255Y47570000D01*
X8118645Y47495178D01*
X7902412Y47300269D01*
X7728359Y47066920D01*
X7603175Y46804099D01*
X7558524Y46656890D01*
X7679845Y46427000D01*
X8873000Y46427000D01*
X8873000Y48713000D01*
X9127000Y48713000D01*
X9127000Y46427000D01*
X10320155Y46427000D01*
X10441476Y46656890D01*
X10396825Y46804099D01*
X10271641Y47066920D01*
X10097588Y47300269D01*
X9881355Y47495178D01*
X9755745Y47570000D01*
X9881355Y47644822D01*
X10097588Y47839731D01*
X10271641Y48073080D01*
X10396825Y48335901D01*
X10441476Y48483110D01*
X10320155Y48713000D01*
X9127000Y48713000D01*
X8873000Y48713000D01*
X7679845Y48713000D01*
X7558524Y48483110D01*
X660000Y48483110D01*
X660000Y59850000D01*
X7511928Y59850000D01*
X7511928Y58150000D01*
X7524188Y58025518D01*
X7560498Y57905820D01*
X7619463Y57795506D01*
X7698815Y57698815D01*
X7795506Y57619463D01*
X7905820Y57560498D01*
X7978380Y57538487D01*
X7846525Y57406632D01*
X7684010Y57163411D01*
X7572068Y56893158D01*
X7515000Y56606260D01*
X7515000Y56313740D01*
X7572068Y56026842D01*
X7684010Y55756589D01*
X7846525Y55513368D01*
X8053368Y55306525D01*
X8227760Y55190000D01*
X8053368Y55073475D01*
X7846525Y54866632D01*
X7684010Y54623411D01*
X7572068Y54353158D01*
X7515000Y54066260D01*
X7515000Y53773740D01*
X7572068Y53486842D01*
X7684010Y53216589D01*
X7846525Y52973368D01*
X8053368Y52766525D01*
X8227760Y52650000D01*
X8053368Y52533475D01*
X7846525Y52326632D01*
X7684010Y52083411D01*
X7572068Y51813158D01*
X7515000Y51526260D01*
X7515000Y51233740D01*
X7572068Y50946842D01*
X7684010Y50676589D01*
X7846525Y50433368D01*
X8053368Y50226525D01*
X8235534Y50104805D01*
X8118645Y50035178D01*
X7902412Y49840269D01*
X7728359Y49606920D01*
X7603175Y49344099D01*
X7558524Y49196890D01*
X7679845Y48967000D01*
X8873000Y48967000D01*
X8873000Y48987000D01*
X9127000Y48987000D01*
X9127000Y48967000D01*
X10320155Y48967000D01*
X10441476Y49196890D01*
X10396825Y49344099D01*
X10271641Y49606920D01*
X10097588Y49840269D01*
X9881355Y50035178D01*
X9764466Y50104805D01*
X9946632Y50226525D01*
X10153475Y50433368D01*
X10315990Y50676589D01*
X10329059Y50708140D01*
X15583301Y45453897D01*
X15583300Y33168279D01*
X10488072Y38263506D01*
X10488072Y39350000D01*
X10475812Y39474482D01*
X10439502Y39594180D01*
X10380537Y39704494D01*
X10301185Y39801185D01*
X10204494Y39880537D01*
X10094180Y39939502D01*
X9974482Y39975812D01*
X9850000Y39988072D01*
X8150000Y39988072D01*
X8025518Y39975812D01*
X7905820Y39939502D01*
X7795506Y39880537D01*
X7698815Y39801185D01*
X7619463Y39704494D01*
X7560498Y39594180D01*
X7524188Y39474482D01*
X7511928Y39350000D01*
X7511928Y37650000D01*
X7524188Y37525518D01*
X7560498Y37405820D01*
X7619463Y37295506D01*
X7698815Y37198815D01*
X7795506Y37119463D01*
X7905820Y37060498D01*
X7978380Y37038487D01*
X7846525Y36906632D01*
X7684010Y36663411D01*
X7572068Y36393158D01*
X7515000Y36106260D01*
X7515000Y35813740D01*
X7572068Y35526842D01*
X7684010Y35256589D01*
X7846525Y35013368D01*
X8053368Y34806525D01*
X8235534Y34684805D01*
X8118645Y34615178D01*
X7902412Y34420269D01*
X7728359Y34186920D01*
X7603175Y33924099D01*
X7558524Y33776890D01*
X7679845Y33547000D01*
X8873000Y33547000D01*
X8873000Y33567000D01*
X9127000Y33567000D01*
X9127000Y33547000D01*
X10320155Y33547000D01*
X10441476Y33776890D01*
X10396825Y33924099D01*
X10271641Y34186920D01*
X10097588Y34420269D01*
X9881355Y34615178D01*
X9764466Y34684805D01*
X9946632Y34806525D01*
X10153475Y35013368D01*
X10315990Y35256589D01*
X10427932Y35526842D01*
X10476652Y35771770D01*
X14365001Y31883420D01*
X14365002Y21903480D01*
X14360720Y21860001D01*
X14377806Y21686511D01*
X14428413Y21519688D01*
X14510591Y21365942D01*
X14593469Y21264955D01*
X14593472Y21264952D01*
X14621185Y21231184D01*
X14654953Y21203471D01*
X19064999Y16793424D01*
X19065000Y12203482D01*
X19060718Y12160003D01*
X19077804Y11986513D01*
X19128411Y11819690D01*
X19210589Y11665944D01*
X19293467Y11564957D01*
X19293470Y11564954D01*
X19321183Y11531186D01*
X19354951Y11503473D01*
X22419662Y8438761D01*
X22149870Y8398787D01*
X21883708Y8303603D01*
X21758486Y8236671D01*
X21686903Y7992702D01*
X22500000Y7179605D01*
X22514143Y7193747D01*
X22693748Y7014142D01*
X22679605Y7000000D01*
X23492702Y6186903D01*
X23561928Y6207215D01*
X23561928Y6200000D01*
X23574188Y6075518D01*
X23610498Y5955820D01*
X23669463Y5845506D01*
X23748815Y5748815D01*
X23845506Y5669463D01*
X23955820Y5610498D01*
X24075518Y5574188D01*
X24200000Y5561928D01*
X25800000Y5561928D01*
X25924482Y5574188D01*
X26044180Y5610498D01*
X26154494Y5669463D01*
X26251185Y5748815D01*
X26330537Y5845506D01*
X26389502Y5955820D01*
X26425812Y6075518D01*
X26438072Y6200000D01*
X26438072Y7800000D01*
X26425812Y7924482D01*
X26389502Y8044180D01*
X26330537Y8154494D01*
X26251185Y8251185D01*
X26154494Y8330537D01*
X26044180Y8389502D01*
X25924482Y8425812D01*
X25800000Y8438072D01*
X24923509Y8438072D01*
X24111581Y9250000D01*
X34511928Y9250000D01*
X34511928Y7750000D01*
X34528992Y7576746D01*
X34579528Y7410150D01*
X34661595Y7256614D01*
X34772038Y7122038D01*
X34906614Y7011595D01*
X35060150Y6929528D01*
X35226746Y6878992D01*
X35400000Y6861928D01*
X36600000Y6861928D01*
X36773254Y6878992D01*
X36939850Y6929528D01*
X37093386Y7011595D01*
X37227962Y7122038D01*
X37338405Y7256614D01*
X37392914Y7358593D01*
X37393198Y7358205D01*
X37607954Y7161336D01*
X37856991Y7010146D01*
X38130739Y6910446D01*
X38143110Y6908524D01*
X38373000Y7029845D01*
X38373000Y8373000D01*
X38627000Y8373000D01*
X38627000Y7029845D01*
X38856890Y6908524D01*
X38869261Y6910446D01*
X39143009Y7010146D01*
X39392046Y7161336D01*
X39606802Y7358205D01*
X39779025Y7593188D01*
X39902096Y7857255D01*
X39971285Y8140258D01*
X39827232Y8373000D01*
X38627000Y8373000D01*
X38373000Y8373000D01*
X38353000Y8373000D01*
X38353000Y8627000D01*
X38373000Y8627000D01*
X38373000Y9970155D01*
X38627000Y9970155D01*
X38627000Y8627000D01*
X39827232Y8627000D01*
X39971285Y8859742D01*
X39902096Y9142745D01*
X39852109Y9250000D01*
X45761928Y9250000D01*
X45761928Y7750000D01*
X45778992Y7576746D01*
X45829528Y7410150D01*
X45911595Y7256614D01*
X46022038Y7122038D01*
X46156614Y7011595D01*
X46310150Y6929528D01*
X46476746Y6878992D01*
X46650000Y6861928D01*
X47850000Y6861928D01*
X48023254Y6878992D01*
X48189850Y6929528D01*
X48343386Y7011595D01*
X48477962Y7122038D01*
X48588405Y7256614D01*
X48642777Y7358337D01*
X48694866Y7294866D01*
X48920987Y7109294D01*
X49178967Y6971401D01*
X49458890Y6886487D01*
X49750000Y6857815D01*
X50041111Y6886487D01*
X50321034Y6971401D01*
X50579014Y7109294D01*
X50805134Y7294866D01*
X50990706Y7520986D01*
X51128599Y7778967D01*
X51213513Y8058890D01*
X51235000Y8277051D01*
X51235000Y8722950D01*
X51213513Y8941111D01*
X51128599Y9221034D01*
X51113117Y9250000D01*
X57011928Y9250000D01*
X57011928Y7750000D01*
X57028992Y7576746D01*
X57079528Y7410150D01*
X57161595Y7256614D01*
X57272038Y7122038D01*
X57406614Y7011595D01*
X57560150Y6929528D01*
X57726746Y6878992D01*
X57900000Y6861928D01*
X59100000Y6861928D01*
X59273254Y6878992D01*
X59439850Y6929528D01*
X59593386Y7011595D01*
X59727962Y7122038D01*
X59838405Y7256614D01*
X59892777Y7358337D01*
X59944866Y7294866D01*
X60170987Y7109294D01*
X60428967Y6971401D01*
X60708890Y6886487D01*
X61000000Y6857815D01*
X61291111Y6886487D01*
X61571034Y6971401D01*
X61829014Y7109294D01*
X62055134Y7294866D01*
X62240706Y7520986D01*
X62378599Y7778967D01*
X62463513Y8058890D01*
X62485000Y8277051D01*
X62485000Y8722950D01*
X62463513Y8941111D01*
X62378599Y9221034D01*
X62363117Y9250000D01*
X68511928Y9250000D01*
X68511928Y7750000D01*
X68528992Y7576746D01*
X68579528Y7410150D01*
X68661595Y7256614D01*
X68772038Y7122038D01*
X68906614Y7011595D01*
X69060150Y6929528D01*
X69226746Y6878992D01*
X69400000Y6861928D01*
X70600000Y6861928D01*
X70773254Y6878992D01*
X70939850Y6929528D01*
X71093386Y7011595D01*
X71227962Y7122038D01*
X71338405Y7256614D01*
X71392777Y7358337D01*
X71444866Y7294866D01*
X71670987Y7109294D01*
X71928967Y6971401D01*
X72208890Y6886487D01*
X72500000Y6857815D01*
X72791111Y6886487D01*
X73071034Y6971401D01*
X73329014Y7109294D01*
X73555134Y7294866D01*
X73740706Y7520986D01*
X73878599Y7778967D01*
X73963513Y8058890D01*
X73985000Y8277051D01*
X73985000Y8722950D01*
X73963513Y8941111D01*
X73878599Y9221034D01*
X73863117Y9250000D01*
X80511928Y9250000D01*
X80511928Y7750000D01*
X80528992Y7576746D01*
X80579528Y7410150D01*
X80661595Y7256614D01*
X80772038Y7122038D01*
X80906614Y7011595D01*
X81060150Y6929528D01*
X81226746Y6878992D01*
X81400000Y6861928D01*
X82600000Y6861928D01*
X82773254Y6878992D01*
X82939850Y6929528D01*
X83093386Y7011595D01*
X83227962Y7122038D01*
X83338405Y7256614D01*
X83392777Y7358337D01*
X83444866Y7294866D01*
X83670987Y7109294D01*
X83928967Y6971401D01*
X84208890Y6886487D01*
X84500000Y6857815D01*
X84791111Y6886487D01*
X85071034Y6971401D01*
X85329014Y7109294D01*
X85555134Y7294866D01*
X85740706Y7520986D01*
X85878599Y7778967D01*
X85963513Y8058890D01*
X85985000Y8277051D01*
X85985000Y8722950D01*
X85963513Y8941111D01*
X85878599Y9221034D01*
X85740706Y9479014D01*
X85555134Y9705134D01*
X85329013Y9890706D01*
X85071033Y10028599D01*
X84791110Y10113513D01*
X84500000Y10142185D01*
X84208889Y10113513D01*
X83928966Y10028599D01*
X83670986Y9890706D01*
X83444866Y9705134D01*
X83392777Y9641663D01*
X83338405Y9743386D01*
X83227962Y9877962D01*
X83093386Y9988405D01*
X82939850Y10070472D01*
X82773254Y10121008D01*
X82600000Y10138072D01*
X81400000Y10138072D01*
X81226746Y10121008D01*
X81060150Y10070472D01*
X80906614Y9988405D01*
X80772038Y9877962D01*
X80661595Y9743386D01*
X80579528Y9589850D01*
X80528992Y9423254D01*
X80511928Y9250000D01*
X73863117Y9250000D01*
X73740706Y9479014D01*
X73555134Y9705134D01*
X73329013Y9890706D01*
X73071033Y10028599D01*
X72791110Y10113513D01*
X72500000Y10142185D01*
X72208889Y10113513D01*
X71928966Y10028599D01*
X71670986Y9890706D01*
X71444866Y9705134D01*
X71392777Y9641663D01*
X71338405Y9743386D01*
X71227962Y9877962D01*
X71093386Y9988405D01*
X70939850Y10070472D01*
X70773254Y10121008D01*
X70600000Y10138072D01*
X69400000Y10138072D01*
X69226746Y10121008D01*
X69060150Y10070472D01*
X68906614Y9988405D01*
X68772038Y9877962D01*
X68661595Y9743386D01*
X68579528Y9589850D01*
X68528992Y9423254D01*
X68511928Y9250000D01*
X62363117Y9250000D01*
X62240706Y9479014D01*
X62055134Y9705134D01*
X61829013Y9890706D01*
X61571033Y10028599D01*
X61291110Y10113513D01*
X61000000Y10142185D01*
X60708889Y10113513D01*
X60428966Y10028599D01*
X60170986Y9890706D01*
X59944866Y9705134D01*
X59892777Y9641663D01*
X59838405Y9743386D01*
X59727962Y9877962D01*
X59593386Y9988405D01*
X59439850Y10070472D01*
X59273254Y10121008D01*
X59100000Y10138072D01*
X57900000Y10138072D01*
X57726746Y10121008D01*
X57560150Y10070472D01*
X57406614Y9988405D01*
X57272038Y9877962D01*
X57161595Y9743386D01*
X57079528Y9589850D01*
X57028992Y9423254D01*
X57011928Y9250000D01*
X51113117Y9250000D01*
X50990706Y9479014D01*
X50805134Y9705134D01*
X50579013Y9890706D01*
X50321033Y10028599D01*
X50041110Y10113513D01*
X49750000Y10142185D01*
X49458889Y10113513D01*
X49178966Y10028599D01*
X48920986Y9890706D01*
X48694866Y9705134D01*
X48642777Y9641663D01*
X48588405Y9743386D01*
X48477962Y9877962D01*
X48343386Y9988405D01*
X48189850Y10070472D01*
X48023254Y10121008D01*
X47850000Y10138072D01*
X46650000Y10138072D01*
X46476746Y10121008D01*
X46310150Y10070472D01*
X46156614Y9988405D01*
X46022038Y9877962D01*
X45911595Y9743386D01*
X45829528Y9589850D01*
X45778992Y9423254D01*
X45761928Y9250000D01*
X39852109Y9250000D01*
X39779025Y9406812D01*
X39606802Y9641795D01*
X39392046Y9838664D01*
X39143009Y9989854D01*
X38869261Y10089554D01*
X38856890Y10091476D01*
X38627000Y9970155D01*
X38373000Y9970155D01*
X38143110Y10091476D01*
X38130739Y10089554D01*
X37856991Y9989854D01*
X37607954Y9838664D01*
X37393198Y9641795D01*
X37392914Y9641407D01*
X37338405Y9743386D01*
X37227962Y9877962D01*
X37093386Y9988405D01*
X36939850Y10070472D01*
X36773254Y10121008D01*
X36600000Y10138072D01*
X35400000Y10138072D01*
X35226746Y10121008D01*
X35060150Y10070472D01*
X34906614Y9988405D01*
X34772038Y9877962D01*
X34661595Y9743386D01*
X34579528Y9589850D01*
X34528992Y9423254D01*
X34511928Y9250000D01*
X24111581Y9250000D01*
X21346580Y12015000D01*
X21396260Y12015000D01*
X21683158Y12072068D01*
X21953411Y12184010D01*
X22196632Y12346525D01*
X22321710Y12471603D01*
X22901208Y12471603D01*
X22978843Y12222528D01*
X23242883Y12096629D01*
X23526411Y12024661D01*
X23818531Y12009389D01*
X24108019Y12051401D01*
X24383747Y12149081D01*
X24521157Y12222528D01*
X24598792Y12471603D01*
X23750000Y13320395D01*
X22901208Y12471603D01*
X22321710Y12471603D01*
X22403475Y12553368D01*
X22512416Y12716410D01*
X22721603Y12651208D01*
X23570395Y13500000D01*
X23929605Y13500000D01*
X24778397Y12651208D01*
X24987584Y12716410D01*
X25096525Y12553368D01*
X25303368Y12346525D01*
X25546589Y12184010D01*
X25816842Y12072068D01*
X26103740Y12015000D01*
X26396260Y12015000D01*
X26683158Y12072068D01*
X26953411Y12184010D01*
X27196632Y12346525D01*
X27403475Y12553368D01*
X27565990Y12796589D01*
X27677932Y13066842D01*
X27735000Y13353740D01*
X27735000Y13646260D01*
X27677932Y13933158D01*
X27565990Y14203411D01*
X27403475Y14446632D01*
X27196632Y14653475D01*
X26953411Y14815990D01*
X26683158Y14927932D01*
X26396260Y14985000D01*
X26103740Y14985000D01*
X25816842Y14927932D01*
X25546589Y14815990D01*
X25303368Y14653475D01*
X25096525Y14446632D01*
X24987584Y14283590D01*
X24778397Y14348792D01*
X23929605Y13500000D01*
X23570395Y13500000D01*
X22721603Y14348792D01*
X22512416Y14283590D01*
X22403475Y14446632D01*
X22321710Y14528397D01*
X22901208Y14528397D01*
X23750000Y13679605D01*
X24598792Y14528397D01*
X24521157Y14777472D01*
X24257117Y14903371D01*
X23973589Y14975339D01*
X23681469Y14990611D01*
X23391981Y14948599D01*
X23116253Y14850919D01*
X22978843Y14777472D01*
X22901208Y14528397D01*
X22321710Y14528397D01*
X22196632Y14653475D01*
X21953411Y14815990D01*
X21683158Y14927932D01*
X21396260Y14985000D01*
X21103740Y14985000D01*
X20834999Y14931544D01*
X20834999Y17116534D01*
X20839280Y17160003D01*
X20834999Y17203472D01*
X20834999Y17203480D01*
X20822194Y17333493D01*
X20771588Y17500316D01*
X20767857Y17507298D01*
X35186903Y17507298D01*
X35258486Y17263329D01*
X35513996Y17142429D01*
X35788184Y17073700D01*
X36070512Y17059783D01*
X36350130Y17101213D01*
X36616292Y17196397D01*
X36741514Y17263329D01*
X36813097Y17507298D01*
X36000000Y18320395D01*
X35186903Y17507298D01*
X20767857Y17507298D01*
X20689410Y17654062D01*
X20662458Y17686903D01*
X20606531Y17755050D01*
X20606529Y17755052D01*
X20578816Y17788820D01*
X20545049Y17816531D01*
X19932092Y18429488D01*
X34559783Y18429488D01*
X34601213Y18149870D01*
X34696397Y17883708D01*
X34763329Y17758486D01*
X35007298Y17686903D01*
X35820395Y18500000D01*
X36179605Y18500000D01*
X36992702Y17686903D01*
X37236671Y17758486D01*
X37357571Y18013996D01*
X37426300Y18288184D01*
X37440217Y18570512D01*
X37398787Y18850130D01*
X37303603Y19116292D01*
X37236671Y19241514D01*
X37037340Y19300000D01*
X38061928Y19300000D01*
X38061928Y17700000D01*
X38074188Y17575518D01*
X38110498Y17455820D01*
X38169463Y17345506D01*
X38248815Y17248815D01*
X38345506Y17169463D01*
X38455820Y17110498D01*
X38575518Y17074188D01*
X38700000Y17061928D01*
X40300000Y17061928D01*
X40424482Y17074188D01*
X40544180Y17110498D01*
X40654494Y17169463D01*
X40751185Y17248815D01*
X40830537Y17345506D01*
X40889502Y17455820D01*
X40925812Y17575518D01*
X40938072Y17700000D01*
X40938072Y19300000D01*
X40925812Y19424482D01*
X40889502Y19544180D01*
X40830537Y19654494D01*
X40751185Y19751185D01*
X40654494Y19830537D01*
X40544180Y19889502D01*
X40424482Y19925812D01*
X40300000Y19938072D01*
X38700000Y19938072D01*
X38575518Y19925812D01*
X38455820Y19889502D01*
X38345506Y19830537D01*
X38248815Y19751185D01*
X38169463Y19654494D01*
X38110498Y19544180D01*
X38074188Y19424482D01*
X38061928Y19300000D01*
X37037340Y19300000D01*
X36992702Y19313097D01*
X36179605Y18500000D01*
X35820395Y18500000D01*
X35007298Y19313097D01*
X34763329Y19241514D01*
X34642429Y18986004D01*
X34573700Y18711816D01*
X34559783Y18429488D01*
X19932092Y18429488D01*
X18868878Y19492702D01*
X35186903Y19492702D01*
X36000000Y18679605D01*
X36813097Y19492702D01*
X36741514Y19736671D01*
X36486004Y19857571D01*
X36211816Y19926300D01*
X35929488Y19940217D01*
X35649870Y19898787D01*
X35383708Y19803603D01*
X35258486Y19736671D01*
X35186903Y19492702D01*
X18868878Y19492702D01*
X16135001Y22226579D01*
X16135001Y27829556D01*
X16241361Y27808400D01*
X16445239Y27808400D01*
X16645198Y27848174D01*
X16833556Y27926195D01*
X17003074Y28039463D01*
X17147237Y28183626D01*
X17260505Y28353144D01*
X17338526Y28541502D01*
X17378300Y28741461D01*
X17378300Y28945339D01*
X17338526Y29145298D01*
X17260505Y29333656D01*
X17147237Y29503174D01*
X17103300Y29547111D01*
X17103300Y45731377D01*
X17106976Y45768700D01*
X17103300Y45806023D01*
X17103300Y45806033D01*
X17092303Y45917686D01*
X17048846Y46060947D01*
X16978274Y46192976D01*
X16883301Y46308701D01*
X16854303Y46332499D01*
X10177491Y53009310D01*
X10315990Y53216589D01*
X10331110Y53253091D01*
X19048201Y44535999D01*
X19048200Y23729133D01*
X19044523Y23691800D01*
X19059197Y23542814D01*
X19102654Y23399553D01*
X19173226Y23267524D01*
X19268199Y23151799D01*
X19383924Y23056826D01*
X19515953Y22986254D01*
X19659214Y22942797D01*
X19808200Y22928123D01*
X19845533Y22931800D01*
X23742589Y22931800D01*
X23786526Y22887863D01*
X23956044Y22774595D01*
X24144402Y22696574D01*
X24344361Y22656800D01*
X24548239Y22656800D01*
X24748198Y22696574D01*
X24936556Y22774595D01*
X25106074Y22887863D01*
X25250237Y23032026D01*
X25363505Y23201544D01*
X25441526Y23389902D01*
X25481300Y23589861D01*
X25481300Y23793739D01*
X25441526Y23993698D01*
X25363505Y24182056D01*
X25250237Y24351574D01*
X25106074Y24495737D01*
X24936556Y24609005D01*
X24748198Y24687026D01*
X24548239Y24726800D01*
X24344361Y24726800D01*
X24144402Y24687026D01*
X23956044Y24609005D01*
X23786526Y24495737D01*
X23742589Y24451800D01*
X20568200Y24451800D01*
X20568200Y37592089D01*
X31065000Y37592089D01*
X31065000Y37407911D01*
X31100932Y37227271D01*
X31171414Y37057111D01*
X31240001Y36954463D01*
X31240000Y32045536D01*
X31171414Y31942889D01*
X31100932Y31772729D01*
X31065000Y31592089D01*
X31065000Y31407911D01*
X31100932Y31227271D01*
X31171414Y31057111D01*
X31273738Y30903972D01*
X31403972Y30773738D01*
X31557111Y30671414D01*
X31727271Y30600932D01*
X31907911Y30565000D01*
X32092089Y30565000D01*
X32272729Y30600932D01*
X32442889Y30671414D01*
X32596028Y30773738D01*
X32726262Y30903972D01*
X32828586Y31057111D01*
X32899068Y31227271D01*
X32935000Y31407911D01*
X32935000Y31592089D01*
X32899068Y31772729D01*
X32828586Y31942889D01*
X32760000Y32045535D01*
X32760000Y33594422D01*
X32907911Y33565000D01*
X33092089Y33565000D01*
X33240000Y33594422D01*
X33240000Y30045536D01*
X33171414Y29942889D01*
X33100932Y29772729D01*
X33065000Y29592089D01*
X33065000Y29407911D01*
X33100932Y29227271D01*
X33171414Y29057111D01*
X33273738Y28903972D01*
X33403972Y28773738D01*
X33557111Y28671414D01*
X33727271Y28600932D01*
X33907911Y28565000D01*
X34092089Y28565000D01*
X34272729Y28600932D01*
X34442889Y28671414D01*
X34500000Y28709574D01*
X34557111Y28671414D01*
X34727271Y28600932D01*
X34907911Y28565000D01*
X35092089Y28565000D01*
X35272729Y28600932D01*
X35442889Y28671414D01*
X35500000Y28709574D01*
X35557111Y28671414D01*
X35727271Y28600932D01*
X35907911Y28565000D01*
X36092089Y28565000D01*
X36272729Y28600932D01*
X36442889Y28671414D01*
X36500000Y28709574D01*
X36557111Y28671414D01*
X36727271Y28600932D01*
X36907911Y28565000D01*
X37092089Y28565000D01*
X37272729Y28600932D01*
X37442889Y28671414D01*
X37500000Y28709574D01*
X37557111Y28671414D01*
X37727271Y28600932D01*
X37907911Y28565000D01*
X38092089Y28565000D01*
X38272729Y28600932D01*
X38442889Y28671414D01*
X38596028Y28773738D01*
X38726262Y28903972D01*
X38828586Y29057111D01*
X38899068Y29227271D01*
X38935000Y29407911D01*
X38935000Y29592089D01*
X38899068Y29772729D01*
X38828586Y29942889D01*
X38760000Y30045535D01*
X38760000Y37692089D01*
X61865000Y37692089D01*
X61865000Y37507911D01*
X61900932Y37327271D01*
X61971414Y37157111D01*
X62073738Y37003972D01*
X62203972Y36873738D01*
X62357111Y36771414D01*
X62527271Y36700932D01*
X62707911Y36665000D01*
X62892089Y36665000D01*
X63072729Y36700932D01*
X63242889Y36771414D01*
X63396028Y36873738D01*
X63526262Y37003972D01*
X63628586Y37157111D01*
X63699068Y37327271D01*
X63735000Y37507911D01*
X63735000Y37692089D01*
X63699068Y37872729D01*
X63628586Y38042889D01*
X63526262Y38196028D01*
X63396028Y38326262D01*
X63242889Y38428586D01*
X63072729Y38499068D01*
X62892089Y38535000D01*
X62707911Y38535000D01*
X62527271Y38499068D01*
X62357111Y38428586D01*
X62203972Y38326262D01*
X62073738Y38196028D01*
X61971414Y38042889D01*
X61900932Y37872729D01*
X61865000Y37692089D01*
X38760000Y37692089D01*
X38760000Y40092089D01*
X61865000Y40092089D01*
X61865000Y39907911D01*
X61900932Y39727271D01*
X61971414Y39557111D01*
X62073738Y39403972D01*
X62203972Y39273738D01*
X62357111Y39171414D01*
X62527271Y39100932D01*
X62707911Y39065000D01*
X62892089Y39065000D01*
X63072729Y39100932D01*
X63242889Y39171414D01*
X63396028Y39273738D01*
X63526262Y39403972D01*
X63628586Y39557111D01*
X63699068Y39727271D01*
X63735000Y39907911D01*
X63735000Y40092089D01*
X63699068Y40272729D01*
X63628586Y40442889D01*
X63526262Y40596028D01*
X63396028Y40726262D01*
X63242889Y40828586D01*
X63072729Y40899068D01*
X62892089Y40935000D01*
X62707911Y40935000D01*
X62527271Y40899068D01*
X62357111Y40828586D01*
X62203972Y40726262D01*
X62073738Y40596028D01*
X61971414Y40442889D01*
X61900932Y40272729D01*
X61865000Y40092089D01*
X38760000Y40092089D01*
X38760000Y43454465D01*
X38828586Y43557111D01*
X38899068Y43727271D01*
X38935000Y43907911D01*
X38935000Y44092089D01*
X38899068Y44272729D01*
X38828586Y44442889D01*
X38726262Y44596028D01*
X38596028Y44726262D01*
X38442889Y44828586D01*
X38272729Y44899068D01*
X38092089Y44935000D01*
X37907911Y44935000D01*
X37727271Y44899068D01*
X37557111Y44828586D01*
X37403972Y44726262D01*
X37273738Y44596028D01*
X37171414Y44442889D01*
X37100932Y44272729D01*
X37065000Y44092089D01*
X37065000Y43907911D01*
X37100932Y43727271D01*
X37171414Y43557111D01*
X37240001Y43454463D01*
X37240001Y43405578D01*
X37092089Y43435000D01*
X36907911Y43435000D01*
X36727271Y43399068D01*
X36557111Y43328586D01*
X36403972Y43226262D01*
X36273738Y43096028D01*
X36171414Y42942889D01*
X36100932Y42772729D01*
X36065000Y42592089D01*
X36065000Y42435000D01*
X35907911Y42435000D01*
X35727271Y42399068D01*
X35557111Y42328586D01*
X35403972Y42226262D01*
X35273738Y42096028D01*
X35171414Y41942889D01*
X35100932Y41772729D01*
X35065000Y41592089D01*
X35065000Y41435000D01*
X34907911Y41435000D01*
X34727271Y41399068D01*
X34557111Y41328586D01*
X34403972Y41226262D01*
X34273738Y41096028D01*
X34171414Y40942889D01*
X34100932Y40772729D01*
X34065000Y40592089D01*
X34065000Y40407911D01*
X34100932Y40227271D01*
X34171414Y40057111D01*
X34240000Y39954465D01*
X34240000Y39405578D01*
X34092089Y39435000D01*
X33907911Y39435000D01*
X33727271Y39399068D01*
X33557111Y39328586D01*
X33403972Y39226262D01*
X33273738Y39096028D01*
X33171414Y38942889D01*
X33100932Y38772729D01*
X33065000Y38592089D01*
X33065000Y38407911D01*
X33100932Y38227271D01*
X33171414Y38057111D01*
X33240001Y37954463D01*
X33240001Y36905578D01*
X33092089Y36935000D01*
X32907911Y36935000D01*
X32760000Y36905578D01*
X32760000Y36954465D01*
X32828586Y37057111D01*
X32899068Y37227271D01*
X32935000Y37407911D01*
X32935000Y37592089D01*
X32899068Y37772729D01*
X32828586Y37942889D01*
X32726262Y38096028D01*
X32596028Y38226262D01*
X32442889Y38328586D01*
X32272729Y38399068D01*
X32092089Y38435000D01*
X31907911Y38435000D01*
X31727271Y38399068D01*
X31557111Y38328586D01*
X31403972Y38226262D01*
X31273738Y38096028D01*
X31171414Y37942889D01*
X31100932Y37772729D01*
X31065000Y37592089D01*
X20568200Y37592089D01*
X20568200Y44813480D01*
X20571876Y44850803D01*
X20568200Y44888126D01*
X20568200Y44888135D01*
X20557203Y44999788D01*
X20513746Y45143049D01*
X20480685Y45204901D01*
X20443174Y45275079D01*
X20429215Y45292089D01*
X59465000Y45292089D01*
X59465000Y45107911D01*
X59500932Y44927271D01*
X59571414Y44757111D01*
X59673738Y44603972D01*
X59803972Y44473738D01*
X59957111Y44371414D01*
X60127271Y44300932D01*
X60307911Y44265000D01*
X60492089Y44265000D01*
X60672729Y44300932D01*
X60800000Y44353649D01*
X60927271Y44300932D01*
X61107911Y44265000D01*
X61292089Y44265000D01*
X61472729Y44300932D01*
X61642889Y44371414D01*
X61796028Y44473738D01*
X61926262Y44603972D01*
X62028586Y44757111D01*
X62099068Y44927271D01*
X62135000Y45107911D01*
X62135000Y45292089D01*
X62099068Y45472729D01*
X62028586Y45642889D01*
X61926262Y45796028D01*
X61796028Y45926262D01*
X61642889Y46028586D01*
X61472729Y46099068D01*
X61292089Y46135000D01*
X61107911Y46135000D01*
X60927271Y46099068D01*
X60800000Y46046351D01*
X60672729Y46099068D01*
X60492089Y46135000D01*
X60307911Y46135000D01*
X60127271Y46099068D01*
X59957111Y46028586D01*
X59803972Y45926262D01*
X59673738Y45796028D01*
X59571414Y45642889D01*
X59500932Y45472729D01*
X59465000Y45292089D01*
X20429215Y45292089D01*
X20371999Y45361805D01*
X20348201Y45390803D01*
X20319203Y45414601D01*
X10180295Y55553508D01*
X10315990Y55756589D01*
X10427932Y56026842D01*
X10485000Y56313740D01*
X10485000Y56606260D01*
X10427932Y56893158D01*
X10315990Y57163411D01*
X10153475Y57406632D01*
X10021620Y57538487D01*
X10094180Y57560498D01*
X10204494Y57619463D01*
X10301185Y57698815D01*
X10380537Y57795506D01*
X10439502Y57905820D01*
X10475812Y58025518D01*
X10488072Y58150000D01*
X10488072Y59850000D01*
X10475812Y59974482D01*
X10439502Y60094180D01*
X10380537Y60204494D01*
X10301185Y60301185D01*
X10204494Y60380537D01*
X10094180Y60439502D01*
X9974482Y60475812D01*
X9850000Y60488072D01*
X8150000Y60488072D01*
X8025518Y60475812D01*
X7905820Y60439502D01*
X7795506Y60380537D01*
X7698815Y60301185D01*
X7619463Y60204494D01*
X7560498Y60094180D01*
X7524188Y59974482D01*
X7511928Y59850000D01*
X660000Y59850000D01*
X660000Y63092089D01*
X13865000Y63092089D01*
X13865000Y62907911D01*
X13900932Y62727271D01*
X13971414Y62557111D01*
X14073738Y62403972D01*
X14203972Y62273738D01*
X14357111Y62171414D01*
X14527271Y62100932D01*
X14648351Y62076847D01*
X15476847Y61248351D01*
X15500932Y61127271D01*
X15571414Y60957111D01*
X15673738Y60803972D01*
X15803972Y60673738D01*
X15957111Y60571414D01*
X16127271Y60500932D01*
X16307911Y60465000D01*
X16492089Y60465000D01*
X16672729Y60500932D01*
X16842889Y60571414D01*
X16996028Y60673738D01*
X17126262Y60803972D01*
X17228586Y60957111D01*
X17291354Y61108646D01*
X17442889Y61171414D01*
X17596028Y61273738D01*
X17726262Y61403972D01*
X17828586Y61557111D01*
X17899068Y61727271D01*
X17935000Y61907911D01*
X17935000Y62092089D01*
X17899068Y62272729D01*
X17828586Y62442889D01*
X17726262Y62596028D01*
X17596028Y62726262D01*
X17442889Y62828586D01*
X17272729Y62899068D01*
X17151649Y62923153D01*
X16491366Y63583436D01*
X16467281Y63704516D01*
X16396799Y63874676D01*
X16294475Y64027815D01*
X16164241Y64158049D01*
X16011102Y64260373D01*
X15840942Y64330855D01*
X15660302Y64366787D01*
X15476124Y64366787D01*
X15295484Y64330855D01*
X15125324Y64260373D01*
X14972185Y64158049D01*
X14841951Y64027815D01*
X14779934Y63935000D01*
X14707911Y63935000D01*
X14527271Y63899068D01*
X14357111Y63828586D01*
X14203972Y63726262D01*
X14073738Y63596028D01*
X13971414Y63442889D01*
X13900932Y63272729D01*
X13865000Y63092089D01*
X660000Y63092089D01*
X660000Y66943000D01*
X9395000Y66943000D01*
X9395000Y66393000D01*
X9440624Y66183767D01*
X9526191Y65987455D01*
X9648413Y65811609D01*
X9802592Y65662986D01*
X9982803Y65547298D01*
X10185999Y65475592D01*
X10353000Y65602498D01*
X10353000Y66943000D01*
X9395000Y66943000D01*
X660000Y66943000D01*
X660000Y67747000D01*
X9395000Y67747000D01*
X9395000Y67197000D01*
X10353000Y67197000D01*
X10353000Y68537502D01*
X10607000Y68537502D01*
X10607000Y67197000D01*
X10627000Y67197000D01*
X10627000Y66943000D01*
X10607000Y66943000D01*
X10607000Y65602498D01*
X10774001Y65475592D01*
X10977197Y65547298D01*
X11157408Y65662986D01*
X11311587Y65811609D01*
X11433809Y65987455D01*
X11519376Y66183767D01*
X11565000Y66393000D01*
X11565000Y66680867D01*
X11637271Y66650932D01*
X11817911Y66615000D01*
X12002089Y66615000D01*
X12182729Y66650932D01*
X12352889Y66721414D01*
X12506028Y66823738D01*
X12636262Y66953972D01*
X12738586Y67107111D01*
X12809068Y67277271D01*
X12845000Y67457911D01*
X12845000Y67642089D01*
X16755000Y67642089D01*
X16755000Y67457911D01*
X16790932Y67277271D01*
X16861414Y67107111D01*
X16963738Y66953972D01*
X17093972Y66823738D01*
X17247111Y66721414D01*
X17417271Y66650932D01*
X17597911Y66615000D01*
X17782089Y66615000D01*
X17962729Y66650932D01*
X18035000Y66680867D01*
X18035000Y66393000D01*
X18080624Y66183767D01*
X18166191Y65987455D01*
X18288413Y65811609D01*
X18442592Y65662986D01*
X18622803Y65547298D01*
X18825999Y65475592D01*
X18993000Y65602498D01*
X18993000Y66943000D01*
X19247000Y66943000D01*
X19247000Y65602498D01*
X19414001Y65475592D01*
X19617197Y65547298D01*
X19797408Y65662986D01*
X19859613Y65722950D01*
X40015000Y65722950D01*
X40015000Y65277051D01*
X40036487Y65058890D01*
X40121401Y64778967D01*
X40259294Y64520987D01*
X40444866Y64294866D01*
X40670986Y64109294D01*
X40928966Y63971401D01*
X41208889Y63886487D01*
X41500000Y63857815D01*
X41791110Y63886487D01*
X42071033Y63971401D01*
X42329013Y64109294D01*
X42555134Y64294866D01*
X42607223Y64358337D01*
X42661595Y64256614D01*
X42772038Y64122038D01*
X42906614Y64011595D01*
X43060150Y63929528D01*
X43226746Y63878992D01*
X43400000Y63861928D01*
X44600000Y63861928D01*
X44773254Y63878992D01*
X44939850Y63929528D01*
X45093386Y64011595D01*
X45227962Y64122038D01*
X45338405Y64256614D01*
X45420472Y64410150D01*
X45471008Y64576746D01*
X45488072Y64750000D01*
X45488072Y65722950D01*
X51515000Y65722950D01*
X51515000Y65277051D01*
X51536487Y65058890D01*
X51621401Y64778967D01*
X51759294Y64520987D01*
X51944866Y64294866D01*
X52170986Y64109294D01*
X52428966Y63971401D01*
X52708889Y63886487D01*
X53000000Y63857815D01*
X53291110Y63886487D01*
X53571033Y63971401D01*
X53829013Y64109294D01*
X54055134Y64294866D01*
X54107223Y64358337D01*
X54161595Y64256614D01*
X54272038Y64122038D01*
X54406614Y64011595D01*
X54560150Y63929528D01*
X54726746Y63878992D01*
X54900000Y63861928D01*
X56100000Y63861928D01*
X56273254Y63878992D01*
X56439850Y63929528D01*
X56593386Y64011595D01*
X56727962Y64122038D01*
X56838405Y64256614D01*
X56920472Y64410150D01*
X56971008Y64576746D01*
X56988072Y64750000D01*
X56988072Y65722950D01*
X63515000Y65722950D01*
X63515000Y65277051D01*
X63536487Y65058890D01*
X63621401Y64778967D01*
X63759294Y64520987D01*
X63944866Y64294866D01*
X64170986Y64109294D01*
X64428966Y63971401D01*
X64708889Y63886487D01*
X65000000Y63857815D01*
X65291110Y63886487D01*
X65571033Y63971401D01*
X65829013Y64109294D01*
X66055134Y64294866D01*
X66107223Y64358337D01*
X66161595Y64256614D01*
X66272038Y64122038D01*
X66406614Y64011595D01*
X66560150Y63929528D01*
X66726746Y63878992D01*
X66900000Y63861928D01*
X68100000Y63861928D01*
X68273254Y63878992D01*
X68439850Y63929528D01*
X68593386Y64011595D01*
X68727962Y64122038D01*
X68838405Y64256614D01*
X68920472Y64410150D01*
X68971008Y64576746D01*
X68988072Y64750000D01*
X68988072Y65722950D01*
X75515000Y65722950D01*
X75515000Y65277051D01*
X75536487Y65058890D01*
X75621401Y64778967D01*
X75759294Y64520987D01*
X75944866Y64294866D01*
X76170986Y64109294D01*
X76428966Y63971401D01*
X76708889Y63886487D01*
X77000000Y63857815D01*
X77291110Y63886487D01*
X77571033Y63971401D01*
X77829013Y64109294D01*
X78055134Y64294866D01*
X78107223Y64358337D01*
X78161595Y64256614D01*
X78272038Y64122038D01*
X78406614Y64011595D01*
X78560150Y63929528D01*
X78726746Y63878992D01*
X78900000Y63861928D01*
X80100000Y63861928D01*
X80273254Y63878992D01*
X80439850Y63929528D01*
X80593386Y64011595D01*
X80727962Y64122038D01*
X80838405Y64256614D01*
X80920472Y64410150D01*
X80971008Y64576746D01*
X80988072Y64750000D01*
X80988072Y66250000D01*
X80971008Y66423254D01*
X80920472Y66589850D01*
X80838405Y66743386D01*
X80727962Y66877962D01*
X80593386Y66988405D01*
X80439850Y67070472D01*
X80273254Y67121008D01*
X80100000Y67138072D01*
X78900000Y67138072D01*
X78726746Y67121008D01*
X78560150Y67070472D01*
X78406614Y66988405D01*
X78272038Y66877962D01*
X78161595Y66743386D01*
X78107223Y66641663D01*
X78055134Y66705134D01*
X77829014Y66890706D01*
X77571034Y67028599D01*
X77291111Y67113513D01*
X77000000Y67142185D01*
X76708890Y67113513D01*
X76428967Y67028599D01*
X76170987Y66890706D01*
X75944866Y66705134D01*
X75759294Y66479014D01*
X75621401Y66221034D01*
X75536487Y65941111D01*
X75515000Y65722950D01*
X68988072Y65722950D01*
X68988072Y66250000D01*
X68971008Y66423254D01*
X68920472Y66589850D01*
X68838405Y66743386D01*
X68727962Y66877962D01*
X68593386Y66988405D01*
X68439850Y67070472D01*
X68273254Y67121008D01*
X68100000Y67138072D01*
X66900000Y67138072D01*
X66726746Y67121008D01*
X66560150Y67070472D01*
X66406614Y66988405D01*
X66272038Y66877962D01*
X66161595Y66743386D01*
X66107223Y66641663D01*
X66055134Y66705134D01*
X65829014Y66890706D01*
X65571034Y67028599D01*
X65291111Y67113513D01*
X65000000Y67142185D01*
X64708890Y67113513D01*
X64428967Y67028599D01*
X64170987Y66890706D01*
X63944866Y66705134D01*
X63759294Y66479014D01*
X63621401Y66221034D01*
X63536487Y65941111D01*
X63515000Y65722950D01*
X56988072Y65722950D01*
X56988072Y66250000D01*
X56971008Y66423254D01*
X56920472Y66589850D01*
X56838405Y66743386D01*
X56727962Y66877962D01*
X56593386Y66988405D01*
X56439850Y67070472D01*
X56273254Y67121008D01*
X56100000Y67138072D01*
X54900000Y67138072D01*
X54726746Y67121008D01*
X54560150Y67070472D01*
X54406614Y66988405D01*
X54272038Y66877962D01*
X54161595Y66743386D01*
X54107223Y66641663D01*
X54055134Y66705134D01*
X53829014Y66890706D01*
X53571034Y67028599D01*
X53291111Y67113513D01*
X53000000Y67142185D01*
X52708890Y67113513D01*
X52428967Y67028599D01*
X52170987Y66890706D01*
X51944866Y66705134D01*
X51759294Y66479014D01*
X51621401Y66221034D01*
X51536487Y65941111D01*
X51515000Y65722950D01*
X45488072Y65722950D01*
X45488072Y66250000D01*
X45471008Y66423254D01*
X45420472Y66589850D01*
X45338405Y66743386D01*
X45227962Y66877962D01*
X45093386Y66988405D01*
X44939850Y67070472D01*
X44773254Y67121008D01*
X44600000Y67138072D01*
X43400000Y67138072D01*
X43226746Y67121008D01*
X43060150Y67070472D01*
X42906614Y66988405D01*
X42772038Y66877962D01*
X42661595Y66743386D01*
X42607223Y66641663D01*
X42555134Y66705134D01*
X42329014Y66890706D01*
X42071034Y67028599D01*
X41791111Y67113513D01*
X41500000Y67142185D01*
X41208890Y67113513D01*
X40928967Y67028599D01*
X40670987Y66890706D01*
X40444866Y66705134D01*
X40259294Y66479014D01*
X40121401Y66221034D01*
X40036487Y65941111D01*
X40015000Y65722950D01*
X19859613Y65722950D01*
X19951587Y65811609D01*
X20073809Y65987455D01*
X20159376Y66183767D01*
X20205000Y66393000D01*
X20205000Y66943000D01*
X19247000Y66943000D01*
X18993000Y66943000D01*
X18973000Y66943000D01*
X18973000Y67197000D01*
X18993000Y67197000D01*
X18993000Y68537502D01*
X19247000Y68537502D01*
X19247000Y67197000D01*
X20205000Y67197000D01*
X20205000Y67747000D01*
X20159376Y67956233D01*
X20073809Y68152545D01*
X19951587Y68328391D01*
X19797408Y68477014D01*
X19617197Y68592702D01*
X19414001Y68664408D01*
X19247000Y68537502D01*
X18993000Y68537502D01*
X18825999Y68664408D01*
X18622803Y68592702D01*
X18442592Y68477014D01*
X18288413Y68328391D01*
X18262915Y68291706D01*
X18132889Y68378586D01*
X17962729Y68449068D01*
X17782089Y68485000D01*
X17597911Y68485000D01*
X17417271Y68449068D01*
X17247111Y68378586D01*
X17093972Y68276262D01*
X16963738Y68146028D01*
X16861414Y67992889D01*
X16790932Y67822729D01*
X16755000Y67642089D01*
X12845000Y67642089D01*
X12809068Y67822729D01*
X12738586Y67992889D01*
X12636262Y68146028D01*
X12506028Y68276262D01*
X12352889Y68378586D01*
X12182729Y68449068D01*
X12002089Y68485000D01*
X11817911Y68485000D01*
X11637271Y68449068D01*
X11467111Y68378586D01*
X11337085Y68291706D01*
X11311587Y68328391D01*
X11157408Y68477014D01*
X10977197Y68592702D01*
X10774001Y68664408D01*
X10607000Y68537502D01*
X10353000Y68537502D01*
X10185999Y68664408D01*
X9982803Y68592702D01*
X9802592Y68477014D01*
X9648413Y68328391D01*
X9526191Y68152545D01*
X9440624Y67956233D01*
X9395000Y67747000D01*
X660000Y67747000D01*
X660000Y69967722D01*
X684748Y70220128D01*
X1765000Y70220128D01*
X1765000Y69779872D01*
X1850890Y69348075D01*
X2019369Y68941331D01*
X2263962Y68575271D01*
X2575271Y68263962D01*
X2941331Y68019369D01*
X3348075Y67850890D01*
X3779872Y67765000D01*
X4220128Y67765000D01*
X4651925Y67850890D01*
X5058669Y68019369D01*
X5424729Y68263962D01*
X5736038Y68575271D01*
X5980631Y68941331D01*
X6007955Y69007298D01*
X23686903Y69007298D01*
X23758486Y68763329D01*
X24013996Y68642429D01*
X24288184Y68573700D01*
X24570512Y68559783D01*
X24850130Y68601213D01*
X25116292Y68696397D01*
X25241514Y68763329D01*
X25313097Y69007298D01*
X24500000Y69820395D01*
X23686903Y69007298D01*
X6007955Y69007298D01*
X6149110Y69348075D01*
X6235000Y69779872D01*
X6235000Y70220128D01*
X6149110Y70651925D01*
X5980631Y71058669D01*
X5944329Y71113000D01*
X9395000Y71113000D01*
X9395000Y70713000D01*
X9440624Y70503767D01*
X9526191Y70307455D01*
X9648413Y70131609D01*
X9802592Y69982986D01*
X9982803Y69867298D01*
X10185999Y69795592D01*
X10353000Y69922498D01*
X10353000Y71113000D01*
X10607000Y71113000D01*
X10607000Y69922498D01*
X10774001Y69795592D01*
X10977197Y69867298D01*
X11157408Y69982986D01*
X11311587Y70131609D01*
X11433809Y70307455D01*
X11519376Y70503767D01*
X11565000Y70713000D01*
X11565000Y71113000D01*
X18035000Y71113000D01*
X18035000Y70713000D01*
X18080624Y70503767D01*
X18166191Y70307455D01*
X18288413Y70131609D01*
X18442592Y69982986D01*
X18622803Y69867298D01*
X18825999Y69795592D01*
X18993000Y69922498D01*
X18993000Y71113000D01*
X19247000Y71113000D01*
X19247000Y69922498D01*
X19414001Y69795592D01*
X19617197Y69867298D01*
X19714072Y69929488D01*
X23059783Y69929488D01*
X23101213Y69649870D01*
X23196397Y69383708D01*
X23263329Y69258486D01*
X23507298Y69186903D01*
X24320395Y70000000D01*
X24679605Y70000000D01*
X25492702Y69186903D01*
X25561928Y69207215D01*
X25561928Y69200000D01*
X25574188Y69075518D01*
X25610498Y68955820D01*
X25669463Y68845506D01*
X25748815Y68748815D01*
X25845506Y68669463D01*
X25955820Y68610498D01*
X26075518Y68574188D01*
X26200000Y68561928D01*
X27800000Y68561928D01*
X27924482Y68574188D01*
X28044180Y68610498D01*
X28154494Y68669463D01*
X28251185Y68748815D01*
X28330537Y68845506D01*
X28389502Y68955820D01*
X28425812Y69075518D01*
X28438072Y69200000D01*
X28438072Y70220128D01*
X91765000Y70220128D01*
X91765000Y69779872D01*
X91850890Y69348075D01*
X92019369Y68941331D01*
X92263962Y68575271D01*
X92575271Y68263962D01*
X92941331Y68019369D01*
X93348075Y67850890D01*
X93779872Y67765000D01*
X94220128Y67765000D01*
X94651925Y67850890D01*
X95058669Y68019369D01*
X95424729Y68263962D01*
X95736038Y68575271D01*
X95980631Y68941331D01*
X96149110Y69348075D01*
X96235000Y69779872D01*
X96235000Y70220128D01*
X96149110Y70651925D01*
X95980631Y71058669D01*
X95736038Y71424729D01*
X95424729Y71736038D01*
X95058669Y71980631D01*
X94651925Y72149110D01*
X94220128Y72235000D01*
X93779872Y72235000D01*
X93348075Y72149110D01*
X92941331Y71980631D01*
X92575271Y71736038D01*
X92263962Y71424729D01*
X92019369Y71058669D01*
X91850890Y70651925D01*
X91765000Y70220128D01*
X28438072Y70220128D01*
X28438072Y70800000D01*
X28425812Y70924482D01*
X28389502Y71044180D01*
X28330537Y71154494D01*
X28251185Y71251185D01*
X28154494Y71330537D01*
X28044180Y71389502D01*
X27924482Y71425812D01*
X27800000Y71438072D01*
X26200000Y71438072D01*
X26075518Y71425812D01*
X25955820Y71389502D01*
X25845506Y71330537D01*
X25748815Y71251185D01*
X25669463Y71154494D01*
X25610498Y71044180D01*
X25574188Y70924482D01*
X25561928Y70800000D01*
X25561928Y70792785D01*
X25492702Y70813097D01*
X24679605Y70000000D01*
X24320395Y70000000D01*
X23507298Y70813097D01*
X23263329Y70741514D01*
X23142429Y70486004D01*
X23073700Y70211816D01*
X23059783Y69929488D01*
X19714072Y69929488D01*
X19797408Y69982986D01*
X19951587Y70131609D01*
X20073809Y70307455D01*
X20159376Y70503767D01*
X20205000Y70713000D01*
X20205000Y70992702D01*
X23686903Y70992702D01*
X24500000Y70179605D01*
X25313097Y70992702D01*
X25241514Y71236671D01*
X24986004Y71357571D01*
X24711816Y71426300D01*
X24429488Y71440217D01*
X24149870Y71398787D01*
X23883708Y71303603D01*
X23758486Y71236671D01*
X23686903Y70992702D01*
X20205000Y70992702D01*
X20205000Y71113000D01*
X19247000Y71113000D01*
X18993000Y71113000D01*
X18035000Y71113000D01*
X11565000Y71113000D01*
X10607000Y71113000D01*
X10353000Y71113000D01*
X9395000Y71113000D01*
X5944329Y71113000D01*
X5736038Y71424729D01*
X5424729Y71736038D01*
X5378392Y71767000D01*
X9395000Y71767000D01*
X9395000Y71367000D01*
X10353000Y71367000D01*
X10353000Y72557502D01*
X10607000Y72557502D01*
X10607000Y71367000D01*
X11565000Y71367000D01*
X11565000Y71767000D01*
X18035000Y71767000D01*
X18035000Y71367000D01*
X18993000Y71367000D01*
X18993000Y72557502D01*
X19247000Y72557502D01*
X19247000Y71367000D01*
X20205000Y71367000D01*
X20205000Y71767000D01*
X20159376Y71976233D01*
X20073809Y72172545D01*
X19951587Y72348391D01*
X19797408Y72497014D01*
X19617197Y72612702D01*
X19414001Y72684408D01*
X19247000Y72557502D01*
X18993000Y72557502D01*
X18825999Y72684408D01*
X18622803Y72612702D01*
X18442592Y72497014D01*
X18288413Y72348391D01*
X18166191Y72172545D01*
X18080624Y71976233D01*
X18035000Y71767000D01*
X11565000Y71767000D01*
X11519376Y71976233D01*
X11433809Y72172545D01*
X11311587Y72348391D01*
X11157408Y72497014D01*
X10977197Y72612702D01*
X10774001Y72684408D01*
X10607000Y72557502D01*
X10353000Y72557502D01*
X10185999Y72684408D01*
X9982803Y72612702D01*
X9802592Y72497014D01*
X9648413Y72348391D01*
X9526191Y72172545D01*
X9440624Y71976233D01*
X9395000Y71767000D01*
X5378392Y71767000D01*
X5058669Y71980631D01*
X4651925Y72149110D01*
X4220128Y72235000D01*
X3779872Y72235000D01*
X3348075Y72149110D01*
X2941331Y71980631D01*
X2575271Y71736038D01*
X2263962Y71424729D01*
X2019369Y71058669D01*
X1850890Y70651925D01*
X1765000Y70220128D01*
X684748Y70220128D01*
X726714Y70648126D01*
X914943Y71271572D01*
X1220681Y71846579D01*
X1632279Y72351247D01*
X2134067Y72766362D01*
X2706924Y73076105D01*
X3329039Y73268682D01*
X4007584Y73340000D01*
X93967722Y73340000D01*
X94648126Y73273286D01*
G37*
%TD.AperFunction*%
%TD*%
D25*
X6620000Y1460000D03*
X11700000Y1460000D03*
X16780000Y1460000D03*
X21860000Y1460000D03*
X26940000Y1460000D03*
X1540000Y12780000D03*
X1540000Y22940000D03*
X1540000Y17860000D03*
X1540000Y7700000D03*
X26800000Y42500000D03*
X26800000Y41400000D03*
X26800000Y40400000D03*
X26800000Y39400000D03*
X26800000Y38400000D03*
X26800000Y37400000D03*
D26*
X41190500Y27062400D03*
D25*
X29500000Y73000000D03*
X29500000Y67920000D03*
X29500000Y62840000D03*
X29500000Y57760000D03*
X29500000Y52680000D03*
X29500000Y47600000D03*
X29500000Y42520000D03*
X29500000Y37440000D03*
X29500000Y32360000D03*
X29500000Y27280000D03*
X29500000Y22200000D03*
X29500000Y17120000D03*
X29500000Y12040000D03*
X29500000Y6960000D03*
X29500000Y1880000D03*
X25900000Y42500000D03*
X25900000Y40400000D03*
X25900000Y37400000D03*
X25900000Y41400000D03*
X25900000Y39400000D03*
X25900000Y38400000D03*
X24100000Y42500000D03*
X24100000Y37400000D03*
X24100000Y40400000D03*
X24100000Y39400000D03*
X24100000Y41400000D03*
X24100000Y38400000D03*
X25000000Y42500000D03*
X25000000Y40400000D03*
X25000000Y37400000D03*
X25000000Y41400000D03*
X25000000Y39400000D03*
X25000000Y38400000D03*
X23200000Y40400000D03*
X23200000Y37400000D03*
X22300000Y38400000D03*
X22300000Y39400000D03*
X22300000Y42500000D03*
X22300000Y41400000D03*
X23200000Y42500000D03*
X22300000Y37400000D03*
X23200000Y41400000D03*
X23200000Y39400000D03*
X22300000Y40400000D03*
X23200000Y38400000D03*
X21400000Y42500000D03*
X21400000Y39400000D03*
X21400000Y37400000D03*
X21400000Y38400000D03*
X21400000Y41400000D03*
X21400000Y40400000D03*
X6080000Y58920000D03*
X6080000Y56380000D03*
X6080000Y53840000D03*
X6080000Y51300000D03*
X6080000Y48760000D03*
X6080000Y46220000D03*
X4080000Y56380000D03*
X4080000Y51300000D03*
X4080000Y46220000D03*
X4080000Y53840000D03*
X4080000Y58920000D03*
X4080000Y48760000D03*
X2080000Y48760000D03*
X2080000Y51300000D03*
X2080000Y53840000D03*
X2080000Y58920000D03*
X2080000Y56380000D03*
X2080000Y46220000D03*
X6080000Y38380000D03*
X6080000Y33300000D03*
X6080000Y28220000D03*
X6080000Y35840000D03*
X6080000Y30760000D03*
X2080000Y35840000D03*
X4080000Y30760000D03*
X4080000Y33300000D03*
X4080000Y35840000D03*
X4080000Y38380000D03*
X2080000Y30760000D03*
X4080000Y28220000D03*
X2080000Y33300000D03*
X2080000Y28220000D03*
X2080000Y38380000D03*
X2080000Y25720000D03*
X6080000Y25720000D03*
X4080000Y25720000D03*
X23000000Y45500000D03*
X24500000Y45500000D03*
X26000000Y45500000D03*
X23000000Y44000000D03*
X24500000Y44000000D03*
X26000000Y44000000D03*
X22000000Y36000000D03*
X23500000Y36000000D03*
X25000000Y36000000D03*
X22500000Y34500000D03*
X11500000Y8500000D03*
X11500000Y11500000D03*
X11500000Y15000000D03*
X15000000Y5500000D03*
X15000000Y7000000D03*
X10500000Y73000000D03*
X19000000Y73000000D03*
X21500000Y71000000D03*
X21500000Y69000000D03*
X21500000Y67000000D03*
X21500000Y65000000D03*
X21500000Y62500000D03*
X21500000Y60000000D03*
X19500000Y62500000D03*
X19500000Y65000000D03*
X23750000Y65000000D03*
X23750000Y67000000D03*
X23750000Y62500000D03*
X23750000Y60000000D03*
X26000000Y67000000D03*
X26000000Y65000000D03*
X26000000Y62500000D03*
X26000000Y60000000D03*
X26500000Y30250000D03*
X28250000Y30250000D03*
X28265000Y28515000D03*
X14500000Y25500000D03*
X12000000Y23500000D03*
X8500000Y15000000D03*
X18000000Y44500000D03*
X15600000Y47800000D03*
X13000000Y50400000D03*
X18000000Y33000000D03*
X13000000Y46000000D03*
X13000000Y41000000D03*
X13000000Y36000000D03*
X13000000Y33000000D03*
X18000000Y36000000D03*
X8000000Y71000000D03*
X8000000Y67000000D03*
X13000000Y71000000D03*
X16000000Y71000000D03*
X12000000Y55000000D03*
X14000000Y57000000D03*
X12000000Y57000000D03*
X12000000Y59000000D03*
X14000000Y59000000D03*
X16000000Y57000000D03*
X8500000Y11500000D03*
X17500000Y21500000D03*
X16000000Y20000000D03*
X17500000Y18000000D03*
X24500000Y19500000D03*
X26000000Y11500000D03*
X26000000Y9500000D03*
X24000000Y11500000D03*
X19000000Y12000000D03*
X19000000Y10000000D03*
X21000000Y10000000D03*
X8500000Y18500000D03*
X11500000Y18500000D03*
X20000000Y7000000D03*
X20000000Y5500000D03*
X57500000Y42750000D03*
X58770000Y42750000D03*
X57500000Y41480000D03*
X58770000Y41480000D03*
X57500000Y40210000D03*
X58770000Y40210000D03*
X57500000Y38940000D03*
X58770000Y38940000D03*
X57500000Y37670000D03*
X58770000Y37670000D03*
X57500000Y36400000D03*
X58770000Y36400000D03*
X57500000Y35130000D03*
X58770000Y35130000D03*
X53000000Y44100000D03*
X54270000Y44100000D03*
X53000000Y42830000D03*
X54270000Y42830000D03*
X53000000Y41560000D03*
X54270000Y41560000D03*
X53000000Y40290000D03*
X54270000Y40290000D03*
X53000000Y39020000D03*
X54270000Y39020000D03*
X53000000Y37750000D03*
X54270000Y37750000D03*
X53000000Y36480000D03*
X54270000Y36480000D03*
X53000000Y35210000D03*
X54270000Y35210000D03*
X53000000Y45370000D03*
X54270000Y45370000D03*
X51730000Y45370000D03*
X50460000Y45370000D03*
X49400000Y45000000D03*
D26*
X60600000Y32000000D03*
X60600000Y31000000D03*
X60600000Y30000000D03*
X60600000Y29000000D03*
X60600000Y28000000D03*
X59400000Y32000000D03*
X59400000Y31000000D03*
X59400000Y30000000D03*
X59400000Y29000000D03*
X59400000Y28000000D03*
X58200000Y30000000D03*
X58200000Y29000000D03*
X58200000Y28000000D03*
X57000000Y28000000D03*
X57000000Y29000000D03*
X55800000Y28000000D03*
D25*
X60400000Y45200000D03*
X61200000Y45200000D03*
X62800000Y37600000D03*
X62800000Y40000000D03*
D26*
X24446300Y23691800D03*
X16343300Y28843400D03*
D25*
X16400000Y61400000D03*
X14800000Y63000000D03*
X15568213Y63431787D03*
X17000000Y62000000D03*
X38000000Y29500000D03*
X38000000Y44000000D03*
X37000000Y29500000D03*
X37000000Y42500000D03*
X36000000Y29500000D03*
X36000000Y41500000D03*
X35000000Y40500000D03*
X35000000Y29500000D03*
X34000000Y29500000D03*
X34000000Y38500000D03*
X32000000Y31500000D03*
X32000000Y37500000D03*
X33000000Y36000000D03*
X33000000Y34500000D03*
D26*
X4000000Y70000000D03*
X94000000Y70000000D03*
X94000000Y4000000D03*
X4000000Y4000000D03*
X24500000Y70000000D03*
X27000000Y70000000D03*
X25000000Y7000000D03*
X22500000Y7000000D03*
X39500000Y18500000D03*
X36000000Y18500000D03*
X58500000Y8500000D03*
X61000000Y8500000D03*
X44000000Y65500000D03*
X41500000Y65500000D03*
X55500000Y65500000D03*
X53000000Y65500000D03*
X65000000Y65500000D03*
X67500000Y65500000D03*
X77000000Y65500000D03*
X79500000Y65500000D03*
X82000000Y8500000D03*
X84500000Y8500000D03*
X72500000Y8500000D03*
X70000000Y8500000D03*
X38500000Y8500000D03*
X36000000Y8500000D03*
X47250000Y8500000D03*
X49750000Y8500000D03*
X9000000Y46300000D03*
X9000000Y48840000D03*
X9000000Y51380000D03*
X9000000Y53920000D03*
X9000000Y56460000D03*
X9000000Y59000000D03*
D27*
X19120000Y67070000D03*
X10480000Y67070000D03*
D28*
X19120000Y71240000D03*
X10480000Y71240000D03*
D26*
X11910000Y67550000D03*
X17690000Y67550000D03*
X21250000Y13500000D03*
X23750000Y13500000D03*
X26250000Y13500000D03*
X9000000Y38500000D03*
X9000000Y35960000D03*
X9000000Y33420000D03*
X9000000Y30880000D03*
X9000000Y28340000D03*
X9000000Y25800000D03*
M02*
