%TF.GenerationSoftware,KiCad,Pcbnew,(5.1.12)-1*%
%TF.CreationDate,2022-03-18T17:06:52+09:00*%
%TF.ProjectId,NHK2022_Solenoid_Valve,4e484b32-3032-4325-9f53-6f6c656e6f69,rev?*%
%TF.SameCoordinates,PX42c1d80PY7bfa480*%
%TF.FileFunction,Soldermask,Top*%
%TF.FilePolarity,Negative*%
%FSLAX46Y46*%
G04 Gerber Fmt 4.6, Leading zero omitted, Abs format (unit mm)*
G04 Created by KiCad (PCBNEW (5.1.12)-1) date 2022-03-18 17:06:52*
%MOMM*%
%LPD*%
G01*
G04 APERTURE LIST*
%TA.AperFunction,Profile*%
%ADD10C,0.050000*%
%TD*%
%ADD11C,3.200000*%
%ADD12C,1.600000*%
%ADD13R,1.600000X1.600000*%
%ADD14R,1.000000X1.000000*%
%ADD15R,1.100000X1.100000*%
%ADD16O,1.700000X2.000000*%
%ADD17O,1.700000X1.700000*%
%ADD18R,1.700000X1.700000*%
%ADD19O,0.900000X2.000000*%
%ADD20O,0.900000X1.700000*%
%ADD21R,0.300000X1.160000*%
%ADD22C,0.600000*%
%ADD23R,0.600000X1.160000*%
%ADD24R,2.200000X1.200000*%
%ADD25R,6.400000X5.800000*%
%ADD26C,1.700000*%
%ADD27R,1.500000X1.500000*%
G04 APERTURE END LIST*
D10*
X140000000Y-56000000D02*
X164000000Y-56000000D01*
X164000000Y-130000000D02*
X140000000Y-130000000D01*
X168000000Y-60000000D02*
X168000000Y-126000000D01*
X164000000Y-56000000D02*
G75*
G02*
X168000000Y-60000000I0J-4000000D01*
G01*
X168000000Y-126000000D02*
G75*
G02*
X164000000Y-130000000I-4000000J0D01*
G01*
X74000000Y-56000000D02*
X140000000Y-56000000D01*
X70000000Y-60000000D02*
G75*
G02*
X74000000Y-56000000I4000000J0D01*
G01*
X70000000Y-60000000D02*
X70000000Y-126000000D01*
X74000000Y-130000000D02*
X140000000Y-130000000D01*
X74000000Y-130000000D02*
G75*
G02*
X70000000Y-126000000I0J4000000D01*
G01*
D11*
%TO.C,REF1*%
X74000000Y-60000000D03*
%TD*%
%TO.C,REF2*%
X164000000Y-60000000D03*
%TD*%
%TO.C,REF3*%
X164000000Y-126000000D03*
%TD*%
%TO.C,REF4*%
X74000000Y-126000000D03*
%TD*%
%TO.C,C2*%
G36*
G01*
X83450000Y-127000000D02*
X82950000Y-127000000D01*
G75*
G02*
X82725000Y-126775000I0J225000D01*
G01*
X82725000Y-126325000D01*
G75*
G02*
X82950000Y-126100000I225000J0D01*
G01*
X83450000Y-126100000D01*
G75*
G02*
X83675000Y-126325000I0J-225000D01*
G01*
X83675000Y-126775000D01*
G75*
G02*
X83450000Y-127000000I-225000J0D01*
G01*
G37*
G36*
G01*
X83450000Y-125450000D02*
X82950000Y-125450000D01*
G75*
G02*
X82725000Y-125225000I0J225000D01*
G01*
X82725000Y-124775000D01*
G75*
G02*
X82950000Y-124550000I225000J0D01*
G01*
X83450000Y-124550000D01*
G75*
G02*
X83675000Y-124775000I0J-225000D01*
G01*
X83675000Y-125225000D01*
G75*
G02*
X83450000Y-125450000I-225000J0D01*
G01*
G37*
%TD*%
D12*
%TO.C,C3*%
X94500000Y-60000000D03*
D13*
X97000000Y-60000000D03*
%TD*%
%TO.C,C4*%
G36*
G01*
X83450000Y-122050000D02*
X82950000Y-122050000D01*
G75*
G02*
X82725000Y-121825000I0J225000D01*
G01*
X82725000Y-121375000D01*
G75*
G02*
X82950000Y-121150000I225000J0D01*
G01*
X83450000Y-121150000D01*
G75*
G02*
X83675000Y-121375000I0J-225000D01*
G01*
X83675000Y-121825000D01*
G75*
G02*
X83450000Y-122050000I-225000J0D01*
G01*
G37*
G36*
G01*
X83450000Y-123600000D02*
X82950000Y-123600000D01*
G75*
G02*
X82725000Y-123375000I0J225000D01*
G01*
X82725000Y-122925000D01*
G75*
G02*
X82950000Y-122700000I225000J0D01*
G01*
X83450000Y-122700000D01*
G75*
G02*
X83675000Y-122925000I0J-225000D01*
G01*
X83675000Y-123375000D01*
G75*
G02*
X83450000Y-123600000I-225000J0D01*
G01*
G37*
%TD*%
%TO.C,C5*%
G36*
G01*
X93850000Y-74025000D02*
X93350000Y-74025000D01*
G75*
G02*
X93125000Y-73800000I0J225000D01*
G01*
X93125000Y-73350000D01*
G75*
G02*
X93350000Y-73125000I225000J0D01*
G01*
X93850000Y-73125000D01*
G75*
G02*
X94075000Y-73350000I0J-225000D01*
G01*
X94075000Y-73800000D01*
G75*
G02*
X93850000Y-74025000I-225000J0D01*
G01*
G37*
G36*
G01*
X93850000Y-72475000D02*
X93350000Y-72475000D01*
G75*
G02*
X93125000Y-72250000I0J225000D01*
G01*
X93125000Y-71800000D01*
G75*
G02*
X93350000Y-71575000I225000J0D01*
G01*
X93850000Y-71575000D01*
G75*
G02*
X94075000Y-71800000I0J-225000D01*
G01*
X94075000Y-72250000D01*
G75*
G02*
X93850000Y-72475000I-225000J0D01*
G01*
G37*
%TD*%
%TO.C,C6*%
G36*
G01*
X87250000Y-115275000D02*
X86750000Y-115275000D01*
G75*
G02*
X86525000Y-115050000I0J225000D01*
G01*
X86525000Y-114600000D01*
G75*
G02*
X86750000Y-114375000I225000J0D01*
G01*
X87250000Y-114375000D01*
G75*
G02*
X87475000Y-114600000I0J-225000D01*
G01*
X87475000Y-115050000D01*
G75*
G02*
X87250000Y-115275000I-225000J0D01*
G01*
G37*
G36*
G01*
X87250000Y-116825000D02*
X86750000Y-116825000D01*
G75*
G02*
X86525000Y-116600000I0J225000D01*
G01*
X86525000Y-116150000D01*
G75*
G02*
X86750000Y-115925000I225000J0D01*
G01*
X87250000Y-115925000D01*
G75*
G02*
X87475000Y-116150000I0J-225000D01*
G01*
X87475000Y-116600000D01*
G75*
G02*
X87250000Y-116825000I-225000J0D01*
G01*
G37*
%TD*%
%TO.C,C7*%
G36*
G01*
X87250000Y-120225000D02*
X86750000Y-120225000D01*
G75*
G02*
X86525000Y-120000000I0J225000D01*
G01*
X86525000Y-119550000D01*
G75*
G02*
X86750000Y-119325000I225000J0D01*
G01*
X87250000Y-119325000D01*
G75*
G02*
X87475000Y-119550000I0J-225000D01*
G01*
X87475000Y-120000000D01*
G75*
G02*
X87250000Y-120225000I-225000J0D01*
G01*
G37*
G36*
G01*
X87250000Y-118675000D02*
X86750000Y-118675000D01*
G75*
G02*
X86525000Y-118450000I0J225000D01*
G01*
X86525000Y-118000000D01*
G75*
G02*
X86750000Y-117775000I225000J0D01*
G01*
X87250000Y-117775000D01*
G75*
G02*
X87475000Y-118000000I0J-225000D01*
G01*
X87475000Y-118450000D01*
G75*
G02*
X87250000Y-118675000I-225000J0D01*
G01*
G37*
%TD*%
%TO.C,C8*%
G36*
G01*
X96850000Y-74025000D02*
X96350000Y-74025000D01*
G75*
G02*
X96125000Y-73800000I0J225000D01*
G01*
X96125000Y-73350000D01*
G75*
G02*
X96350000Y-73125000I225000J0D01*
G01*
X96850000Y-73125000D01*
G75*
G02*
X97075000Y-73350000I0J-225000D01*
G01*
X97075000Y-73800000D01*
G75*
G02*
X96850000Y-74025000I-225000J0D01*
G01*
G37*
G36*
G01*
X96850000Y-72475000D02*
X96350000Y-72475000D01*
G75*
G02*
X96125000Y-72250000I0J225000D01*
G01*
X96125000Y-71800000D01*
G75*
G02*
X96350000Y-71575000I225000J0D01*
G01*
X96850000Y-71575000D01*
G75*
G02*
X97075000Y-71800000I0J-225000D01*
G01*
X97075000Y-72250000D01*
G75*
G02*
X96850000Y-72475000I-225000J0D01*
G01*
G37*
%TD*%
%TO.C,C9*%
G36*
G01*
X83450000Y-118675000D02*
X82950000Y-118675000D01*
G75*
G02*
X82725000Y-118450000I0J225000D01*
G01*
X82725000Y-118000000D01*
G75*
G02*
X82950000Y-117775000I225000J0D01*
G01*
X83450000Y-117775000D01*
G75*
G02*
X83675000Y-118000000I0J-225000D01*
G01*
X83675000Y-118450000D01*
G75*
G02*
X83450000Y-118675000I-225000J0D01*
G01*
G37*
G36*
G01*
X83450000Y-120225000D02*
X82950000Y-120225000D01*
G75*
G02*
X82725000Y-120000000I0J225000D01*
G01*
X82725000Y-119550000D01*
G75*
G02*
X82950000Y-119325000I225000J0D01*
G01*
X83450000Y-119325000D01*
G75*
G02*
X83675000Y-119550000I0J-225000D01*
G01*
X83675000Y-120000000D01*
G75*
G02*
X83450000Y-120225000I-225000J0D01*
G01*
G37*
%TD*%
%TO.C,C10*%
X95000000Y-123000000D03*
D12*
X92500000Y-123000000D03*
%TD*%
D13*
%TO.C,C1*%
X109500000Y-111500000D03*
D12*
X106000000Y-111500000D03*
%TD*%
%TO.C,D1*%
G36*
G01*
X114150000Y-103456250D02*
X114150000Y-102943750D01*
G75*
G02*
X114368750Y-102725000I218750J0D01*
G01*
X114806250Y-102725000D01*
G75*
G02*
X115025000Y-102943750I0J-218750D01*
G01*
X115025000Y-103456250D01*
G75*
G02*
X114806250Y-103675000I-218750J0D01*
G01*
X114368750Y-103675000D01*
G75*
G02*
X114150000Y-103456250I0J218750D01*
G01*
G37*
G36*
G01*
X112575000Y-103456250D02*
X112575000Y-102943750D01*
G75*
G02*
X112793750Y-102725000I218750J0D01*
G01*
X113231250Y-102725000D01*
G75*
G02*
X113450000Y-102943750I0J-218750D01*
G01*
X113450000Y-103456250D01*
G75*
G02*
X113231250Y-103675000I-218750J0D01*
G01*
X112793750Y-103675000D01*
G75*
G02*
X112575000Y-103456250I0J218750D01*
G01*
G37*
%TD*%
D14*
%TO.C,D2*%
X111750000Y-71000000D03*
X114250000Y-71000000D03*
%TD*%
%TO.C,D3*%
G36*
G01*
X114243750Y-73775000D02*
X114756250Y-73775000D01*
G75*
G02*
X114975000Y-73993750I0J-218750D01*
G01*
X114975000Y-74431250D01*
G75*
G02*
X114756250Y-74650000I-218750J0D01*
G01*
X114243750Y-74650000D01*
G75*
G02*
X114025000Y-74431250I0J218750D01*
G01*
X114025000Y-73993750D01*
G75*
G02*
X114243750Y-73775000I218750J0D01*
G01*
G37*
G36*
G01*
X114243750Y-75350000D02*
X114756250Y-75350000D01*
G75*
G02*
X114975000Y-75568750I0J-218750D01*
G01*
X114975000Y-76006250D01*
G75*
G02*
X114756250Y-76225000I-218750J0D01*
G01*
X114243750Y-76225000D01*
G75*
G02*
X114025000Y-76006250I0J218750D01*
G01*
X114025000Y-75568750D01*
G75*
G02*
X114243750Y-75350000I218750J0D01*
G01*
G37*
%TD*%
%TO.C,D4*%
X125500000Y-71000000D03*
X123000000Y-71000000D03*
%TD*%
%TO.C,D5*%
G36*
G01*
X125493750Y-75350000D02*
X126006250Y-75350000D01*
G75*
G02*
X126225000Y-75568750I0J-218750D01*
G01*
X126225000Y-76006250D01*
G75*
G02*
X126006250Y-76225000I-218750J0D01*
G01*
X125493750Y-76225000D01*
G75*
G02*
X125275000Y-76006250I0J218750D01*
G01*
X125275000Y-75568750D01*
G75*
G02*
X125493750Y-75350000I218750J0D01*
G01*
G37*
G36*
G01*
X125493750Y-73775000D02*
X126006250Y-73775000D01*
G75*
G02*
X126225000Y-73993750I0J-218750D01*
G01*
X126225000Y-74431250D01*
G75*
G02*
X126006250Y-74650000I-218750J0D01*
G01*
X125493750Y-74650000D01*
G75*
G02*
X125275000Y-74431250I0J218750D01*
G01*
X125275000Y-73993750D01*
G75*
G02*
X125493750Y-73775000I218750J0D01*
G01*
G37*
%TD*%
%TO.C,D6*%
X135250000Y-71000000D03*
X137750000Y-71000000D03*
%TD*%
%TO.C,D7*%
G36*
G01*
X137743750Y-73775000D02*
X138256250Y-73775000D01*
G75*
G02*
X138475000Y-73993750I0J-218750D01*
G01*
X138475000Y-74431250D01*
G75*
G02*
X138256250Y-74650000I-218750J0D01*
G01*
X137743750Y-74650000D01*
G75*
G02*
X137525000Y-74431250I0J218750D01*
G01*
X137525000Y-73993750D01*
G75*
G02*
X137743750Y-73775000I218750J0D01*
G01*
G37*
G36*
G01*
X137743750Y-75350000D02*
X138256250Y-75350000D01*
G75*
G02*
X138475000Y-75568750I0J-218750D01*
G01*
X138475000Y-76006250D01*
G75*
G02*
X138256250Y-76225000I-218750J0D01*
G01*
X137743750Y-76225000D01*
G75*
G02*
X137525000Y-76006250I0J218750D01*
G01*
X137525000Y-75568750D01*
G75*
G02*
X137743750Y-75350000I218750J0D01*
G01*
G37*
%TD*%
%TO.C,D8*%
X147350000Y-70900000D03*
X149850000Y-70900000D03*
%TD*%
%TO.C,D9*%
G36*
G01*
X149743750Y-75350000D02*
X150256250Y-75350000D01*
G75*
G02*
X150475000Y-75568750I0J-218750D01*
G01*
X150475000Y-76006250D01*
G75*
G02*
X150256250Y-76225000I-218750J0D01*
G01*
X149743750Y-76225000D01*
G75*
G02*
X149525000Y-76006250I0J218750D01*
G01*
X149525000Y-75568750D01*
G75*
G02*
X149743750Y-75350000I218750J0D01*
G01*
G37*
G36*
G01*
X149743750Y-73775000D02*
X150256250Y-73775000D01*
G75*
G02*
X150475000Y-73993750I0J-218750D01*
G01*
X150475000Y-74431250D01*
G75*
G02*
X150256250Y-74650000I-218750J0D01*
G01*
X149743750Y-74650000D01*
G75*
G02*
X149525000Y-74431250I0J218750D01*
G01*
X149525000Y-73993750D01*
G75*
G02*
X149743750Y-73775000I218750J0D01*
G01*
G37*
%TD*%
%TO.C,D10*%
X154250000Y-115500000D03*
X151750000Y-115500000D03*
%TD*%
%TO.C,D11*%
G36*
G01*
X151756250Y-112725000D02*
X151243750Y-112725000D01*
G75*
G02*
X151025000Y-112506250I0J218750D01*
G01*
X151025000Y-112068750D01*
G75*
G02*
X151243750Y-111850000I218750J0D01*
G01*
X151756250Y-111850000D01*
G75*
G02*
X151975000Y-112068750I0J-218750D01*
G01*
X151975000Y-112506250D01*
G75*
G02*
X151756250Y-112725000I-218750J0D01*
G01*
G37*
G36*
G01*
X151756250Y-111150000D02*
X151243750Y-111150000D01*
G75*
G02*
X151025000Y-110931250I0J218750D01*
G01*
X151025000Y-110493750D01*
G75*
G02*
X151243750Y-110275000I218750J0D01*
G01*
X151756250Y-110275000D01*
G75*
G02*
X151975000Y-110493750I0J-218750D01*
G01*
X151975000Y-110931250D01*
G75*
G02*
X151756250Y-111150000I-218750J0D01*
G01*
G37*
%TD*%
%TO.C,D12*%
X140750000Y-115500000D03*
X143250000Y-115500000D03*
%TD*%
%TO.C,D13*%
G36*
G01*
X140756250Y-111150000D02*
X140243750Y-111150000D01*
G75*
G02*
X140025000Y-110931250I0J218750D01*
G01*
X140025000Y-110493750D01*
G75*
G02*
X140243750Y-110275000I218750J0D01*
G01*
X140756250Y-110275000D01*
G75*
G02*
X140975000Y-110493750I0J-218750D01*
G01*
X140975000Y-110931250D01*
G75*
G02*
X140756250Y-111150000I-218750J0D01*
G01*
G37*
G36*
G01*
X140756250Y-112725000D02*
X140243750Y-112725000D01*
G75*
G02*
X140025000Y-112506250I0J218750D01*
G01*
X140025000Y-112068750D01*
G75*
G02*
X140243750Y-111850000I218750J0D01*
G01*
X140756250Y-111850000D01*
G75*
G02*
X140975000Y-112068750I0J-218750D01*
G01*
X140975000Y-112506250D01*
G75*
G02*
X140756250Y-112725000I-218750J0D01*
G01*
G37*
%TD*%
%TO.C,D14*%
X128750000Y-115750000D03*
X131250000Y-115750000D03*
%TD*%
%TO.C,D15*%
G36*
G01*
X128756250Y-111400000D02*
X128243750Y-111400000D01*
G75*
G02*
X128025000Y-111181250I0J218750D01*
G01*
X128025000Y-110743750D01*
G75*
G02*
X128243750Y-110525000I218750J0D01*
G01*
X128756250Y-110525000D01*
G75*
G02*
X128975000Y-110743750I0J-218750D01*
G01*
X128975000Y-111181250D01*
G75*
G02*
X128756250Y-111400000I-218750J0D01*
G01*
G37*
G36*
G01*
X128756250Y-112975000D02*
X128243750Y-112975000D01*
G75*
G02*
X128025000Y-112756250I0J218750D01*
G01*
X128025000Y-112318750D01*
G75*
G02*
X128243750Y-112100000I218750J0D01*
G01*
X128756250Y-112100000D01*
G75*
G02*
X128975000Y-112318750I0J-218750D01*
G01*
X128975000Y-112756250D01*
G75*
G02*
X128756250Y-112975000I-218750J0D01*
G01*
G37*
%TD*%
%TO.C,D16*%
X117250000Y-115250000D03*
X119750000Y-115250000D03*
%TD*%
%TO.C,D17*%
G36*
G01*
X117006250Y-112225000D02*
X116493750Y-112225000D01*
G75*
G02*
X116275000Y-112006250I0J218750D01*
G01*
X116275000Y-111568750D01*
G75*
G02*
X116493750Y-111350000I218750J0D01*
G01*
X117006250Y-111350000D01*
G75*
G02*
X117225000Y-111568750I0J-218750D01*
G01*
X117225000Y-112006250D01*
G75*
G02*
X117006250Y-112225000I-218750J0D01*
G01*
G37*
G36*
G01*
X117006250Y-110650000D02*
X116493750Y-110650000D01*
G75*
G02*
X116275000Y-110431250I0J218750D01*
G01*
X116275000Y-109993750D01*
G75*
G02*
X116493750Y-109775000I218750J0D01*
G01*
X117006250Y-109775000D01*
G75*
G02*
X117225000Y-109993750I0J-218750D01*
G01*
X117225000Y-110431250D01*
G75*
G02*
X117006250Y-110650000I-218750J0D01*
G01*
G37*
%TD*%
D15*
%TO.C,D18*%
X89000000Y-74600000D03*
X86200000Y-74600000D03*
%TD*%
%TO.C,D19*%
G36*
G01*
X87256250Y-127025000D02*
X86743750Y-127025000D01*
G75*
G02*
X86525000Y-126806250I0J218750D01*
G01*
X86525000Y-126368750D01*
G75*
G02*
X86743750Y-126150000I218750J0D01*
G01*
X87256250Y-126150000D01*
G75*
G02*
X87475000Y-126368750I0J-218750D01*
G01*
X87475000Y-126806250D01*
G75*
G02*
X87256250Y-127025000I-218750J0D01*
G01*
G37*
G36*
G01*
X87256250Y-125450000D02*
X86743750Y-125450000D01*
G75*
G02*
X86525000Y-125231250I0J218750D01*
G01*
X86525000Y-124793750D01*
G75*
G02*
X86743750Y-124575000I218750J0D01*
G01*
X87256250Y-124575000D01*
G75*
G02*
X87475000Y-124793750I0J-218750D01*
G01*
X87475000Y-125231250D01*
G75*
G02*
X87256250Y-125450000I-218750J0D01*
G01*
G37*
%TD*%
%TO.C,J1*%
G36*
G01*
X127650000Y-122250000D02*
X127650000Y-120750000D01*
G75*
G02*
X127900000Y-120500000I250000J0D01*
G01*
X129100000Y-120500000D01*
G75*
G02*
X129350000Y-120750000I0J-250000D01*
G01*
X129350000Y-122250000D01*
G75*
G02*
X129100000Y-122500000I-250000J0D01*
G01*
X127900000Y-122500000D01*
G75*
G02*
X127650000Y-122250000I0J250000D01*
G01*
G37*
D16*
X131000000Y-121500000D03*
%TD*%
%TO.C,J2*%
G36*
G01*
X114850000Y-63750000D02*
X114850000Y-65250000D01*
G75*
G02*
X114600000Y-65500000I-250000J0D01*
G01*
X113400000Y-65500000D01*
G75*
G02*
X113150000Y-65250000I0J250000D01*
G01*
X113150000Y-63750000D01*
G75*
G02*
X113400000Y-63500000I250000J0D01*
G01*
X114600000Y-63500000D01*
G75*
G02*
X114850000Y-63750000I0J-250000D01*
G01*
G37*
X111500000Y-64500000D03*
%TD*%
%TO.C,J3*%
G36*
G01*
X126350000Y-63750000D02*
X126350000Y-65250000D01*
G75*
G02*
X126100000Y-65500000I-250000J0D01*
G01*
X124900000Y-65500000D01*
G75*
G02*
X124650000Y-65250000I0J250000D01*
G01*
X124650000Y-63750000D01*
G75*
G02*
X124900000Y-63500000I250000J0D01*
G01*
X126100000Y-63500000D01*
G75*
G02*
X126350000Y-63750000I0J-250000D01*
G01*
G37*
X123000000Y-64500000D03*
%TD*%
%TO.C,J4*%
X135000000Y-64500000D03*
G36*
G01*
X138350000Y-63750000D02*
X138350000Y-65250000D01*
G75*
G02*
X138100000Y-65500000I-250000J0D01*
G01*
X136900000Y-65500000D01*
G75*
G02*
X136650000Y-65250000I0J250000D01*
G01*
X136650000Y-63750000D01*
G75*
G02*
X136900000Y-63500000I250000J0D01*
G01*
X138100000Y-63500000D01*
G75*
G02*
X138350000Y-63750000I0J-250000D01*
G01*
G37*
%TD*%
%TO.C,J5*%
X147000000Y-64500000D03*
G36*
G01*
X150350000Y-63750000D02*
X150350000Y-65250000D01*
G75*
G02*
X150100000Y-65500000I-250000J0D01*
G01*
X148900000Y-65500000D01*
G75*
G02*
X148650000Y-65250000I0J250000D01*
G01*
X148650000Y-63750000D01*
G75*
G02*
X148900000Y-63500000I250000J0D01*
G01*
X150100000Y-63500000D01*
G75*
G02*
X150350000Y-63750000I0J-250000D01*
G01*
G37*
%TD*%
%TO.C,J6*%
G36*
G01*
X151150000Y-122250000D02*
X151150000Y-120750000D01*
G75*
G02*
X151400000Y-120500000I250000J0D01*
G01*
X152600000Y-120500000D01*
G75*
G02*
X152850000Y-120750000I0J-250000D01*
G01*
X152850000Y-122250000D01*
G75*
G02*
X152600000Y-122500000I-250000J0D01*
G01*
X151400000Y-122500000D01*
G75*
G02*
X151150000Y-122250000I0J250000D01*
G01*
G37*
X154500000Y-121500000D03*
%TD*%
%TO.C,J7*%
X142500000Y-121500000D03*
G36*
G01*
X139150000Y-122250000D02*
X139150000Y-120750000D01*
G75*
G02*
X139400000Y-120500000I250000J0D01*
G01*
X140600000Y-120500000D01*
G75*
G02*
X140850000Y-120750000I0J-250000D01*
G01*
X140850000Y-122250000D01*
G75*
G02*
X140600000Y-122500000I-250000J0D01*
G01*
X139400000Y-122500000D01*
G75*
G02*
X139150000Y-122250000I0J250000D01*
G01*
G37*
%TD*%
%TO.C,J8*%
X108500000Y-121500000D03*
G36*
G01*
X105150000Y-122250000D02*
X105150000Y-120750000D01*
G75*
G02*
X105400000Y-120500000I250000J0D01*
G01*
X106600000Y-120500000D01*
G75*
G02*
X106850000Y-120750000I0J-250000D01*
G01*
X106850000Y-122250000D01*
G75*
G02*
X106600000Y-122500000I-250000J0D01*
G01*
X105400000Y-122500000D01*
G75*
G02*
X105150000Y-122250000I0J250000D01*
G01*
G37*
%TD*%
%TO.C,J9*%
G36*
G01*
X116400000Y-122250000D02*
X116400000Y-120750000D01*
G75*
G02*
X116650000Y-120500000I250000J0D01*
G01*
X117850000Y-120500000D01*
G75*
G02*
X118100000Y-120750000I0J-250000D01*
G01*
X118100000Y-122250000D01*
G75*
G02*
X117850000Y-122500000I-250000J0D01*
G01*
X116650000Y-122500000D01*
G75*
G02*
X116400000Y-122250000I0J250000D01*
G01*
G37*
X119750000Y-121500000D03*
%TD*%
D17*
%TO.C,UART*%
X79000000Y-83700000D03*
X79000000Y-81160000D03*
X79000000Y-78620000D03*
X79000000Y-76080000D03*
X79000000Y-73540000D03*
D18*
X79000000Y-71000000D03*
%TD*%
D19*
%TO.C,J12*%
X89120000Y-62930000D03*
X80480000Y-62930000D03*
D20*
X89120000Y-58760000D03*
X80480000Y-58760000D03*
D21*
X85550000Y-63510000D03*
X85050000Y-63510000D03*
X84550000Y-63510000D03*
X86550000Y-63510000D03*
X86050000Y-63510000D03*
X83550000Y-63510000D03*
X84050000Y-63510000D03*
X83050000Y-63510000D03*
D22*
X81910000Y-62450000D03*
X87690000Y-62450000D03*
D23*
X87200000Y-63510000D03*
X87200000Y-63510000D03*
X88000000Y-63510000D03*
X88000000Y-63510000D03*
X82400000Y-63510000D03*
X81600000Y-63510000D03*
X82400000Y-63510000D03*
X81600000Y-63510000D03*
%TD*%
%TO.C,R1*%
G36*
G01*
X116975000Y-102925000D02*
X116975000Y-103475000D01*
G75*
G02*
X116775000Y-103675000I-200000J0D01*
G01*
X116375000Y-103675000D01*
G75*
G02*
X116175000Y-103475000I0J200000D01*
G01*
X116175000Y-102925000D01*
G75*
G02*
X116375000Y-102725000I200000J0D01*
G01*
X116775000Y-102725000D01*
G75*
G02*
X116975000Y-102925000I0J-200000D01*
G01*
G37*
G36*
G01*
X118625000Y-102925000D02*
X118625000Y-103475000D01*
G75*
G02*
X118425000Y-103675000I-200000J0D01*
G01*
X118025000Y-103675000D01*
G75*
G02*
X117825000Y-103475000I0J200000D01*
G01*
X117825000Y-102925000D01*
G75*
G02*
X118025000Y-102725000I200000J0D01*
G01*
X118425000Y-102725000D01*
G75*
G02*
X118625000Y-102925000I0J-200000D01*
G01*
G37*
%TD*%
%TO.C,R2*%
G36*
G01*
X111225000Y-73775000D02*
X111775000Y-73775000D01*
G75*
G02*
X111975000Y-73975000I0J-200000D01*
G01*
X111975000Y-74375000D01*
G75*
G02*
X111775000Y-74575000I-200000J0D01*
G01*
X111225000Y-74575000D01*
G75*
G02*
X111025000Y-74375000I0J200000D01*
G01*
X111025000Y-73975000D01*
G75*
G02*
X111225000Y-73775000I200000J0D01*
G01*
G37*
G36*
G01*
X111225000Y-75425000D02*
X111775000Y-75425000D01*
G75*
G02*
X111975000Y-75625000I0J-200000D01*
G01*
X111975000Y-76025000D01*
G75*
G02*
X111775000Y-76225000I-200000J0D01*
G01*
X111225000Y-76225000D01*
G75*
G02*
X111025000Y-76025000I0J200000D01*
G01*
X111025000Y-75625000D01*
G75*
G02*
X111225000Y-75425000I200000J0D01*
G01*
G37*
%TD*%
%TO.C,R3*%
G36*
G01*
X122475000Y-73775000D02*
X123025000Y-73775000D01*
G75*
G02*
X123225000Y-73975000I0J-200000D01*
G01*
X123225000Y-74375000D01*
G75*
G02*
X123025000Y-74575000I-200000J0D01*
G01*
X122475000Y-74575000D01*
G75*
G02*
X122275000Y-74375000I0J200000D01*
G01*
X122275000Y-73975000D01*
G75*
G02*
X122475000Y-73775000I200000J0D01*
G01*
G37*
G36*
G01*
X122475000Y-75425000D02*
X123025000Y-75425000D01*
G75*
G02*
X123225000Y-75625000I0J-200000D01*
G01*
X123225000Y-76025000D01*
G75*
G02*
X123025000Y-76225000I-200000J0D01*
G01*
X122475000Y-76225000D01*
G75*
G02*
X122275000Y-76025000I0J200000D01*
G01*
X122275000Y-75625000D01*
G75*
G02*
X122475000Y-75425000I200000J0D01*
G01*
G37*
%TD*%
%TO.C,R4*%
G36*
G01*
X134725000Y-75425000D02*
X135275000Y-75425000D01*
G75*
G02*
X135475000Y-75625000I0J-200000D01*
G01*
X135475000Y-76025000D01*
G75*
G02*
X135275000Y-76225000I-200000J0D01*
G01*
X134725000Y-76225000D01*
G75*
G02*
X134525000Y-76025000I0J200000D01*
G01*
X134525000Y-75625000D01*
G75*
G02*
X134725000Y-75425000I200000J0D01*
G01*
G37*
G36*
G01*
X134725000Y-73775000D02*
X135275000Y-73775000D01*
G75*
G02*
X135475000Y-73975000I0J-200000D01*
G01*
X135475000Y-74375000D01*
G75*
G02*
X135275000Y-74575000I-200000J0D01*
G01*
X134725000Y-74575000D01*
G75*
G02*
X134525000Y-74375000I0J200000D01*
G01*
X134525000Y-73975000D01*
G75*
G02*
X134725000Y-73775000I200000J0D01*
G01*
G37*
%TD*%
%TO.C,R5*%
G36*
G01*
X146725000Y-73775000D02*
X147275000Y-73775000D01*
G75*
G02*
X147475000Y-73975000I0J-200000D01*
G01*
X147475000Y-74375000D01*
G75*
G02*
X147275000Y-74575000I-200000J0D01*
G01*
X146725000Y-74575000D01*
G75*
G02*
X146525000Y-74375000I0J200000D01*
G01*
X146525000Y-73975000D01*
G75*
G02*
X146725000Y-73775000I200000J0D01*
G01*
G37*
G36*
G01*
X146725000Y-75425000D02*
X147275000Y-75425000D01*
G75*
G02*
X147475000Y-75625000I0J-200000D01*
G01*
X147475000Y-76025000D01*
G75*
G02*
X147275000Y-76225000I-200000J0D01*
G01*
X146725000Y-76225000D01*
G75*
G02*
X146525000Y-76025000I0J200000D01*
G01*
X146525000Y-75625000D01*
G75*
G02*
X146725000Y-75425000I200000J0D01*
G01*
G37*
%TD*%
%TO.C,R6*%
G36*
G01*
X154775000Y-111075000D02*
X154225000Y-111075000D01*
G75*
G02*
X154025000Y-110875000I0J200000D01*
G01*
X154025000Y-110475000D01*
G75*
G02*
X154225000Y-110275000I200000J0D01*
G01*
X154775000Y-110275000D01*
G75*
G02*
X154975000Y-110475000I0J-200000D01*
G01*
X154975000Y-110875000D01*
G75*
G02*
X154775000Y-111075000I-200000J0D01*
G01*
G37*
G36*
G01*
X154775000Y-112725000D02*
X154225000Y-112725000D01*
G75*
G02*
X154025000Y-112525000I0J200000D01*
G01*
X154025000Y-112125000D01*
G75*
G02*
X154225000Y-111925000I200000J0D01*
G01*
X154775000Y-111925000D01*
G75*
G02*
X154975000Y-112125000I0J-200000D01*
G01*
X154975000Y-112525000D01*
G75*
G02*
X154775000Y-112725000I-200000J0D01*
G01*
G37*
%TD*%
%TO.C,R7*%
G36*
G01*
X143775000Y-111075000D02*
X143225000Y-111075000D01*
G75*
G02*
X143025000Y-110875000I0J200000D01*
G01*
X143025000Y-110475000D01*
G75*
G02*
X143225000Y-110275000I200000J0D01*
G01*
X143775000Y-110275000D01*
G75*
G02*
X143975000Y-110475000I0J-200000D01*
G01*
X143975000Y-110875000D01*
G75*
G02*
X143775000Y-111075000I-200000J0D01*
G01*
G37*
G36*
G01*
X143775000Y-112725000D02*
X143225000Y-112725000D01*
G75*
G02*
X143025000Y-112525000I0J200000D01*
G01*
X143025000Y-112125000D01*
G75*
G02*
X143225000Y-111925000I200000J0D01*
G01*
X143775000Y-111925000D01*
G75*
G02*
X143975000Y-112125000I0J-200000D01*
G01*
X143975000Y-112525000D01*
G75*
G02*
X143775000Y-112725000I-200000J0D01*
G01*
G37*
%TD*%
%TO.C,R8*%
G36*
G01*
X131775000Y-112975000D02*
X131225000Y-112975000D01*
G75*
G02*
X131025000Y-112775000I0J200000D01*
G01*
X131025000Y-112375000D01*
G75*
G02*
X131225000Y-112175000I200000J0D01*
G01*
X131775000Y-112175000D01*
G75*
G02*
X131975000Y-112375000I0J-200000D01*
G01*
X131975000Y-112775000D01*
G75*
G02*
X131775000Y-112975000I-200000J0D01*
G01*
G37*
G36*
G01*
X131775000Y-111325000D02*
X131225000Y-111325000D01*
G75*
G02*
X131025000Y-111125000I0J200000D01*
G01*
X131025000Y-110725000D01*
G75*
G02*
X131225000Y-110525000I200000J0D01*
G01*
X131775000Y-110525000D01*
G75*
G02*
X131975000Y-110725000I0J-200000D01*
G01*
X131975000Y-111125000D01*
G75*
G02*
X131775000Y-111325000I-200000J0D01*
G01*
G37*
%TD*%
%TO.C,R9*%
G36*
G01*
X120025000Y-110575000D02*
X119475000Y-110575000D01*
G75*
G02*
X119275000Y-110375000I0J200000D01*
G01*
X119275000Y-109975000D01*
G75*
G02*
X119475000Y-109775000I200000J0D01*
G01*
X120025000Y-109775000D01*
G75*
G02*
X120225000Y-109975000I0J-200000D01*
G01*
X120225000Y-110375000D01*
G75*
G02*
X120025000Y-110575000I-200000J0D01*
G01*
G37*
G36*
G01*
X120025000Y-112225000D02*
X119475000Y-112225000D01*
G75*
G02*
X119275000Y-112025000I0J200000D01*
G01*
X119275000Y-111625000D01*
G75*
G02*
X119475000Y-111425000I200000J0D01*
G01*
X120025000Y-111425000D01*
G75*
G02*
X120225000Y-111625000I0J-200000D01*
G01*
X120225000Y-112025000D01*
G75*
G02*
X120025000Y-112225000I-200000J0D01*
G01*
G37*
%TD*%
%TO.C,R10*%
G36*
G01*
X83475000Y-116850000D02*
X82925000Y-116850000D01*
G75*
G02*
X82725000Y-116650000I0J200000D01*
G01*
X82725000Y-116250000D01*
G75*
G02*
X82925000Y-116050000I200000J0D01*
G01*
X83475000Y-116050000D01*
G75*
G02*
X83675000Y-116250000I0J-200000D01*
G01*
X83675000Y-116650000D01*
G75*
G02*
X83475000Y-116850000I-200000J0D01*
G01*
G37*
G36*
G01*
X83475000Y-115200000D02*
X82925000Y-115200000D01*
G75*
G02*
X82725000Y-115000000I0J200000D01*
G01*
X82725000Y-114600000D01*
G75*
G02*
X82925000Y-114400000I200000J0D01*
G01*
X83475000Y-114400000D01*
G75*
G02*
X83675000Y-114600000I0J-200000D01*
G01*
X83675000Y-115000000D01*
G75*
G02*
X83475000Y-115200000I-200000J0D01*
G01*
G37*
%TD*%
%TO.C,R11*%
G36*
G01*
X88025000Y-81675000D02*
X88025000Y-81125000D01*
G75*
G02*
X88225000Y-80925000I200000J0D01*
G01*
X88625000Y-80925000D01*
G75*
G02*
X88825000Y-81125000I0J-200000D01*
G01*
X88825000Y-81675000D01*
G75*
G02*
X88625000Y-81875000I-200000J0D01*
G01*
X88225000Y-81875000D01*
G75*
G02*
X88025000Y-81675000I0J200000D01*
G01*
G37*
G36*
G01*
X86375000Y-81675000D02*
X86375000Y-81125000D01*
G75*
G02*
X86575000Y-80925000I200000J0D01*
G01*
X86975000Y-80925000D01*
G75*
G02*
X87175000Y-81125000I0J-200000D01*
G01*
X87175000Y-81675000D01*
G75*
G02*
X86975000Y-81875000I-200000J0D01*
G01*
X86575000Y-81875000D01*
G75*
G02*
X86375000Y-81675000I0J200000D01*
G01*
G37*
%TD*%
%TO.C,R12*%
G36*
G01*
X87275000Y-123600000D02*
X86725000Y-123600000D01*
G75*
G02*
X86525000Y-123400000I0J200000D01*
G01*
X86525000Y-123000000D01*
G75*
G02*
X86725000Y-122800000I200000J0D01*
G01*
X87275000Y-122800000D01*
G75*
G02*
X87475000Y-123000000I0J-200000D01*
G01*
X87475000Y-123400000D01*
G75*
G02*
X87275000Y-123600000I-200000J0D01*
G01*
G37*
G36*
G01*
X87275000Y-121950000D02*
X86725000Y-121950000D01*
G75*
G02*
X86525000Y-121750000I0J200000D01*
G01*
X86525000Y-121350000D01*
G75*
G02*
X86725000Y-121150000I200000J0D01*
G01*
X87275000Y-121150000D01*
G75*
G02*
X87475000Y-121350000I0J-200000D01*
G01*
X87475000Y-121750000D01*
G75*
G02*
X87275000Y-121950000I-200000J0D01*
G01*
G37*
%TD*%
%TO.C,U1*%
G36*
G01*
X120350000Y-86070000D02*
X120350000Y-85770000D01*
G75*
G02*
X120500000Y-85620000I150000J0D01*
G01*
X121950000Y-85620000D01*
G75*
G02*
X122100000Y-85770000I0J-150000D01*
G01*
X122100000Y-86070000D01*
G75*
G02*
X121950000Y-86220000I-150000J0D01*
G01*
X120500000Y-86220000D01*
G75*
G02*
X120350000Y-86070000I0J150000D01*
G01*
G37*
G36*
G01*
X120350000Y-87340000D02*
X120350000Y-87040000D01*
G75*
G02*
X120500000Y-86890000I150000J0D01*
G01*
X121950000Y-86890000D01*
G75*
G02*
X122100000Y-87040000I0J-150000D01*
G01*
X122100000Y-87340000D01*
G75*
G02*
X121950000Y-87490000I-150000J0D01*
G01*
X120500000Y-87490000D01*
G75*
G02*
X120350000Y-87340000I0J150000D01*
G01*
G37*
G36*
G01*
X120350000Y-88610000D02*
X120350000Y-88310000D01*
G75*
G02*
X120500000Y-88160000I150000J0D01*
G01*
X121950000Y-88160000D01*
G75*
G02*
X122100000Y-88310000I0J-150000D01*
G01*
X122100000Y-88610000D01*
G75*
G02*
X121950000Y-88760000I-150000J0D01*
G01*
X120500000Y-88760000D01*
G75*
G02*
X120350000Y-88610000I0J150000D01*
G01*
G37*
G36*
G01*
X120350000Y-89880000D02*
X120350000Y-89580000D01*
G75*
G02*
X120500000Y-89430000I150000J0D01*
G01*
X121950000Y-89430000D01*
G75*
G02*
X122100000Y-89580000I0J-150000D01*
G01*
X122100000Y-89880000D01*
G75*
G02*
X121950000Y-90030000I-150000J0D01*
G01*
X120500000Y-90030000D01*
G75*
G02*
X120350000Y-89880000I0J150000D01*
G01*
G37*
G36*
G01*
X120350000Y-91150000D02*
X120350000Y-90850000D01*
G75*
G02*
X120500000Y-90700000I150000J0D01*
G01*
X121950000Y-90700000D01*
G75*
G02*
X122100000Y-90850000I0J-150000D01*
G01*
X122100000Y-91150000D01*
G75*
G02*
X121950000Y-91300000I-150000J0D01*
G01*
X120500000Y-91300000D01*
G75*
G02*
X120350000Y-91150000I0J150000D01*
G01*
G37*
G36*
G01*
X120350000Y-92420000D02*
X120350000Y-92120000D01*
G75*
G02*
X120500000Y-91970000I150000J0D01*
G01*
X121950000Y-91970000D01*
G75*
G02*
X122100000Y-92120000I0J-150000D01*
G01*
X122100000Y-92420000D01*
G75*
G02*
X121950000Y-92570000I-150000J0D01*
G01*
X120500000Y-92570000D01*
G75*
G02*
X120350000Y-92420000I0J150000D01*
G01*
G37*
G36*
G01*
X120350000Y-93690000D02*
X120350000Y-93390000D01*
G75*
G02*
X120500000Y-93240000I150000J0D01*
G01*
X121950000Y-93240000D01*
G75*
G02*
X122100000Y-93390000I0J-150000D01*
G01*
X122100000Y-93690000D01*
G75*
G02*
X121950000Y-93840000I-150000J0D01*
G01*
X120500000Y-93840000D01*
G75*
G02*
X120350000Y-93690000I0J150000D01*
G01*
G37*
G36*
G01*
X120350000Y-94960000D02*
X120350000Y-94660000D01*
G75*
G02*
X120500000Y-94510000I150000J0D01*
G01*
X121950000Y-94510000D01*
G75*
G02*
X122100000Y-94660000I0J-150000D01*
G01*
X122100000Y-94960000D01*
G75*
G02*
X121950000Y-95110000I-150000J0D01*
G01*
X120500000Y-95110000D01*
G75*
G02*
X120350000Y-94960000I0J150000D01*
G01*
G37*
G36*
G01*
X120350000Y-96230000D02*
X120350000Y-95930000D01*
G75*
G02*
X120500000Y-95780000I150000J0D01*
G01*
X121950000Y-95780000D01*
G75*
G02*
X122100000Y-95930000I0J-150000D01*
G01*
X122100000Y-96230000D01*
G75*
G02*
X121950000Y-96380000I-150000J0D01*
G01*
X120500000Y-96380000D01*
G75*
G02*
X120350000Y-96230000I0J150000D01*
G01*
G37*
G36*
G01*
X129900000Y-96230000D02*
X129900000Y-95930000D01*
G75*
G02*
X130050000Y-95780000I150000J0D01*
G01*
X131500000Y-95780000D01*
G75*
G02*
X131650000Y-95930000I0J-150000D01*
G01*
X131650000Y-96230000D01*
G75*
G02*
X131500000Y-96380000I-150000J0D01*
G01*
X130050000Y-96380000D01*
G75*
G02*
X129900000Y-96230000I0J150000D01*
G01*
G37*
G36*
G01*
X129900000Y-94960000D02*
X129900000Y-94660000D01*
G75*
G02*
X130050000Y-94510000I150000J0D01*
G01*
X131500000Y-94510000D01*
G75*
G02*
X131650000Y-94660000I0J-150000D01*
G01*
X131650000Y-94960000D01*
G75*
G02*
X131500000Y-95110000I-150000J0D01*
G01*
X130050000Y-95110000D01*
G75*
G02*
X129900000Y-94960000I0J150000D01*
G01*
G37*
G36*
G01*
X129900000Y-93690000D02*
X129900000Y-93390000D01*
G75*
G02*
X130050000Y-93240000I150000J0D01*
G01*
X131500000Y-93240000D01*
G75*
G02*
X131650000Y-93390000I0J-150000D01*
G01*
X131650000Y-93690000D01*
G75*
G02*
X131500000Y-93840000I-150000J0D01*
G01*
X130050000Y-93840000D01*
G75*
G02*
X129900000Y-93690000I0J150000D01*
G01*
G37*
G36*
G01*
X129900000Y-92420000D02*
X129900000Y-92120000D01*
G75*
G02*
X130050000Y-91970000I150000J0D01*
G01*
X131500000Y-91970000D01*
G75*
G02*
X131650000Y-92120000I0J-150000D01*
G01*
X131650000Y-92420000D01*
G75*
G02*
X131500000Y-92570000I-150000J0D01*
G01*
X130050000Y-92570000D01*
G75*
G02*
X129900000Y-92420000I0J150000D01*
G01*
G37*
G36*
G01*
X129900000Y-91150000D02*
X129900000Y-90850000D01*
G75*
G02*
X130050000Y-90700000I150000J0D01*
G01*
X131500000Y-90700000D01*
G75*
G02*
X131650000Y-90850000I0J-150000D01*
G01*
X131650000Y-91150000D01*
G75*
G02*
X131500000Y-91300000I-150000J0D01*
G01*
X130050000Y-91300000D01*
G75*
G02*
X129900000Y-91150000I0J150000D01*
G01*
G37*
G36*
G01*
X129900000Y-89880000D02*
X129900000Y-89580000D01*
G75*
G02*
X130050000Y-89430000I150000J0D01*
G01*
X131500000Y-89430000D01*
G75*
G02*
X131650000Y-89580000I0J-150000D01*
G01*
X131650000Y-89880000D01*
G75*
G02*
X131500000Y-90030000I-150000J0D01*
G01*
X130050000Y-90030000D01*
G75*
G02*
X129900000Y-89880000I0J150000D01*
G01*
G37*
G36*
G01*
X129900000Y-88610000D02*
X129900000Y-88310000D01*
G75*
G02*
X130050000Y-88160000I150000J0D01*
G01*
X131500000Y-88160000D01*
G75*
G02*
X131650000Y-88310000I0J-150000D01*
G01*
X131650000Y-88610000D01*
G75*
G02*
X131500000Y-88760000I-150000J0D01*
G01*
X130050000Y-88760000D01*
G75*
G02*
X129900000Y-88610000I0J150000D01*
G01*
G37*
G36*
G01*
X129900000Y-87340000D02*
X129900000Y-87040000D01*
G75*
G02*
X130050000Y-86890000I150000J0D01*
G01*
X131500000Y-86890000D01*
G75*
G02*
X131650000Y-87040000I0J-150000D01*
G01*
X131650000Y-87340000D01*
G75*
G02*
X131500000Y-87490000I-150000J0D01*
G01*
X130050000Y-87490000D01*
G75*
G02*
X129900000Y-87340000I0J150000D01*
G01*
G37*
G36*
G01*
X129900000Y-86070000D02*
X129900000Y-85770000D01*
G75*
G02*
X130050000Y-85620000I150000J0D01*
G01*
X131500000Y-85620000D01*
G75*
G02*
X131650000Y-85770000I0J-150000D01*
G01*
X131650000Y-86070000D01*
G75*
G02*
X131500000Y-86220000I-150000J0D01*
G01*
X130050000Y-86220000D01*
G75*
G02*
X129900000Y-86070000I0J150000D01*
G01*
G37*
%TD*%
%TO.C,U2*%
G36*
G01*
X89325000Y-108925000D02*
X89075000Y-108925000D01*
G75*
G02*
X88950000Y-108800000I0J125000D01*
G01*
X88950000Y-107550000D01*
G75*
G02*
X89075000Y-107425000I125000J0D01*
G01*
X89325000Y-107425000D01*
G75*
G02*
X89450000Y-107550000I0J-125000D01*
G01*
X89450000Y-108800000D01*
G75*
G02*
X89325000Y-108925000I-125000J0D01*
G01*
G37*
G36*
G01*
X90125000Y-108925000D02*
X89875000Y-108925000D01*
G75*
G02*
X89750000Y-108800000I0J125000D01*
G01*
X89750000Y-107550000D01*
G75*
G02*
X89875000Y-107425000I125000J0D01*
G01*
X90125000Y-107425000D01*
G75*
G02*
X90250000Y-107550000I0J-125000D01*
G01*
X90250000Y-108800000D01*
G75*
G02*
X90125000Y-108925000I-125000J0D01*
G01*
G37*
G36*
G01*
X90925000Y-108925000D02*
X90675000Y-108925000D01*
G75*
G02*
X90550000Y-108800000I0J125000D01*
G01*
X90550000Y-107550000D01*
G75*
G02*
X90675000Y-107425000I125000J0D01*
G01*
X90925000Y-107425000D01*
G75*
G02*
X91050000Y-107550000I0J-125000D01*
G01*
X91050000Y-108800000D01*
G75*
G02*
X90925000Y-108925000I-125000J0D01*
G01*
G37*
G36*
G01*
X91725000Y-108925000D02*
X91475000Y-108925000D01*
G75*
G02*
X91350000Y-108800000I0J125000D01*
G01*
X91350000Y-107550000D01*
G75*
G02*
X91475000Y-107425000I125000J0D01*
G01*
X91725000Y-107425000D01*
G75*
G02*
X91850000Y-107550000I0J-125000D01*
G01*
X91850000Y-108800000D01*
G75*
G02*
X91725000Y-108925000I-125000J0D01*
G01*
G37*
G36*
G01*
X92525000Y-108925000D02*
X92275000Y-108925000D01*
G75*
G02*
X92150000Y-108800000I0J125000D01*
G01*
X92150000Y-107550000D01*
G75*
G02*
X92275000Y-107425000I125000J0D01*
G01*
X92525000Y-107425000D01*
G75*
G02*
X92650000Y-107550000I0J-125000D01*
G01*
X92650000Y-108800000D01*
G75*
G02*
X92525000Y-108925000I-125000J0D01*
G01*
G37*
G36*
G01*
X93325000Y-108925000D02*
X93075000Y-108925000D01*
G75*
G02*
X92950000Y-108800000I0J125000D01*
G01*
X92950000Y-107550000D01*
G75*
G02*
X93075000Y-107425000I125000J0D01*
G01*
X93325000Y-107425000D01*
G75*
G02*
X93450000Y-107550000I0J-125000D01*
G01*
X93450000Y-108800000D01*
G75*
G02*
X93325000Y-108925000I-125000J0D01*
G01*
G37*
G36*
G01*
X94125000Y-108925000D02*
X93875000Y-108925000D01*
G75*
G02*
X93750000Y-108800000I0J125000D01*
G01*
X93750000Y-107550000D01*
G75*
G02*
X93875000Y-107425000I125000J0D01*
G01*
X94125000Y-107425000D01*
G75*
G02*
X94250000Y-107550000I0J-125000D01*
G01*
X94250000Y-108800000D01*
G75*
G02*
X94125000Y-108925000I-125000J0D01*
G01*
G37*
G36*
G01*
X94925000Y-108925000D02*
X94675000Y-108925000D01*
G75*
G02*
X94550000Y-108800000I0J125000D01*
G01*
X94550000Y-107550000D01*
G75*
G02*
X94675000Y-107425000I125000J0D01*
G01*
X94925000Y-107425000D01*
G75*
G02*
X95050000Y-107550000I0J-125000D01*
G01*
X95050000Y-108800000D01*
G75*
G02*
X94925000Y-108925000I-125000J0D01*
G01*
G37*
G36*
G01*
X96800000Y-107050000D02*
X95550000Y-107050000D01*
G75*
G02*
X95425000Y-106925000I0J125000D01*
G01*
X95425000Y-106675000D01*
G75*
G02*
X95550000Y-106550000I125000J0D01*
G01*
X96800000Y-106550000D01*
G75*
G02*
X96925000Y-106675000I0J-125000D01*
G01*
X96925000Y-106925000D01*
G75*
G02*
X96800000Y-107050000I-125000J0D01*
G01*
G37*
G36*
G01*
X96800000Y-106250000D02*
X95550000Y-106250000D01*
G75*
G02*
X95425000Y-106125000I0J125000D01*
G01*
X95425000Y-105875000D01*
G75*
G02*
X95550000Y-105750000I125000J0D01*
G01*
X96800000Y-105750000D01*
G75*
G02*
X96925000Y-105875000I0J-125000D01*
G01*
X96925000Y-106125000D01*
G75*
G02*
X96800000Y-106250000I-125000J0D01*
G01*
G37*
G36*
G01*
X96800000Y-105450000D02*
X95550000Y-105450000D01*
G75*
G02*
X95425000Y-105325000I0J125000D01*
G01*
X95425000Y-105075000D01*
G75*
G02*
X95550000Y-104950000I125000J0D01*
G01*
X96800000Y-104950000D01*
G75*
G02*
X96925000Y-105075000I0J-125000D01*
G01*
X96925000Y-105325000D01*
G75*
G02*
X96800000Y-105450000I-125000J0D01*
G01*
G37*
G36*
G01*
X96800000Y-104650000D02*
X95550000Y-104650000D01*
G75*
G02*
X95425000Y-104525000I0J125000D01*
G01*
X95425000Y-104275000D01*
G75*
G02*
X95550000Y-104150000I125000J0D01*
G01*
X96800000Y-104150000D01*
G75*
G02*
X96925000Y-104275000I0J-125000D01*
G01*
X96925000Y-104525000D01*
G75*
G02*
X96800000Y-104650000I-125000J0D01*
G01*
G37*
G36*
G01*
X96800000Y-103850000D02*
X95550000Y-103850000D01*
G75*
G02*
X95425000Y-103725000I0J125000D01*
G01*
X95425000Y-103475000D01*
G75*
G02*
X95550000Y-103350000I125000J0D01*
G01*
X96800000Y-103350000D01*
G75*
G02*
X96925000Y-103475000I0J-125000D01*
G01*
X96925000Y-103725000D01*
G75*
G02*
X96800000Y-103850000I-125000J0D01*
G01*
G37*
G36*
G01*
X96800000Y-103050000D02*
X95550000Y-103050000D01*
G75*
G02*
X95425000Y-102925000I0J125000D01*
G01*
X95425000Y-102675000D01*
G75*
G02*
X95550000Y-102550000I125000J0D01*
G01*
X96800000Y-102550000D01*
G75*
G02*
X96925000Y-102675000I0J-125000D01*
G01*
X96925000Y-102925000D01*
G75*
G02*
X96800000Y-103050000I-125000J0D01*
G01*
G37*
G36*
G01*
X96800000Y-102250000D02*
X95550000Y-102250000D01*
G75*
G02*
X95425000Y-102125000I0J125000D01*
G01*
X95425000Y-101875000D01*
G75*
G02*
X95550000Y-101750000I125000J0D01*
G01*
X96800000Y-101750000D01*
G75*
G02*
X96925000Y-101875000I0J-125000D01*
G01*
X96925000Y-102125000D01*
G75*
G02*
X96800000Y-102250000I-125000J0D01*
G01*
G37*
G36*
G01*
X96800000Y-101450000D02*
X95550000Y-101450000D01*
G75*
G02*
X95425000Y-101325000I0J125000D01*
G01*
X95425000Y-101075000D01*
G75*
G02*
X95550000Y-100950000I125000J0D01*
G01*
X96800000Y-100950000D01*
G75*
G02*
X96925000Y-101075000I0J-125000D01*
G01*
X96925000Y-101325000D01*
G75*
G02*
X96800000Y-101450000I-125000J0D01*
G01*
G37*
G36*
G01*
X94925000Y-100575000D02*
X94675000Y-100575000D01*
G75*
G02*
X94550000Y-100450000I0J125000D01*
G01*
X94550000Y-99200000D01*
G75*
G02*
X94675000Y-99075000I125000J0D01*
G01*
X94925000Y-99075000D01*
G75*
G02*
X95050000Y-99200000I0J-125000D01*
G01*
X95050000Y-100450000D01*
G75*
G02*
X94925000Y-100575000I-125000J0D01*
G01*
G37*
G36*
G01*
X94125000Y-100575000D02*
X93875000Y-100575000D01*
G75*
G02*
X93750000Y-100450000I0J125000D01*
G01*
X93750000Y-99200000D01*
G75*
G02*
X93875000Y-99075000I125000J0D01*
G01*
X94125000Y-99075000D01*
G75*
G02*
X94250000Y-99200000I0J-125000D01*
G01*
X94250000Y-100450000D01*
G75*
G02*
X94125000Y-100575000I-125000J0D01*
G01*
G37*
G36*
G01*
X93325000Y-100575000D02*
X93075000Y-100575000D01*
G75*
G02*
X92950000Y-100450000I0J125000D01*
G01*
X92950000Y-99200000D01*
G75*
G02*
X93075000Y-99075000I125000J0D01*
G01*
X93325000Y-99075000D01*
G75*
G02*
X93450000Y-99200000I0J-125000D01*
G01*
X93450000Y-100450000D01*
G75*
G02*
X93325000Y-100575000I-125000J0D01*
G01*
G37*
G36*
G01*
X92525000Y-100575000D02*
X92275000Y-100575000D01*
G75*
G02*
X92150000Y-100450000I0J125000D01*
G01*
X92150000Y-99200000D01*
G75*
G02*
X92275000Y-99075000I125000J0D01*
G01*
X92525000Y-99075000D01*
G75*
G02*
X92650000Y-99200000I0J-125000D01*
G01*
X92650000Y-100450000D01*
G75*
G02*
X92525000Y-100575000I-125000J0D01*
G01*
G37*
G36*
G01*
X91725000Y-100575000D02*
X91475000Y-100575000D01*
G75*
G02*
X91350000Y-100450000I0J125000D01*
G01*
X91350000Y-99200000D01*
G75*
G02*
X91475000Y-99075000I125000J0D01*
G01*
X91725000Y-99075000D01*
G75*
G02*
X91850000Y-99200000I0J-125000D01*
G01*
X91850000Y-100450000D01*
G75*
G02*
X91725000Y-100575000I-125000J0D01*
G01*
G37*
G36*
G01*
X90925000Y-100575000D02*
X90675000Y-100575000D01*
G75*
G02*
X90550000Y-100450000I0J125000D01*
G01*
X90550000Y-99200000D01*
G75*
G02*
X90675000Y-99075000I125000J0D01*
G01*
X90925000Y-99075000D01*
G75*
G02*
X91050000Y-99200000I0J-125000D01*
G01*
X91050000Y-100450000D01*
G75*
G02*
X90925000Y-100575000I-125000J0D01*
G01*
G37*
G36*
G01*
X90125000Y-100575000D02*
X89875000Y-100575000D01*
G75*
G02*
X89750000Y-100450000I0J125000D01*
G01*
X89750000Y-99200000D01*
G75*
G02*
X89875000Y-99075000I125000J0D01*
G01*
X90125000Y-99075000D01*
G75*
G02*
X90250000Y-99200000I0J-125000D01*
G01*
X90250000Y-100450000D01*
G75*
G02*
X90125000Y-100575000I-125000J0D01*
G01*
G37*
G36*
G01*
X89325000Y-100575000D02*
X89075000Y-100575000D01*
G75*
G02*
X88950000Y-100450000I0J125000D01*
G01*
X88950000Y-99200000D01*
G75*
G02*
X89075000Y-99075000I125000J0D01*
G01*
X89325000Y-99075000D01*
G75*
G02*
X89450000Y-99200000I0J-125000D01*
G01*
X89450000Y-100450000D01*
G75*
G02*
X89325000Y-100575000I-125000J0D01*
G01*
G37*
G36*
G01*
X88450000Y-101450000D02*
X87200000Y-101450000D01*
G75*
G02*
X87075000Y-101325000I0J125000D01*
G01*
X87075000Y-101075000D01*
G75*
G02*
X87200000Y-100950000I125000J0D01*
G01*
X88450000Y-100950000D01*
G75*
G02*
X88575000Y-101075000I0J-125000D01*
G01*
X88575000Y-101325000D01*
G75*
G02*
X88450000Y-101450000I-125000J0D01*
G01*
G37*
G36*
G01*
X88450000Y-102250000D02*
X87200000Y-102250000D01*
G75*
G02*
X87075000Y-102125000I0J125000D01*
G01*
X87075000Y-101875000D01*
G75*
G02*
X87200000Y-101750000I125000J0D01*
G01*
X88450000Y-101750000D01*
G75*
G02*
X88575000Y-101875000I0J-125000D01*
G01*
X88575000Y-102125000D01*
G75*
G02*
X88450000Y-102250000I-125000J0D01*
G01*
G37*
G36*
G01*
X88450000Y-103050000D02*
X87200000Y-103050000D01*
G75*
G02*
X87075000Y-102925000I0J125000D01*
G01*
X87075000Y-102675000D01*
G75*
G02*
X87200000Y-102550000I125000J0D01*
G01*
X88450000Y-102550000D01*
G75*
G02*
X88575000Y-102675000I0J-125000D01*
G01*
X88575000Y-102925000D01*
G75*
G02*
X88450000Y-103050000I-125000J0D01*
G01*
G37*
G36*
G01*
X88450000Y-103850000D02*
X87200000Y-103850000D01*
G75*
G02*
X87075000Y-103725000I0J125000D01*
G01*
X87075000Y-103475000D01*
G75*
G02*
X87200000Y-103350000I125000J0D01*
G01*
X88450000Y-103350000D01*
G75*
G02*
X88575000Y-103475000I0J-125000D01*
G01*
X88575000Y-103725000D01*
G75*
G02*
X88450000Y-103850000I-125000J0D01*
G01*
G37*
G36*
G01*
X88450000Y-104650000D02*
X87200000Y-104650000D01*
G75*
G02*
X87075000Y-104525000I0J125000D01*
G01*
X87075000Y-104275000D01*
G75*
G02*
X87200000Y-104150000I125000J0D01*
G01*
X88450000Y-104150000D01*
G75*
G02*
X88575000Y-104275000I0J-125000D01*
G01*
X88575000Y-104525000D01*
G75*
G02*
X88450000Y-104650000I-125000J0D01*
G01*
G37*
G36*
G01*
X88450000Y-105450000D02*
X87200000Y-105450000D01*
G75*
G02*
X87075000Y-105325000I0J125000D01*
G01*
X87075000Y-105075000D01*
G75*
G02*
X87200000Y-104950000I125000J0D01*
G01*
X88450000Y-104950000D01*
G75*
G02*
X88575000Y-105075000I0J-125000D01*
G01*
X88575000Y-105325000D01*
G75*
G02*
X88450000Y-105450000I-125000J0D01*
G01*
G37*
G36*
G01*
X88450000Y-106250000D02*
X87200000Y-106250000D01*
G75*
G02*
X87075000Y-106125000I0J125000D01*
G01*
X87075000Y-105875000D01*
G75*
G02*
X87200000Y-105750000I125000J0D01*
G01*
X88450000Y-105750000D01*
G75*
G02*
X88575000Y-105875000I0J-125000D01*
G01*
X88575000Y-106125000D01*
G75*
G02*
X88450000Y-106250000I-125000J0D01*
G01*
G37*
G36*
G01*
X88450000Y-107050000D02*
X87200000Y-107050000D01*
G75*
G02*
X87075000Y-106925000I0J125000D01*
G01*
X87075000Y-106675000D01*
G75*
G02*
X87200000Y-106550000I125000J0D01*
G01*
X88450000Y-106550000D01*
G75*
G02*
X88575000Y-106675000I0J-125000D01*
G01*
X88575000Y-106925000D01*
G75*
G02*
X88450000Y-107050000I-125000J0D01*
G01*
G37*
%TD*%
%TO.C,U3*%
G36*
G01*
X93245000Y-83450000D02*
X92945000Y-83450000D01*
G75*
G02*
X92795000Y-83300000I0J150000D01*
G01*
X92795000Y-81650000D01*
G75*
G02*
X92945000Y-81500000I150000J0D01*
G01*
X93245000Y-81500000D01*
G75*
G02*
X93395000Y-81650000I0J-150000D01*
G01*
X93395000Y-83300000D01*
G75*
G02*
X93245000Y-83450000I-150000J0D01*
G01*
G37*
G36*
G01*
X94515000Y-83450000D02*
X94215000Y-83450000D01*
G75*
G02*
X94065000Y-83300000I0J150000D01*
G01*
X94065000Y-81650000D01*
G75*
G02*
X94215000Y-81500000I150000J0D01*
G01*
X94515000Y-81500000D01*
G75*
G02*
X94665000Y-81650000I0J-150000D01*
G01*
X94665000Y-83300000D01*
G75*
G02*
X94515000Y-83450000I-150000J0D01*
G01*
G37*
G36*
G01*
X95785000Y-83450000D02*
X95485000Y-83450000D01*
G75*
G02*
X95335000Y-83300000I0J150000D01*
G01*
X95335000Y-81650000D01*
G75*
G02*
X95485000Y-81500000I150000J0D01*
G01*
X95785000Y-81500000D01*
G75*
G02*
X95935000Y-81650000I0J-150000D01*
G01*
X95935000Y-83300000D01*
G75*
G02*
X95785000Y-83450000I-150000J0D01*
G01*
G37*
G36*
G01*
X97055000Y-83450000D02*
X96755000Y-83450000D01*
G75*
G02*
X96605000Y-83300000I0J150000D01*
G01*
X96605000Y-81650000D01*
G75*
G02*
X96755000Y-81500000I150000J0D01*
G01*
X97055000Y-81500000D01*
G75*
G02*
X97205000Y-81650000I0J-150000D01*
G01*
X97205000Y-83300000D01*
G75*
G02*
X97055000Y-83450000I-150000J0D01*
G01*
G37*
G36*
G01*
X97055000Y-78500000D02*
X96755000Y-78500000D01*
G75*
G02*
X96605000Y-78350000I0J150000D01*
G01*
X96605000Y-76700000D01*
G75*
G02*
X96755000Y-76550000I150000J0D01*
G01*
X97055000Y-76550000D01*
G75*
G02*
X97205000Y-76700000I0J-150000D01*
G01*
X97205000Y-78350000D01*
G75*
G02*
X97055000Y-78500000I-150000J0D01*
G01*
G37*
G36*
G01*
X95785000Y-78500000D02*
X95485000Y-78500000D01*
G75*
G02*
X95335000Y-78350000I0J150000D01*
G01*
X95335000Y-76700000D01*
G75*
G02*
X95485000Y-76550000I150000J0D01*
G01*
X95785000Y-76550000D01*
G75*
G02*
X95935000Y-76700000I0J-150000D01*
G01*
X95935000Y-78350000D01*
G75*
G02*
X95785000Y-78500000I-150000J0D01*
G01*
G37*
G36*
G01*
X94515000Y-78500000D02*
X94215000Y-78500000D01*
G75*
G02*
X94065000Y-78350000I0J150000D01*
G01*
X94065000Y-76700000D01*
G75*
G02*
X94215000Y-76550000I150000J0D01*
G01*
X94515000Y-76550000D01*
G75*
G02*
X94665000Y-76700000I0J-150000D01*
G01*
X94665000Y-78350000D01*
G75*
G02*
X94515000Y-78500000I-150000J0D01*
G01*
G37*
G36*
G01*
X93245000Y-78500000D02*
X92945000Y-78500000D01*
G75*
G02*
X92795000Y-78350000I0J150000D01*
G01*
X92795000Y-76700000D01*
G75*
G02*
X92945000Y-76550000I150000J0D01*
G01*
X93245000Y-76550000D01*
G75*
G02*
X93395000Y-76700000I0J-150000D01*
G01*
X93395000Y-78350000D01*
G75*
G02*
X93245000Y-78500000I-150000J0D01*
G01*
G37*
%TD*%
D24*
%TO.C,U4*%
X87800000Y-87720000D03*
X87800000Y-90000000D03*
X87800000Y-92280000D03*
D25*
X94100000Y-90000000D03*
%TD*%
D26*
%TO.C,Y1*%
X91250000Y-116500000D03*
X93750000Y-116500000D03*
X96250000Y-116500000D03*
%TD*%
D27*
%TO.C,SW1*%
X74000000Y-111100000D03*
X74000000Y-118900000D03*
%TD*%
%TO.C,F1*%
G36*
G01*
X90300000Y-76749999D02*
X90300000Y-79650001D01*
G75*
G02*
X90050001Y-79900000I-249999J0D01*
G01*
X89424999Y-79900000D01*
G75*
G02*
X89175000Y-79650001I0J249999D01*
G01*
X89175000Y-76749999D01*
G75*
G02*
X89424999Y-76500000I249999J0D01*
G01*
X90050001Y-76500000D01*
G75*
G02*
X90300000Y-76749999I0J-249999D01*
G01*
G37*
G36*
G01*
X86025000Y-76749999D02*
X86025000Y-79650001D01*
G75*
G02*
X85775001Y-79900000I-249999J0D01*
G01*
X85149999Y-79900000D01*
G75*
G02*
X84900000Y-79650001I0J249999D01*
G01*
X84900000Y-76749999D01*
G75*
G02*
X85149999Y-76500000I249999J0D01*
G01*
X85775001Y-76500000D01*
G75*
G02*
X86025000Y-76749999I0J-249999D01*
G01*
G37*
%TD*%
D18*
%TO.C,ST-Link*%
X79000000Y-91500000D03*
D17*
X79000000Y-94040000D03*
X79000000Y-96580000D03*
X79000000Y-99120000D03*
X79000000Y-101660000D03*
X79000000Y-104200000D03*
%TD*%
M02*
