%TF.GenerationSoftware,KiCad,Pcbnew,(5.1.12)-1*%
%TF.CreationDate,2022-03-18T17:06:52+09:00*%
%TF.ProjectId,NHK2022_Solenoid_Valve,4e484b32-3032-4325-9f53-6f6c656e6f69,rev?*%
%TF.SameCoordinates,PX42c1d80PY7bfa480*%
%TF.FileFunction,Copper,L2,Bot*%
%TF.FilePolarity,Positive*%
%FSLAX46Y46*%
G04 Gerber Fmt 4.6, Leading zero omitted, Abs format (unit mm)*
G04 Created by KiCad (PCBNEW (5.1.12)-1) date 2022-03-18 17:06:52*
%MOMM*%
%LPD*%
G01*
G04 APERTURE LIST*
%TA.AperFunction,Profile*%
%ADD10C,0.050000*%
%TD*%
%TA.AperFunction,ComponentPad*%
%ADD11C,1.600000*%
%TD*%
%TA.AperFunction,ComponentPad*%
%ADD12R,1.600000X1.600000*%
%TD*%
%TA.AperFunction,ComponentPad*%
%ADD13O,1.700000X2.000000*%
%TD*%
%TA.AperFunction,ComponentPad*%
%ADD14O,1.700000X1.700000*%
%TD*%
%TA.AperFunction,ComponentPad*%
%ADD15R,1.700000X1.700000*%
%TD*%
%TA.AperFunction,ComponentPad*%
%ADD16O,0.900000X2.000000*%
%TD*%
%TA.AperFunction,ComponentPad*%
%ADD17O,0.900000X1.700000*%
%TD*%
%TA.AperFunction,ComponentPad*%
%ADD18C,1.700000*%
%TD*%
%TA.AperFunction,ViaPad*%
%ADD19C,0.600000*%
%TD*%
%TA.AperFunction,ViaPad*%
%ADD20C,0.800000*%
%TD*%
%TA.AperFunction,Conductor*%
%ADD21C,0.500000*%
%TD*%
%TA.AperFunction,Conductor*%
%ADD22C,0.250000*%
%TD*%
%TA.AperFunction,Conductor*%
%ADD23C,0.254000*%
%TD*%
%TA.AperFunction,Conductor*%
%ADD24C,0.100000*%
%TD*%
%ADD25C,0.300000*%
%ADD26C,0.350000*%
%ADD27O,0.600000X1.700000*%
%ADD28O,0.600000X1.400000*%
G04 APERTURE END LIST*
D10*
X140000000Y-56000000D02*
X164000000Y-56000000D01*
X164000000Y-130000000D02*
X140000000Y-130000000D01*
X168000000Y-60000000D02*
X168000000Y-126000000D01*
X164000000Y-56000000D02*
G75*
G02*
X168000000Y-60000000I0J-4000000D01*
G01*
X168000000Y-126000000D02*
G75*
G02*
X164000000Y-130000000I-4000000J0D01*
G01*
X74000000Y-56000000D02*
X140000000Y-56000000D01*
X70000000Y-60000000D02*
G75*
G02*
X74000000Y-56000000I4000000J0D01*
G01*
X70000000Y-60000000D02*
X70000000Y-126000000D01*
X74000000Y-130000000D02*
X140000000Y-130000000D01*
X74000000Y-130000000D02*
G75*
G02*
X70000000Y-126000000I0J4000000D01*
G01*
D11*
%TO.P,C3,2*%
%TO.N,GND*%
X94500000Y-60000000D03*
D12*
%TO.P,C3,1*%
%TO.N,+5V*%
X97000000Y-60000000D03*
%TD*%
%TO.P,C10,1*%
%TO.N,+3V3*%
X95000000Y-123000000D03*
D11*
%TO.P,C10,2*%
%TO.N,GND*%
X92500000Y-123000000D03*
%TD*%
D12*
%TO.P,C1,1*%
%TO.N,VCC*%
X109500000Y-111500000D03*
D11*
%TO.P,C1,2*%
%TO.N,GND*%
X106000000Y-111500000D03*
%TD*%
%TO.P,J1,1*%
%TO.N,/O1*%
%TA.AperFunction,ComponentPad*%
G36*
G01*
X127650000Y-122250000D02*
X127650000Y-120750000D01*
G75*
G02*
X127900000Y-120500000I250000J0D01*
G01*
X129100000Y-120500000D01*
G75*
G02*
X129350000Y-120750000I0J-250000D01*
G01*
X129350000Y-122250000D01*
G75*
G02*
X129100000Y-122500000I-250000J0D01*
G01*
X127900000Y-122500000D01*
G75*
G02*
X127650000Y-122250000I0J250000D01*
G01*
G37*
%TD.AperFunction*%
D13*
%TO.P,J1,2*%
%TO.N,VCC*%
X131000000Y-121500000D03*
%TD*%
%TO.P,J2,1*%
%TO.N,/O2*%
%TA.AperFunction,ComponentPad*%
G36*
G01*
X114850000Y-63750000D02*
X114850000Y-65250000D01*
G75*
G02*
X114600000Y-65500000I-250000J0D01*
G01*
X113400000Y-65500000D01*
G75*
G02*
X113150000Y-65250000I0J250000D01*
G01*
X113150000Y-63750000D01*
G75*
G02*
X113400000Y-63500000I250000J0D01*
G01*
X114600000Y-63500000D01*
G75*
G02*
X114850000Y-63750000I0J-250000D01*
G01*
G37*
%TD.AperFunction*%
%TO.P,J2,2*%
%TO.N,VCC*%
X111500000Y-64500000D03*
%TD*%
%TO.P,J3,1*%
%TO.N,/O3*%
%TA.AperFunction,ComponentPad*%
G36*
G01*
X126350000Y-63750000D02*
X126350000Y-65250000D01*
G75*
G02*
X126100000Y-65500000I-250000J0D01*
G01*
X124900000Y-65500000D01*
G75*
G02*
X124650000Y-65250000I0J250000D01*
G01*
X124650000Y-63750000D01*
G75*
G02*
X124900000Y-63500000I250000J0D01*
G01*
X126100000Y-63500000D01*
G75*
G02*
X126350000Y-63750000I0J-250000D01*
G01*
G37*
%TD.AperFunction*%
%TO.P,J3,2*%
%TO.N,VCC*%
X123000000Y-64500000D03*
%TD*%
%TO.P,J4,2*%
%TO.N,VCC*%
X135000000Y-64500000D03*
%TO.P,J4,1*%
%TO.N,/O4*%
%TA.AperFunction,ComponentPad*%
G36*
G01*
X138350000Y-63750000D02*
X138350000Y-65250000D01*
G75*
G02*
X138100000Y-65500000I-250000J0D01*
G01*
X136900000Y-65500000D01*
G75*
G02*
X136650000Y-65250000I0J250000D01*
G01*
X136650000Y-63750000D01*
G75*
G02*
X136900000Y-63500000I250000J0D01*
G01*
X138100000Y-63500000D01*
G75*
G02*
X138350000Y-63750000I0J-250000D01*
G01*
G37*
%TD.AperFunction*%
%TD*%
%TO.P,J5,2*%
%TO.N,VCC*%
X147000000Y-64500000D03*
%TO.P,J5,1*%
%TO.N,/O5*%
%TA.AperFunction,ComponentPad*%
G36*
G01*
X150350000Y-63750000D02*
X150350000Y-65250000D01*
G75*
G02*
X150100000Y-65500000I-250000J0D01*
G01*
X148900000Y-65500000D01*
G75*
G02*
X148650000Y-65250000I0J250000D01*
G01*
X148650000Y-63750000D01*
G75*
G02*
X148900000Y-63500000I250000J0D01*
G01*
X150100000Y-63500000D01*
G75*
G02*
X150350000Y-63750000I0J-250000D01*
G01*
G37*
%TD.AperFunction*%
%TD*%
%TO.P,J6,1*%
%TO.N,/O6*%
%TA.AperFunction,ComponentPad*%
G36*
G01*
X151150000Y-122250000D02*
X151150000Y-120750000D01*
G75*
G02*
X151400000Y-120500000I250000J0D01*
G01*
X152600000Y-120500000D01*
G75*
G02*
X152850000Y-120750000I0J-250000D01*
G01*
X152850000Y-122250000D01*
G75*
G02*
X152600000Y-122500000I-250000J0D01*
G01*
X151400000Y-122500000D01*
G75*
G02*
X151150000Y-122250000I0J250000D01*
G01*
G37*
%TD.AperFunction*%
%TO.P,J6,2*%
%TO.N,VCC*%
X154500000Y-121500000D03*
%TD*%
%TO.P,J7,2*%
%TO.N,VCC*%
X142500000Y-121500000D03*
%TO.P,J7,1*%
%TO.N,/O7*%
%TA.AperFunction,ComponentPad*%
G36*
G01*
X139150000Y-122250000D02*
X139150000Y-120750000D01*
G75*
G02*
X139400000Y-120500000I250000J0D01*
G01*
X140600000Y-120500000D01*
G75*
G02*
X140850000Y-120750000I0J-250000D01*
G01*
X140850000Y-122250000D01*
G75*
G02*
X140600000Y-122500000I-250000J0D01*
G01*
X139400000Y-122500000D01*
G75*
G02*
X139150000Y-122250000I0J250000D01*
G01*
G37*
%TD.AperFunction*%
%TD*%
%TO.P,J8,2*%
%TO.N,GND*%
X108500000Y-121500000D03*
%TO.P,J8,1*%
%TO.N,VCC*%
%TA.AperFunction,ComponentPad*%
G36*
G01*
X105150000Y-122250000D02*
X105150000Y-120750000D01*
G75*
G02*
X105400000Y-120500000I250000J0D01*
G01*
X106600000Y-120500000D01*
G75*
G02*
X106850000Y-120750000I0J-250000D01*
G01*
X106850000Y-122250000D01*
G75*
G02*
X106600000Y-122500000I-250000J0D01*
G01*
X105400000Y-122500000D01*
G75*
G02*
X105150000Y-122250000I0J250000D01*
G01*
G37*
%TD.AperFunction*%
%TD*%
%TO.P,J9,1*%
%TO.N,/O8*%
%TA.AperFunction,ComponentPad*%
G36*
G01*
X116400000Y-122250000D02*
X116400000Y-120750000D01*
G75*
G02*
X116650000Y-120500000I250000J0D01*
G01*
X117850000Y-120500000D01*
G75*
G02*
X118100000Y-120750000I0J-250000D01*
G01*
X118100000Y-122250000D01*
G75*
G02*
X117850000Y-122500000I-250000J0D01*
G01*
X116650000Y-122500000D01*
G75*
G02*
X116400000Y-122250000I0J250000D01*
G01*
G37*
%TD.AperFunction*%
%TO.P,J9,2*%
%TO.N,VCC*%
X119750000Y-121500000D03*
%TD*%
D14*
%TO.P,UART,6*%
%TO.N,GND*%
X79000000Y-83700000D03*
%TO.P,UART,5*%
X79000000Y-81160000D03*
%TO.P,UART,4*%
%TO.N,Net-(D18-Pad2)*%
X79000000Y-78620000D03*
%TO.P,UART,3*%
%TO.N,/Sheet62278BAE/UART_RX*%
X79000000Y-76080000D03*
%TO.P,UART,2*%
%TO.N,/Sheet62278BAE/UART_TX*%
X79000000Y-73540000D03*
D15*
%TO.P,UART,1*%
%TO.N,Net-(J10-Pad1)*%
X79000000Y-71000000D03*
%TD*%
D16*
%TO.P,J12,S1*%
%TO.N,GND*%
X89120000Y-62930000D03*
X80480000Y-62930000D03*
D17*
X89120000Y-58760000D03*
X80480000Y-58760000D03*
%TD*%
D18*
%TO.P,Y1,1*%
%TO.N,Net-(U2-Pad2)*%
X91250000Y-116500000D03*
%TO.P,Y1,2*%
%TO.N,GND*%
X93750000Y-116500000D03*
%TO.P,Y1,3*%
%TO.N,Net-(U2-Pad3)*%
X96250000Y-116500000D03*
%TD*%
D15*
%TO.P,ST-Link,1*%
%TO.N,+3V3*%
X79000000Y-91500000D03*
D14*
%TO.P,ST-Link,2*%
%TO.N,/Sheet62278BAE/SWCLK*%
X79000000Y-94040000D03*
%TO.P,ST-Link,3*%
%TO.N,GND*%
X79000000Y-96580000D03*
%TO.P,ST-Link,4*%
%TO.N,/Sheet62278BAE/SWDIO*%
X79000000Y-99120000D03*
%TO.P,ST-Link,5*%
%TO.N,/Sheet62278BAE/NRST*%
X79000000Y-101660000D03*
%TO.P,ST-Link,6*%
%TO.N,/Sheet62278BAE/SWO*%
X79000000Y-104200000D03*
%TD*%
D19*
%TO.N,GND*%
X76620000Y-128540000D03*
X81700000Y-128540000D03*
X86780000Y-128540000D03*
X91860000Y-128540000D03*
X96940000Y-128540000D03*
X71540000Y-117220000D03*
X71540000Y-107060000D03*
X71540000Y-112140000D03*
X71540000Y-122300000D03*
X96800000Y-87500000D03*
X96800000Y-88600000D03*
X96800000Y-89600000D03*
X96800000Y-90600000D03*
X96800000Y-91600000D03*
X96800000Y-92600000D03*
D20*
X111190500Y-102937600D03*
D19*
X99500000Y-57000000D03*
X99500000Y-62080000D03*
X99500000Y-67160000D03*
X99500000Y-72240000D03*
X99500000Y-77320000D03*
X99500000Y-82400000D03*
X99500000Y-87480000D03*
X99500000Y-92560000D03*
X99500000Y-97640000D03*
X99500000Y-102720000D03*
X99500000Y-107800000D03*
X99500000Y-112880000D03*
X99500000Y-117960000D03*
X99500000Y-123040000D03*
X99500000Y-128120000D03*
X95900000Y-87500000D03*
X95900000Y-89600000D03*
X95900000Y-92600000D03*
X95900000Y-88600000D03*
X95900000Y-90600000D03*
X95900000Y-91600000D03*
X94100000Y-87500000D03*
X94100000Y-92600000D03*
X94100000Y-89600000D03*
X94100000Y-90600000D03*
X94100000Y-88600000D03*
X94100000Y-91600000D03*
X95000000Y-87500000D03*
X95000000Y-89600000D03*
X95000000Y-92600000D03*
X95000000Y-88600000D03*
X95000000Y-90600000D03*
X95000000Y-91600000D03*
X93200000Y-89600000D03*
X93200000Y-92600000D03*
X92300000Y-91600000D03*
X92300000Y-90600000D03*
X92300000Y-87500000D03*
X92300000Y-88600000D03*
X93200000Y-87500000D03*
X92300000Y-92600000D03*
X93200000Y-88600000D03*
X93200000Y-90600000D03*
X92300000Y-89600000D03*
X93200000Y-91600000D03*
X91400000Y-87500000D03*
X91400000Y-90600000D03*
X91400000Y-92600000D03*
X91400000Y-91600000D03*
X91400000Y-88600000D03*
X91400000Y-89600000D03*
X76080000Y-71080000D03*
X76080000Y-73620000D03*
X76080000Y-76160000D03*
X76080000Y-78700000D03*
X76080000Y-81240000D03*
X76080000Y-83780000D03*
X74080000Y-73620000D03*
X74080000Y-78700000D03*
X74080000Y-83780000D03*
X74080000Y-76160000D03*
X74080000Y-71080000D03*
X74080000Y-81240000D03*
X72080000Y-81240000D03*
X72080000Y-78700000D03*
X72080000Y-76160000D03*
X72080000Y-71080000D03*
X72080000Y-73620000D03*
X72080000Y-83780000D03*
X76080000Y-91620000D03*
X76080000Y-96700000D03*
X76080000Y-101780000D03*
X76080000Y-94160000D03*
X76080000Y-99240000D03*
X72080000Y-94160000D03*
X74080000Y-99240000D03*
X74080000Y-96700000D03*
X74080000Y-94160000D03*
X74080000Y-91620000D03*
X72080000Y-99240000D03*
X74080000Y-101780000D03*
X72080000Y-96700000D03*
X72080000Y-101780000D03*
X72080000Y-91620000D03*
X72080000Y-104280000D03*
X76080000Y-104280000D03*
X74080000Y-104280000D03*
X93000000Y-84500000D03*
X94500000Y-84500000D03*
X96000000Y-84500000D03*
X93000000Y-86000000D03*
X94500000Y-86000000D03*
X96000000Y-86000000D03*
X92000000Y-94000000D03*
X93500000Y-94000000D03*
X95000000Y-94000000D03*
X92500000Y-95500000D03*
X81500000Y-121500000D03*
X81500000Y-118500000D03*
X81500000Y-115000000D03*
X85000000Y-124500000D03*
X85000000Y-123000000D03*
X80500000Y-57000000D03*
X89000000Y-57000000D03*
X91500000Y-59000000D03*
X91500000Y-61000000D03*
X91500000Y-63000000D03*
X91500000Y-65000000D03*
X91500000Y-67500000D03*
X91500000Y-70000000D03*
X89500000Y-67500000D03*
X89500000Y-65000000D03*
X93750000Y-65000000D03*
X93750000Y-63000000D03*
X93750000Y-67500000D03*
X93750000Y-70000000D03*
X96000000Y-63000000D03*
X96000000Y-65000000D03*
X96000000Y-67500000D03*
X96000000Y-70000000D03*
X96500000Y-99750000D03*
X98250000Y-99750000D03*
X98265000Y-101485000D03*
X84500000Y-104500000D03*
X82000000Y-106500000D03*
X78500000Y-115000000D03*
X88000000Y-85500000D03*
X85600000Y-82200000D03*
X83000000Y-79600000D03*
X88000000Y-97000000D03*
X83000000Y-84000000D03*
X83000000Y-89000000D03*
X83000000Y-94000000D03*
X83000000Y-97000000D03*
X88000000Y-94000000D03*
X78000000Y-59000000D03*
X78000000Y-63000000D03*
X83000000Y-59000000D03*
X86000000Y-59000000D03*
X82000000Y-75000000D03*
X84000000Y-73000000D03*
X82000000Y-73000000D03*
X82000000Y-71000000D03*
X84000000Y-71000000D03*
X86000000Y-73000000D03*
X78500000Y-118500000D03*
X87500000Y-108500000D03*
X86000000Y-110000000D03*
X87500000Y-112000000D03*
X94500000Y-110500000D03*
X96000000Y-118500000D03*
X96000000Y-120500000D03*
X94000000Y-118500000D03*
X89000000Y-118000000D03*
X89000000Y-120000000D03*
X91000000Y-120000000D03*
X78500000Y-111500000D03*
X81500000Y-111500000D03*
X90000000Y-123000000D03*
X90000000Y-124500000D03*
X127500000Y-87250000D03*
X128770000Y-87250000D03*
X127500000Y-88520000D03*
X128770000Y-88520000D03*
X127500000Y-89790000D03*
X128770000Y-89790000D03*
X127500000Y-91060000D03*
X128770000Y-91060000D03*
X127500000Y-92330000D03*
X128770000Y-92330000D03*
X127500000Y-93600000D03*
X128770000Y-93600000D03*
X127500000Y-94870000D03*
X128770000Y-94870000D03*
X123000000Y-85900000D03*
X124270000Y-85900000D03*
X123000000Y-87170000D03*
X124270000Y-87170000D03*
X123000000Y-88440000D03*
X124270000Y-88440000D03*
X123000000Y-89710000D03*
X124270000Y-89710000D03*
X123000000Y-90980000D03*
X124270000Y-90980000D03*
X123000000Y-92250000D03*
X124270000Y-92250000D03*
X123000000Y-93520000D03*
X124270000Y-93520000D03*
X123000000Y-94790000D03*
X124270000Y-94790000D03*
X123000000Y-84630000D03*
X124270000Y-84630000D03*
X121730000Y-84630000D03*
X120460000Y-84630000D03*
X119400000Y-85000000D03*
D20*
X130600000Y-98000000D03*
X130600000Y-99000000D03*
X130600000Y-100000000D03*
X130600000Y-101000000D03*
X130600000Y-102000000D03*
X129400000Y-98000000D03*
X129400000Y-99000000D03*
X129400000Y-100000000D03*
X129400000Y-101000000D03*
X129400000Y-102000000D03*
X128200000Y-100000000D03*
X128200000Y-101000000D03*
X128200000Y-102000000D03*
X127000000Y-102000000D03*
X127000000Y-101000000D03*
X125800000Y-102000000D03*
D19*
%TO.N,VCC*%
X130400000Y-84800000D03*
X131200000Y-84800000D03*
X132800000Y-92400000D03*
X132800000Y-90000000D03*
D20*
%TO.N,/Sheet62278BAE/UART_TX*%
X94446300Y-106308200D03*
%TO.N,/Sheet62278BAE/UART_RX*%
X86343300Y-101156600D03*
D19*
%TO.N,/Sheet62278BAE/CANH*%
X86400000Y-68600000D03*
X84800000Y-67000000D03*
%TO.N,/Sheet62278BAE/CANL*%
X85568213Y-66568213D03*
X87000000Y-68000000D03*
%TO.N,/I1*%
X108000000Y-100500000D03*
X108000000Y-86000000D03*
%TO.N,/I2*%
X107000000Y-100500000D03*
X107000000Y-87500000D03*
%TO.N,/I3*%
X106000000Y-100500000D03*
X106000000Y-88500000D03*
%TO.N,/I4*%
X105000000Y-89500000D03*
X105000000Y-100500000D03*
%TO.N,/I5*%
X104000000Y-100500000D03*
X104000000Y-91500000D03*
%TO.N,/I6*%
X102000000Y-98500000D03*
X102000000Y-92500000D03*
%TO.N,/I7*%
X103000000Y-94000000D03*
X103000000Y-95500000D03*
%TD*%
D21*
%TO.N,+3V3*%
X95000000Y-122889998D02*
X95000000Y-123000000D01*
X89949999Y-117839997D02*
X95000000Y-122889998D01*
X89949999Y-112839997D02*
X89949999Y-117839997D01*
X85250001Y-108139999D02*
X89949999Y-112839997D01*
X85250001Y-97750001D02*
X85250001Y-108139999D01*
X79000000Y-91500000D02*
X85250001Y-97750001D01*
D22*
%TO.N,/Sheet62278BAE/UART_TX*%
X94446300Y-106308200D02*
X89808200Y-106308200D01*
X79000000Y-74340998D02*
X79000000Y-73540000D01*
X89808200Y-85149198D02*
X79000000Y-74340998D01*
X89808200Y-106308200D02*
X89808200Y-85149198D01*
%TO.N,/Sheet62278BAE/UART_RX*%
X79000000Y-76080000D02*
X79000000Y-77255300D01*
X86343300Y-101156600D02*
X86343300Y-84231300D01*
X86343300Y-84231300D02*
X79367300Y-77255300D01*
X79367300Y-77255300D02*
X79000000Y-77255300D01*
%TO.N,/Sheet62278BAE/CANH*%
X86400000Y-68600000D02*
X84800000Y-67000000D01*
%TO.N,/Sheet62278BAE/CANL*%
X85568213Y-66568213D02*
X87000000Y-68000000D01*
%TO.N,/I1*%
X108000000Y-100500000D02*
X108000000Y-86000000D01*
%TO.N,/I2*%
X107000000Y-100500000D02*
X107000000Y-87500000D01*
%TO.N,/I3*%
X106000000Y-100500000D02*
X106000000Y-88500000D01*
%TO.N,/I4*%
X105000000Y-89500000D02*
X105000000Y-100500000D01*
%TO.N,/I5*%
X104000000Y-100500000D02*
X104000000Y-91500000D01*
%TO.N,/I6*%
X102000000Y-98500000D02*
X102000000Y-92500000D01*
%TO.N,/I7*%
X103000000Y-95500000D02*
X103000000Y-94000000D01*
%TD*%
D23*
%TO.N,GND*%
X164648126Y-56726714D02*
X165271572Y-56914943D01*
X165846579Y-57220681D01*
X166351247Y-57632279D01*
X166766362Y-58134067D01*
X167076105Y-58706924D01*
X167268682Y-59329039D01*
X167340000Y-60007584D01*
X167340001Y-125967711D01*
X167273286Y-126648126D01*
X167085057Y-127271570D01*
X166779323Y-127846573D01*
X166367721Y-128351248D01*
X165865933Y-128766362D01*
X165293077Y-129076104D01*
X164670961Y-129268682D01*
X163992417Y-129340000D01*
X74032279Y-129340000D01*
X73351874Y-129273286D01*
X72728430Y-129085057D01*
X72153427Y-128779323D01*
X71648752Y-128367721D01*
X71233638Y-127865933D01*
X70923896Y-127293077D01*
X70731318Y-126670961D01*
X70660000Y-125992417D01*
X70660000Y-125779872D01*
X71765000Y-125779872D01*
X71765000Y-126220128D01*
X71850890Y-126651925D01*
X72019369Y-127058669D01*
X72263962Y-127424729D01*
X72575271Y-127736038D01*
X72941331Y-127980631D01*
X73348075Y-128149110D01*
X73779872Y-128235000D01*
X74220128Y-128235000D01*
X74651925Y-128149110D01*
X75058669Y-127980631D01*
X75424729Y-127736038D01*
X75736038Y-127424729D01*
X75980631Y-127058669D01*
X76149110Y-126651925D01*
X76235000Y-126220128D01*
X76235000Y-125779872D01*
X161765000Y-125779872D01*
X161765000Y-126220128D01*
X161850890Y-126651925D01*
X162019369Y-127058669D01*
X162263962Y-127424729D01*
X162575271Y-127736038D01*
X162941331Y-127980631D01*
X163348075Y-128149110D01*
X163779872Y-128235000D01*
X164220128Y-128235000D01*
X164651925Y-128149110D01*
X165058669Y-127980631D01*
X165424729Y-127736038D01*
X165736038Y-127424729D01*
X165980631Y-127058669D01*
X166149110Y-126651925D01*
X166235000Y-126220128D01*
X166235000Y-125779872D01*
X166149110Y-125348075D01*
X165980631Y-124941331D01*
X165736038Y-124575271D01*
X165424729Y-124263962D01*
X165058669Y-124019369D01*
X164651925Y-123850890D01*
X164220128Y-123765000D01*
X163779872Y-123765000D01*
X163348075Y-123850890D01*
X162941331Y-124019369D01*
X162575271Y-124263962D01*
X162263962Y-124575271D01*
X162019369Y-124941331D01*
X161850890Y-125348075D01*
X161765000Y-125779872D01*
X76235000Y-125779872D01*
X76149110Y-125348075D01*
X75980631Y-124941331D01*
X75736038Y-124575271D01*
X75424729Y-124263962D01*
X75058669Y-124019369D01*
X74994290Y-123992702D01*
X91686903Y-123992702D01*
X91758486Y-124236671D01*
X92013996Y-124357571D01*
X92288184Y-124426300D01*
X92570512Y-124440217D01*
X92850130Y-124398787D01*
X93116292Y-124303603D01*
X93241514Y-124236671D01*
X93313097Y-123992702D01*
X92500000Y-123179605D01*
X91686903Y-123992702D01*
X74994290Y-123992702D01*
X74651925Y-123850890D01*
X74220128Y-123765000D01*
X73779872Y-123765000D01*
X73348075Y-123850890D01*
X72941331Y-124019369D01*
X72575271Y-124263962D01*
X72263962Y-124575271D01*
X72019369Y-124941331D01*
X71850890Y-125348075D01*
X71765000Y-125779872D01*
X70660000Y-125779872D01*
X70660000Y-123070512D01*
X91059783Y-123070512D01*
X91101213Y-123350130D01*
X91196397Y-123616292D01*
X91263329Y-123741514D01*
X91507298Y-123813097D01*
X92320395Y-123000000D01*
X91507298Y-122186903D01*
X91263329Y-122258486D01*
X91142429Y-122513996D01*
X91073700Y-122788184D01*
X91059783Y-123070512D01*
X70660000Y-123070512D01*
X70660000Y-98973740D01*
X77515000Y-98973740D01*
X77515000Y-99266260D01*
X77572068Y-99553158D01*
X77684010Y-99823411D01*
X77846525Y-100066632D01*
X78053368Y-100273475D01*
X78227760Y-100390000D01*
X78053368Y-100506525D01*
X77846525Y-100713368D01*
X77684010Y-100956589D01*
X77572068Y-101226842D01*
X77515000Y-101513740D01*
X77515000Y-101806260D01*
X77572068Y-102093158D01*
X77684010Y-102363411D01*
X77846525Y-102606632D01*
X78053368Y-102813475D01*
X78227760Y-102930000D01*
X78053368Y-103046525D01*
X77846525Y-103253368D01*
X77684010Y-103496589D01*
X77572068Y-103766842D01*
X77515000Y-104053740D01*
X77515000Y-104346260D01*
X77572068Y-104633158D01*
X77684010Y-104903411D01*
X77846525Y-105146632D01*
X78053368Y-105353475D01*
X78296589Y-105515990D01*
X78566842Y-105627932D01*
X78853740Y-105685000D01*
X79146260Y-105685000D01*
X79433158Y-105627932D01*
X79703411Y-105515990D01*
X79946632Y-105353475D01*
X80153475Y-105146632D01*
X80315990Y-104903411D01*
X80427932Y-104633158D01*
X80485000Y-104346260D01*
X80485000Y-104053740D01*
X80427932Y-103766842D01*
X80315990Y-103496589D01*
X80153475Y-103253368D01*
X79946632Y-103046525D01*
X79772240Y-102930000D01*
X79946632Y-102813475D01*
X80153475Y-102606632D01*
X80315990Y-102363411D01*
X80427932Y-102093158D01*
X80485000Y-101806260D01*
X80485000Y-101513740D01*
X80427932Y-101226842D01*
X80315990Y-100956589D01*
X80153475Y-100713368D01*
X79946632Y-100506525D01*
X79772240Y-100390000D01*
X79946632Y-100273475D01*
X80153475Y-100066632D01*
X80315990Y-99823411D01*
X80427932Y-99553158D01*
X80485000Y-99266260D01*
X80485000Y-98973740D01*
X80427932Y-98686842D01*
X80315990Y-98416589D01*
X80153475Y-98173368D01*
X79946632Y-97966525D01*
X79764466Y-97844805D01*
X79881355Y-97775178D01*
X80097588Y-97580269D01*
X80271641Y-97346920D01*
X80396825Y-97084099D01*
X80441476Y-96936890D01*
X80320155Y-96707000D01*
X79127000Y-96707000D01*
X79127000Y-96727000D01*
X78873000Y-96727000D01*
X78873000Y-96707000D01*
X77679845Y-96707000D01*
X77558524Y-96936890D01*
X77603175Y-97084099D01*
X77728359Y-97346920D01*
X77902412Y-97580269D01*
X78118645Y-97775178D01*
X78235534Y-97844805D01*
X78053368Y-97966525D01*
X77846525Y-98173368D01*
X77684010Y-98416589D01*
X77572068Y-98686842D01*
X77515000Y-98973740D01*
X70660000Y-98973740D01*
X70660000Y-84056890D01*
X77558524Y-84056890D01*
X77603175Y-84204099D01*
X77728359Y-84466920D01*
X77902412Y-84700269D01*
X78118645Y-84895178D01*
X78368748Y-85044157D01*
X78643109Y-85141481D01*
X78873000Y-85020814D01*
X78873000Y-83827000D01*
X79127000Y-83827000D01*
X79127000Y-85020814D01*
X79356891Y-85141481D01*
X79631252Y-85044157D01*
X79881355Y-84895178D01*
X80097588Y-84700269D01*
X80271641Y-84466920D01*
X80396825Y-84204099D01*
X80441476Y-84056890D01*
X80320155Y-83827000D01*
X79127000Y-83827000D01*
X78873000Y-83827000D01*
X77679845Y-83827000D01*
X77558524Y-84056890D01*
X70660000Y-84056890D01*
X70660000Y-81516890D01*
X77558524Y-81516890D01*
X77603175Y-81664099D01*
X77728359Y-81926920D01*
X77902412Y-82160269D01*
X78118645Y-82355178D01*
X78244255Y-82430000D01*
X78118645Y-82504822D01*
X77902412Y-82699731D01*
X77728359Y-82933080D01*
X77603175Y-83195901D01*
X77558524Y-83343110D01*
X77679845Y-83573000D01*
X78873000Y-83573000D01*
X78873000Y-81287000D01*
X79127000Y-81287000D01*
X79127000Y-83573000D01*
X80320155Y-83573000D01*
X80441476Y-83343110D01*
X80396825Y-83195901D01*
X80271641Y-82933080D01*
X80097588Y-82699731D01*
X79881355Y-82504822D01*
X79755745Y-82430000D01*
X79881355Y-82355178D01*
X80097588Y-82160269D01*
X80271641Y-81926920D01*
X80396825Y-81664099D01*
X80441476Y-81516890D01*
X80320155Y-81287000D01*
X79127000Y-81287000D01*
X78873000Y-81287000D01*
X77679845Y-81287000D01*
X77558524Y-81516890D01*
X70660000Y-81516890D01*
X70660000Y-70150000D01*
X77511928Y-70150000D01*
X77511928Y-71850000D01*
X77524188Y-71974482D01*
X77560498Y-72094180D01*
X77619463Y-72204494D01*
X77698815Y-72301185D01*
X77795506Y-72380537D01*
X77905820Y-72439502D01*
X77978380Y-72461513D01*
X77846525Y-72593368D01*
X77684010Y-72836589D01*
X77572068Y-73106842D01*
X77515000Y-73393740D01*
X77515000Y-73686260D01*
X77572068Y-73973158D01*
X77684010Y-74243411D01*
X77846525Y-74486632D01*
X78053368Y-74693475D01*
X78227760Y-74810000D01*
X78053368Y-74926525D01*
X77846525Y-75133368D01*
X77684010Y-75376589D01*
X77572068Y-75646842D01*
X77515000Y-75933740D01*
X77515000Y-76226260D01*
X77572068Y-76513158D01*
X77684010Y-76783411D01*
X77846525Y-77026632D01*
X78053368Y-77233475D01*
X78227760Y-77350000D01*
X78053368Y-77466525D01*
X77846525Y-77673368D01*
X77684010Y-77916589D01*
X77572068Y-78186842D01*
X77515000Y-78473740D01*
X77515000Y-78766260D01*
X77572068Y-79053158D01*
X77684010Y-79323411D01*
X77846525Y-79566632D01*
X78053368Y-79773475D01*
X78235534Y-79895195D01*
X78118645Y-79964822D01*
X77902412Y-80159731D01*
X77728359Y-80393080D01*
X77603175Y-80655901D01*
X77558524Y-80803110D01*
X77679845Y-81033000D01*
X78873000Y-81033000D01*
X78873000Y-81013000D01*
X79127000Y-81013000D01*
X79127000Y-81033000D01*
X80320155Y-81033000D01*
X80441476Y-80803110D01*
X80396825Y-80655901D01*
X80271641Y-80393080D01*
X80097588Y-80159731D01*
X79881355Y-79964822D01*
X79764466Y-79895195D01*
X79946632Y-79773475D01*
X80153475Y-79566632D01*
X80315990Y-79323411D01*
X80329059Y-79291860D01*
X85583301Y-84546103D01*
X85583300Y-96831721D01*
X80488072Y-91736494D01*
X80488072Y-90650000D01*
X80475812Y-90525518D01*
X80439502Y-90405820D01*
X80380537Y-90295506D01*
X80301185Y-90198815D01*
X80204494Y-90119463D01*
X80094180Y-90060498D01*
X79974482Y-90024188D01*
X79850000Y-90011928D01*
X78150000Y-90011928D01*
X78025518Y-90024188D01*
X77905820Y-90060498D01*
X77795506Y-90119463D01*
X77698815Y-90198815D01*
X77619463Y-90295506D01*
X77560498Y-90405820D01*
X77524188Y-90525518D01*
X77511928Y-90650000D01*
X77511928Y-92350000D01*
X77524188Y-92474482D01*
X77560498Y-92594180D01*
X77619463Y-92704494D01*
X77698815Y-92801185D01*
X77795506Y-92880537D01*
X77905820Y-92939502D01*
X77978380Y-92961513D01*
X77846525Y-93093368D01*
X77684010Y-93336589D01*
X77572068Y-93606842D01*
X77515000Y-93893740D01*
X77515000Y-94186260D01*
X77572068Y-94473158D01*
X77684010Y-94743411D01*
X77846525Y-94986632D01*
X78053368Y-95193475D01*
X78235534Y-95315195D01*
X78118645Y-95384822D01*
X77902412Y-95579731D01*
X77728359Y-95813080D01*
X77603175Y-96075901D01*
X77558524Y-96223110D01*
X77679845Y-96453000D01*
X78873000Y-96453000D01*
X78873000Y-96433000D01*
X79127000Y-96433000D01*
X79127000Y-96453000D01*
X80320155Y-96453000D01*
X80441476Y-96223110D01*
X80396825Y-96075901D01*
X80271641Y-95813080D01*
X80097588Y-95579731D01*
X79881355Y-95384822D01*
X79764466Y-95315195D01*
X79946632Y-95193475D01*
X80153475Y-94986632D01*
X80315990Y-94743411D01*
X80427932Y-94473158D01*
X80476652Y-94228230D01*
X84365001Y-98116580D01*
X84365002Y-108096520D01*
X84360720Y-108139999D01*
X84377806Y-108313489D01*
X84428413Y-108480312D01*
X84510591Y-108634058D01*
X84593469Y-108735045D01*
X84593472Y-108735048D01*
X84621185Y-108768816D01*
X84654953Y-108796529D01*
X89064999Y-113206576D01*
X89065000Y-117796518D01*
X89060718Y-117839997D01*
X89077804Y-118013487D01*
X89128411Y-118180310D01*
X89210589Y-118334056D01*
X89293467Y-118435043D01*
X89293470Y-118435046D01*
X89321183Y-118468814D01*
X89354951Y-118496527D01*
X92419662Y-121561239D01*
X92149870Y-121601213D01*
X91883708Y-121696397D01*
X91758486Y-121763329D01*
X91686903Y-122007298D01*
X92500000Y-122820395D01*
X92514143Y-122806253D01*
X92693748Y-122985858D01*
X92679605Y-123000000D01*
X93492702Y-123813097D01*
X93561928Y-123792785D01*
X93561928Y-123800000D01*
X93574188Y-123924482D01*
X93610498Y-124044180D01*
X93669463Y-124154494D01*
X93748815Y-124251185D01*
X93845506Y-124330537D01*
X93955820Y-124389502D01*
X94075518Y-124425812D01*
X94200000Y-124438072D01*
X95800000Y-124438072D01*
X95924482Y-124425812D01*
X96044180Y-124389502D01*
X96154494Y-124330537D01*
X96251185Y-124251185D01*
X96330537Y-124154494D01*
X96389502Y-124044180D01*
X96425812Y-123924482D01*
X96438072Y-123800000D01*
X96438072Y-122200000D01*
X96425812Y-122075518D01*
X96389502Y-121955820D01*
X96330537Y-121845506D01*
X96251185Y-121748815D01*
X96154494Y-121669463D01*
X96044180Y-121610498D01*
X95924482Y-121574188D01*
X95800000Y-121561928D01*
X94923509Y-121561928D01*
X94111581Y-120750000D01*
X104511928Y-120750000D01*
X104511928Y-122250000D01*
X104528992Y-122423254D01*
X104579528Y-122589850D01*
X104661595Y-122743386D01*
X104772038Y-122877962D01*
X104906614Y-122988405D01*
X105060150Y-123070472D01*
X105226746Y-123121008D01*
X105400000Y-123138072D01*
X106600000Y-123138072D01*
X106773254Y-123121008D01*
X106939850Y-123070472D01*
X107093386Y-122988405D01*
X107227962Y-122877962D01*
X107338405Y-122743386D01*
X107392914Y-122641407D01*
X107393198Y-122641795D01*
X107607954Y-122838664D01*
X107856991Y-122989854D01*
X108130739Y-123089554D01*
X108143110Y-123091476D01*
X108373000Y-122970155D01*
X108373000Y-121627000D01*
X108627000Y-121627000D01*
X108627000Y-122970155D01*
X108856890Y-123091476D01*
X108869261Y-123089554D01*
X109143009Y-122989854D01*
X109392046Y-122838664D01*
X109606802Y-122641795D01*
X109779025Y-122406812D01*
X109902096Y-122142745D01*
X109971285Y-121859742D01*
X109827232Y-121627000D01*
X108627000Y-121627000D01*
X108373000Y-121627000D01*
X108353000Y-121627000D01*
X108353000Y-121373000D01*
X108373000Y-121373000D01*
X108373000Y-120029845D01*
X108627000Y-120029845D01*
X108627000Y-121373000D01*
X109827232Y-121373000D01*
X109971285Y-121140258D01*
X109902096Y-120857255D01*
X109852109Y-120750000D01*
X115761928Y-120750000D01*
X115761928Y-122250000D01*
X115778992Y-122423254D01*
X115829528Y-122589850D01*
X115911595Y-122743386D01*
X116022038Y-122877962D01*
X116156614Y-122988405D01*
X116310150Y-123070472D01*
X116476746Y-123121008D01*
X116650000Y-123138072D01*
X117850000Y-123138072D01*
X118023254Y-123121008D01*
X118189850Y-123070472D01*
X118343386Y-122988405D01*
X118477962Y-122877962D01*
X118588405Y-122743386D01*
X118642777Y-122641663D01*
X118694866Y-122705134D01*
X118920987Y-122890706D01*
X119178967Y-123028599D01*
X119458890Y-123113513D01*
X119750000Y-123142185D01*
X120041111Y-123113513D01*
X120321034Y-123028599D01*
X120579014Y-122890706D01*
X120805134Y-122705134D01*
X120990706Y-122479014D01*
X121128599Y-122221033D01*
X121213513Y-121941110D01*
X121235000Y-121722949D01*
X121235000Y-121277050D01*
X121213513Y-121058889D01*
X121128599Y-120778966D01*
X121113117Y-120750000D01*
X127011928Y-120750000D01*
X127011928Y-122250000D01*
X127028992Y-122423254D01*
X127079528Y-122589850D01*
X127161595Y-122743386D01*
X127272038Y-122877962D01*
X127406614Y-122988405D01*
X127560150Y-123070472D01*
X127726746Y-123121008D01*
X127900000Y-123138072D01*
X129100000Y-123138072D01*
X129273254Y-123121008D01*
X129439850Y-123070472D01*
X129593386Y-122988405D01*
X129727962Y-122877962D01*
X129838405Y-122743386D01*
X129892777Y-122641663D01*
X129944866Y-122705134D01*
X130170987Y-122890706D01*
X130428967Y-123028599D01*
X130708890Y-123113513D01*
X131000000Y-123142185D01*
X131291111Y-123113513D01*
X131571034Y-123028599D01*
X131829014Y-122890706D01*
X132055134Y-122705134D01*
X132240706Y-122479014D01*
X132378599Y-122221033D01*
X132463513Y-121941110D01*
X132485000Y-121722949D01*
X132485000Y-121277050D01*
X132463513Y-121058889D01*
X132378599Y-120778966D01*
X132363117Y-120750000D01*
X138511928Y-120750000D01*
X138511928Y-122250000D01*
X138528992Y-122423254D01*
X138579528Y-122589850D01*
X138661595Y-122743386D01*
X138772038Y-122877962D01*
X138906614Y-122988405D01*
X139060150Y-123070472D01*
X139226746Y-123121008D01*
X139400000Y-123138072D01*
X140600000Y-123138072D01*
X140773254Y-123121008D01*
X140939850Y-123070472D01*
X141093386Y-122988405D01*
X141227962Y-122877962D01*
X141338405Y-122743386D01*
X141392777Y-122641663D01*
X141444866Y-122705134D01*
X141670987Y-122890706D01*
X141928967Y-123028599D01*
X142208890Y-123113513D01*
X142500000Y-123142185D01*
X142791111Y-123113513D01*
X143071034Y-123028599D01*
X143329014Y-122890706D01*
X143555134Y-122705134D01*
X143740706Y-122479014D01*
X143878599Y-122221033D01*
X143963513Y-121941110D01*
X143985000Y-121722949D01*
X143985000Y-121277050D01*
X143963513Y-121058889D01*
X143878599Y-120778966D01*
X143863117Y-120750000D01*
X150511928Y-120750000D01*
X150511928Y-122250000D01*
X150528992Y-122423254D01*
X150579528Y-122589850D01*
X150661595Y-122743386D01*
X150772038Y-122877962D01*
X150906614Y-122988405D01*
X151060150Y-123070472D01*
X151226746Y-123121008D01*
X151400000Y-123138072D01*
X152600000Y-123138072D01*
X152773254Y-123121008D01*
X152939850Y-123070472D01*
X153093386Y-122988405D01*
X153227962Y-122877962D01*
X153338405Y-122743386D01*
X153392777Y-122641663D01*
X153444866Y-122705134D01*
X153670987Y-122890706D01*
X153928967Y-123028599D01*
X154208890Y-123113513D01*
X154500000Y-123142185D01*
X154791111Y-123113513D01*
X155071034Y-123028599D01*
X155329014Y-122890706D01*
X155555134Y-122705134D01*
X155740706Y-122479014D01*
X155878599Y-122221033D01*
X155963513Y-121941110D01*
X155985000Y-121722949D01*
X155985000Y-121277050D01*
X155963513Y-121058889D01*
X155878599Y-120778966D01*
X155740706Y-120520986D01*
X155555134Y-120294866D01*
X155329013Y-120109294D01*
X155071033Y-119971401D01*
X154791110Y-119886487D01*
X154500000Y-119857815D01*
X154208889Y-119886487D01*
X153928966Y-119971401D01*
X153670986Y-120109294D01*
X153444866Y-120294866D01*
X153392777Y-120358337D01*
X153338405Y-120256614D01*
X153227962Y-120122038D01*
X153093386Y-120011595D01*
X152939850Y-119929528D01*
X152773254Y-119878992D01*
X152600000Y-119861928D01*
X151400000Y-119861928D01*
X151226746Y-119878992D01*
X151060150Y-119929528D01*
X150906614Y-120011595D01*
X150772038Y-120122038D01*
X150661595Y-120256614D01*
X150579528Y-120410150D01*
X150528992Y-120576746D01*
X150511928Y-120750000D01*
X143863117Y-120750000D01*
X143740706Y-120520986D01*
X143555134Y-120294866D01*
X143329013Y-120109294D01*
X143071033Y-119971401D01*
X142791110Y-119886487D01*
X142500000Y-119857815D01*
X142208889Y-119886487D01*
X141928966Y-119971401D01*
X141670986Y-120109294D01*
X141444866Y-120294866D01*
X141392777Y-120358337D01*
X141338405Y-120256614D01*
X141227962Y-120122038D01*
X141093386Y-120011595D01*
X140939850Y-119929528D01*
X140773254Y-119878992D01*
X140600000Y-119861928D01*
X139400000Y-119861928D01*
X139226746Y-119878992D01*
X139060150Y-119929528D01*
X138906614Y-120011595D01*
X138772038Y-120122038D01*
X138661595Y-120256614D01*
X138579528Y-120410150D01*
X138528992Y-120576746D01*
X138511928Y-120750000D01*
X132363117Y-120750000D01*
X132240706Y-120520986D01*
X132055134Y-120294866D01*
X131829013Y-120109294D01*
X131571033Y-119971401D01*
X131291110Y-119886487D01*
X131000000Y-119857815D01*
X130708889Y-119886487D01*
X130428966Y-119971401D01*
X130170986Y-120109294D01*
X129944866Y-120294866D01*
X129892777Y-120358337D01*
X129838405Y-120256614D01*
X129727962Y-120122038D01*
X129593386Y-120011595D01*
X129439850Y-119929528D01*
X129273254Y-119878992D01*
X129100000Y-119861928D01*
X127900000Y-119861928D01*
X127726746Y-119878992D01*
X127560150Y-119929528D01*
X127406614Y-120011595D01*
X127272038Y-120122038D01*
X127161595Y-120256614D01*
X127079528Y-120410150D01*
X127028992Y-120576746D01*
X127011928Y-120750000D01*
X121113117Y-120750000D01*
X120990706Y-120520986D01*
X120805134Y-120294866D01*
X120579013Y-120109294D01*
X120321033Y-119971401D01*
X120041110Y-119886487D01*
X119750000Y-119857815D01*
X119458889Y-119886487D01*
X119178966Y-119971401D01*
X118920986Y-120109294D01*
X118694866Y-120294866D01*
X118642777Y-120358337D01*
X118588405Y-120256614D01*
X118477962Y-120122038D01*
X118343386Y-120011595D01*
X118189850Y-119929528D01*
X118023254Y-119878992D01*
X117850000Y-119861928D01*
X116650000Y-119861928D01*
X116476746Y-119878992D01*
X116310150Y-119929528D01*
X116156614Y-120011595D01*
X116022038Y-120122038D01*
X115911595Y-120256614D01*
X115829528Y-120410150D01*
X115778992Y-120576746D01*
X115761928Y-120750000D01*
X109852109Y-120750000D01*
X109779025Y-120593188D01*
X109606802Y-120358205D01*
X109392046Y-120161336D01*
X109143009Y-120010146D01*
X108869261Y-119910446D01*
X108856890Y-119908524D01*
X108627000Y-120029845D01*
X108373000Y-120029845D01*
X108143110Y-119908524D01*
X108130739Y-119910446D01*
X107856991Y-120010146D01*
X107607954Y-120161336D01*
X107393198Y-120358205D01*
X107392914Y-120358593D01*
X107338405Y-120256614D01*
X107227962Y-120122038D01*
X107093386Y-120011595D01*
X106939850Y-119929528D01*
X106773254Y-119878992D01*
X106600000Y-119861928D01*
X105400000Y-119861928D01*
X105226746Y-119878992D01*
X105060150Y-119929528D01*
X104906614Y-120011595D01*
X104772038Y-120122038D01*
X104661595Y-120256614D01*
X104579528Y-120410150D01*
X104528992Y-120576746D01*
X104511928Y-120750000D01*
X94111581Y-120750000D01*
X91346580Y-117985000D01*
X91396260Y-117985000D01*
X91683158Y-117927932D01*
X91953411Y-117815990D01*
X92196632Y-117653475D01*
X92321710Y-117528397D01*
X92901208Y-117528397D01*
X92978843Y-117777472D01*
X93242883Y-117903371D01*
X93526411Y-117975339D01*
X93818531Y-117990611D01*
X94108019Y-117948599D01*
X94383747Y-117850919D01*
X94521157Y-117777472D01*
X94598792Y-117528397D01*
X93750000Y-116679605D01*
X92901208Y-117528397D01*
X92321710Y-117528397D01*
X92403475Y-117446632D01*
X92512416Y-117283590D01*
X92721603Y-117348792D01*
X93570395Y-116500000D01*
X93929605Y-116500000D01*
X94778397Y-117348792D01*
X94987584Y-117283590D01*
X95096525Y-117446632D01*
X95303368Y-117653475D01*
X95546589Y-117815990D01*
X95816842Y-117927932D01*
X96103740Y-117985000D01*
X96396260Y-117985000D01*
X96683158Y-117927932D01*
X96953411Y-117815990D01*
X97196632Y-117653475D01*
X97403475Y-117446632D01*
X97565990Y-117203411D01*
X97677932Y-116933158D01*
X97735000Y-116646260D01*
X97735000Y-116353740D01*
X97677932Y-116066842D01*
X97565990Y-115796589D01*
X97403475Y-115553368D01*
X97196632Y-115346525D01*
X96953411Y-115184010D01*
X96683158Y-115072068D01*
X96396260Y-115015000D01*
X96103740Y-115015000D01*
X95816842Y-115072068D01*
X95546589Y-115184010D01*
X95303368Y-115346525D01*
X95096525Y-115553368D01*
X94987584Y-115716410D01*
X94778397Y-115651208D01*
X93929605Y-116500000D01*
X93570395Y-116500000D01*
X92721603Y-115651208D01*
X92512416Y-115716410D01*
X92403475Y-115553368D01*
X92321710Y-115471603D01*
X92901208Y-115471603D01*
X93750000Y-116320395D01*
X94598792Y-115471603D01*
X94521157Y-115222528D01*
X94257117Y-115096629D01*
X93973589Y-115024661D01*
X93681469Y-115009389D01*
X93391981Y-115051401D01*
X93116253Y-115149081D01*
X92978843Y-115222528D01*
X92901208Y-115471603D01*
X92321710Y-115471603D01*
X92196632Y-115346525D01*
X91953411Y-115184010D01*
X91683158Y-115072068D01*
X91396260Y-115015000D01*
X91103740Y-115015000D01*
X90834999Y-115068456D01*
X90834999Y-112883466D01*
X90839280Y-112839997D01*
X90834999Y-112796528D01*
X90834999Y-112796520D01*
X90822194Y-112666507D01*
X90771588Y-112499684D01*
X90767857Y-112492702D01*
X105186903Y-112492702D01*
X105258486Y-112736671D01*
X105513996Y-112857571D01*
X105788184Y-112926300D01*
X106070512Y-112940217D01*
X106350130Y-112898787D01*
X106616292Y-112803603D01*
X106741514Y-112736671D01*
X106813097Y-112492702D01*
X106000000Y-111679605D01*
X105186903Y-112492702D01*
X90767857Y-112492702D01*
X90689410Y-112345938D01*
X90662458Y-112313097D01*
X90606531Y-112244950D01*
X90606529Y-112244948D01*
X90578816Y-112211180D01*
X90545049Y-112183469D01*
X89932092Y-111570512D01*
X104559783Y-111570512D01*
X104601213Y-111850130D01*
X104696397Y-112116292D01*
X104763329Y-112241514D01*
X105007298Y-112313097D01*
X105820395Y-111500000D01*
X106179605Y-111500000D01*
X106992702Y-112313097D01*
X107236671Y-112241514D01*
X107357571Y-111986004D01*
X107426300Y-111711816D01*
X107440217Y-111429488D01*
X107398787Y-111149870D01*
X107303603Y-110883708D01*
X107236671Y-110758486D01*
X107037340Y-110700000D01*
X108061928Y-110700000D01*
X108061928Y-112300000D01*
X108074188Y-112424482D01*
X108110498Y-112544180D01*
X108169463Y-112654494D01*
X108248815Y-112751185D01*
X108345506Y-112830537D01*
X108455820Y-112889502D01*
X108575518Y-112925812D01*
X108700000Y-112938072D01*
X110300000Y-112938072D01*
X110424482Y-112925812D01*
X110544180Y-112889502D01*
X110654494Y-112830537D01*
X110751185Y-112751185D01*
X110830537Y-112654494D01*
X110889502Y-112544180D01*
X110925812Y-112424482D01*
X110938072Y-112300000D01*
X110938072Y-110700000D01*
X110925812Y-110575518D01*
X110889502Y-110455820D01*
X110830537Y-110345506D01*
X110751185Y-110248815D01*
X110654494Y-110169463D01*
X110544180Y-110110498D01*
X110424482Y-110074188D01*
X110300000Y-110061928D01*
X108700000Y-110061928D01*
X108575518Y-110074188D01*
X108455820Y-110110498D01*
X108345506Y-110169463D01*
X108248815Y-110248815D01*
X108169463Y-110345506D01*
X108110498Y-110455820D01*
X108074188Y-110575518D01*
X108061928Y-110700000D01*
X107037340Y-110700000D01*
X106992702Y-110686903D01*
X106179605Y-111500000D01*
X105820395Y-111500000D01*
X105007298Y-110686903D01*
X104763329Y-110758486D01*
X104642429Y-111013996D01*
X104573700Y-111288184D01*
X104559783Y-111570512D01*
X89932092Y-111570512D01*
X88868878Y-110507298D01*
X105186903Y-110507298D01*
X106000000Y-111320395D01*
X106813097Y-110507298D01*
X106741514Y-110263329D01*
X106486004Y-110142429D01*
X106211816Y-110073700D01*
X105929488Y-110059783D01*
X105649870Y-110101213D01*
X105383708Y-110196397D01*
X105258486Y-110263329D01*
X105186903Y-110507298D01*
X88868878Y-110507298D01*
X86135001Y-107773421D01*
X86135001Y-102170444D01*
X86241361Y-102191600D01*
X86445239Y-102191600D01*
X86645198Y-102151826D01*
X86833556Y-102073805D01*
X87003074Y-101960537D01*
X87147237Y-101816374D01*
X87260505Y-101646856D01*
X87338526Y-101458498D01*
X87378300Y-101258539D01*
X87378300Y-101054661D01*
X87338526Y-100854702D01*
X87260505Y-100666344D01*
X87147237Y-100496826D01*
X87103300Y-100452889D01*
X87103300Y-84268623D01*
X87106976Y-84231300D01*
X87103300Y-84193977D01*
X87103300Y-84193967D01*
X87092303Y-84082314D01*
X87048846Y-83939053D01*
X86978274Y-83807024D01*
X86883301Y-83691299D01*
X86854303Y-83667501D01*
X80177491Y-76990690D01*
X80315990Y-76783411D01*
X80331110Y-76746909D01*
X89048201Y-85464001D01*
X89048200Y-106270867D01*
X89044523Y-106308200D01*
X89059197Y-106457186D01*
X89102654Y-106600447D01*
X89173226Y-106732476D01*
X89268199Y-106848201D01*
X89383924Y-106943174D01*
X89515953Y-107013746D01*
X89659214Y-107057203D01*
X89808200Y-107071877D01*
X89845533Y-107068200D01*
X93742589Y-107068200D01*
X93786526Y-107112137D01*
X93956044Y-107225405D01*
X94144402Y-107303426D01*
X94344361Y-107343200D01*
X94548239Y-107343200D01*
X94748198Y-107303426D01*
X94936556Y-107225405D01*
X95106074Y-107112137D01*
X95250237Y-106967974D01*
X95363505Y-106798456D01*
X95441526Y-106610098D01*
X95481300Y-106410139D01*
X95481300Y-106206261D01*
X95441526Y-106006302D01*
X95363505Y-105817944D01*
X95250237Y-105648426D01*
X95106074Y-105504263D01*
X94936556Y-105390995D01*
X94748198Y-105312974D01*
X94548239Y-105273200D01*
X94344361Y-105273200D01*
X94144402Y-105312974D01*
X93956044Y-105390995D01*
X93786526Y-105504263D01*
X93742589Y-105548200D01*
X90568200Y-105548200D01*
X90568200Y-92407911D01*
X101065000Y-92407911D01*
X101065000Y-92592089D01*
X101100932Y-92772729D01*
X101171414Y-92942889D01*
X101240001Y-93045537D01*
X101240000Y-97954464D01*
X101171414Y-98057111D01*
X101100932Y-98227271D01*
X101065000Y-98407911D01*
X101065000Y-98592089D01*
X101100932Y-98772729D01*
X101171414Y-98942889D01*
X101273738Y-99096028D01*
X101403972Y-99226262D01*
X101557111Y-99328586D01*
X101727271Y-99399068D01*
X101907911Y-99435000D01*
X102092089Y-99435000D01*
X102272729Y-99399068D01*
X102442889Y-99328586D01*
X102596028Y-99226262D01*
X102726262Y-99096028D01*
X102828586Y-98942889D01*
X102899068Y-98772729D01*
X102935000Y-98592089D01*
X102935000Y-98407911D01*
X102899068Y-98227271D01*
X102828586Y-98057111D01*
X102760000Y-97954465D01*
X102760000Y-96405578D01*
X102907911Y-96435000D01*
X103092089Y-96435000D01*
X103240000Y-96405578D01*
X103240000Y-99954464D01*
X103171414Y-100057111D01*
X103100932Y-100227271D01*
X103065000Y-100407911D01*
X103065000Y-100592089D01*
X103100932Y-100772729D01*
X103171414Y-100942889D01*
X103273738Y-101096028D01*
X103403972Y-101226262D01*
X103557111Y-101328586D01*
X103727271Y-101399068D01*
X103907911Y-101435000D01*
X104092089Y-101435000D01*
X104272729Y-101399068D01*
X104442889Y-101328586D01*
X104500000Y-101290426D01*
X104557111Y-101328586D01*
X104727271Y-101399068D01*
X104907911Y-101435000D01*
X105092089Y-101435000D01*
X105272729Y-101399068D01*
X105442889Y-101328586D01*
X105500000Y-101290426D01*
X105557111Y-101328586D01*
X105727271Y-101399068D01*
X105907911Y-101435000D01*
X106092089Y-101435000D01*
X106272729Y-101399068D01*
X106442889Y-101328586D01*
X106500000Y-101290426D01*
X106557111Y-101328586D01*
X106727271Y-101399068D01*
X106907911Y-101435000D01*
X107092089Y-101435000D01*
X107272729Y-101399068D01*
X107442889Y-101328586D01*
X107500000Y-101290426D01*
X107557111Y-101328586D01*
X107727271Y-101399068D01*
X107907911Y-101435000D01*
X108092089Y-101435000D01*
X108272729Y-101399068D01*
X108442889Y-101328586D01*
X108596028Y-101226262D01*
X108726262Y-101096028D01*
X108828586Y-100942889D01*
X108899068Y-100772729D01*
X108935000Y-100592089D01*
X108935000Y-100407911D01*
X108899068Y-100227271D01*
X108828586Y-100057111D01*
X108760000Y-99954465D01*
X108760000Y-92307911D01*
X131865000Y-92307911D01*
X131865000Y-92492089D01*
X131900932Y-92672729D01*
X131971414Y-92842889D01*
X132073738Y-92996028D01*
X132203972Y-93126262D01*
X132357111Y-93228586D01*
X132527271Y-93299068D01*
X132707911Y-93335000D01*
X132892089Y-93335000D01*
X133072729Y-93299068D01*
X133242889Y-93228586D01*
X133396028Y-93126262D01*
X133526262Y-92996028D01*
X133628586Y-92842889D01*
X133699068Y-92672729D01*
X133735000Y-92492089D01*
X133735000Y-92307911D01*
X133699068Y-92127271D01*
X133628586Y-91957111D01*
X133526262Y-91803972D01*
X133396028Y-91673738D01*
X133242889Y-91571414D01*
X133072729Y-91500932D01*
X132892089Y-91465000D01*
X132707911Y-91465000D01*
X132527271Y-91500932D01*
X132357111Y-91571414D01*
X132203972Y-91673738D01*
X132073738Y-91803972D01*
X131971414Y-91957111D01*
X131900932Y-92127271D01*
X131865000Y-92307911D01*
X108760000Y-92307911D01*
X108760000Y-89907911D01*
X131865000Y-89907911D01*
X131865000Y-90092089D01*
X131900932Y-90272729D01*
X131971414Y-90442889D01*
X132073738Y-90596028D01*
X132203972Y-90726262D01*
X132357111Y-90828586D01*
X132527271Y-90899068D01*
X132707911Y-90935000D01*
X132892089Y-90935000D01*
X133072729Y-90899068D01*
X133242889Y-90828586D01*
X133396028Y-90726262D01*
X133526262Y-90596028D01*
X133628586Y-90442889D01*
X133699068Y-90272729D01*
X133735000Y-90092089D01*
X133735000Y-89907911D01*
X133699068Y-89727271D01*
X133628586Y-89557111D01*
X133526262Y-89403972D01*
X133396028Y-89273738D01*
X133242889Y-89171414D01*
X133072729Y-89100932D01*
X132892089Y-89065000D01*
X132707911Y-89065000D01*
X132527271Y-89100932D01*
X132357111Y-89171414D01*
X132203972Y-89273738D01*
X132073738Y-89403972D01*
X131971414Y-89557111D01*
X131900932Y-89727271D01*
X131865000Y-89907911D01*
X108760000Y-89907911D01*
X108760000Y-86545535D01*
X108828586Y-86442889D01*
X108899068Y-86272729D01*
X108935000Y-86092089D01*
X108935000Y-85907911D01*
X108899068Y-85727271D01*
X108828586Y-85557111D01*
X108726262Y-85403972D01*
X108596028Y-85273738D01*
X108442889Y-85171414D01*
X108272729Y-85100932D01*
X108092089Y-85065000D01*
X107907911Y-85065000D01*
X107727271Y-85100932D01*
X107557111Y-85171414D01*
X107403972Y-85273738D01*
X107273738Y-85403972D01*
X107171414Y-85557111D01*
X107100932Y-85727271D01*
X107065000Y-85907911D01*
X107065000Y-86092089D01*
X107100932Y-86272729D01*
X107171414Y-86442889D01*
X107240001Y-86545537D01*
X107240001Y-86594422D01*
X107092089Y-86565000D01*
X106907911Y-86565000D01*
X106727271Y-86600932D01*
X106557111Y-86671414D01*
X106403972Y-86773738D01*
X106273738Y-86903972D01*
X106171414Y-87057111D01*
X106100932Y-87227271D01*
X106065000Y-87407911D01*
X106065000Y-87565000D01*
X105907911Y-87565000D01*
X105727271Y-87600932D01*
X105557111Y-87671414D01*
X105403972Y-87773738D01*
X105273738Y-87903972D01*
X105171414Y-88057111D01*
X105100932Y-88227271D01*
X105065000Y-88407911D01*
X105065000Y-88565000D01*
X104907911Y-88565000D01*
X104727271Y-88600932D01*
X104557111Y-88671414D01*
X104403972Y-88773738D01*
X104273738Y-88903972D01*
X104171414Y-89057111D01*
X104100932Y-89227271D01*
X104065000Y-89407911D01*
X104065000Y-89592089D01*
X104100932Y-89772729D01*
X104171414Y-89942889D01*
X104240000Y-90045535D01*
X104240000Y-90594422D01*
X104092089Y-90565000D01*
X103907911Y-90565000D01*
X103727271Y-90600932D01*
X103557111Y-90671414D01*
X103403972Y-90773738D01*
X103273738Y-90903972D01*
X103171414Y-91057111D01*
X103100932Y-91227271D01*
X103065000Y-91407911D01*
X103065000Y-91592089D01*
X103100932Y-91772729D01*
X103171414Y-91942889D01*
X103240001Y-92045537D01*
X103240001Y-93094422D01*
X103092089Y-93065000D01*
X102907911Y-93065000D01*
X102760000Y-93094422D01*
X102760000Y-93045535D01*
X102828586Y-92942889D01*
X102899068Y-92772729D01*
X102935000Y-92592089D01*
X102935000Y-92407911D01*
X102899068Y-92227271D01*
X102828586Y-92057111D01*
X102726262Y-91903972D01*
X102596028Y-91773738D01*
X102442889Y-91671414D01*
X102272729Y-91600932D01*
X102092089Y-91565000D01*
X101907911Y-91565000D01*
X101727271Y-91600932D01*
X101557111Y-91671414D01*
X101403972Y-91773738D01*
X101273738Y-91903972D01*
X101171414Y-92057111D01*
X101100932Y-92227271D01*
X101065000Y-92407911D01*
X90568200Y-92407911D01*
X90568200Y-85186520D01*
X90571876Y-85149197D01*
X90568200Y-85111874D01*
X90568200Y-85111865D01*
X90557203Y-85000212D01*
X90513746Y-84856951D01*
X90480685Y-84795099D01*
X90443174Y-84724921D01*
X90429215Y-84707911D01*
X129465000Y-84707911D01*
X129465000Y-84892089D01*
X129500932Y-85072729D01*
X129571414Y-85242889D01*
X129673738Y-85396028D01*
X129803972Y-85526262D01*
X129957111Y-85628586D01*
X130127271Y-85699068D01*
X130307911Y-85735000D01*
X130492089Y-85735000D01*
X130672729Y-85699068D01*
X130800000Y-85646351D01*
X130927271Y-85699068D01*
X131107911Y-85735000D01*
X131292089Y-85735000D01*
X131472729Y-85699068D01*
X131642889Y-85628586D01*
X131796028Y-85526262D01*
X131926262Y-85396028D01*
X132028586Y-85242889D01*
X132099068Y-85072729D01*
X132135000Y-84892089D01*
X132135000Y-84707911D01*
X132099068Y-84527271D01*
X132028586Y-84357111D01*
X131926262Y-84203972D01*
X131796028Y-84073738D01*
X131642889Y-83971414D01*
X131472729Y-83900932D01*
X131292089Y-83865000D01*
X131107911Y-83865000D01*
X130927271Y-83900932D01*
X130800000Y-83953649D01*
X130672729Y-83900932D01*
X130492089Y-83865000D01*
X130307911Y-83865000D01*
X130127271Y-83900932D01*
X129957111Y-83971414D01*
X129803972Y-84073738D01*
X129673738Y-84203972D01*
X129571414Y-84357111D01*
X129500932Y-84527271D01*
X129465000Y-84707911D01*
X90429215Y-84707911D01*
X90371999Y-84638195D01*
X90348201Y-84609197D01*
X90319203Y-84585399D01*
X80180295Y-74446492D01*
X80315990Y-74243411D01*
X80427932Y-73973158D01*
X80485000Y-73686260D01*
X80485000Y-73393740D01*
X80427932Y-73106842D01*
X80315990Y-72836589D01*
X80153475Y-72593368D01*
X80021620Y-72461513D01*
X80094180Y-72439502D01*
X80204494Y-72380537D01*
X80301185Y-72301185D01*
X80380537Y-72204494D01*
X80439502Y-72094180D01*
X80475812Y-71974482D01*
X80488072Y-71850000D01*
X80488072Y-70150000D01*
X80475812Y-70025518D01*
X80439502Y-69905820D01*
X80380537Y-69795506D01*
X80301185Y-69698815D01*
X80204494Y-69619463D01*
X80094180Y-69560498D01*
X79974482Y-69524188D01*
X79850000Y-69511928D01*
X78150000Y-69511928D01*
X78025518Y-69524188D01*
X77905820Y-69560498D01*
X77795506Y-69619463D01*
X77698815Y-69698815D01*
X77619463Y-69795506D01*
X77560498Y-69905820D01*
X77524188Y-70025518D01*
X77511928Y-70150000D01*
X70660000Y-70150000D01*
X70660000Y-66907911D01*
X83865000Y-66907911D01*
X83865000Y-67092089D01*
X83900932Y-67272729D01*
X83971414Y-67442889D01*
X84073738Y-67596028D01*
X84203972Y-67726262D01*
X84357111Y-67828586D01*
X84527271Y-67899068D01*
X84648351Y-67923153D01*
X85476847Y-68751649D01*
X85500932Y-68872729D01*
X85571414Y-69042889D01*
X85673738Y-69196028D01*
X85803972Y-69326262D01*
X85957111Y-69428586D01*
X86127271Y-69499068D01*
X86307911Y-69535000D01*
X86492089Y-69535000D01*
X86672729Y-69499068D01*
X86842889Y-69428586D01*
X86996028Y-69326262D01*
X87126262Y-69196028D01*
X87228586Y-69042889D01*
X87291354Y-68891354D01*
X87442889Y-68828586D01*
X87596028Y-68726262D01*
X87726262Y-68596028D01*
X87828586Y-68442889D01*
X87899068Y-68272729D01*
X87935000Y-68092089D01*
X87935000Y-67907911D01*
X87899068Y-67727271D01*
X87828586Y-67557111D01*
X87726262Y-67403972D01*
X87596028Y-67273738D01*
X87442889Y-67171414D01*
X87272729Y-67100932D01*
X87151649Y-67076847D01*
X86491366Y-66416564D01*
X86467281Y-66295484D01*
X86396799Y-66125324D01*
X86294475Y-65972185D01*
X86164241Y-65841951D01*
X86011102Y-65739627D01*
X85840942Y-65669145D01*
X85660302Y-65633213D01*
X85476124Y-65633213D01*
X85295484Y-65669145D01*
X85125324Y-65739627D01*
X84972185Y-65841951D01*
X84841951Y-65972185D01*
X84779934Y-66065000D01*
X84707911Y-66065000D01*
X84527271Y-66100932D01*
X84357111Y-66171414D01*
X84203972Y-66273738D01*
X84073738Y-66403972D01*
X83971414Y-66557111D01*
X83900932Y-66727271D01*
X83865000Y-66907911D01*
X70660000Y-66907911D01*
X70660000Y-63057000D01*
X79395000Y-63057000D01*
X79395000Y-63607000D01*
X79440624Y-63816233D01*
X79526191Y-64012545D01*
X79648413Y-64188391D01*
X79802592Y-64337014D01*
X79982803Y-64452702D01*
X80185999Y-64524408D01*
X80353000Y-64397502D01*
X80353000Y-63057000D01*
X79395000Y-63057000D01*
X70660000Y-63057000D01*
X70660000Y-62253000D01*
X79395000Y-62253000D01*
X79395000Y-62803000D01*
X80353000Y-62803000D01*
X80353000Y-61462498D01*
X80607000Y-61462498D01*
X80607000Y-62803000D01*
X80627000Y-62803000D01*
X80627000Y-63057000D01*
X80607000Y-63057000D01*
X80607000Y-64397502D01*
X80774001Y-64524408D01*
X80977197Y-64452702D01*
X81157408Y-64337014D01*
X81311587Y-64188391D01*
X81433809Y-64012545D01*
X81519376Y-63816233D01*
X81565000Y-63607000D01*
X81565000Y-63319133D01*
X81637271Y-63349068D01*
X81817911Y-63385000D01*
X82002089Y-63385000D01*
X82182729Y-63349068D01*
X82352889Y-63278586D01*
X82506028Y-63176262D01*
X82636262Y-63046028D01*
X82738586Y-62892889D01*
X82809068Y-62722729D01*
X82845000Y-62542089D01*
X82845000Y-62357911D01*
X86755000Y-62357911D01*
X86755000Y-62542089D01*
X86790932Y-62722729D01*
X86861414Y-62892889D01*
X86963738Y-63046028D01*
X87093972Y-63176262D01*
X87247111Y-63278586D01*
X87417271Y-63349068D01*
X87597911Y-63385000D01*
X87782089Y-63385000D01*
X87962729Y-63349068D01*
X88035000Y-63319133D01*
X88035000Y-63607000D01*
X88080624Y-63816233D01*
X88166191Y-64012545D01*
X88288413Y-64188391D01*
X88442592Y-64337014D01*
X88622803Y-64452702D01*
X88825999Y-64524408D01*
X88993000Y-64397502D01*
X88993000Y-63057000D01*
X89247000Y-63057000D01*
X89247000Y-64397502D01*
X89414001Y-64524408D01*
X89617197Y-64452702D01*
X89797408Y-64337014D01*
X89859613Y-64277050D01*
X110015000Y-64277050D01*
X110015000Y-64722949D01*
X110036487Y-64941110D01*
X110121401Y-65221033D01*
X110259294Y-65479013D01*
X110444866Y-65705134D01*
X110670986Y-65890706D01*
X110928966Y-66028599D01*
X111208889Y-66113513D01*
X111500000Y-66142185D01*
X111791110Y-66113513D01*
X112071033Y-66028599D01*
X112329013Y-65890706D01*
X112555134Y-65705134D01*
X112607223Y-65641663D01*
X112661595Y-65743386D01*
X112772038Y-65877962D01*
X112906614Y-65988405D01*
X113060150Y-66070472D01*
X113226746Y-66121008D01*
X113400000Y-66138072D01*
X114600000Y-66138072D01*
X114773254Y-66121008D01*
X114939850Y-66070472D01*
X115093386Y-65988405D01*
X115227962Y-65877962D01*
X115338405Y-65743386D01*
X115420472Y-65589850D01*
X115471008Y-65423254D01*
X115488072Y-65250000D01*
X115488072Y-64277050D01*
X121515000Y-64277050D01*
X121515000Y-64722949D01*
X121536487Y-64941110D01*
X121621401Y-65221033D01*
X121759294Y-65479013D01*
X121944866Y-65705134D01*
X122170986Y-65890706D01*
X122428966Y-66028599D01*
X122708889Y-66113513D01*
X123000000Y-66142185D01*
X123291110Y-66113513D01*
X123571033Y-66028599D01*
X123829013Y-65890706D01*
X124055134Y-65705134D01*
X124107223Y-65641663D01*
X124161595Y-65743386D01*
X124272038Y-65877962D01*
X124406614Y-65988405D01*
X124560150Y-66070472D01*
X124726746Y-66121008D01*
X124900000Y-66138072D01*
X126100000Y-66138072D01*
X126273254Y-66121008D01*
X126439850Y-66070472D01*
X126593386Y-65988405D01*
X126727962Y-65877962D01*
X126838405Y-65743386D01*
X126920472Y-65589850D01*
X126971008Y-65423254D01*
X126988072Y-65250000D01*
X126988072Y-64277050D01*
X133515000Y-64277050D01*
X133515000Y-64722949D01*
X133536487Y-64941110D01*
X133621401Y-65221033D01*
X133759294Y-65479013D01*
X133944866Y-65705134D01*
X134170986Y-65890706D01*
X134428966Y-66028599D01*
X134708889Y-66113513D01*
X135000000Y-66142185D01*
X135291110Y-66113513D01*
X135571033Y-66028599D01*
X135829013Y-65890706D01*
X136055134Y-65705134D01*
X136107223Y-65641663D01*
X136161595Y-65743386D01*
X136272038Y-65877962D01*
X136406614Y-65988405D01*
X136560150Y-66070472D01*
X136726746Y-66121008D01*
X136900000Y-66138072D01*
X138100000Y-66138072D01*
X138273254Y-66121008D01*
X138439850Y-66070472D01*
X138593386Y-65988405D01*
X138727962Y-65877962D01*
X138838405Y-65743386D01*
X138920472Y-65589850D01*
X138971008Y-65423254D01*
X138988072Y-65250000D01*
X138988072Y-64277050D01*
X145515000Y-64277050D01*
X145515000Y-64722949D01*
X145536487Y-64941110D01*
X145621401Y-65221033D01*
X145759294Y-65479013D01*
X145944866Y-65705134D01*
X146170986Y-65890706D01*
X146428966Y-66028599D01*
X146708889Y-66113513D01*
X147000000Y-66142185D01*
X147291110Y-66113513D01*
X147571033Y-66028599D01*
X147829013Y-65890706D01*
X148055134Y-65705134D01*
X148107223Y-65641663D01*
X148161595Y-65743386D01*
X148272038Y-65877962D01*
X148406614Y-65988405D01*
X148560150Y-66070472D01*
X148726746Y-66121008D01*
X148900000Y-66138072D01*
X150100000Y-66138072D01*
X150273254Y-66121008D01*
X150439850Y-66070472D01*
X150593386Y-65988405D01*
X150727962Y-65877962D01*
X150838405Y-65743386D01*
X150920472Y-65589850D01*
X150971008Y-65423254D01*
X150988072Y-65250000D01*
X150988072Y-63750000D01*
X150971008Y-63576746D01*
X150920472Y-63410150D01*
X150838405Y-63256614D01*
X150727962Y-63122038D01*
X150593386Y-63011595D01*
X150439850Y-62929528D01*
X150273254Y-62878992D01*
X150100000Y-62861928D01*
X148900000Y-62861928D01*
X148726746Y-62878992D01*
X148560150Y-62929528D01*
X148406614Y-63011595D01*
X148272038Y-63122038D01*
X148161595Y-63256614D01*
X148107223Y-63358337D01*
X148055134Y-63294866D01*
X147829014Y-63109294D01*
X147571034Y-62971401D01*
X147291111Y-62886487D01*
X147000000Y-62857815D01*
X146708890Y-62886487D01*
X146428967Y-62971401D01*
X146170987Y-63109294D01*
X145944866Y-63294866D01*
X145759294Y-63520986D01*
X145621401Y-63778966D01*
X145536487Y-64058889D01*
X145515000Y-64277050D01*
X138988072Y-64277050D01*
X138988072Y-63750000D01*
X138971008Y-63576746D01*
X138920472Y-63410150D01*
X138838405Y-63256614D01*
X138727962Y-63122038D01*
X138593386Y-63011595D01*
X138439850Y-62929528D01*
X138273254Y-62878992D01*
X138100000Y-62861928D01*
X136900000Y-62861928D01*
X136726746Y-62878992D01*
X136560150Y-62929528D01*
X136406614Y-63011595D01*
X136272038Y-63122038D01*
X136161595Y-63256614D01*
X136107223Y-63358337D01*
X136055134Y-63294866D01*
X135829014Y-63109294D01*
X135571034Y-62971401D01*
X135291111Y-62886487D01*
X135000000Y-62857815D01*
X134708890Y-62886487D01*
X134428967Y-62971401D01*
X134170987Y-63109294D01*
X133944866Y-63294866D01*
X133759294Y-63520986D01*
X133621401Y-63778966D01*
X133536487Y-64058889D01*
X133515000Y-64277050D01*
X126988072Y-64277050D01*
X126988072Y-63750000D01*
X126971008Y-63576746D01*
X126920472Y-63410150D01*
X126838405Y-63256614D01*
X126727962Y-63122038D01*
X126593386Y-63011595D01*
X126439850Y-62929528D01*
X126273254Y-62878992D01*
X126100000Y-62861928D01*
X124900000Y-62861928D01*
X124726746Y-62878992D01*
X124560150Y-62929528D01*
X124406614Y-63011595D01*
X124272038Y-63122038D01*
X124161595Y-63256614D01*
X124107223Y-63358337D01*
X124055134Y-63294866D01*
X123829014Y-63109294D01*
X123571034Y-62971401D01*
X123291111Y-62886487D01*
X123000000Y-62857815D01*
X122708890Y-62886487D01*
X122428967Y-62971401D01*
X122170987Y-63109294D01*
X121944866Y-63294866D01*
X121759294Y-63520986D01*
X121621401Y-63778966D01*
X121536487Y-64058889D01*
X121515000Y-64277050D01*
X115488072Y-64277050D01*
X115488072Y-63750000D01*
X115471008Y-63576746D01*
X115420472Y-63410150D01*
X115338405Y-63256614D01*
X115227962Y-63122038D01*
X115093386Y-63011595D01*
X114939850Y-62929528D01*
X114773254Y-62878992D01*
X114600000Y-62861928D01*
X113400000Y-62861928D01*
X113226746Y-62878992D01*
X113060150Y-62929528D01*
X112906614Y-63011595D01*
X112772038Y-63122038D01*
X112661595Y-63256614D01*
X112607223Y-63358337D01*
X112555134Y-63294866D01*
X112329014Y-63109294D01*
X112071034Y-62971401D01*
X111791111Y-62886487D01*
X111500000Y-62857815D01*
X111208890Y-62886487D01*
X110928967Y-62971401D01*
X110670987Y-63109294D01*
X110444866Y-63294866D01*
X110259294Y-63520986D01*
X110121401Y-63778966D01*
X110036487Y-64058889D01*
X110015000Y-64277050D01*
X89859613Y-64277050D01*
X89951587Y-64188391D01*
X90073809Y-64012545D01*
X90159376Y-63816233D01*
X90205000Y-63607000D01*
X90205000Y-63057000D01*
X89247000Y-63057000D01*
X88993000Y-63057000D01*
X88973000Y-63057000D01*
X88973000Y-62803000D01*
X88993000Y-62803000D01*
X88993000Y-61462498D01*
X89247000Y-61462498D01*
X89247000Y-62803000D01*
X90205000Y-62803000D01*
X90205000Y-62253000D01*
X90159376Y-62043767D01*
X90073809Y-61847455D01*
X89951587Y-61671609D01*
X89797408Y-61522986D01*
X89617197Y-61407298D01*
X89414001Y-61335592D01*
X89247000Y-61462498D01*
X88993000Y-61462498D01*
X88825999Y-61335592D01*
X88622803Y-61407298D01*
X88442592Y-61522986D01*
X88288413Y-61671609D01*
X88262915Y-61708294D01*
X88132889Y-61621414D01*
X87962729Y-61550932D01*
X87782089Y-61515000D01*
X87597911Y-61515000D01*
X87417271Y-61550932D01*
X87247111Y-61621414D01*
X87093972Y-61723738D01*
X86963738Y-61853972D01*
X86861414Y-62007111D01*
X86790932Y-62177271D01*
X86755000Y-62357911D01*
X82845000Y-62357911D01*
X82809068Y-62177271D01*
X82738586Y-62007111D01*
X82636262Y-61853972D01*
X82506028Y-61723738D01*
X82352889Y-61621414D01*
X82182729Y-61550932D01*
X82002089Y-61515000D01*
X81817911Y-61515000D01*
X81637271Y-61550932D01*
X81467111Y-61621414D01*
X81337085Y-61708294D01*
X81311587Y-61671609D01*
X81157408Y-61522986D01*
X80977197Y-61407298D01*
X80774001Y-61335592D01*
X80607000Y-61462498D01*
X80353000Y-61462498D01*
X80185999Y-61335592D01*
X79982803Y-61407298D01*
X79802592Y-61522986D01*
X79648413Y-61671609D01*
X79526191Y-61847455D01*
X79440624Y-62043767D01*
X79395000Y-62253000D01*
X70660000Y-62253000D01*
X70660000Y-60032278D01*
X70684748Y-59779872D01*
X71765000Y-59779872D01*
X71765000Y-60220128D01*
X71850890Y-60651925D01*
X72019369Y-61058669D01*
X72263962Y-61424729D01*
X72575271Y-61736038D01*
X72941331Y-61980631D01*
X73348075Y-62149110D01*
X73779872Y-62235000D01*
X74220128Y-62235000D01*
X74651925Y-62149110D01*
X75058669Y-61980631D01*
X75424729Y-61736038D01*
X75736038Y-61424729D01*
X75980631Y-61058669D01*
X76007955Y-60992702D01*
X93686903Y-60992702D01*
X93758486Y-61236671D01*
X94013996Y-61357571D01*
X94288184Y-61426300D01*
X94570512Y-61440217D01*
X94850130Y-61398787D01*
X95116292Y-61303603D01*
X95241514Y-61236671D01*
X95313097Y-60992702D01*
X94500000Y-60179605D01*
X93686903Y-60992702D01*
X76007955Y-60992702D01*
X76149110Y-60651925D01*
X76235000Y-60220128D01*
X76235000Y-59779872D01*
X76149110Y-59348075D01*
X75980631Y-58941331D01*
X75944329Y-58887000D01*
X79395000Y-58887000D01*
X79395000Y-59287000D01*
X79440624Y-59496233D01*
X79526191Y-59692545D01*
X79648413Y-59868391D01*
X79802592Y-60017014D01*
X79982803Y-60132702D01*
X80185999Y-60204408D01*
X80353000Y-60077502D01*
X80353000Y-58887000D01*
X80607000Y-58887000D01*
X80607000Y-60077502D01*
X80774001Y-60204408D01*
X80977197Y-60132702D01*
X81157408Y-60017014D01*
X81311587Y-59868391D01*
X81433809Y-59692545D01*
X81519376Y-59496233D01*
X81565000Y-59287000D01*
X81565000Y-58887000D01*
X88035000Y-58887000D01*
X88035000Y-59287000D01*
X88080624Y-59496233D01*
X88166191Y-59692545D01*
X88288413Y-59868391D01*
X88442592Y-60017014D01*
X88622803Y-60132702D01*
X88825999Y-60204408D01*
X88993000Y-60077502D01*
X88993000Y-58887000D01*
X89247000Y-58887000D01*
X89247000Y-60077502D01*
X89414001Y-60204408D01*
X89617197Y-60132702D01*
X89714072Y-60070512D01*
X93059783Y-60070512D01*
X93101213Y-60350130D01*
X93196397Y-60616292D01*
X93263329Y-60741514D01*
X93507298Y-60813097D01*
X94320395Y-60000000D01*
X94679605Y-60000000D01*
X95492702Y-60813097D01*
X95561928Y-60792785D01*
X95561928Y-60800000D01*
X95574188Y-60924482D01*
X95610498Y-61044180D01*
X95669463Y-61154494D01*
X95748815Y-61251185D01*
X95845506Y-61330537D01*
X95955820Y-61389502D01*
X96075518Y-61425812D01*
X96200000Y-61438072D01*
X97800000Y-61438072D01*
X97924482Y-61425812D01*
X98044180Y-61389502D01*
X98154494Y-61330537D01*
X98251185Y-61251185D01*
X98330537Y-61154494D01*
X98389502Y-61044180D01*
X98425812Y-60924482D01*
X98438072Y-60800000D01*
X98438072Y-59779872D01*
X161765000Y-59779872D01*
X161765000Y-60220128D01*
X161850890Y-60651925D01*
X162019369Y-61058669D01*
X162263962Y-61424729D01*
X162575271Y-61736038D01*
X162941331Y-61980631D01*
X163348075Y-62149110D01*
X163779872Y-62235000D01*
X164220128Y-62235000D01*
X164651925Y-62149110D01*
X165058669Y-61980631D01*
X165424729Y-61736038D01*
X165736038Y-61424729D01*
X165980631Y-61058669D01*
X166149110Y-60651925D01*
X166235000Y-60220128D01*
X166235000Y-59779872D01*
X166149110Y-59348075D01*
X165980631Y-58941331D01*
X165736038Y-58575271D01*
X165424729Y-58263962D01*
X165058669Y-58019369D01*
X164651925Y-57850890D01*
X164220128Y-57765000D01*
X163779872Y-57765000D01*
X163348075Y-57850890D01*
X162941331Y-58019369D01*
X162575271Y-58263962D01*
X162263962Y-58575271D01*
X162019369Y-58941331D01*
X161850890Y-59348075D01*
X161765000Y-59779872D01*
X98438072Y-59779872D01*
X98438072Y-59200000D01*
X98425812Y-59075518D01*
X98389502Y-58955820D01*
X98330537Y-58845506D01*
X98251185Y-58748815D01*
X98154494Y-58669463D01*
X98044180Y-58610498D01*
X97924482Y-58574188D01*
X97800000Y-58561928D01*
X96200000Y-58561928D01*
X96075518Y-58574188D01*
X95955820Y-58610498D01*
X95845506Y-58669463D01*
X95748815Y-58748815D01*
X95669463Y-58845506D01*
X95610498Y-58955820D01*
X95574188Y-59075518D01*
X95561928Y-59200000D01*
X95561928Y-59207215D01*
X95492702Y-59186903D01*
X94679605Y-60000000D01*
X94320395Y-60000000D01*
X93507298Y-59186903D01*
X93263329Y-59258486D01*
X93142429Y-59513996D01*
X93073700Y-59788184D01*
X93059783Y-60070512D01*
X89714072Y-60070512D01*
X89797408Y-60017014D01*
X89951587Y-59868391D01*
X90073809Y-59692545D01*
X90159376Y-59496233D01*
X90205000Y-59287000D01*
X90205000Y-59007298D01*
X93686903Y-59007298D01*
X94500000Y-59820395D01*
X95313097Y-59007298D01*
X95241514Y-58763329D01*
X94986004Y-58642429D01*
X94711816Y-58573700D01*
X94429488Y-58559783D01*
X94149870Y-58601213D01*
X93883708Y-58696397D01*
X93758486Y-58763329D01*
X93686903Y-59007298D01*
X90205000Y-59007298D01*
X90205000Y-58887000D01*
X89247000Y-58887000D01*
X88993000Y-58887000D01*
X88035000Y-58887000D01*
X81565000Y-58887000D01*
X80607000Y-58887000D01*
X80353000Y-58887000D01*
X79395000Y-58887000D01*
X75944329Y-58887000D01*
X75736038Y-58575271D01*
X75424729Y-58263962D01*
X75378392Y-58233000D01*
X79395000Y-58233000D01*
X79395000Y-58633000D01*
X80353000Y-58633000D01*
X80353000Y-57442498D01*
X80607000Y-57442498D01*
X80607000Y-58633000D01*
X81565000Y-58633000D01*
X81565000Y-58233000D01*
X88035000Y-58233000D01*
X88035000Y-58633000D01*
X88993000Y-58633000D01*
X88993000Y-57442498D01*
X89247000Y-57442498D01*
X89247000Y-58633000D01*
X90205000Y-58633000D01*
X90205000Y-58233000D01*
X90159376Y-58023767D01*
X90073809Y-57827455D01*
X89951587Y-57651609D01*
X89797408Y-57502986D01*
X89617197Y-57387298D01*
X89414001Y-57315592D01*
X89247000Y-57442498D01*
X88993000Y-57442498D01*
X88825999Y-57315592D01*
X88622803Y-57387298D01*
X88442592Y-57502986D01*
X88288413Y-57651609D01*
X88166191Y-57827455D01*
X88080624Y-58023767D01*
X88035000Y-58233000D01*
X81565000Y-58233000D01*
X81519376Y-58023767D01*
X81433809Y-57827455D01*
X81311587Y-57651609D01*
X81157408Y-57502986D01*
X80977197Y-57387298D01*
X80774001Y-57315592D01*
X80607000Y-57442498D01*
X80353000Y-57442498D01*
X80185999Y-57315592D01*
X79982803Y-57387298D01*
X79802592Y-57502986D01*
X79648413Y-57651609D01*
X79526191Y-57827455D01*
X79440624Y-58023767D01*
X79395000Y-58233000D01*
X75378392Y-58233000D01*
X75058669Y-58019369D01*
X74651925Y-57850890D01*
X74220128Y-57765000D01*
X73779872Y-57765000D01*
X73348075Y-57850890D01*
X72941331Y-58019369D01*
X72575271Y-58263962D01*
X72263962Y-58575271D01*
X72019369Y-58941331D01*
X71850890Y-59348075D01*
X71765000Y-59779872D01*
X70684748Y-59779872D01*
X70726714Y-59351874D01*
X70914943Y-58728428D01*
X71220681Y-58153421D01*
X71632279Y-57648753D01*
X72134067Y-57233638D01*
X72706924Y-56923895D01*
X73329039Y-56731318D01*
X74007584Y-56660000D01*
X163967722Y-56660000D01*
X164648126Y-56726714D01*
%TA.AperFunction,Conductor*%
D24*
G36*
X164648126Y-56726714D02*
G01*
X165271572Y-56914943D01*
X165846579Y-57220681D01*
X166351247Y-57632279D01*
X166766362Y-58134067D01*
X167076105Y-58706924D01*
X167268682Y-59329039D01*
X167340000Y-60007584D01*
X167340001Y-125967711D01*
X167273286Y-126648126D01*
X167085057Y-127271570D01*
X166779323Y-127846573D01*
X166367721Y-128351248D01*
X165865933Y-128766362D01*
X165293077Y-129076104D01*
X164670961Y-129268682D01*
X163992417Y-129340000D01*
X74032279Y-129340000D01*
X73351874Y-129273286D01*
X72728430Y-129085057D01*
X72153427Y-128779323D01*
X71648752Y-128367721D01*
X71233638Y-127865933D01*
X70923896Y-127293077D01*
X70731318Y-126670961D01*
X70660000Y-125992417D01*
X70660000Y-125779872D01*
X71765000Y-125779872D01*
X71765000Y-126220128D01*
X71850890Y-126651925D01*
X72019369Y-127058669D01*
X72263962Y-127424729D01*
X72575271Y-127736038D01*
X72941331Y-127980631D01*
X73348075Y-128149110D01*
X73779872Y-128235000D01*
X74220128Y-128235000D01*
X74651925Y-128149110D01*
X75058669Y-127980631D01*
X75424729Y-127736038D01*
X75736038Y-127424729D01*
X75980631Y-127058669D01*
X76149110Y-126651925D01*
X76235000Y-126220128D01*
X76235000Y-125779872D01*
X161765000Y-125779872D01*
X161765000Y-126220128D01*
X161850890Y-126651925D01*
X162019369Y-127058669D01*
X162263962Y-127424729D01*
X162575271Y-127736038D01*
X162941331Y-127980631D01*
X163348075Y-128149110D01*
X163779872Y-128235000D01*
X164220128Y-128235000D01*
X164651925Y-128149110D01*
X165058669Y-127980631D01*
X165424729Y-127736038D01*
X165736038Y-127424729D01*
X165980631Y-127058669D01*
X166149110Y-126651925D01*
X166235000Y-126220128D01*
X166235000Y-125779872D01*
X166149110Y-125348075D01*
X165980631Y-124941331D01*
X165736038Y-124575271D01*
X165424729Y-124263962D01*
X165058669Y-124019369D01*
X164651925Y-123850890D01*
X164220128Y-123765000D01*
X163779872Y-123765000D01*
X163348075Y-123850890D01*
X162941331Y-124019369D01*
X162575271Y-124263962D01*
X162263962Y-124575271D01*
X162019369Y-124941331D01*
X161850890Y-125348075D01*
X161765000Y-125779872D01*
X76235000Y-125779872D01*
X76149110Y-125348075D01*
X75980631Y-124941331D01*
X75736038Y-124575271D01*
X75424729Y-124263962D01*
X75058669Y-124019369D01*
X74994290Y-123992702D01*
X91686903Y-123992702D01*
X91758486Y-124236671D01*
X92013996Y-124357571D01*
X92288184Y-124426300D01*
X92570512Y-124440217D01*
X92850130Y-124398787D01*
X93116292Y-124303603D01*
X93241514Y-124236671D01*
X93313097Y-123992702D01*
X92500000Y-123179605D01*
X91686903Y-123992702D01*
X74994290Y-123992702D01*
X74651925Y-123850890D01*
X74220128Y-123765000D01*
X73779872Y-123765000D01*
X73348075Y-123850890D01*
X72941331Y-124019369D01*
X72575271Y-124263962D01*
X72263962Y-124575271D01*
X72019369Y-124941331D01*
X71850890Y-125348075D01*
X71765000Y-125779872D01*
X70660000Y-125779872D01*
X70660000Y-123070512D01*
X91059783Y-123070512D01*
X91101213Y-123350130D01*
X91196397Y-123616292D01*
X91263329Y-123741514D01*
X91507298Y-123813097D01*
X92320395Y-123000000D01*
X91507298Y-122186903D01*
X91263329Y-122258486D01*
X91142429Y-122513996D01*
X91073700Y-122788184D01*
X91059783Y-123070512D01*
X70660000Y-123070512D01*
X70660000Y-98973740D01*
X77515000Y-98973740D01*
X77515000Y-99266260D01*
X77572068Y-99553158D01*
X77684010Y-99823411D01*
X77846525Y-100066632D01*
X78053368Y-100273475D01*
X78227760Y-100390000D01*
X78053368Y-100506525D01*
X77846525Y-100713368D01*
X77684010Y-100956589D01*
X77572068Y-101226842D01*
X77515000Y-101513740D01*
X77515000Y-101806260D01*
X77572068Y-102093158D01*
X77684010Y-102363411D01*
X77846525Y-102606632D01*
X78053368Y-102813475D01*
X78227760Y-102930000D01*
X78053368Y-103046525D01*
X77846525Y-103253368D01*
X77684010Y-103496589D01*
X77572068Y-103766842D01*
X77515000Y-104053740D01*
X77515000Y-104346260D01*
X77572068Y-104633158D01*
X77684010Y-104903411D01*
X77846525Y-105146632D01*
X78053368Y-105353475D01*
X78296589Y-105515990D01*
X78566842Y-105627932D01*
X78853740Y-105685000D01*
X79146260Y-105685000D01*
X79433158Y-105627932D01*
X79703411Y-105515990D01*
X79946632Y-105353475D01*
X80153475Y-105146632D01*
X80315990Y-104903411D01*
X80427932Y-104633158D01*
X80485000Y-104346260D01*
X80485000Y-104053740D01*
X80427932Y-103766842D01*
X80315990Y-103496589D01*
X80153475Y-103253368D01*
X79946632Y-103046525D01*
X79772240Y-102930000D01*
X79946632Y-102813475D01*
X80153475Y-102606632D01*
X80315990Y-102363411D01*
X80427932Y-102093158D01*
X80485000Y-101806260D01*
X80485000Y-101513740D01*
X80427932Y-101226842D01*
X80315990Y-100956589D01*
X80153475Y-100713368D01*
X79946632Y-100506525D01*
X79772240Y-100390000D01*
X79946632Y-100273475D01*
X80153475Y-100066632D01*
X80315990Y-99823411D01*
X80427932Y-99553158D01*
X80485000Y-99266260D01*
X80485000Y-98973740D01*
X80427932Y-98686842D01*
X80315990Y-98416589D01*
X80153475Y-98173368D01*
X79946632Y-97966525D01*
X79764466Y-97844805D01*
X79881355Y-97775178D01*
X80097588Y-97580269D01*
X80271641Y-97346920D01*
X80396825Y-97084099D01*
X80441476Y-96936890D01*
X80320155Y-96707000D01*
X79127000Y-96707000D01*
X79127000Y-96727000D01*
X78873000Y-96727000D01*
X78873000Y-96707000D01*
X77679845Y-96707000D01*
X77558524Y-96936890D01*
X77603175Y-97084099D01*
X77728359Y-97346920D01*
X77902412Y-97580269D01*
X78118645Y-97775178D01*
X78235534Y-97844805D01*
X78053368Y-97966525D01*
X77846525Y-98173368D01*
X77684010Y-98416589D01*
X77572068Y-98686842D01*
X77515000Y-98973740D01*
X70660000Y-98973740D01*
X70660000Y-84056890D01*
X77558524Y-84056890D01*
X77603175Y-84204099D01*
X77728359Y-84466920D01*
X77902412Y-84700269D01*
X78118645Y-84895178D01*
X78368748Y-85044157D01*
X78643109Y-85141481D01*
X78873000Y-85020814D01*
X78873000Y-83827000D01*
X79127000Y-83827000D01*
X79127000Y-85020814D01*
X79356891Y-85141481D01*
X79631252Y-85044157D01*
X79881355Y-84895178D01*
X80097588Y-84700269D01*
X80271641Y-84466920D01*
X80396825Y-84204099D01*
X80441476Y-84056890D01*
X80320155Y-83827000D01*
X79127000Y-83827000D01*
X78873000Y-83827000D01*
X77679845Y-83827000D01*
X77558524Y-84056890D01*
X70660000Y-84056890D01*
X70660000Y-81516890D01*
X77558524Y-81516890D01*
X77603175Y-81664099D01*
X77728359Y-81926920D01*
X77902412Y-82160269D01*
X78118645Y-82355178D01*
X78244255Y-82430000D01*
X78118645Y-82504822D01*
X77902412Y-82699731D01*
X77728359Y-82933080D01*
X77603175Y-83195901D01*
X77558524Y-83343110D01*
X77679845Y-83573000D01*
X78873000Y-83573000D01*
X78873000Y-81287000D01*
X79127000Y-81287000D01*
X79127000Y-83573000D01*
X80320155Y-83573000D01*
X80441476Y-83343110D01*
X80396825Y-83195901D01*
X80271641Y-82933080D01*
X80097588Y-82699731D01*
X79881355Y-82504822D01*
X79755745Y-82430000D01*
X79881355Y-82355178D01*
X80097588Y-82160269D01*
X80271641Y-81926920D01*
X80396825Y-81664099D01*
X80441476Y-81516890D01*
X80320155Y-81287000D01*
X79127000Y-81287000D01*
X78873000Y-81287000D01*
X77679845Y-81287000D01*
X77558524Y-81516890D01*
X70660000Y-81516890D01*
X70660000Y-70150000D01*
X77511928Y-70150000D01*
X77511928Y-71850000D01*
X77524188Y-71974482D01*
X77560498Y-72094180D01*
X77619463Y-72204494D01*
X77698815Y-72301185D01*
X77795506Y-72380537D01*
X77905820Y-72439502D01*
X77978380Y-72461513D01*
X77846525Y-72593368D01*
X77684010Y-72836589D01*
X77572068Y-73106842D01*
X77515000Y-73393740D01*
X77515000Y-73686260D01*
X77572068Y-73973158D01*
X77684010Y-74243411D01*
X77846525Y-74486632D01*
X78053368Y-74693475D01*
X78227760Y-74810000D01*
X78053368Y-74926525D01*
X77846525Y-75133368D01*
X77684010Y-75376589D01*
X77572068Y-75646842D01*
X77515000Y-75933740D01*
X77515000Y-76226260D01*
X77572068Y-76513158D01*
X77684010Y-76783411D01*
X77846525Y-77026632D01*
X78053368Y-77233475D01*
X78227760Y-77350000D01*
X78053368Y-77466525D01*
X77846525Y-77673368D01*
X77684010Y-77916589D01*
X77572068Y-78186842D01*
X77515000Y-78473740D01*
X77515000Y-78766260D01*
X77572068Y-79053158D01*
X77684010Y-79323411D01*
X77846525Y-79566632D01*
X78053368Y-79773475D01*
X78235534Y-79895195D01*
X78118645Y-79964822D01*
X77902412Y-80159731D01*
X77728359Y-80393080D01*
X77603175Y-80655901D01*
X77558524Y-80803110D01*
X77679845Y-81033000D01*
X78873000Y-81033000D01*
X78873000Y-81013000D01*
X79127000Y-81013000D01*
X79127000Y-81033000D01*
X80320155Y-81033000D01*
X80441476Y-80803110D01*
X80396825Y-80655901D01*
X80271641Y-80393080D01*
X80097588Y-80159731D01*
X79881355Y-79964822D01*
X79764466Y-79895195D01*
X79946632Y-79773475D01*
X80153475Y-79566632D01*
X80315990Y-79323411D01*
X80329059Y-79291860D01*
X85583301Y-84546103D01*
X85583300Y-96831721D01*
X80488072Y-91736494D01*
X80488072Y-90650000D01*
X80475812Y-90525518D01*
X80439502Y-90405820D01*
X80380537Y-90295506D01*
X80301185Y-90198815D01*
X80204494Y-90119463D01*
X80094180Y-90060498D01*
X79974482Y-90024188D01*
X79850000Y-90011928D01*
X78150000Y-90011928D01*
X78025518Y-90024188D01*
X77905820Y-90060498D01*
X77795506Y-90119463D01*
X77698815Y-90198815D01*
X77619463Y-90295506D01*
X77560498Y-90405820D01*
X77524188Y-90525518D01*
X77511928Y-90650000D01*
X77511928Y-92350000D01*
X77524188Y-92474482D01*
X77560498Y-92594180D01*
X77619463Y-92704494D01*
X77698815Y-92801185D01*
X77795506Y-92880537D01*
X77905820Y-92939502D01*
X77978380Y-92961513D01*
X77846525Y-93093368D01*
X77684010Y-93336589D01*
X77572068Y-93606842D01*
X77515000Y-93893740D01*
X77515000Y-94186260D01*
X77572068Y-94473158D01*
X77684010Y-94743411D01*
X77846525Y-94986632D01*
X78053368Y-95193475D01*
X78235534Y-95315195D01*
X78118645Y-95384822D01*
X77902412Y-95579731D01*
X77728359Y-95813080D01*
X77603175Y-96075901D01*
X77558524Y-96223110D01*
X77679845Y-96453000D01*
X78873000Y-96453000D01*
X78873000Y-96433000D01*
X79127000Y-96433000D01*
X79127000Y-96453000D01*
X80320155Y-96453000D01*
X80441476Y-96223110D01*
X80396825Y-96075901D01*
X80271641Y-95813080D01*
X80097588Y-95579731D01*
X79881355Y-95384822D01*
X79764466Y-95315195D01*
X79946632Y-95193475D01*
X80153475Y-94986632D01*
X80315990Y-94743411D01*
X80427932Y-94473158D01*
X80476652Y-94228230D01*
X84365001Y-98116580D01*
X84365002Y-108096520D01*
X84360720Y-108139999D01*
X84377806Y-108313489D01*
X84428413Y-108480312D01*
X84510591Y-108634058D01*
X84593469Y-108735045D01*
X84593472Y-108735048D01*
X84621185Y-108768816D01*
X84654953Y-108796529D01*
X89064999Y-113206576D01*
X89065000Y-117796518D01*
X89060718Y-117839997D01*
X89077804Y-118013487D01*
X89128411Y-118180310D01*
X89210589Y-118334056D01*
X89293467Y-118435043D01*
X89293470Y-118435046D01*
X89321183Y-118468814D01*
X89354951Y-118496527D01*
X92419662Y-121561239D01*
X92149870Y-121601213D01*
X91883708Y-121696397D01*
X91758486Y-121763329D01*
X91686903Y-122007298D01*
X92500000Y-122820395D01*
X92514143Y-122806253D01*
X92693748Y-122985858D01*
X92679605Y-123000000D01*
X93492702Y-123813097D01*
X93561928Y-123792785D01*
X93561928Y-123800000D01*
X93574188Y-123924482D01*
X93610498Y-124044180D01*
X93669463Y-124154494D01*
X93748815Y-124251185D01*
X93845506Y-124330537D01*
X93955820Y-124389502D01*
X94075518Y-124425812D01*
X94200000Y-124438072D01*
X95800000Y-124438072D01*
X95924482Y-124425812D01*
X96044180Y-124389502D01*
X96154494Y-124330537D01*
X96251185Y-124251185D01*
X96330537Y-124154494D01*
X96389502Y-124044180D01*
X96425812Y-123924482D01*
X96438072Y-123800000D01*
X96438072Y-122200000D01*
X96425812Y-122075518D01*
X96389502Y-121955820D01*
X96330537Y-121845506D01*
X96251185Y-121748815D01*
X96154494Y-121669463D01*
X96044180Y-121610498D01*
X95924482Y-121574188D01*
X95800000Y-121561928D01*
X94923509Y-121561928D01*
X94111581Y-120750000D01*
X104511928Y-120750000D01*
X104511928Y-122250000D01*
X104528992Y-122423254D01*
X104579528Y-122589850D01*
X104661595Y-122743386D01*
X104772038Y-122877962D01*
X104906614Y-122988405D01*
X105060150Y-123070472D01*
X105226746Y-123121008D01*
X105400000Y-123138072D01*
X106600000Y-123138072D01*
X106773254Y-123121008D01*
X106939850Y-123070472D01*
X107093386Y-122988405D01*
X107227962Y-122877962D01*
X107338405Y-122743386D01*
X107392914Y-122641407D01*
X107393198Y-122641795D01*
X107607954Y-122838664D01*
X107856991Y-122989854D01*
X108130739Y-123089554D01*
X108143110Y-123091476D01*
X108373000Y-122970155D01*
X108373000Y-121627000D01*
X108627000Y-121627000D01*
X108627000Y-122970155D01*
X108856890Y-123091476D01*
X108869261Y-123089554D01*
X109143009Y-122989854D01*
X109392046Y-122838664D01*
X109606802Y-122641795D01*
X109779025Y-122406812D01*
X109902096Y-122142745D01*
X109971285Y-121859742D01*
X109827232Y-121627000D01*
X108627000Y-121627000D01*
X108373000Y-121627000D01*
X108353000Y-121627000D01*
X108353000Y-121373000D01*
X108373000Y-121373000D01*
X108373000Y-120029845D01*
X108627000Y-120029845D01*
X108627000Y-121373000D01*
X109827232Y-121373000D01*
X109971285Y-121140258D01*
X109902096Y-120857255D01*
X109852109Y-120750000D01*
X115761928Y-120750000D01*
X115761928Y-122250000D01*
X115778992Y-122423254D01*
X115829528Y-122589850D01*
X115911595Y-122743386D01*
X116022038Y-122877962D01*
X116156614Y-122988405D01*
X116310150Y-123070472D01*
X116476746Y-123121008D01*
X116650000Y-123138072D01*
X117850000Y-123138072D01*
X118023254Y-123121008D01*
X118189850Y-123070472D01*
X118343386Y-122988405D01*
X118477962Y-122877962D01*
X118588405Y-122743386D01*
X118642777Y-122641663D01*
X118694866Y-122705134D01*
X118920987Y-122890706D01*
X119178967Y-123028599D01*
X119458890Y-123113513D01*
X119750000Y-123142185D01*
X120041111Y-123113513D01*
X120321034Y-123028599D01*
X120579014Y-122890706D01*
X120805134Y-122705134D01*
X120990706Y-122479014D01*
X121128599Y-122221033D01*
X121213513Y-121941110D01*
X121235000Y-121722949D01*
X121235000Y-121277050D01*
X121213513Y-121058889D01*
X121128599Y-120778966D01*
X121113117Y-120750000D01*
X127011928Y-120750000D01*
X127011928Y-122250000D01*
X127028992Y-122423254D01*
X127079528Y-122589850D01*
X127161595Y-122743386D01*
X127272038Y-122877962D01*
X127406614Y-122988405D01*
X127560150Y-123070472D01*
X127726746Y-123121008D01*
X127900000Y-123138072D01*
X129100000Y-123138072D01*
X129273254Y-123121008D01*
X129439850Y-123070472D01*
X129593386Y-122988405D01*
X129727962Y-122877962D01*
X129838405Y-122743386D01*
X129892777Y-122641663D01*
X129944866Y-122705134D01*
X130170987Y-122890706D01*
X130428967Y-123028599D01*
X130708890Y-123113513D01*
X131000000Y-123142185D01*
X131291111Y-123113513D01*
X131571034Y-123028599D01*
X131829014Y-122890706D01*
X132055134Y-122705134D01*
X132240706Y-122479014D01*
X132378599Y-122221033D01*
X132463513Y-121941110D01*
X132485000Y-121722949D01*
X132485000Y-121277050D01*
X132463513Y-121058889D01*
X132378599Y-120778966D01*
X132363117Y-120750000D01*
X138511928Y-120750000D01*
X138511928Y-122250000D01*
X138528992Y-122423254D01*
X138579528Y-122589850D01*
X138661595Y-122743386D01*
X138772038Y-122877962D01*
X138906614Y-122988405D01*
X139060150Y-123070472D01*
X139226746Y-123121008D01*
X139400000Y-123138072D01*
X140600000Y-123138072D01*
X140773254Y-123121008D01*
X140939850Y-123070472D01*
X141093386Y-122988405D01*
X141227962Y-122877962D01*
X141338405Y-122743386D01*
X141392777Y-122641663D01*
X141444866Y-122705134D01*
X141670987Y-122890706D01*
X141928967Y-123028599D01*
X142208890Y-123113513D01*
X142500000Y-123142185D01*
X142791111Y-123113513D01*
X143071034Y-123028599D01*
X143329014Y-122890706D01*
X143555134Y-122705134D01*
X143740706Y-122479014D01*
X143878599Y-122221033D01*
X143963513Y-121941110D01*
X143985000Y-121722949D01*
X143985000Y-121277050D01*
X143963513Y-121058889D01*
X143878599Y-120778966D01*
X143863117Y-120750000D01*
X150511928Y-120750000D01*
X150511928Y-122250000D01*
X150528992Y-122423254D01*
X150579528Y-122589850D01*
X150661595Y-122743386D01*
X150772038Y-122877962D01*
X150906614Y-122988405D01*
X151060150Y-123070472D01*
X151226746Y-123121008D01*
X151400000Y-123138072D01*
X152600000Y-123138072D01*
X152773254Y-123121008D01*
X152939850Y-123070472D01*
X153093386Y-122988405D01*
X153227962Y-122877962D01*
X153338405Y-122743386D01*
X153392777Y-122641663D01*
X153444866Y-122705134D01*
X153670987Y-122890706D01*
X153928967Y-123028599D01*
X154208890Y-123113513D01*
X154500000Y-123142185D01*
X154791111Y-123113513D01*
X155071034Y-123028599D01*
X155329014Y-122890706D01*
X155555134Y-122705134D01*
X155740706Y-122479014D01*
X155878599Y-122221033D01*
X155963513Y-121941110D01*
X155985000Y-121722949D01*
X155985000Y-121277050D01*
X155963513Y-121058889D01*
X155878599Y-120778966D01*
X155740706Y-120520986D01*
X155555134Y-120294866D01*
X155329013Y-120109294D01*
X155071033Y-119971401D01*
X154791110Y-119886487D01*
X154500000Y-119857815D01*
X154208889Y-119886487D01*
X153928966Y-119971401D01*
X153670986Y-120109294D01*
X153444866Y-120294866D01*
X153392777Y-120358337D01*
X153338405Y-120256614D01*
X153227962Y-120122038D01*
X153093386Y-120011595D01*
X152939850Y-119929528D01*
X152773254Y-119878992D01*
X152600000Y-119861928D01*
X151400000Y-119861928D01*
X151226746Y-119878992D01*
X151060150Y-119929528D01*
X150906614Y-120011595D01*
X150772038Y-120122038D01*
X150661595Y-120256614D01*
X150579528Y-120410150D01*
X150528992Y-120576746D01*
X150511928Y-120750000D01*
X143863117Y-120750000D01*
X143740706Y-120520986D01*
X143555134Y-120294866D01*
X143329013Y-120109294D01*
X143071033Y-119971401D01*
X142791110Y-119886487D01*
X142500000Y-119857815D01*
X142208889Y-119886487D01*
X141928966Y-119971401D01*
X141670986Y-120109294D01*
X141444866Y-120294866D01*
X141392777Y-120358337D01*
X141338405Y-120256614D01*
X141227962Y-120122038D01*
X141093386Y-120011595D01*
X140939850Y-119929528D01*
X140773254Y-119878992D01*
X140600000Y-119861928D01*
X139400000Y-119861928D01*
X139226746Y-119878992D01*
X139060150Y-119929528D01*
X138906614Y-120011595D01*
X138772038Y-120122038D01*
X138661595Y-120256614D01*
X138579528Y-120410150D01*
X138528992Y-120576746D01*
X138511928Y-120750000D01*
X132363117Y-120750000D01*
X132240706Y-120520986D01*
X132055134Y-120294866D01*
X131829013Y-120109294D01*
X131571033Y-119971401D01*
X131291110Y-119886487D01*
X131000000Y-119857815D01*
X130708889Y-119886487D01*
X130428966Y-119971401D01*
X130170986Y-120109294D01*
X129944866Y-120294866D01*
X129892777Y-120358337D01*
X129838405Y-120256614D01*
X129727962Y-120122038D01*
X129593386Y-120011595D01*
X129439850Y-119929528D01*
X129273254Y-119878992D01*
X129100000Y-119861928D01*
X127900000Y-119861928D01*
X127726746Y-119878992D01*
X127560150Y-119929528D01*
X127406614Y-120011595D01*
X127272038Y-120122038D01*
X127161595Y-120256614D01*
X127079528Y-120410150D01*
X127028992Y-120576746D01*
X127011928Y-120750000D01*
X121113117Y-120750000D01*
X120990706Y-120520986D01*
X120805134Y-120294866D01*
X120579013Y-120109294D01*
X120321033Y-119971401D01*
X120041110Y-119886487D01*
X119750000Y-119857815D01*
X119458889Y-119886487D01*
X119178966Y-119971401D01*
X118920986Y-120109294D01*
X118694866Y-120294866D01*
X118642777Y-120358337D01*
X118588405Y-120256614D01*
X118477962Y-120122038D01*
X118343386Y-120011595D01*
X118189850Y-119929528D01*
X118023254Y-119878992D01*
X117850000Y-119861928D01*
X116650000Y-119861928D01*
X116476746Y-119878992D01*
X116310150Y-119929528D01*
X116156614Y-120011595D01*
X116022038Y-120122038D01*
X115911595Y-120256614D01*
X115829528Y-120410150D01*
X115778992Y-120576746D01*
X115761928Y-120750000D01*
X109852109Y-120750000D01*
X109779025Y-120593188D01*
X109606802Y-120358205D01*
X109392046Y-120161336D01*
X109143009Y-120010146D01*
X108869261Y-119910446D01*
X108856890Y-119908524D01*
X108627000Y-120029845D01*
X108373000Y-120029845D01*
X108143110Y-119908524D01*
X108130739Y-119910446D01*
X107856991Y-120010146D01*
X107607954Y-120161336D01*
X107393198Y-120358205D01*
X107392914Y-120358593D01*
X107338405Y-120256614D01*
X107227962Y-120122038D01*
X107093386Y-120011595D01*
X106939850Y-119929528D01*
X106773254Y-119878992D01*
X106600000Y-119861928D01*
X105400000Y-119861928D01*
X105226746Y-119878992D01*
X105060150Y-119929528D01*
X104906614Y-120011595D01*
X104772038Y-120122038D01*
X104661595Y-120256614D01*
X104579528Y-120410150D01*
X104528992Y-120576746D01*
X104511928Y-120750000D01*
X94111581Y-120750000D01*
X91346580Y-117985000D01*
X91396260Y-117985000D01*
X91683158Y-117927932D01*
X91953411Y-117815990D01*
X92196632Y-117653475D01*
X92321710Y-117528397D01*
X92901208Y-117528397D01*
X92978843Y-117777472D01*
X93242883Y-117903371D01*
X93526411Y-117975339D01*
X93818531Y-117990611D01*
X94108019Y-117948599D01*
X94383747Y-117850919D01*
X94521157Y-117777472D01*
X94598792Y-117528397D01*
X93750000Y-116679605D01*
X92901208Y-117528397D01*
X92321710Y-117528397D01*
X92403475Y-117446632D01*
X92512416Y-117283590D01*
X92721603Y-117348792D01*
X93570395Y-116500000D01*
X93929605Y-116500000D01*
X94778397Y-117348792D01*
X94987584Y-117283590D01*
X95096525Y-117446632D01*
X95303368Y-117653475D01*
X95546589Y-117815990D01*
X95816842Y-117927932D01*
X96103740Y-117985000D01*
X96396260Y-117985000D01*
X96683158Y-117927932D01*
X96953411Y-117815990D01*
X97196632Y-117653475D01*
X97403475Y-117446632D01*
X97565990Y-117203411D01*
X97677932Y-116933158D01*
X97735000Y-116646260D01*
X97735000Y-116353740D01*
X97677932Y-116066842D01*
X97565990Y-115796589D01*
X97403475Y-115553368D01*
X97196632Y-115346525D01*
X96953411Y-115184010D01*
X96683158Y-115072068D01*
X96396260Y-115015000D01*
X96103740Y-115015000D01*
X95816842Y-115072068D01*
X95546589Y-115184010D01*
X95303368Y-115346525D01*
X95096525Y-115553368D01*
X94987584Y-115716410D01*
X94778397Y-115651208D01*
X93929605Y-116500000D01*
X93570395Y-116500000D01*
X92721603Y-115651208D01*
X92512416Y-115716410D01*
X92403475Y-115553368D01*
X92321710Y-115471603D01*
X92901208Y-115471603D01*
X93750000Y-116320395D01*
X94598792Y-115471603D01*
X94521157Y-115222528D01*
X94257117Y-115096629D01*
X93973589Y-115024661D01*
X93681469Y-115009389D01*
X93391981Y-115051401D01*
X93116253Y-115149081D01*
X92978843Y-115222528D01*
X92901208Y-115471603D01*
X92321710Y-115471603D01*
X92196632Y-115346525D01*
X91953411Y-115184010D01*
X91683158Y-115072068D01*
X91396260Y-115015000D01*
X91103740Y-115015000D01*
X90834999Y-115068456D01*
X90834999Y-112883466D01*
X90839280Y-112839997D01*
X90834999Y-112796528D01*
X90834999Y-112796520D01*
X90822194Y-112666507D01*
X90771588Y-112499684D01*
X90767857Y-112492702D01*
X105186903Y-112492702D01*
X105258486Y-112736671D01*
X105513996Y-112857571D01*
X105788184Y-112926300D01*
X106070512Y-112940217D01*
X106350130Y-112898787D01*
X106616292Y-112803603D01*
X106741514Y-112736671D01*
X106813097Y-112492702D01*
X106000000Y-111679605D01*
X105186903Y-112492702D01*
X90767857Y-112492702D01*
X90689410Y-112345938D01*
X90662458Y-112313097D01*
X90606531Y-112244950D01*
X90606529Y-112244948D01*
X90578816Y-112211180D01*
X90545049Y-112183469D01*
X89932092Y-111570512D01*
X104559783Y-111570512D01*
X104601213Y-111850130D01*
X104696397Y-112116292D01*
X104763329Y-112241514D01*
X105007298Y-112313097D01*
X105820395Y-111500000D01*
X106179605Y-111500000D01*
X106992702Y-112313097D01*
X107236671Y-112241514D01*
X107357571Y-111986004D01*
X107426300Y-111711816D01*
X107440217Y-111429488D01*
X107398787Y-111149870D01*
X107303603Y-110883708D01*
X107236671Y-110758486D01*
X107037340Y-110700000D01*
X108061928Y-110700000D01*
X108061928Y-112300000D01*
X108074188Y-112424482D01*
X108110498Y-112544180D01*
X108169463Y-112654494D01*
X108248815Y-112751185D01*
X108345506Y-112830537D01*
X108455820Y-112889502D01*
X108575518Y-112925812D01*
X108700000Y-112938072D01*
X110300000Y-112938072D01*
X110424482Y-112925812D01*
X110544180Y-112889502D01*
X110654494Y-112830537D01*
X110751185Y-112751185D01*
X110830537Y-112654494D01*
X110889502Y-112544180D01*
X110925812Y-112424482D01*
X110938072Y-112300000D01*
X110938072Y-110700000D01*
X110925812Y-110575518D01*
X110889502Y-110455820D01*
X110830537Y-110345506D01*
X110751185Y-110248815D01*
X110654494Y-110169463D01*
X110544180Y-110110498D01*
X110424482Y-110074188D01*
X110300000Y-110061928D01*
X108700000Y-110061928D01*
X108575518Y-110074188D01*
X108455820Y-110110498D01*
X108345506Y-110169463D01*
X108248815Y-110248815D01*
X108169463Y-110345506D01*
X108110498Y-110455820D01*
X108074188Y-110575518D01*
X108061928Y-110700000D01*
X107037340Y-110700000D01*
X106992702Y-110686903D01*
X106179605Y-111500000D01*
X105820395Y-111500000D01*
X105007298Y-110686903D01*
X104763329Y-110758486D01*
X104642429Y-111013996D01*
X104573700Y-111288184D01*
X104559783Y-111570512D01*
X89932092Y-111570512D01*
X88868878Y-110507298D01*
X105186903Y-110507298D01*
X106000000Y-111320395D01*
X106813097Y-110507298D01*
X106741514Y-110263329D01*
X106486004Y-110142429D01*
X106211816Y-110073700D01*
X105929488Y-110059783D01*
X105649870Y-110101213D01*
X105383708Y-110196397D01*
X105258486Y-110263329D01*
X105186903Y-110507298D01*
X88868878Y-110507298D01*
X86135001Y-107773421D01*
X86135001Y-102170444D01*
X86241361Y-102191600D01*
X86445239Y-102191600D01*
X86645198Y-102151826D01*
X86833556Y-102073805D01*
X87003074Y-101960537D01*
X87147237Y-101816374D01*
X87260505Y-101646856D01*
X87338526Y-101458498D01*
X87378300Y-101258539D01*
X87378300Y-101054661D01*
X87338526Y-100854702D01*
X87260505Y-100666344D01*
X87147237Y-100496826D01*
X87103300Y-100452889D01*
X87103300Y-84268623D01*
X87106976Y-84231300D01*
X87103300Y-84193977D01*
X87103300Y-84193967D01*
X87092303Y-84082314D01*
X87048846Y-83939053D01*
X86978274Y-83807024D01*
X86883301Y-83691299D01*
X86854303Y-83667501D01*
X80177491Y-76990690D01*
X80315990Y-76783411D01*
X80331110Y-76746909D01*
X89048201Y-85464001D01*
X89048200Y-106270867D01*
X89044523Y-106308200D01*
X89059197Y-106457186D01*
X89102654Y-106600447D01*
X89173226Y-106732476D01*
X89268199Y-106848201D01*
X89383924Y-106943174D01*
X89515953Y-107013746D01*
X89659214Y-107057203D01*
X89808200Y-107071877D01*
X89845533Y-107068200D01*
X93742589Y-107068200D01*
X93786526Y-107112137D01*
X93956044Y-107225405D01*
X94144402Y-107303426D01*
X94344361Y-107343200D01*
X94548239Y-107343200D01*
X94748198Y-107303426D01*
X94936556Y-107225405D01*
X95106074Y-107112137D01*
X95250237Y-106967974D01*
X95363505Y-106798456D01*
X95441526Y-106610098D01*
X95481300Y-106410139D01*
X95481300Y-106206261D01*
X95441526Y-106006302D01*
X95363505Y-105817944D01*
X95250237Y-105648426D01*
X95106074Y-105504263D01*
X94936556Y-105390995D01*
X94748198Y-105312974D01*
X94548239Y-105273200D01*
X94344361Y-105273200D01*
X94144402Y-105312974D01*
X93956044Y-105390995D01*
X93786526Y-105504263D01*
X93742589Y-105548200D01*
X90568200Y-105548200D01*
X90568200Y-92407911D01*
X101065000Y-92407911D01*
X101065000Y-92592089D01*
X101100932Y-92772729D01*
X101171414Y-92942889D01*
X101240001Y-93045537D01*
X101240000Y-97954464D01*
X101171414Y-98057111D01*
X101100932Y-98227271D01*
X101065000Y-98407911D01*
X101065000Y-98592089D01*
X101100932Y-98772729D01*
X101171414Y-98942889D01*
X101273738Y-99096028D01*
X101403972Y-99226262D01*
X101557111Y-99328586D01*
X101727271Y-99399068D01*
X101907911Y-99435000D01*
X102092089Y-99435000D01*
X102272729Y-99399068D01*
X102442889Y-99328586D01*
X102596028Y-99226262D01*
X102726262Y-99096028D01*
X102828586Y-98942889D01*
X102899068Y-98772729D01*
X102935000Y-98592089D01*
X102935000Y-98407911D01*
X102899068Y-98227271D01*
X102828586Y-98057111D01*
X102760000Y-97954465D01*
X102760000Y-96405578D01*
X102907911Y-96435000D01*
X103092089Y-96435000D01*
X103240000Y-96405578D01*
X103240000Y-99954464D01*
X103171414Y-100057111D01*
X103100932Y-100227271D01*
X103065000Y-100407911D01*
X103065000Y-100592089D01*
X103100932Y-100772729D01*
X103171414Y-100942889D01*
X103273738Y-101096028D01*
X103403972Y-101226262D01*
X103557111Y-101328586D01*
X103727271Y-101399068D01*
X103907911Y-101435000D01*
X104092089Y-101435000D01*
X104272729Y-101399068D01*
X104442889Y-101328586D01*
X104500000Y-101290426D01*
X104557111Y-101328586D01*
X104727271Y-101399068D01*
X104907911Y-101435000D01*
X105092089Y-101435000D01*
X105272729Y-101399068D01*
X105442889Y-101328586D01*
X105500000Y-101290426D01*
X105557111Y-101328586D01*
X105727271Y-101399068D01*
X105907911Y-101435000D01*
X106092089Y-101435000D01*
X106272729Y-101399068D01*
X106442889Y-101328586D01*
X106500000Y-101290426D01*
X106557111Y-101328586D01*
X106727271Y-101399068D01*
X106907911Y-101435000D01*
X107092089Y-101435000D01*
X107272729Y-101399068D01*
X107442889Y-101328586D01*
X107500000Y-101290426D01*
X107557111Y-101328586D01*
X107727271Y-101399068D01*
X107907911Y-101435000D01*
X108092089Y-101435000D01*
X108272729Y-101399068D01*
X108442889Y-101328586D01*
X108596028Y-101226262D01*
X108726262Y-101096028D01*
X108828586Y-100942889D01*
X108899068Y-100772729D01*
X108935000Y-100592089D01*
X108935000Y-100407911D01*
X108899068Y-100227271D01*
X108828586Y-100057111D01*
X108760000Y-99954465D01*
X108760000Y-92307911D01*
X131865000Y-92307911D01*
X131865000Y-92492089D01*
X131900932Y-92672729D01*
X131971414Y-92842889D01*
X132073738Y-92996028D01*
X132203972Y-93126262D01*
X132357111Y-93228586D01*
X132527271Y-93299068D01*
X132707911Y-93335000D01*
X132892089Y-93335000D01*
X133072729Y-93299068D01*
X133242889Y-93228586D01*
X133396028Y-93126262D01*
X133526262Y-92996028D01*
X133628586Y-92842889D01*
X133699068Y-92672729D01*
X133735000Y-92492089D01*
X133735000Y-92307911D01*
X133699068Y-92127271D01*
X133628586Y-91957111D01*
X133526262Y-91803972D01*
X133396028Y-91673738D01*
X133242889Y-91571414D01*
X133072729Y-91500932D01*
X132892089Y-91465000D01*
X132707911Y-91465000D01*
X132527271Y-91500932D01*
X132357111Y-91571414D01*
X132203972Y-91673738D01*
X132073738Y-91803972D01*
X131971414Y-91957111D01*
X131900932Y-92127271D01*
X131865000Y-92307911D01*
X108760000Y-92307911D01*
X108760000Y-89907911D01*
X131865000Y-89907911D01*
X131865000Y-90092089D01*
X131900932Y-90272729D01*
X131971414Y-90442889D01*
X132073738Y-90596028D01*
X132203972Y-90726262D01*
X132357111Y-90828586D01*
X132527271Y-90899068D01*
X132707911Y-90935000D01*
X132892089Y-90935000D01*
X133072729Y-90899068D01*
X133242889Y-90828586D01*
X133396028Y-90726262D01*
X133526262Y-90596028D01*
X133628586Y-90442889D01*
X133699068Y-90272729D01*
X133735000Y-90092089D01*
X133735000Y-89907911D01*
X133699068Y-89727271D01*
X133628586Y-89557111D01*
X133526262Y-89403972D01*
X133396028Y-89273738D01*
X133242889Y-89171414D01*
X133072729Y-89100932D01*
X132892089Y-89065000D01*
X132707911Y-89065000D01*
X132527271Y-89100932D01*
X132357111Y-89171414D01*
X132203972Y-89273738D01*
X132073738Y-89403972D01*
X131971414Y-89557111D01*
X131900932Y-89727271D01*
X131865000Y-89907911D01*
X108760000Y-89907911D01*
X108760000Y-86545535D01*
X108828586Y-86442889D01*
X108899068Y-86272729D01*
X108935000Y-86092089D01*
X108935000Y-85907911D01*
X108899068Y-85727271D01*
X108828586Y-85557111D01*
X108726262Y-85403972D01*
X108596028Y-85273738D01*
X108442889Y-85171414D01*
X108272729Y-85100932D01*
X108092089Y-85065000D01*
X107907911Y-85065000D01*
X107727271Y-85100932D01*
X107557111Y-85171414D01*
X107403972Y-85273738D01*
X107273738Y-85403972D01*
X107171414Y-85557111D01*
X107100932Y-85727271D01*
X107065000Y-85907911D01*
X107065000Y-86092089D01*
X107100932Y-86272729D01*
X107171414Y-86442889D01*
X107240001Y-86545537D01*
X107240001Y-86594422D01*
X107092089Y-86565000D01*
X106907911Y-86565000D01*
X106727271Y-86600932D01*
X106557111Y-86671414D01*
X106403972Y-86773738D01*
X106273738Y-86903972D01*
X106171414Y-87057111D01*
X106100932Y-87227271D01*
X106065000Y-87407911D01*
X106065000Y-87565000D01*
X105907911Y-87565000D01*
X105727271Y-87600932D01*
X105557111Y-87671414D01*
X105403972Y-87773738D01*
X105273738Y-87903972D01*
X105171414Y-88057111D01*
X105100932Y-88227271D01*
X105065000Y-88407911D01*
X105065000Y-88565000D01*
X104907911Y-88565000D01*
X104727271Y-88600932D01*
X104557111Y-88671414D01*
X104403972Y-88773738D01*
X104273738Y-88903972D01*
X104171414Y-89057111D01*
X104100932Y-89227271D01*
X104065000Y-89407911D01*
X104065000Y-89592089D01*
X104100932Y-89772729D01*
X104171414Y-89942889D01*
X104240000Y-90045535D01*
X104240000Y-90594422D01*
X104092089Y-90565000D01*
X103907911Y-90565000D01*
X103727271Y-90600932D01*
X103557111Y-90671414D01*
X103403972Y-90773738D01*
X103273738Y-90903972D01*
X103171414Y-91057111D01*
X103100932Y-91227271D01*
X103065000Y-91407911D01*
X103065000Y-91592089D01*
X103100932Y-91772729D01*
X103171414Y-91942889D01*
X103240001Y-92045537D01*
X103240001Y-93094422D01*
X103092089Y-93065000D01*
X102907911Y-93065000D01*
X102760000Y-93094422D01*
X102760000Y-93045535D01*
X102828586Y-92942889D01*
X102899068Y-92772729D01*
X102935000Y-92592089D01*
X102935000Y-92407911D01*
X102899068Y-92227271D01*
X102828586Y-92057111D01*
X102726262Y-91903972D01*
X102596028Y-91773738D01*
X102442889Y-91671414D01*
X102272729Y-91600932D01*
X102092089Y-91565000D01*
X101907911Y-91565000D01*
X101727271Y-91600932D01*
X101557111Y-91671414D01*
X101403972Y-91773738D01*
X101273738Y-91903972D01*
X101171414Y-92057111D01*
X101100932Y-92227271D01*
X101065000Y-92407911D01*
X90568200Y-92407911D01*
X90568200Y-85186520D01*
X90571876Y-85149197D01*
X90568200Y-85111874D01*
X90568200Y-85111865D01*
X90557203Y-85000212D01*
X90513746Y-84856951D01*
X90480685Y-84795099D01*
X90443174Y-84724921D01*
X90429215Y-84707911D01*
X129465000Y-84707911D01*
X129465000Y-84892089D01*
X129500932Y-85072729D01*
X129571414Y-85242889D01*
X129673738Y-85396028D01*
X129803972Y-85526262D01*
X129957111Y-85628586D01*
X130127271Y-85699068D01*
X130307911Y-85735000D01*
X130492089Y-85735000D01*
X130672729Y-85699068D01*
X130800000Y-85646351D01*
X130927271Y-85699068D01*
X131107911Y-85735000D01*
X131292089Y-85735000D01*
X131472729Y-85699068D01*
X131642889Y-85628586D01*
X131796028Y-85526262D01*
X131926262Y-85396028D01*
X132028586Y-85242889D01*
X132099068Y-85072729D01*
X132135000Y-84892089D01*
X132135000Y-84707911D01*
X132099068Y-84527271D01*
X132028586Y-84357111D01*
X131926262Y-84203972D01*
X131796028Y-84073738D01*
X131642889Y-83971414D01*
X131472729Y-83900932D01*
X131292089Y-83865000D01*
X131107911Y-83865000D01*
X130927271Y-83900932D01*
X130800000Y-83953649D01*
X130672729Y-83900932D01*
X130492089Y-83865000D01*
X130307911Y-83865000D01*
X130127271Y-83900932D01*
X129957111Y-83971414D01*
X129803972Y-84073738D01*
X129673738Y-84203972D01*
X129571414Y-84357111D01*
X129500932Y-84527271D01*
X129465000Y-84707911D01*
X90429215Y-84707911D01*
X90371999Y-84638195D01*
X90348201Y-84609197D01*
X90319203Y-84585399D01*
X80180295Y-74446492D01*
X80315990Y-74243411D01*
X80427932Y-73973158D01*
X80485000Y-73686260D01*
X80485000Y-73393740D01*
X80427932Y-73106842D01*
X80315990Y-72836589D01*
X80153475Y-72593368D01*
X80021620Y-72461513D01*
X80094180Y-72439502D01*
X80204494Y-72380537D01*
X80301185Y-72301185D01*
X80380537Y-72204494D01*
X80439502Y-72094180D01*
X80475812Y-71974482D01*
X80488072Y-71850000D01*
X80488072Y-70150000D01*
X80475812Y-70025518D01*
X80439502Y-69905820D01*
X80380537Y-69795506D01*
X80301185Y-69698815D01*
X80204494Y-69619463D01*
X80094180Y-69560498D01*
X79974482Y-69524188D01*
X79850000Y-69511928D01*
X78150000Y-69511928D01*
X78025518Y-69524188D01*
X77905820Y-69560498D01*
X77795506Y-69619463D01*
X77698815Y-69698815D01*
X77619463Y-69795506D01*
X77560498Y-69905820D01*
X77524188Y-70025518D01*
X77511928Y-70150000D01*
X70660000Y-70150000D01*
X70660000Y-66907911D01*
X83865000Y-66907911D01*
X83865000Y-67092089D01*
X83900932Y-67272729D01*
X83971414Y-67442889D01*
X84073738Y-67596028D01*
X84203972Y-67726262D01*
X84357111Y-67828586D01*
X84527271Y-67899068D01*
X84648351Y-67923153D01*
X85476847Y-68751649D01*
X85500932Y-68872729D01*
X85571414Y-69042889D01*
X85673738Y-69196028D01*
X85803972Y-69326262D01*
X85957111Y-69428586D01*
X86127271Y-69499068D01*
X86307911Y-69535000D01*
X86492089Y-69535000D01*
X86672729Y-69499068D01*
X86842889Y-69428586D01*
X86996028Y-69326262D01*
X87126262Y-69196028D01*
X87228586Y-69042889D01*
X87291354Y-68891354D01*
X87442889Y-68828586D01*
X87596028Y-68726262D01*
X87726262Y-68596028D01*
X87828586Y-68442889D01*
X87899068Y-68272729D01*
X87935000Y-68092089D01*
X87935000Y-67907911D01*
X87899068Y-67727271D01*
X87828586Y-67557111D01*
X87726262Y-67403972D01*
X87596028Y-67273738D01*
X87442889Y-67171414D01*
X87272729Y-67100932D01*
X87151649Y-67076847D01*
X86491366Y-66416564D01*
X86467281Y-66295484D01*
X86396799Y-66125324D01*
X86294475Y-65972185D01*
X86164241Y-65841951D01*
X86011102Y-65739627D01*
X85840942Y-65669145D01*
X85660302Y-65633213D01*
X85476124Y-65633213D01*
X85295484Y-65669145D01*
X85125324Y-65739627D01*
X84972185Y-65841951D01*
X84841951Y-65972185D01*
X84779934Y-66065000D01*
X84707911Y-66065000D01*
X84527271Y-66100932D01*
X84357111Y-66171414D01*
X84203972Y-66273738D01*
X84073738Y-66403972D01*
X83971414Y-66557111D01*
X83900932Y-66727271D01*
X83865000Y-66907911D01*
X70660000Y-66907911D01*
X70660000Y-63057000D01*
X79395000Y-63057000D01*
X79395000Y-63607000D01*
X79440624Y-63816233D01*
X79526191Y-64012545D01*
X79648413Y-64188391D01*
X79802592Y-64337014D01*
X79982803Y-64452702D01*
X80185999Y-64524408D01*
X80353000Y-64397502D01*
X80353000Y-63057000D01*
X79395000Y-63057000D01*
X70660000Y-63057000D01*
X70660000Y-62253000D01*
X79395000Y-62253000D01*
X79395000Y-62803000D01*
X80353000Y-62803000D01*
X80353000Y-61462498D01*
X80607000Y-61462498D01*
X80607000Y-62803000D01*
X80627000Y-62803000D01*
X80627000Y-63057000D01*
X80607000Y-63057000D01*
X80607000Y-64397502D01*
X80774001Y-64524408D01*
X80977197Y-64452702D01*
X81157408Y-64337014D01*
X81311587Y-64188391D01*
X81433809Y-64012545D01*
X81519376Y-63816233D01*
X81565000Y-63607000D01*
X81565000Y-63319133D01*
X81637271Y-63349068D01*
X81817911Y-63385000D01*
X82002089Y-63385000D01*
X82182729Y-63349068D01*
X82352889Y-63278586D01*
X82506028Y-63176262D01*
X82636262Y-63046028D01*
X82738586Y-62892889D01*
X82809068Y-62722729D01*
X82845000Y-62542089D01*
X82845000Y-62357911D01*
X86755000Y-62357911D01*
X86755000Y-62542089D01*
X86790932Y-62722729D01*
X86861414Y-62892889D01*
X86963738Y-63046028D01*
X87093972Y-63176262D01*
X87247111Y-63278586D01*
X87417271Y-63349068D01*
X87597911Y-63385000D01*
X87782089Y-63385000D01*
X87962729Y-63349068D01*
X88035000Y-63319133D01*
X88035000Y-63607000D01*
X88080624Y-63816233D01*
X88166191Y-64012545D01*
X88288413Y-64188391D01*
X88442592Y-64337014D01*
X88622803Y-64452702D01*
X88825999Y-64524408D01*
X88993000Y-64397502D01*
X88993000Y-63057000D01*
X89247000Y-63057000D01*
X89247000Y-64397502D01*
X89414001Y-64524408D01*
X89617197Y-64452702D01*
X89797408Y-64337014D01*
X89859613Y-64277050D01*
X110015000Y-64277050D01*
X110015000Y-64722949D01*
X110036487Y-64941110D01*
X110121401Y-65221033D01*
X110259294Y-65479013D01*
X110444866Y-65705134D01*
X110670986Y-65890706D01*
X110928966Y-66028599D01*
X111208889Y-66113513D01*
X111500000Y-66142185D01*
X111791110Y-66113513D01*
X112071033Y-66028599D01*
X112329013Y-65890706D01*
X112555134Y-65705134D01*
X112607223Y-65641663D01*
X112661595Y-65743386D01*
X112772038Y-65877962D01*
X112906614Y-65988405D01*
X113060150Y-66070472D01*
X113226746Y-66121008D01*
X113400000Y-66138072D01*
X114600000Y-66138072D01*
X114773254Y-66121008D01*
X114939850Y-66070472D01*
X115093386Y-65988405D01*
X115227962Y-65877962D01*
X115338405Y-65743386D01*
X115420472Y-65589850D01*
X115471008Y-65423254D01*
X115488072Y-65250000D01*
X115488072Y-64277050D01*
X121515000Y-64277050D01*
X121515000Y-64722949D01*
X121536487Y-64941110D01*
X121621401Y-65221033D01*
X121759294Y-65479013D01*
X121944866Y-65705134D01*
X122170986Y-65890706D01*
X122428966Y-66028599D01*
X122708889Y-66113513D01*
X123000000Y-66142185D01*
X123291110Y-66113513D01*
X123571033Y-66028599D01*
X123829013Y-65890706D01*
X124055134Y-65705134D01*
X124107223Y-65641663D01*
X124161595Y-65743386D01*
X124272038Y-65877962D01*
X124406614Y-65988405D01*
X124560150Y-66070472D01*
X124726746Y-66121008D01*
X124900000Y-66138072D01*
X126100000Y-66138072D01*
X126273254Y-66121008D01*
X126439850Y-66070472D01*
X126593386Y-65988405D01*
X126727962Y-65877962D01*
X126838405Y-65743386D01*
X126920472Y-65589850D01*
X126971008Y-65423254D01*
X126988072Y-65250000D01*
X126988072Y-64277050D01*
X133515000Y-64277050D01*
X133515000Y-64722949D01*
X133536487Y-64941110D01*
X133621401Y-65221033D01*
X133759294Y-65479013D01*
X133944866Y-65705134D01*
X134170986Y-65890706D01*
X134428966Y-66028599D01*
X134708889Y-66113513D01*
X135000000Y-66142185D01*
X135291110Y-66113513D01*
X135571033Y-66028599D01*
X135829013Y-65890706D01*
X136055134Y-65705134D01*
X136107223Y-65641663D01*
X136161595Y-65743386D01*
X136272038Y-65877962D01*
X136406614Y-65988405D01*
X136560150Y-66070472D01*
X136726746Y-66121008D01*
X136900000Y-66138072D01*
X138100000Y-66138072D01*
X138273254Y-66121008D01*
X138439850Y-66070472D01*
X138593386Y-65988405D01*
X138727962Y-65877962D01*
X138838405Y-65743386D01*
X138920472Y-65589850D01*
X138971008Y-65423254D01*
X138988072Y-65250000D01*
X138988072Y-64277050D01*
X145515000Y-64277050D01*
X145515000Y-64722949D01*
X145536487Y-64941110D01*
X145621401Y-65221033D01*
X145759294Y-65479013D01*
X145944866Y-65705134D01*
X146170986Y-65890706D01*
X146428966Y-66028599D01*
X146708889Y-66113513D01*
X147000000Y-66142185D01*
X147291110Y-66113513D01*
X147571033Y-66028599D01*
X147829013Y-65890706D01*
X148055134Y-65705134D01*
X148107223Y-65641663D01*
X148161595Y-65743386D01*
X148272038Y-65877962D01*
X148406614Y-65988405D01*
X148560150Y-66070472D01*
X148726746Y-66121008D01*
X148900000Y-66138072D01*
X150100000Y-66138072D01*
X150273254Y-66121008D01*
X150439850Y-66070472D01*
X150593386Y-65988405D01*
X150727962Y-65877962D01*
X150838405Y-65743386D01*
X150920472Y-65589850D01*
X150971008Y-65423254D01*
X150988072Y-65250000D01*
X150988072Y-63750000D01*
X150971008Y-63576746D01*
X150920472Y-63410150D01*
X150838405Y-63256614D01*
X150727962Y-63122038D01*
X150593386Y-63011595D01*
X150439850Y-62929528D01*
X150273254Y-62878992D01*
X150100000Y-62861928D01*
X148900000Y-62861928D01*
X148726746Y-62878992D01*
X148560150Y-62929528D01*
X148406614Y-63011595D01*
X148272038Y-63122038D01*
X148161595Y-63256614D01*
X148107223Y-63358337D01*
X148055134Y-63294866D01*
X147829014Y-63109294D01*
X147571034Y-62971401D01*
X147291111Y-62886487D01*
X147000000Y-62857815D01*
X146708890Y-62886487D01*
X146428967Y-62971401D01*
X146170987Y-63109294D01*
X145944866Y-63294866D01*
X145759294Y-63520986D01*
X145621401Y-63778966D01*
X145536487Y-64058889D01*
X145515000Y-64277050D01*
X138988072Y-64277050D01*
X138988072Y-63750000D01*
X138971008Y-63576746D01*
X138920472Y-63410150D01*
X138838405Y-63256614D01*
X138727962Y-63122038D01*
X138593386Y-63011595D01*
X138439850Y-62929528D01*
X138273254Y-62878992D01*
X138100000Y-62861928D01*
X136900000Y-62861928D01*
X136726746Y-62878992D01*
X136560150Y-62929528D01*
X136406614Y-63011595D01*
X136272038Y-63122038D01*
X136161595Y-63256614D01*
X136107223Y-63358337D01*
X136055134Y-63294866D01*
X135829014Y-63109294D01*
X135571034Y-62971401D01*
X135291111Y-62886487D01*
X135000000Y-62857815D01*
X134708890Y-62886487D01*
X134428967Y-62971401D01*
X134170987Y-63109294D01*
X133944866Y-63294866D01*
X133759294Y-63520986D01*
X133621401Y-63778966D01*
X133536487Y-64058889D01*
X133515000Y-64277050D01*
X126988072Y-64277050D01*
X126988072Y-63750000D01*
X126971008Y-63576746D01*
X126920472Y-63410150D01*
X126838405Y-63256614D01*
X126727962Y-63122038D01*
X126593386Y-63011595D01*
X126439850Y-62929528D01*
X126273254Y-62878992D01*
X126100000Y-62861928D01*
X124900000Y-62861928D01*
X124726746Y-62878992D01*
X124560150Y-62929528D01*
X124406614Y-63011595D01*
X124272038Y-63122038D01*
X124161595Y-63256614D01*
X124107223Y-63358337D01*
X124055134Y-63294866D01*
X123829014Y-63109294D01*
X123571034Y-62971401D01*
X123291111Y-62886487D01*
X123000000Y-62857815D01*
X122708890Y-62886487D01*
X122428967Y-62971401D01*
X122170987Y-63109294D01*
X121944866Y-63294866D01*
X121759294Y-63520986D01*
X121621401Y-63778966D01*
X121536487Y-64058889D01*
X121515000Y-64277050D01*
X115488072Y-64277050D01*
X115488072Y-63750000D01*
X115471008Y-63576746D01*
X115420472Y-63410150D01*
X115338405Y-63256614D01*
X115227962Y-63122038D01*
X115093386Y-63011595D01*
X114939850Y-62929528D01*
X114773254Y-62878992D01*
X114600000Y-62861928D01*
X113400000Y-62861928D01*
X113226746Y-62878992D01*
X113060150Y-62929528D01*
X112906614Y-63011595D01*
X112772038Y-63122038D01*
X112661595Y-63256614D01*
X112607223Y-63358337D01*
X112555134Y-63294866D01*
X112329014Y-63109294D01*
X112071034Y-62971401D01*
X111791111Y-62886487D01*
X111500000Y-62857815D01*
X111208890Y-62886487D01*
X110928967Y-62971401D01*
X110670987Y-63109294D01*
X110444866Y-63294866D01*
X110259294Y-63520986D01*
X110121401Y-63778966D01*
X110036487Y-64058889D01*
X110015000Y-64277050D01*
X89859613Y-64277050D01*
X89951587Y-64188391D01*
X90073809Y-64012545D01*
X90159376Y-63816233D01*
X90205000Y-63607000D01*
X90205000Y-63057000D01*
X89247000Y-63057000D01*
X88993000Y-63057000D01*
X88973000Y-63057000D01*
X88973000Y-62803000D01*
X88993000Y-62803000D01*
X88993000Y-61462498D01*
X89247000Y-61462498D01*
X89247000Y-62803000D01*
X90205000Y-62803000D01*
X90205000Y-62253000D01*
X90159376Y-62043767D01*
X90073809Y-61847455D01*
X89951587Y-61671609D01*
X89797408Y-61522986D01*
X89617197Y-61407298D01*
X89414001Y-61335592D01*
X89247000Y-61462498D01*
X88993000Y-61462498D01*
X88825999Y-61335592D01*
X88622803Y-61407298D01*
X88442592Y-61522986D01*
X88288413Y-61671609D01*
X88262915Y-61708294D01*
X88132889Y-61621414D01*
X87962729Y-61550932D01*
X87782089Y-61515000D01*
X87597911Y-61515000D01*
X87417271Y-61550932D01*
X87247111Y-61621414D01*
X87093972Y-61723738D01*
X86963738Y-61853972D01*
X86861414Y-62007111D01*
X86790932Y-62177271D01*
X86755000Y-62357911D01*
X82845000Y-62357911D01*
X82809068Y-62177271D01*
X82738586Y-62007111D01*
X82636262Y-61853972D01*
X82506028Y-61723738D01*
X82352889Y-61621414D01*
X82182729Y-61550932D01*
X82002089Y-61515000D01*
X81817911Y-61515000D01*
X81637271Y-61550932D01*
X81467111Y-61621414D01*
X81337085Y-61708294D01*
X81311587Y-61671609D01*
X81157408Y-61522986D01*
X80977197Y-61407298D01*
X80774001Y-61335592D01*
X80607000Y-61462498D01*
X80353000Y-61462498D01*
X80185999Y-61335592D01*
X79982803Y-61407298D01*
X79802592Y-61522986D01*
X79648413Y-61671609D01*
X79526191Y-61847455D01*
X79440624Y-62043767D01*
X79395000Y-62253000D01*
X70660000Y-62253000D01*
X70660000Y-60032278D01*
X70684748Y-59779872D01*
X71765000Y-59779872D01*
X71765000Y-60220128D01*
X71850890Y-60651925D01*
X72019369Y-61058669D01*
X72263962Y-61424729D01*
X72575271Y-61736038D01*
X72941331Y-61980631D01*
X73348075Y-62149110D01*
X73779872Y-62235000D01*
X74220128Y-62235000D01*
X74651925Y-62149110D01*
X75058669Y-61980631D01*
X75424729Y-61736038D01*
X75736038Y-61424729D01*
X75980631Y-61058669D01*
X76007955Y-60992702D01*
X93686903Y-60992702D01*
X93758486Y-61236671D01*
X94013996Y-61357571D01*
X94288184Y-61426300D01*
X94570512Y-61440217D01*
X94850130Y-61398787D01*
X95116292Y-61303603D01*
X95241514Y-61236671D01*
X95313097Y-60992702D01*
X94500000Y-60179605D01*
X93686903Y-60992702D01*
X76007955Y-60992702D01*
X76149110Y-60651925D01*
X76235000Y-60220128D01*
X76235000Y-59779872D01*
X76149110Y-59348075D01*
X75980631Y-58941331D01*
X75944329Y-58887000D01*
X79395000Y-58887000D01*
X79395000Y-59287000D01*
X79440624Y-59496233D01*
X79526191Y-59692545D01*
X79648413Y-59868391D01*
X79802592Y-60017014D01*
X79982803Y-60132702D01*
X80185999Y-60204408D01*
X80353000Y-60077502D01*
X80353000Y-58887000D01*
X80607000Y-58887000D01*
X80607000Y-60077502D01*
X80774001Y-60204408D01*
X80977197Y-60132702D01*
X81157408Y-60017014D01*
X81311587Y-59868391D01*
X81433809Y-59692545D01*
X81519376Y-59496233D01*
X81565000Y-59287000D01*
X81565000Y-58887000D01*
X88035000Y-58887000D01*
X88035000Y-59287000D01*
X88080624Y-59496233D01*
X88166191Y-59692545D01*
X88288413Y-59868391D01*
X88442592Y-60017014D01*
X88622803Y-60132702D01*
X88825999Y-60204408D01*
X88993000Y-60077502D01*
X88993000Y-58887000D01*
X89247000Y-58887000D01*
X89247000Y-60077502D01*
X89414001Y-60204408D01*
X89617197Y-60132702D01*
X89714072Y-60070512D01*
X93059783Y-60070512D01*
X93101213Y-60350130D01*
X93196397Y-60616292D01*
X93263329Y-60741514D01*
X93507298Y-60813097D01*
X94320395Y-60000000D01*
X94679605Y-60000000D01*
X95492702Y-60813097D01*
X95561928Y-60792785D01*
X95561928Y-60800000D01*
X95574188Y-60924482D01*
X95610498Y-61044180D01*
X95669463Y-61154494D01*
X95748815Y-61251185D01*
X95845506Y-61330537D01*
X95955820Y-61389502D01*
X96075518Y-61425812D01*
X96200000Y-61438072D01*
X97800000Y-61438072D01*
X97924482Y-61425812D01*
X98044180Y-61389502D01*
X98154494Y-61330537D01*
X98251185Y-61251185D01*
X98330537Y-61154494D01*
X98389502Y-61044180D01*
X98425812Y-60924482D01*
X98438072Y-60800000D01*
X98438072Y-59779872D01*
X161765000Y-59779872D01*
X161765000Y-60220128D01*
X161850890Y-60651925D01*
X162019369Y-61058669D01*
X162263962Y-61424729D01*
X162575271Y-61736038D01*
X162941331Y-61980631D01*
X163348075Y-62149110D01*
X163779872Y-62235000D01*
X164220128Y-62235000D01*
X164651925Y-62149110D01*
X165058669Y-61980631D01*
X165424729Y-61736038D01*
X165736038Y-61424729D01*
X165980631Y-61058669D01*
X166149110Y-60651925D01*
X166235000Y-60220128D01*
X166235000Y-59779872D01*
X166149110Y-59348075D01*
X165980631Y-58941331D01*
X165736038Y-58575271D01*
X165424729Y-58263962D01*
X165058669Y-58019369D01*
X164651925Y-57850890D01*
X164220128Y-57765000D01*
X163779872Y-57765000D01*
X163348075Y-57850890D01*
X162941331Y-58019369D01*
X162575271Y-58263962D01*
X162263962Y-58575271D01*
X162019369Y-58941331D01*
X161850890Y-59348075D01*
X161765000Y-59779872D01*
X98438072Y-59779872D01*
X98438072Y-59200000D01*
X98425812Y-59075518D01*
X98389502Y-58955820D01*
X98330537Y-58845506D01*
X98251185Y-58748815D01*
X98154494Y-58669463D01*
X98044180Y-58610498D01*
X97924482Y-58574188D01*
X97800000Y-58561928D01*
X96200000Y-58561928D01*
X96075518Y-58574188D01*
X95955820Y-58610498D01*
X95845506Y-58669463D01*
X95748815Y-58748815D01*
X95669463Y-58845506D01*
X95610498Y-58955820D01*
X95574188Y-59075518D01*
X95561928Y-59200000D01*
X95561928Y-59207215D01*
X95492702Y-59186903D01*
X94679605Y-60000000D01*
X94320395Y-60000000D01*
X93507298Y-59186903D01*
X93263329Y-59258486D01*
X93142429Y-59513996D01*
X93073700Y-59788184D01*
X93059783Y-60070512D01*
X89714072Y-60070512D01*
X89797408Y-60017014D01*
X89951587Y-59868391D01*
X90073809Y-59692545D01*
X90159376Y-59496233D01*
X90205000Y-59287000D01*
X90205000Y-59007298D01*
X93686903Y-59007298D01*
X94500000Y-59820395D01*
X95313097Y-59007298D01*
X95241514Y-58763329D01*
X94986004Y-58642429D01*
X94711816Y-58573700D01*
X94429488Y-58559783D01*
X94149870Y-58601213D01*
X93883708Y-58696397D01*
X93758486Y-58763329D01*
X93686903Y-59007298D01*
X90205000Y-59007298D01*
X90205000Y-58887000D01*
X89247000Y-58887000D01*
X88993000Y-58887000D01*
X88035000Y-58887000D01*
X81565000Y-58887000D01*
X80607000Y-58887000D01*
X80353000Y-58887000D01*
X79395000Y-58887000D01*
X75944329Y-58887000D01*
X75736038Y-58575271D01*
X75424729Y-58263962D01*
X75378392Y-58233000D01*
X79395000Y-58233000D01*
X79395000Y-58633000D01*
X80353000Y-58633000D01*
X80353000Y-57442498D01*
X80607000Y-57442498D01*
X80607000Y-58633000D01*
X81565000Y-58633000D01*
X81565000Y-58233000D01*
X88035000Y-58233000D01*
X88035000Y-58633000D01*
X88993000Y-58633000D01*
X88993000Y-57442498D01*
X89247000Y-57442498D01*
X89247000Y-58633000D01*
X90205000Y-58633000D01*
X90205000Y-58233000D01*
X90159376Y-58023767D01*
X90073809Y-57827455D01*
X89951587Y-57651609D01*
X89797408Y-57502986D01*
X89617197Y-57387298D01*
X89414001Y-57315592D01*
X89247000Y-57442498D01*
X88993000Y-57442498D01*
X88825999Y-57315592D01*
X88622803Y-57387298D01*
X88442592Y-57502986D01*
X88288413Y-57651609D01*
X88166191Y-57827455D01*
X88080624Y-58023767D01*
X88035000Y-58233000D01*
X81565000Y-58233000D01*
X81519376Y-58023767D01*
X81433809Y-57827455D01*
X81311587Y-57651609D01*
X81157408Y-57502986D01*
X80977197Y-57387298D01*
X80774001Y-57315592D01*
X80607000Y-57442498D01*
X80353000Y-57442498D01*
X80185999Y-57315592D01*
X79982803Y-57387298D01*
X79802592Y-57502986D01*
X79648413Y-57651609D01*
X79526191Y-57827455D01*
X79440624Y-58023767D01*
X79395000Y-58233000D01*
X75378392Y-58233000D01*
X75058669Y-58019369D01*
X74651925Y-57850890D01*
X74220128Y-57765000D01*
X73779872Y-57765000D01*
X73348075Y-57850890D01*
X72941331Y-58019369D01*
X72575271Y-58263962D01*
X72263962Y-58575271D01*
X72019369Y-58941331D01*
X71850890Y-59348075D01*
X71765000Y-59779872D01*
X70684748Y-59779872D01*
X70726714Y-59351874D01*
X70914943Y-58728428D01*
X71220681Y-58153421D01*
X71632279Y-57648753D01*
X72134067Y-57233638D01*
X72706924Y-56923895D01*
X73329039Y-56731318D01*
X74007584Y-56660000D01*
X163967722Y-56660000D01*
X164648126Y-56726714D01*
G37*
%TD.AperFunction*%
%TD*%
D25*
X76620000Y-128540000D03*
X81700000Y-128540000D03*
X86780000Y-128540000D03*
X91860000Y-128540000D03*
X96940000Y-128540000D03*
X71540000Y-117220000D03*
X71540000Y-107060000D03*
X71540000Y-112140000D03*
X71540000Y-122300000D03*
X96800000Y-87500000D03*
X96800000Y-88600000D03*
X96800000Y-89600000D03*
X96800000Y-90600000D03*
X96800000Y-91600000D03*
X96800000Y-92600000D03*
D26*
X111190500Y-102937600D03*
D25*
X99500000Y-57000000D03*
X99500000Y-62080000D03*
X99500000Y-67160000D03*
X99500000Y-72240000D03*
X99500000Y-77320000D03*
X99500000Y-82400000D03*
X99500000Y-87480000D03*
X99500000Y-92560000D03*
X99500000Y-97640000D03*
X99500000Y-102720000D03*
X99500000Y-107800000D03*
X99500000Y-112880000D03*
X99500000Y-117960000D03*
X99500000Y-123040000D03*
X99500000Y-128120000D03*
X95900000Y-87500000D03*
X95900000Y-89600000D03*
X95900000Y-92600000D03*
X95900000Y-88600000D03*
X95900000Y-90600000D03*
X95900000Y-91600000D03*
X94100000Y-87500000D03*
X94100000Y-92600000D03*
X94100000Y-89600000D03*
X94100000Y-90600000D03*
X94100000Y-88600000D03*
X94100000Y-91600000D03*
X95000000Y-87500000D03*
X95000000Y-89600000D03*
X95000000Y-92600000D03*
X95000000Y-88600000D03*
X95000000Y-90600000D03*
X95000000Y-91600000D03*
X93200000Y-89600000D03*
X93200000Y-92600000D03*
X92300000Y-91600000D03*
X92300000Y-90600000D03*
X92300000Y-87500000D03*
X92300000Y-88600000D03*
X93200000Y-87500000D03*
X92300000Y-92600000D03*
X93200000Y-88600000D03*
X93200000Y-90600000D03*
X92300000Y-89600000D03*
X93200000Y-91600000D03*
X91400000Y-87500000D03*
X91400000Y-90600000D03*
X91400000Y-92600000D03*
X91400000Y-91600000D03*
X91400000Y-88600000D03*
X91400000Y-89600000D03*
X76080000Y-71080000D03*
X76080000Y-73620000D03*
X76080000Y-76160000D03*
X76080000Y-78700000D03*
X76080000Y-81240000D03*
X76080000Y-83780000D03*
X74080000Y-73620000D03*
X74080000Y-78700000D03*
X74080000Y-83780000D03*
X74080000Y-76160000D03*
X74080000Y-71080000D03*
X74080000Y-81240000D03*
X72080000Y-81240000D03*
X72080000Y-78700000D03*
X72080000Y-76160000D03*
X72080000Y-71080000D03*
X72080000Y-73620000D03*
X72080000Y-83780000D03*
X76080000Y-91620000D03*
X76080000Y-96700000D03*
X76080000Y-101780000D03*
X76080000Y-94160000D03*
X76080000Y-99240000D03*
X72080000Y-94160000D03*
X74080000Y-99240000D03*
X74080000Y-96700000D03*
X74080000Y-94160000D03*
X74080000Y-91620000D03*
X72080000Y-99240000D03*
X74080000Y-101780000D03*
X72080000Y-96700000D03*
X72080000Y-101780000D03*
X72080000Y-91620000D03*
X72080000Y-104280000D03*
X76080000Y-104280000D03*
X74080000Y-104280000D03*
X93000000Y-84500000D03*
X94500000Y-84500000D03*
X96000000Y-84500000D03*
X93000000Y-86000000D03*
X94500000Y-86000000D03*
X96000000Y-86000000D03*
X92000000Y-94000000D03*
X93500000Y-94000000D03*
X95000000Y-94000000D03*
X92500000Y-95500000D03*
X81500000Y-121500000D03*
X81500000Y-118500000D03*
X81500000Y-115000000D03*
X85000000Y-124500000D03*
X85000000Y-123000000D03*
X80500000Y-57000000D03*
X89000000Y-57000000D03*
X91500000Y-59000000D03*
X91500000Y-61000000D03*
X91500000Y-63000000D03*
X91500000Y-65000000D03*
X91500000Y-67500000D03*
X91500000Y-70000000D03*
X89500000Y-67500000D03*
X89500000Y-65000000D03*
X93750000Y-65000000D03*
X93750000Y-63000000D03*
X93750000Y-67500000D03*
X93750000Y-70000000D03*
X96000000Y-63000000D03*
X96000000Y-65000000D03*
X96000000Y-67500000D03*
X96000000Y-70000000D03*
X96500000Y-99750000D03*
X98250000Y-99750000D03*
X98265000Y-101485000D03*
X84500000Y-104500000D03*
X82000000Y-106500000D03*
X78500000Y-115000000D03*
X88000000Y-85500000D03*
X85600000Y-82200000D03*
X83000000Y-79600000D03*
X88000000Y-97000000D03*
X83000000Y-84000000D03*
X83000000Y-89000000D03*
X83000000Y-94000000D03*
X83000000Y-97000000D03*
X88000000Y-94000000D03*
X78000000Y-59000000D03*
X78000000Y-63000000D03*
X83000000Y-59000000D03*
X86000000Y-59000000D03*
X82000000Y-75000000D03*
X84000000Y-73000000D03*
X82000000Y-73000000D03*
X82000000Y-71000000D03*
X84000000Y-71000000D03*
X86000000Y-73000000D03*
X78500000Y-118500000D03*
X87500000Y-108500000D03*
X86000000Y-110000000D03*
X87500000Y-112000000D03*
X94500000Y-110500000D03*
X96000000Y-118500000D03*
X96000000Y-120500000D03*
X94000000Y-118500000D03*
X89000000Y-118000000D03*
X89000000Y-120000000D03*
X91000000Y-120000000D03*
X78500000Y-111500000D03*
X81500000Y-111500000D03*
X90000000Y-123000000D03*
X90000000Y-124500000D03*
X127500000Y-87250000D03*
X128770000Y-87250000D03*
X127500000Y-88520000D03*
X128770000Y-88520000D03*
X127500000Y-89790000D03*
X128770000Y-89790000D03*
X127500000Y-91060000D03*
X128770000Y-91060000D03*
X127500000Y-92330000D03*
X128770000Y-92330000D03*
X127500000Y-93600000D03*
X128770000Y-93600000D03*
X127500000Y-94870000D03*
X128770000Y-94870000D03*
X123000000Y-85900000D03*
X124270000Y-85900000D03*
X123000000Y-87170000D03*
X124270000Y-87170000D03*
X123000000Y-88440000D03*
X124270000Y-88440000D03*
X123000000Y-89710000D03*
X124270000Y-89710000D03*
X123000000Y-90980000D03*
X124270000Y-90980000D03*
X123000000Y-92250000D03*
X124270000Y-92250000D03*
X123000000Y-93520000D03*
X124270000Y-93520000D03*
X123000000Y-94790000D03*
X124270000Y-94790000D03*
X123000000Y-84630000D03*
X124270000Y-84630000D03*
X121730000Y-84630000D03*
X120460000Y-84630000D03*
X119400000Y-85000000D03*
D26*
X130600000Y-98000000D03*
X130600000Y-99000000D03*
X130600000Y-100000000D03*
X130600000Y-101000000D03*
X130600000Y-102000000D03*
X129400000Y-98000000D03*
X129400000Y-99000000D03*
X129400000Y-100000000D03*
X129400000Y-101000000D03*
X129400000Y-102000000D03*
X128200000Y-100000000D03*
X128200000Y-101000000D03*
X128200000Y-102000000D03*
X127000000Y-102000000D03*
X127000000Y-101000000D03*
X125800000Y-102000000D03*
D25*
X130400000Y-84800000D03*
X131200000Y-84800000D03*
X132800000Y-92400000D03*
X132800000Y-90000000D03*
D26*
X94446300Y-106308200D03*
X86343300Y-101156600D03*
D25*
X86400000Y-68600000D03*
X84800000Y-67000000D03*
X85568213Y-66568213D03*
X87000000Y-68000000D03*
X108000000Y-100500000D03*
X108000000Y-86000000D03*
X107000000Y-100500000D03*
X107000000Y-87500000D03*
X106000000Y-100500000D03*
X106000000Y-88500000D03*
X105000000Y-89500000D03*
X105000000Y-100500000D03*
X104000000Y-100500000D03*
X104000000Y-91500000D03*
X102000000Y-98500000D03*
X102000000Y-92500000D03*
X103000000Y-94000000D03*
X103000000Y-95500000D03*
D26*
X74000000Y-60000000D03*
X164000000Y-60000000D03*
X164000000Y-126000000D03*
X74000000Y-126000000D03*
X94500000Y-60000000D03*
X97000000Y-60000000D03*
X95000000Y-123000000D03*
X92500000Y-123000000D03*
X109500000Y-111500000D03*
X106000000Y-111500000D03*
X128500000Y-121500000D03*
X131000000Y-121500000D03*
X114000000Y-64500000D03*
X111500000Y-64500000D03*
X125500000Y-64500000D03*
X123000000Y-64500000D03*
X135000000Y-64500000D03*
X137500000Y-64500000D03*
X147000000Y-64500000D03*
X149500000Y-64500000D03*
X152000000Y-121500000D03*
X154500000Y-121500000D03*
X142500000Y-121500000D03*
X140000000Y-121500000D03*
X108500000Y-121500000D03*
X106000000Y-121500000D03*
X117250000Y-121500000D03*
X119750000Y-121500000D03*
X79000000Y-83700000D03*
X79000000Y-81160000D03*
X79000000Y-78620000D03*
X79000000Y-76080000D03*
X79000000Y-73540000D03*
X79000000Y-71000000D03*
D27*
X89120000Y-62930000D03*
X80480000Y-62930000D03*
D28*
X89120000Y-58760000D03*
X80480000Y-58760000D03*
D26*
X81910000Y-62450000D03*
X87690000Y-62450000D03*
X91250000Y-116500000D03*
X93750000Y-116500000D03*
X96250000Y-116500000D03*
X79000000Y-91500000D03*
X79000000Y-94040000D03*
X79000000Y-96580000D03*
X79000000Y-99120000D03*
X79000000Y-101660000D03*
X79000000Y-104200000D03*
M02*
